<svg xmlns="http://www.w3.org/2000/svg" xml:space="preserve" width="40mm" height="13mm" version="1.1" style="shape-rendering:geometricPrecision; text-rendering:geometricPrecision; image-rendering:optimizeQuality; fill-rule:evenodd; clip-rule:evenodd"
viewBox="0 0 40 13"
 xmlns:xlink="http://www.w3.org/1999/xlink"
 xmlns:xodm="http://www.corel.com/coreldraw/odm/2003">
 <defs>
  <style type="text/css">
   <![CDATA[
    .fil0 {fill:#E9363A;fill-rule:nonzero}
    .fil1 {fill:#6D7070;fill-rule:nonzero}
   ]]>
  </style>
 </defs>
 <g id="Capa_x0020_1">
  <metadata id="CorelCorpID_0Corel-Layer"/>
  <g id="_2503381998128">
   <path class="fil0" d="M2.0274 9.6774c0,0.2595 -0.1539,0.3854 -0.4104,0.3854 -0.2583,0 -0.4092,-0.1246 -0.4092,-0.3854l0 -0.5977 0.2117 0 0 0.5977c0,0.1048 0.0271,0.2078 0.1975,0.2078 0.1508,0 0.1988,-0.0652 0.1988,-0.2078l0 -0.5977 0.2116 0 0 0.5977z"/>
   <path class="fil0" d="M2.1893 9.3449l0.1814 0 0 0.0967 0.0038 0c0.0486,-0.0785 0.132,-0.1159 0.2128,-0.1159 0.2038,0 0.2545,0.1142 0.2545,0.287l0 0.4276 -0.1913 0 0 -0.3933c0,-0.1142 -0.0333,-0.1704 -0.1225,-0.1704 -0.1035,0 -0.1481,0.0573 -0.1481,0.1989l0 0.3648 -0.1906 0 0 -0.6954z"/>
   <path class="fil0" d="M2.9925 9.3451l0.1913 0 0 0.6954 -0.1913 0 0 -0.6954zm0.1913 -0.1084l-0.1913 0 0 -0.157 0.1913 0 0 0.157z"/>
   <polygon class="fil0" points="3.7188,10.0404 3.5067,10.0404 3.2683,9.3449 3.4683,9.3449 3.6153,9.8199 3.618,9.8199 3.7652,9.3449 3.9548,9.3449 "/>
   <path class="fil0" d="M4.5023 9.6177c-0.0175,-0.0967 -0.0589,-0.1478 -0.1522,-0.1478 -0.1211,0 -0.1554,0.0936 -0.1585,0.1478l0.3107 0zm-0.3107 0.1214c0.0052,0.121 0.0642,0.1762 0.1708,0.1762 0.0768,0 0.1385,-0.0473 0.1506,-0.0902l0.1683 0c-0.0535,0.164 -0.1683,0.2343 -0.3254,0.2343 -0.2195,0 -0.3553,-0.1506 -0.3553,-0.3663 0,-0.2085 0.1441,-0.3672 0.3553,-0.3672 0.2366,0 0.3508,0.1991 0.3378,0.4132l-0.5021 0z"/>
   <path class="fil0" d="M4.8063 9.3449l0.1822 0 0 0.1286 0.0027 0c0.0346,-0.0877 0.1289,-0.1478 0.2215,-0.1478 0.0137,0 0.0302,0.0024 0.0418,0.0069l0 0.1776c-0.0175,-0.0041 -0.0452,-0.0068 -0.0685,-0.0068 -0.1396,0 -0.188,0.1012 -0.188,0.2231l0 0.3138 -0.1917 0 0 -0.6954z"/>
   <path class="fil0" d="M5.4782 9.8142c0.0017,0.0833 0.0716,0.1173 0.1468,0.1173 0.0555,0 0.1248,-0.0212 0.1248,-0.0888 0,-0.0583 -0.0789,-0.0779 -0.216,-0.108 -0.1104,-0.0244 -0.2209,-0.0631 -0.2209,-0.1855 0,-0.1776 0.1536,-0.2232 0.3024,-0.2232 0.152,0 0.2925,0.0507 0.3069,0.2222l-0.1817 0c-0.0048,-0.0745 -0.0617,-0.0944 -0.1303,-0.0944 -0.0432,0 -0.1063,0.0076 -0.1063,0.0645 0,0.0686 0.108,0.0778 0.2167,0.1036 0.1118,0.0253 0.2206,0.0662 0.2206,0.1957 0,0.1829 -0.1585,0.2418 -0.318,0.2418 -0.1608,0 -0.3185,-0.0603 -0.3268,-0.2452l0.1818 0z"/>
   <path class="fil0" d="M6.0584 9.3451l0.1914 0 0 0.6954 -0.1914 0 0 -0.6954zm0.1914 -0.1084l-0.1918 0 0 -0.157 0.1918 0 0 0.157z"/>
   <path class="fil0" d="M6.7298 9.4699c-0.1252,0 -0.1679,0.1073 -0.1679,0.2216 0,0.109 0.0496,0.2238 0.1679,0.2238 0.1266,0 0.1639,-0.1104 0.1639,-0.2249 0,-0.1132 -0.0404,-0.2205 -0.1639,-0.2205zm0.167 0.4822l-0.0031 0c-0.0435,0.0743 -0.122,0.1073 -0.2108,0.1073 -0.2099,0 -0.312,-0.1811 -0.312,-0.3731 0,-0.1869 0.1028,-0.3604 0.3075,-0.3604 0.0826,0 0.1632,0.0346 0.2061,0.1032l0.0031 0 0 -0.3494 0.1906 0 0 0.9608 -0.1814 0 0 -0.0884z"/>
   <path class="fil0" d="M7.6559 9.6996c-0.0329,0.0285 -0.0995,0.0302 -0.1591,0.0411 -0.0587,0.0114 -0.1125,0.0316 -0.1125,0.1019 0,0.0713 0.0556,0.0888 0.1166,0.0888 0.1491,0 0.155,-0.1186 0.155,-0.1604l0 -0.0714zm-0.442 -0.1409c0.011,-0.1791 0.1715,-0.2329 0.3278,-0.2329 0.1382,0 0.3052,0.0309 0.3052,0.1979l0 0.3614c0,0.0631 0.0069,0.1269 0.0244,0.1553l-0.1938 0c-0.0069,-0.0212 -0.0124,-0.0442 -0.0138,-0.0675 -0.0606,0.0631 -0.1491,0.0864 -0.2341,0.0864 -0.1313,0 -0.2366,-0.0658 -0.2366,-0.2088 0,-0.1571 0.1186,-0.1948 0.2366,-0.211 0.1169,-0.0177 0.2263,-0.0133 0.2263,-0.0915 0,-0.0822 -0.0566,-0.0943 -0.1242,-0.0943 -0.0723,0 -0.1192,0.0298 -0.1258,0.105l-0.192 0z"/>
   <path class="fil0" d="M8.3249 9.4699c-0.1256,0 -0.1684,0.1073 -0.1684,0.2216 0,0.109 0.05,0.2238 0.1684,0.2238 0.1265,0 0.1639,-0.1104 0.1639,-0.2249 0,-0.1132 -0.0402,-0.2205 -0.1639,-0.2205zm0.1666 0.4822l-0.0027 0c-0.0446,0.0743 -0.1225,0.1073 -0.2112,0.1073 -0.2103,0 -0.3121,-0.1811 -0.3121,-0.3731 0,-0.1869 0.1036,-0.3604 0.3086,-0.3604 0.0813,0 0.1622,0.0346 0.2055,0.1032l0.0023 0 0 -0.3494 0.1917 0 0 0.9608 -0.1821 0 0 -0.0884z"/>
   <path class="fil0" d="M2.6779 10.7575c-0.1252,0 -0.168,0.1074 -0.168,0.2212 0,0.1093 0.0497,0.2238 0.168,0.2238 0.1266,0 0.1643,-0.1107 0.1643,-0.2242 0,-0.1134 -0.0402,-0.2208 -0.1643,-0.2208zm0.1666 0.4818l-0.0023 0c-0.0442,0.0754 -0.1221,0.107 -0.2109,0.107 -0.2103,0 -0.3121,-0.1804 -0.3121,-0.3725 0,-0.1875 0.1033,-0.361 0.308,-0.361 0.0815,0 0.1621,0.0356 0.2057,0.1039l0.0028 0 0 -0.3498 0.1906 0 0 0.9615 -0.1818 0 0 -0.0891z"/>
   <path class="fil0" d="M3.639 10.9049c-0.0174,-0.0967 -0.0593,-0.1474 -0.1522,-0.1474 -0.1207,0 -0.156,0.0936 -0.1587,0.1474l0.3109 0zm-0.3109 0.122c0.0058,0.1207 0.0648,0.1756 0.1715,0.1756 0.0761,0 0.1378,-0.047 0.1504,-0.0902l0.1681 0c-0.0539,0.1643 -0.1681,0.2339 -0.3257,0.2339 -0.2195,0 -0.3553,-0.1502 -0.3553,-0.3659 0,-0.2082 0.1439,-0.3676 0.3553,-0.3676 0.2368,0 0.3514,0.1996 0.3376,0.4142l-0.5019 0z"/>
   <polygon class="fil0" points="3.9488,10.367 4.1398,10.367 4.1398,11.3277 3.9488,11.3277 "/>
   <polygon class="fil0" points="5.132,11.3281 4.8936,11.3281 4.5812,10.367 4.7993,10.367 5.0139,11.0425 5.0164,11.0425 5.233,10.367 5.4509,10.367 "/>
   <path class="fil0" d="M5.8723 10.9871c-0.0326,0.0285 -0.0998,0.0295 -0.1584,0.0409 -0.0597,0.0119 -0.1131,0.0315 -0.1131,0.1017 0,0.0718 0.0541,0.0893 0.1172,0.0893 0.1492,0 0.1543,-0.1187 0.1543,-0.1602l0 -0.0717zm-0.4414 -0.1409c0.011,-0.1783 0.1708,-0.2332 0.3268,-0.2332 0.1389,0 0.3055,0.0316 0.3055,0.1979l0 0.3624c0,0.0632 0.0069,0.1263 0.0247,0.155l-0.194 0c-0.0076,-0.0219 -0.0123,-0.0449 -0.0134,-0.0678 -0.0604,0.0631 -0.1491,0.0856 -0.2339,0.0856 -0.132,0 -0.2372,-0.0654 -0.2372,-0.2084 0,-0.1575 0.1183,-0.1948 0.2372,-0.2105 0.117,-0.0182 0.2257,-0.0141 0.2257,-0.092 0,-0.0826 -0.0566,-0.0943 -0.1234,-0.0943 -0.0731,0 -0.1198,0.0295 -0.127,0.1053l-0.191 0z"/>
   <polygon class="fil0" points="6.2168,10.367 6.4078,10.367 6.4078,11.3277 6.2168,11.3277 "/>
   <polygon class="fil0" points="6.5649,10.367 6.7555,10.367 6.7555,11.3277 6.5649,11.3277 "/>
   <path class="fil0" d="M7.3748 10.9049c-0.0178,-0.0967 -0.0597,-0.1474 -0.1526,-0.1474 -0.1207,0 -0.1557,0.0936 -0.1581,0.1474l0.3107 0zm-0.3107 0.122c0.0052,0.1207 0.0642,0.1756 0.1704,0.1756 0.0769,0 0.1389,-0.047 0.151,-0.0902l0.1679 0c-0.0538,0.1643 -0.1679,0.2339 -0.3254,0.2339 -0.2195,0 -0.3553,-0.1502 -0.3553,-0.3659 0,-0.2082 0.1441,-0.3676 0.3553,-0.3676 0.2366,0 0.3512,0.1996 0.3375,0.4142l-0.5014 0z"/>
   <polygon class="fil0" points="8.8027,11.9714 1.0784,11.9714 1.0784,11.7214 8.8027,11.7214 "/>
   <path class="fil0" d="M6.2284 8.4657l-2.3664 -4.7335 4.7324 0 -2.366 4.7335zm-2.5749 -2.4164c-1.3485,0 -2.4459,-1.097 -2.4459,-2.4453l0 -2.4462 4.8923 0 0 2.4462 -2.4464 0 1.0935 2.1861c-0.3291,0.1659 -0.7005,0.2592 -1.0935,0.2592zm-2.5748 2.7038l7.7239 0 0 -7.7246 -7.7239 0 0 7.7246z"/>
   <polygon class="fil1" points="12.5035,2.6827 12.9,2.6827 12.2799,4.5069 11.9165,4.5069 11.3017,2.6827 11.7107,2.6827 12.102,4.065 12.1071,4.065 "/>
   <path class="fil1" d="M13.4788 4.507l-0.3556 0 0 -1.3516 0.3556 0 0 1.3516zm0 -1.5118l-0.3556 0 0 -0.3302 0.3556 0 0 0.3302z"/>
   <path class="fil1" d="M14.9828 4.0142c-0.0126,0.1395 -0.1221,0.5284 -0.6172,0.5284 -0.5085,0 -0.6254,-0.3889 -0.6254,-0.6731 0,-0.4372 0.1906,-0.7496 0.648,-0.7496 0.2137,0 0.5641,0.0963 0.597,0.5182l-0.3607 0c-0.0151,-0.0865 -0.0659,-0.2185 -0.2184,-0.2185l-0.0179 0c-0.2235,0 -0.2822,0.2235 -0.2822,0.3913 0,0.1473 0.0052,0.4395 0.2747,0.4395 0.1803,0 0.2414,-0.1728 0.2414,-0.2362l0.3607 0z"/>
   <path class="fil1" d="M16.0421 3.6965c-0.0202,-0.2184 -0.1601,-0.2846 -0.2743,-0.2846 -0.1681,0 -0.2569,0.107 -0.2771,0.2846l0.5514 0zm0.3508 0.4142c-0.0943,0.3251 -0.3635,0.4321 -0.5946,0.4321 -0.3813,0 -0.6735,-0.1831 -0.6735,-0.7393 0,-0.1629 0.0559,-0.6838 0.6481,-0.6838 0.2668,0 0.6351,0.1269 0.6351,0.7444l0 0.0635 -0.9276 0c0.0103,0.1018 0.0305,0.3306 0.3179,0.3306 0.0988,0 0.2005,-0.0511 0.2283,-0.1475l0.3663 0z"/>
   <path class="fil1" d="M16.6413 3.1553l0.3405 0 0 0.2335 0.0052 0c0.0734,-0.1368 0.155,-0.2691 0.3707,-0.2691 0.023,0 0.0459,0.0027 0.0689,0.0051l0 0.3608c-0.0305,-0.0052 -0.0689,-0.0052 -0.1018,-0.0052 -0.2768,0 -0.3275,0.1728 -0.3275,0.3226l0 0.704 -0.356 0 0 -1.3517z"/>
   <path class="fil1" d="M17.5914 3.1553l0.3405 0 0 0.2335 0.0051 0c0.0734,-0.1368 0.1551,-0.2691 0.3708,-0.2691 0.0229,0 0.0458,0.0027 0.0689,0.0051l0 0.3608c-0.0305,-0.0052 -0.0689,-0.0052 -0.1019,-0.0052 -0.2767,0 -0.3275,0.1728 -0.3275,0.3226l0 0.704 -0.3559 0 0 -1.3517z"/>
   <path class="fil1" d="M19.3419 3.6965c-0.0202,-0.2184 -0.1602,-0.2846 -0.2743,-0.2846 -0.1681,0 -0.2569,0.107 -0.2771,0.2846l0.5514 0zm0.3508 0.4142c-0.0943,0.3251 -0.3636,0.4321 -0.595,0.4321 -0.3809,0 -0.6731,-0.1831 -0.6731,-0.7393 0,-0.1629 0.0559,-0.6838 0.648,-0.6838 0.2669,0 0.6351,0.1269 0.6351,0.7444l0 0.0635 -0.9275 0c0.0103,0.1018 0.0305,0.3306 0.3175,0.3306 0.0992,0 0.2009,-0.0511 0.2287,-0.1475l0.3663 0z"/>
   <path class="fil1" d="M21.1074 4.0142c-0.0127,0.1395 -0.1218,0.5284 -0.6172,0.5284 -0.5085,0 -0.6255,-0.3889 -0.6255,-0.6731 0,-0.4372 0.1906,-0.7496 0.6481,-0.7496 0.2136,0 0.5641,0.0963 0.597,0.5182l-0.3607 0c-0.0151,-0.0865 -0.0658,-0.2185 -0.2184,-0.2185l-0.0179 0c-0.2236,0 -0.2822,0.2235 -0.2822,0.3913 0,0.1473 0.0051,0.4395 0.2747,0.4395 0.1803,0 0.2413,-0.1728 0.2413,-0.2362l0.3608 0z"/>
   <path class="fil1" d="M21.7551 3.1553l0.2211 0 0 0.2541 -0.2211 0 0 0.7342c0,0.0788 0.0023,0.1094 0.1471,0.1094 0.0229,0 0.0483,-0.0025 0.074,-0.0052l0 0.2695c-0.0559,0.0025 -0.1118,0.0048 -0.1676,0.0048l-0.046 0c-0.3073,0 -0.3635,-0.1165 -0.3635,-0.2921l0 -0.8206 -0.1828 0 0 -0.2541 0.1828 0 0 -0.3659 0.356 0 0 0.3659z"/>
   <path class="fil1" d="M22.7636 3.4196c-0.2743,0 -0.3251,0.2386 -0.3251,0.4118 0,0.1724 0.0508,0.4114 0.3251,0.4114 0.2746,0 0.325,-0.239 0.325,-0.4114 0,-0.1732 -0.0504,-0.4118 -0.325,-0.4118zm0 1.1233c-0.3632,0 -0.6913,-0.2239 -0.6913,-0.7115 0,-0.488 0.3281,-0.7115 0.6913,-0.7115 0.3631,0 0.6912,0.2235 0.6912,0.7115 0,0.4876 -0.3281,0.7115 -0.6912,0.7115z"/>
   <path class="fil1" d="M23.7007 3.1553l0.3406 0 0 0.2335 0.005 0c0.0738,-0.1368 0.1551,-0.2691 0.3711,-0.2691 0.0226,0 0.0456,0.0027 0.0686,0.0051l0 0.3608c-0.0306,-0.0052 -0.0686,-0.0052 -0.1019,-0.0052 -0.2767,0 -0.3275,0.1728 -0.3275,0.3226l0 0.704 -0.3559 0 0 -1.3517z"/>
   <path class="fil1" d="M24.9506 2.9723l-0.2568 0 0.239 -0.371 0.3912 0 -0.3734 0.371zm0.0686 1.5349l-0.3559 0 0 -1.3517 0.3559 0 0 1.3517z"/>
   <path class="fil1" d="M26.1066 3.849c-0.0357,0.0278 -0.094,0.0507 -0.2415,0.0737 -0.132,0.023 -0.2413,0.0559 -0.2413,0.2033 0,0.1245 0.0966,0.1625 0.1652,0.1625 0.1574,0 0.3176,-0.1014 0.3176,-0.2667l0 -0.1728zm0.348 0.3939c0,0.1598 0.0356,0.1955 0.0789,0.211l0 0.0531 -0.3837 0c-0.0203,-0.0634 -0.0254,-0.0837 -0.0329,-0.1602 -0.0817,0.084 -0.1955,0.1959 -0.4372,0.1959 -0.2034,0 -0.4116,-0.1142 -0.4116,-0.3937 0,-0.2643 0.1677,-0.3992 0.3937,-0.432l0.3203 -0.0484c0.0559,-0.0075 0.1245,-0.0305 0.1245,-0.1066 0,-0.1499 -0.1423,-0.1578 -0.2339,-0.1578 -0.1779,0 -0.2082,0.1094 -0.2184,0.1883l-0.3429 0c0.0404,-0.4143 0.3275,-0.4725 0.6045,-0.4725 0.1907,0 0.5387,0.0582 0.5387,0.3912l0 0.7317z"/>
   <path class="fil1" d="M28.0574 4.2504c0.2263,0 0.3151,-0.1879 0.3151,-0.3888 0,-0.2157 -0.061,-0.4345 -0.3048,-0.4345 -0.2264,0 -0.3025,0.2009 -0.3025,0.4143 0,0.1601 0.0635,0.409 0.2922,0.409zm0.6556 0.2568l-0.3483 0 0 -0.1704 -0.0049 0c-0.0864,0.1526 -0.2438,0.2061 -0.3912,0.2061 -0.4016,0 -0.5692,-0.3558 -0.5692,-0.727 0,-0.4673 0.2641,-0.696 0.5617,-0.696 0.2283,0 0.3353,0.1245 0.3912,0.2109l0.0052 0 0 -0.6481 0.3555 0 0 1.8245z"/>
   <path class="fil1" d="M29.8408 3.6965c-0.0203,-0.2184 -0.1602,-0.2846 -0.2744,-0.2846 -0.168,0 -0.2568,0.107 -0.2771,0.2846l0.5515 0zm0.3507 0.4142c-0.0943,0.3251 -0.3635,0.4321 -0.5946,0.4321 -0.3813,0 -0.6734,-0.1831 -0.6734,-0.7393 0,-0.1629 0.0559,-0.6838 0.6477,-0.6838 0.2671,0 0.6354,0.1269 0.6354,0.7444l0 0.0635 -0.9276 0c0.0103,0.1018 0.0306,0.3306 0.3179,0.3306 0.0987,0 0.2006,-0.0511 0.2284,-0.1475l0.3662 0z"/>
   <path class="fil1" d="M11.8124 6.83l0.4677 0c0.1852,0 0.2921,-0.0812 0.2921,-0.2668 0,-0.1601 -0.1371,-0.2211 -0.2743,-0.2211l-0.4855 0 0 0.4879zm0 -0.7952l0.4471 0c0.1502,0 0.2696,-0.0586 0.2696,-0.2033 0,-0.1499 -0.1071,-0.1958 -0.2795,-0.1958l-0.4372 0 0 0.3991zm-0.3659 -0.7142l0.8868 0c0.4474,0 0.5616,0.2795 0.5616,0.4677 0,0.2616 -0.1474,0.3354 -0.2235,0.3734 0.2235,0.0841 0.2818,0.2617 0.2818,0.4421 0,0.145 -0.061,0.2821 -0.1573,0.3761 -0.1043,0.1015 -0.2034,0.1653 -0.5768,0.1653l-0.7726 0 0 -1.8246z"/>
   <path class="fil1" d="M13.6187 7.1451l-0.3559 0 0 -1.3518 0.3559 0 0 1.3518zm0 -1.5119l-0.3559 0 0 -0.3303 0.3559 0 0 0.3303z"/>
   <path class="fil1" d="M14.7693 6.3345c-0.0202,-0.2184 -0.1601,-0.2846 -0.2743,-0.2846 -0.168,0 -0.2565,0.1066 -0.2771,0.2846l0.5514 0zm0.3508 0.4142c-0.0939,0.3251 -0.3635,0.432 -0.5945,0.432 -0.3814,0 -0.6735,-0.183 -0.6735,-0.7396 0,-0.1625 0.0558,-0.6834 0.6481,-0.6834 0.2667,0 0.635,0.1269 0.635,0.7445l0 0.0635 -0.9276 0c0.0103,0.1017 0.0309,0.3304 0.318,0.3304 0.099,0 0.2005,-0.051 0.2287,-0.1474l0.3658 0z"/>
   <path class="fil1" d="M16.5933 7.1451l-0.3559 0 0 -0.821c0,-0.0987 -0.0048,-0.2664 -0.2311,-0.2664 -0.1574,0 -0.2794,0.1066 -0.2794,0.3124l0 0.775 -0.3557 0 0 -1.3518 0.3405 0 0 0.1982 0.0052 0c0.048,-0.0813 0.1498,-0.2339 0.4064,-0.2339 0.2643,0 0.47,0.1551 0.47,0.4524l0 0.9351z"/>
   <path class="fil1" d="M17.7339 6.3345c-0.0203,-0.2184 -0.1602,-0.2846 -0.2744,-0.2846 -0.168,0 -0.2568,0.1066 -0.277,0.2846l0.5514 0zm0.3508 0.4142c-0.094,0.3251 -0.3636,0.432 -0.5947,0.432 -0.3813,0 -0.6734,-0.183 -0.6734,-0.7396 0,-0.1625 0.0559,-0.6834 0.648,-0.6834 0.2669,0 0.6351,0.1269 0.6351,0.7445l0 0.0635 -0.9275 0c0.0103,0.1017 0.0305,0.3304 0.3178,0.3304 0.0992,0 0.2006,-0.051 0.2287,-0.1474l0.366 0z"/>
   <path class="fil1" d="M19.1005 6.2049c-0.0153,-0.0864 -0.0458,-0.1778 -0.239,-0.1778 -0.193,0 -0.2184,0.0736 -0.2184,0.132 0,0.2136 0.8459,0.0586 0.8459,0.5564 0,0.3941 -0.3809,0.4654 -0.5918,0.4654 -0.3073,0 -0.6402,-0.107 -0.6505,-0.4677l0.3659 0c0,0.1141 0.0713,0.1982 0.2949,0.1982 0.1827,0 0.226,-0.0892 0.226,-0.14 0,-0.2259 -0.8384,-0.0559 -0.8384,-0.5613 0,-0.1982 0.1244,-0.4523 0.5462,-0.4523 0.2644,0 0.5795,0.0659 0.6073,0.4471l-0.3481 0z"/>
   <path class="fil1" d="M20.147 5.7933l0.2212 0 0 0.2541 -0.2212 0 0 0.7341c0,0.079 0.0028,0.1095 0.1472,0.1095 0.0233,0 0.0483,-0.0024 0.074,-0.0052l0 0.2696c-0.0559,0.0023 -0.1118,0.0047 -0.1676,0.0047l-0.046 0c-0.3073,0 -0.3632,-0.1165 -0.3632,-0.2921l0 -0.8206 -0.1831 0 0 -0.2541 0.1831 0 0 -0.3659 0.3556 0 0 0.3659z"/>
   <path class="fil1" d="M21.341 6.4869c-0.0357,0.0282 -0.094,0.0508 -0.2413,0.0738 -0.1321,0.0229 -0.2415,0.0559 -0.2415,0.2033 0,0.1245 0.0967,0.1626 0.1653,0.1626 0.1574,0 0.3175,-0.1015 0.3175,-0.2668l0 -0.1729zm0.3481 0.3941c0,0.1598 0.0357,0.1955 0.0788,0.2108l0 0.0532 -0.3836 0c-0.0206,-0.0634 -0.0254,-0.0837 -0.033,-0.1601 -0.0816,0.084 -0.1957,0.1958 -0.4372,0.1958 -0.2033,0 -0.4114,-0.1143 -0.4114,-0.394 0,-0.2641 0.1676,-0.3988 0.3936,-0.4318l0.3203 -0.0483c0.0559,-0.0076 0.1244,-0.0305 0.1244,-0.1066 0,-0.1499 -0.1423,-0.1578 -0.2335,-0.1578 -0.1783,0 -0.2085,0.1094 -0.2188,0.1883l-0.3429 0c0.0404,-0.4143 0.3275,-0.4726 0.6046,-0.4726 0.1906,0 0.5387,0.0583 0.5387,0.391l0 0.7321z"/>
   <path class="fil1" d="M22.0038 5.7933l0.3405 0 0 0.2339 0.0048 0c0.0738,-0.1372 0.1553,-0.2696 0.3714,-0.2696 0.0226,0 0.0456,0.0028 0.0686,0.0052l0 0.3608c-0.0305,-0.0052 -0.0686,-0.0052 -0.1018,-0.0052 -0.2768,0 -0.3275,0.1729 -0.3275,0.3226l0 0.7041 -0.356 0 0 -1.3518z"/>
   <path class="fil1" d="M25.1897 6.5073c0,0.4801 -0.2898,0.6862 -0.7496,0.6862 -0.1677,0 -0.4166,-0.0408 -0.5791,-0.2211 -0.0992,-0.1118 -0.1376,-0.2593 -0.1423,-0.4421l0 -1.2098 0.3888 0 0 1.1844c0,0.2541 0.1471,0.3656 0.325,0.3656 0.2617,0 0.3683,-0.1269 0.3683,-0.3477l0 -1.2023 0.3889 0 0 1.1868z"/>
   <path class="fil1" d="M26.7569 7.1451l-0.3556 0 0 -0.821c0,-0.0987 -0.0051,-0.2664 -0.2314,-0.2664 -0.1575,0 -0.2796,0.1066 -0.2796,0.3124l0 0.775 -0.3555 0 0 -1.3518 0.3405 0 0 0.1982 0.0051 0c0.048,-0.0813 0.1499,-0.2339 0.4064,-0.2339 0.2643,0 0.4701,0.1551 0.4701,0.4524l0 0.9351z"/>
   <path class="fil1" d="M27.4525 7.1451l-0.3556 0 0 -1.3518 0.3556 0 0 1.3518zm0 -1.5119l-0.3556 0 0 -0.3303 0.3556 0 0 0.3303z"/>
   <polygon class="fil1" points="28.5197,7.1451 28.1463,7.1451 27.6607,5.7933 28.0574,5.7933 28.3366,6.7891 28.342,6.7891 28.6291,5.7933 29.0077,5.7933 "/>
   <path class="fil1" d="M29.9652 6.3345c-0.0202,-0.2184 -0.1602,-0.2846 -0.2743,-0.2846 -0.1681,0 -0.2565,0.1066 -0.2771,0.2846l0.5514 0zm0.3508 0.4142c-0.0943,0.3251 -0.3635,0.432 -0.5946,0.432 -0.3813,0 -0.6735,-0.183 -0.6735,-0.7396 0,-0.1625 0.0559,-0.6834 0.648,-0.6834 0.2669,0 0.6352,0.1269 0.6352,0.7445l0 0.0635 -0.9276 0c0.0103,0.1017 0.0309,0.3304 0.3179,0.3304 0.0988,0 0.2005,-0.051 0.2283,-0.1474l0.3663 0z"/>
   <path class="fil1" d="M30.5645 5.7933l0.3405 0 0 0.2339 0.0052 0c0.0737,-0.1372 0.1549,-0.2696 0.371,-0.2696 0.0225,0 0.0456,0.0028 0.0685,0.0052l0 0.3608c-0.0305,-0.0052 -0.0685,-0.0052 -0.1018,-0.0052 -0.2767,0 -0.3278,0.1729 -0.3278,0.3226l0 0.7041 -0.3556 0 0 -1.3518z"/>
   <path class="fil1" d="M32.2819 6.2049c-0.0155,-0.0864 -0.046,-0.1778 -0.239,-0.1778 -0.1931,0 -0.2185,0.0736 -0.2185,0.132 0,0.2136 0.8464,0.0586 0.8464,0.5564 0,0.3941 -0.3813,0.4654 -0.5923,0.4654 -0.3072,0 -0.6401,-0.107 -0.6504,-0.4677l0.3658 0c0,0.1141 0.0714,0.1982 0.2949,0.1982 0.1828,0 0.226,-0.0892 0.226,-0.14 0,-0.2259 -0.8384,-0.0559 -0.8384,-0.5613 0,-0.1982 0.1245,-0.4523 0.5462,-0.4523 0.2644,0 0.5796,0.0659 0.6074,0.4471l-0.3481 0z"/>
   <path class="fil1" d="M33.2952 7.1451l-0.3556 0 0 -1.3518 0.3556 0 0 1.3518zm0 -1.5119l-0.3556 0 0 -0.3303 0.3556 0 0 0.3303z"/>
   <path class="fil1" d="M34.0346 5.7933l0.2211 0 0 0.2541 -0.2211 0 0 0.7341c0,0.079 0.0023,0.1095 0.1475,0.1095 0.0225,0 0.0479,-0.0024 0.0736,-0.0052l0 0.2696c-0.0558,0.0023 -0.1117,0.0047 -0.1676,0.0047l-0.046 0c-0.3073,0 -0.3632,-0.1165 -0.3632,-0.2921l0 -0.8206 -0.183 0 0 -0.2541 0.183 0 0 -0.3659 0.3557 0 0 0.3659z"/>
   <path class="fil1" d="M35.2285 6.4869c-0.0356,0.0282 -0.094,0.0508 -0.2414,0.0738 -0.132,0.0229 -0.2414,0.0559 -0.2414,0.2033 0,0.1245 0.0967,0.1626 0.1653,0.1626 0.1573,0 0.3175,-0.1015 0.3175,-0.2668l0 -0.1729zm0.3484 0.3941c0,0.1598 0.0353,0.1955 0.0785,0.2108l0 0.0532 -0.3837 0c-0.0202,-0.0634 -0.0254,-0.0837 -0.0329,-0.1601 -0.0813,0.084 -0.1954,0.1958 -0.4369,0.1958 -0.2033,0 -0.4118,-0.1143 -0.4118,-0.394 0,-0.2641 0.1676,-0.3988 0.394,-0.4318l0.3199 -0.0483c0.0559,-0.0076 0.1245,-0.0305 0.1245,-0.1066 0,-0.1499 -0.1423,-0.1578 -0.2335,-0.1578 -0.1783,0 -0.2085,0.1094 -0.2187,0.1883l-0.343 0c0.0405,-0.4143 0.3275,-0.4726 0.6045,-0.4726 0.1907,0 0.5391,0.0583 0.5391,0.391l0 0.7321z"/>
   <path class="fil1" d="M35.8913 5.7933l0.3405 0 0 0.2339 0.0052 0c0.0737,-0.1372 0.1549,-0.2696 0.371,-0.2696 0.0227,0 0.0456,0.0028 0.0685,0.0052l0 0.3608c-0.0304,-0.0052 -0.0685,-0.0052 -0.1017,-0.0052 -0.2768,0 -0.3275,0.1729 -0.3275,0.3226l0 0.7041 -0.356 0 0 -1.3518z"/>
   <path class="fil1" d="M37.2099 7.1451l-0.356 0 0 -1.3518 0.356 0 0 1.3518zm0 -1.5119l-0.356 0 0 -0.3303 0.356 0 0 0.3303z"/>
   <path class="fil1" d="M38.1625 6.0576c-0.2743,0 -0.3251,0.2386 -0.3251,0.4114 0,0.1729 0.0508,0.4119 0.3251,0.4119 0.2743,0 0.3251,-0.239 0.3251,-0.4119 0,-0.1728 -0.0508,-0.4114 -0.3251,-0.4114zm0 1.123c-0.3635,0 -0.6912,-0.2236 -0.6912,-0.7116 0,-0.4875 0.3277,-0.7111 0.6912,-0.7111 0.3632,0 0.6913,0.2236 0.6913,0.7111 0,0.488 -0.3281,0.7116 -0.6913,0.7116z"/>
   <path class="fil1" d="M11.5948 8.7669c0.0014,0.0531 0.0278,0.1543 0.2023,0.1543 0.0947,0 0.2,-0.0226 0.2,-0.1238 0,-0.0744 -0.0721,-0.0943 -0.1732,-0.1183l-0.1026 -0.024c-0.1542,-0.036 -0.3034,-0.0707 -0.3034,-0.2812 0,-0.1062 0.0569,-0.2938 0.3672,-0.2938 0.2928,0 0.3714,0.1916 0.3727,0.3086l-0.1916 0c-0.0055,-0.0425 -0.0213,-0.1437 -0.1958,-0.1437 -0.0758,0 -0.1663,0.0278 -0.1663,0.1145 0,0.0745 0.0613,0.0906 0.1011,0.0998l0.2329 0.0573c0.1306,0.0319 0.2503,0.085 0.2503,0.2568 0,0.2877 -0.2929,0.3131 -0.3765,0.3131 -0.3488,0 -0.4088,-0.2013 -0.4088,-0.3196l0.1917 0z"/>
   <path class="fil1" d="M12.783 8.6364c-0.0106,-0.1145 -0.0836,-0.1492 -0.1436,-0.1492 -0.0878,0 -0.1345,0.0559 -0.145,0.1492l0.2886 0zm0.1838 0.2171c-0.0493,0.1704 -0.1903,0.2263 -0.3113,0.2263 -0.1999,0 -0.3528,-0.096 -0.3528,-0.3875 0,-0.0853 0.029,-0.358 0.3394,-0.358 0.1396,0 0.3326,0.0665 0.3326,0.3899l0 0.0332 -0.4859 0c0.0056,0.0532 0.0161,0.1733 0.1667,0.1733 0.0517,0 0.1049,-0.0268 0.1197,-0.0772l0.1916 0z"/>
   <path class="fil1" d="M13.7412 8.8027c-0.0066,0.0731 -0.0638,0.2772 -0.3233,0.2772 -0.2666,0 -0.3275,-0.2041 -0.3275,-0.3529 0,-0.2291 0.0997,-0.393 0.339,-0.393 0.1122,0 0.2956,0.0508 0.3131,0.2716l-0.1892 0c-0.0079,-0.0453 -0.0343,-0.1142 -0.1142,-0.1142l-0.0097 0c-0.1168,0 -0.1473,0.1169 -0.1473,0.2047 0,0.0775 0.0023,0.2305 0.1436,0.2305 0.0943,0 0.1265,-0.0906 0.1265,-0.1239l0.189 0z"/>
   <path class="fil1" d="M14.5142 8.8027c-0.0065,0.0731 -0.0639,0.2772 -0.3234,0.2772 -0.2664,0 -0.3275,-0.2041 -0.3275,-0.3529 0,-0.2291 0.0998,-0.393 0.3395,-0.393 0.1117,0 0.2953,0.0508 0.3128,0.2716l-0.1894 0c-0.0079,-0.0453 -0.0342,-0.1142 -0.1141,-0.1142l-0.0093 0c-0.1173,0 -0.1478,0.1169 -0.1478,0.2047 0,0.0775 0.0027,0.2305 0.1437,0.2305 0.0947,0 0.1265,-0.0906 0.1265,-0.1239l0.189 0z"/>
   <path class="fil1" d="M14.8693 9.0612l-0.1862 0 0 -0.7081 0.1862 0 0 0.7081zm0 -0.7921l-0.1862 0 0 -0.1732 0.1862 0 0 0.1732z"/>
   <path class="fil1" d="M15.4573 8.257l-0.1344 0 0.1251 -0.1942 0.2051 0 -0.1958 0.1942zm-0.0559 0.2342c-0.1436,0 -0.1704,0.1251 -0.1704,0.2156 0,0.0906 0.0268,0.2157 0.1704,0.2157 0.1437,0 0.1704,-0.1251 0.1704,-0.2157 0,-0.0905 -0.0267,-0.2156 -0.1704,-0.2156zm0 0.5884c-0.1903,0 -0.3621,-0.1173 -0.3621,-0.3728 0,-0.2554 0.1718,-0.3727 0.3621,-0.3727 0.1904,0 0.3621,0.1173 0.3621,0.3727 0,0.2555 -0.1717,0.3728 -0.3621,0.3728z"/>
   <path class="fil1" d="M16.567 9.061l-0.1863 0 0 -0.43c0,-0.0518 -0.0027,-0.1399 -0.1213,-0.1399 -0.0827,0 -0.1464,0.0559 -0.1464,0.1639l0 0.406 -0.1862 0 0 -0.7081 0.1783 0 0 0.1039 0.0027 0c0.0254,-0.0429 0.0785,-0.1228 0.213,-0.1228 0.1385,0 0.2462,0.0813 0.2462,0.237l0 0.49z"/>
   <path class="fil1" d="M17.4795 8.9265c0.1183,0 0.1652,-0.0984 0.1652,-0.2037 0,-0.1131 -0.0321,-0.2277 -0.1597,-0.2277 -0.1186,0 -0.1584,0.1053 -0.1584,0.2172 0,0.0839 0.0333,0.2142 0.1529,0.2142zm0.3436 0.1344l-0.1824 0 0 -0.0891 -0.0028 0c-0.0453,0.0799 -0.1279,0.108 -0.205,0.108 -0.2102,0 -0.2984,-0.1866 -0.2984,-0.381 0,-0.2448 0.1386,-0.3649 0.2943,-0.3649 0.12,0 0.1759,0.0653 0.2054,0.1109l0.0024 0 0 -0.3396 0.1865 0 0 0.9557z"/>
   <path class="fil1" d="M18.4469 8.6364c-0.0107,-0.1145 -0.0837,-0.1492 -0.1438,-0.1492 -0.0878,0 -0.1343,0.0559 -0.145,0.1492l0.2888 0zm0.1834 0.2171c-0.0491,0.1704 -0.19,0.2263 -0.3114,0.2263 -0.1995,0 -0.3525,-0.096 -0.3525,-0.3875 0,-0.0853 0.0291,-0.358 0.3395,-0.358 0.1395,0 0.3326,0.0665 0.3326,0.3899l0 0.0332 -0.4859 0c0.0055,0.0532 0.0162,0.1733 0.1663,0.1733 0.0521,0 0.1053,-0.0268 0.12,-0.0772l0.1914 0z"/>
   <path class="fil1" d="M19.8226 8.418c-0.016,-0.0572 -0.0465,-0.1652 -0.2115,-0.1652 -0.096,0 -0.2369,0.0641 -0.2369,0.3344 0,0.1717 0.0679,0.3261 0.2369,0.3261 0.1104,0 0.1875,-0.0628 0.2115,-0.1798l0.1997 0c-0.0399,0.2079 -0.1757,0.3529 -0.4154,0.3529 -0.254,0 -0.4368,-0.1718 -0.4368,-0.5021 0,-0.3339 0.1931,-0.5043 0.4397,-0.5043 0.2859,0 0.4018,0.1971 0.4125,0.338l-0.1997 0z"/>
   <path class="fil1" d="M20.8312 9.061l-0.1784 0 0 -0.0998 -0.0027 0c-0.0429,0.0758 -0.1173,0.1183 -0.2157,0.1183 -0.1399,0 -0.241,-0.0795 -0.241,-0.2609l0 -0.4657 0.1865 0 0 0.4393c0,0.109 0.0638,0.1306 0.121,0.1306 0.0614,0 0.1438,-0.035 0.1438,-0.1615l0 -0.4084 0.1865 0 0 0.7081z"/>
   <polygon class="fil1" points="21.2298,9.0612 21.0436,9.0612 21.0436,8.1051 21.2298,8.1051 "/>
   <path class="fil1" d="M21.6504 8.3528l0.1159 0 0 0.1331 -0.1159 0 0 0.3847c0,0.0415 0.0014,0.0573 0.0772,0.0573 0.0119,0 0.0254,-0.0014 0.0387,-0.0028l0 0.1414c-0.0295,0.0013 -0.0586,0.0027 -0.0881,0.0027l-0.0237 0c-0.1612,0 -0.1903,-0.0615 -0.1903,-0.1533l0 -0.43 -0.0961 0 0 -0.1331 0.0961 0 0 -0.1917 0.1862 0 0 0.1917z"/>
   <path class="fil1" d="M22.5236 9.061l-0.1787 0 0 -0.0998 -0.0024 0c-0.0429,0.0758 -0.1173,0.1183 -0.2157,0.1183 -0.1399,0 -0.2411,-0.0795 -0.2411,-0.2609l0 -0.4657 0.1866 0 0 0.4393c0,0.109 0.0637,0.1306 0.121,0.1306 0.0614,0 0.1437,-0.035 0.1437,-0.1615l0 -0.4084 0.1866 0 0 0.7081z"/>
   <path class="fil1" d="M22.7292 8.3528l0.1783 0 0 0.1225 0.0028 0c0.0387,-0.0721 0.0813,-0.141 0.1944,-0.141 0.012,0 0.024,0.0014 0.036,0.0028l0 0.1889c-0.0161,-0.0027 -0.036,-0.0027 -0.0535,-0.0027 -0.145,0 -0.1717,0.0905 -0.1717,0.169l0 0.3686 -0.1863 0 0 -0.7081z"/>
   <path class="fil1" d="M23.6462 8.7162c-0.0185,0.0147 -0.0493,0.0268 -0.1265,0.0387 -0.0693,0.0121 -0.1266,0.0292 -0.1266,0.1064 0,0.0651 0.0508,0.0853 0.0868,0.0853 0.0823,0 0.1663,-0.0535 0.1663,-0.1399l0 -0.0905zm0.1824 0.2065c0,0.0836 0.0186,0.1024 0.0412,0.1103l0 0.0282 -0.201 0c-0.0106,-0.0336 -0.0133,-0.0439 -0.0171,-0.0841 -0.0429,0.044 -0.1026,0.1026 -0.2291,0.1026 -0.1067,0 -0.2157,-0.06 -0.2157,-0.2064 0,-0.1382 0.0879,-0.2089 0.2064,-0.2264l0.1677 -0.0249c0.0292,-0.0042 0.0652,-0.0162 0.0652,-0.0563 0,-0.0786 -0.0744,-0.0824 -0.1224,-0.0824 -0.0933,0 -0.1094,0.0574 -0.1145,0.0985l-0.1798 0c0.0213,-0.2168 0.1719,-0.2476 0.3169,-0.2476 0.0998,0 0.2822,0.0308 0.2822,0.205l0 0.3835z"/>
   <path class="fil1" d="M24.2262 9.0344c0,0.1639 -0.0854,0.2239 -0.1985,0.2503l-0.001 0 0 -0.0707c0.0503,-0.0171 0.1049,-0.0411 0.1118,-0.1529l-0.1118 0 0 -0.1944 0.1995 0 0 0.1677z"/>
   <path class="fil1" d="M25.2256 8.5258c0.1039,0 0.1542,-0.0359 0.1542,-0.1302 0,-0.0508 -0.0222,-0.1252 -0.1399,-0.1252l-0.2486 0 0 0.2554 0.2343 0zm-0.4301 -0.4207l0.4832 0c0.2544,0 0.3011,0.1879 0.3011,0.2702 0,0.1053 -0.0532,0.1958 -0.1478,0.2277 0.0785,0.0346 0.121,0.0641 0.121,0.2424 0,0.1396 0,0.1746 0.0425,0.1903l0 0.0254 -0.2208 0c-0.0133,-0.0453 -0.0212,-0.0947 -0.0212,-0.193 0,-0.1307 -0.0083,-0.1811 -0.1557,-0.1811l-0.2065 0 0 0.3741 -0.1958 0 0 -0.956z"/>
   <path class="fil1" d="M26.1729 8.6364c-0.0107,-0.1145 -0.0837,-0.1492 -0.1437,-0.1492 -0.0878,0 -0.1344,0.0559 -0.1451,0.1492l0.2888 0zm0.1838 0.2171c-0.0494,0.1704 -0.1903,0.2263 -0.3117,0.2263 -0.1996,0 -0.3529,-0.096 -0.3529,-0.3875 0,-0.0853 0.0295,-0.358 0.3398,-0.358 0.1396,0 0.3327,0.0665 0.3327,0.3899l0 0.0332 -0.4859 0c0.0054,0.0532 0.0161,0.1733 0.1663,0.1733 0.0521,0 0.1052,-0.0268 0.12,-0.0772l0.1917 0z"/>
   <path class="fil1" d="M27.1309 8.8027c-0.0065,0.0731 -0.0638,0.2772 -0.3234,0.2772 -0.2664,0 -0.3275,-0.2041 -0.3275,-0.3529 0,-0.2291 0.0999,-0.393 0.3396,-0.393 0.1117,0 0.2952,0.0508 0.3127,0.2716l-0.189 0c-0.0082,-0.0453 -0.0346,-0.1142 -0.1145,-0.1142l-0.0092 0c-0.1174,0 -0.1479,0.1169 -0.1479,0.2047 0,0.0775 0.0027,0.2305 0.1437,0.2305 0.0947,0 0.1265,-0.0906 0.1265,-0.1239l0.189 0z"/>
   <path class="fil1" d="M27.2928 8.3528l0.1784 0 0 0.1225 0.0027 0c0.0387,-0.0721 0.0813,-0.141 0.1944,-0.141 0.012,0 0.024,0.0014 0.036,0.0028l0 0.1889c-0.0161,-0.0027 -0.036,-0.0027 -0.0535,-0.0027 -0.145,0 -0.1717,0.0905 -0.1717,0.169l0 0.3686 -0.1863 0 0 -0.7081z"/>
   <path class="fil1" d="M28.2432 8.6364c-0.0107,-0.1145 -0.0837,-0.1492 -0.1438,-0.1492 -0.0881,0 -0.1343,0.0559 -0.145,0.1492l0.2888 0zm0.1834 0.2171c-0.0491,0.1704 -0.1903,0.2263 -0.3113,0.2263 -0.1996,0 -0.3529,-0.096 -0.3529,-0.3875 0,-0.0853 0.0295,-0.358 0.3398,-0.358 0.1395,0 0.3327,0.0665 0.3327,0.3899l0 0.0332 -0.486 0c0.0055,0.0532 0.0162,0.1733 0.1664,0.1733 0.0521,0 0.1052,-0.0268 0.1199,-0.0772l0.1914 0z"/>
   <path class="fil1" d="M28.9828 8.7162c-0.0185,0.0147 -0.0494,0.0268 -0.1265,0.0387 -0.0693,0.0121 -0.1265,0.0292 -0.1265,0.1064 0,0.0651 0.0507,0.0853 0.0867,0.0853 0.0823,0 0.1663,-0.0535 0.1663,-0.1399l0 -0.0905zm0.1824 0.2065c0,0.0836 0.0186,0.1024 0.0411,0.1103l0 0.0282 -0.2009 0c-0.0106,-0.0336 -0.0133,-0.0439 -0.0171,-0.0841 -0.0429,0.044 -0.1025,0.1026 -0.2291,0.1026 -0.1066,0 -0.2157,-0.06 -0.2157,-0.2064 0,-0.1382 0.0878,-0.2089 0.2065,-0.2264l0.1676 -0.0249c0.0292,-0.0042 0.0652,-0.0162 0.0652,-0.0563 0,-0.0786 -0.0744,-0.0824 -0.1224,-0.0824 -0.0933,0 -0.1094,0.0574 -0.1145,0.0985l-0.1797 0c0.0213,-0.2168 0.1718,-0.2476 0.3168,-0.2476 0.0998,0 0.2822,0.0308 0.2822,0.205l0 0.3835z"/>
   <path class="fil1" d="M29.9741 8.8027c-0.0065,0.0731 -0.0637,0.2772 -0.3234,0.2772 -0.2664,0 -0.3274,-0.2041 -0.3274,-0.3529 0,-0.2291 0.0998,-0.393 0.3395,-0.393 0.1118,0 0.2952,0.0508 0.3127,0.2716l-0.1893 0c-0.0078,-0.0453 -0.0343,-0.1142 -0.1142,-0.1142l-0.0092 0c-0.1173,0 -0.1478,0.1169 -0.1478,0.2047 0,0.0775 0.0028,0.2305 0.1437,0.2305 0.0946,0 0.1265,-0.0906 0.1265,-0.1239l0.1889 0z"/>
   <path class="fil1" d="M30.3291 9.0612l-0.1861 0 0 -0.7081 0.1861 0 0 0.7081zm0 -0.7921l-0.1861 0 0 -0.1732 0.1861 0 0 0.1732z"/>
   <path class="fil1" d="M30.9174 8.257l-0.1345 0 0.1251 -0.1942 0.2051 0 -0.1957 0.1942zm-0.0559 0.2342c-0.1437,0 -0.1705,0.1251 -0.1705,0.2156 0,0.0906 0.0268,0.2157 0.1705,0.2157 0.1436,0 0.1704,-0.1251 0.1704,-0.2157 0,-0.0905 -0.0268,-0.2156 -0.1704,-0.2156zm0 0.5884c-0.1903,0 -0.3622,-0.1173 -0.3622,-0.3728 0,-0.2554 0.1719,-0.3727 0.3622,-0.3727 0.1903,0 0.3621,0.1173 0.3621,0.3727 0,0.2555 -0.1718,0.3728 -0.3621,0.3728z"/>
   <path class="fil1" d="M32.027 9.061l-0.1861 0 0 -0.43c0,-0.0518 -0.0028,-0.1399 -0.1214,-0.1399 -0.0826,0 -0.1464,0.0559 -0.1464,0.1639l0 0.406 -0.1862 0 0 -0.7081 0.1782 0 0 0.1039 0.0028 0c0.025,-0.0429 0.0785,-0.1228 0.2129,-0.1228 0.1386,0 0.2462,0.0813 0.2462,0.237l0 0.49z"/>
   <path class="fil1" d="M33.0234 9.0491c-0.0878,0.2622 -0.1118,0.2969 -0.2744,0.2969 -0.025,0 -0.0572,-0.0015 -0.0836,-0.0028l0 -0.1491c0.0079,0.0013 0.0199,0.0027 0.0356,0.0027 0.068,0 0.1054,-0.0092 0.1228,-0.1063l-0.2609 -0.7376 0.2074 0 0.1519 0.5219 0.0028 0 0.145 -0.5219 0.1968 0 -0.2434 0.6962z"/>
   <path class="fil1" d="M34.0226 8.896l0.1944 0c0.1622,0 0.217,-0.1639 0.217,-0.321 0,-0.2822 -0.1347,-0.3048 -0.2198,-0.3048l-0.1916 0 0 0.6258zm-0.1959 -0.7908l0.4221 0c0.3221,0 0.3889,0.274 0.3889,0.4554 0,0.2051 -0.0812,0.5003 -0.3967,0.5003l-0.4143 0 0 -0.9557z"/>
   <path class="fil1" d="M35.2308 8.6364c-0.0107,-0.1145 -0.0837,-0.1492 -0.1438,-0.1492 -0.0878,0 -0.1343,0.0559 -0.145,0.1492l0.2888 0zm0.1834 0.2171c-0.0491,0.1704 -0.1899,0.2263 -0.3111,0.2263 -0.1998,0 -0.3528,-0.096 -0.3528,-0.3875 0,-0.0853 0.0292,-0.358 0.3395,-0.358 0.1395,0 0.3326,0.0665 0.3326,0.3899l0 0.0332 -0.4859 0c0.0055,0.0532 0.0162,0.1733 0.1666,0.1733 0.0518,0 0.105,-0.0268 0.1197,-0.0772l0.1914 0z"/>
   <path class="fil1" d="M35.9172 8.9265c0.1197,0 0.1533,-0.1303 0.1533,-0.2142 0,-0.1119 -0.0402,-0.2172 -0.1588,-0.2172 -0.1276,0 -0.1584,0.1146 -0.1584,0.2277 0,0.1053 0.0456,0.2037 0.1639,0.2037zm-0.1639 -0.4712l0.0027 0c0.0346,-0.0561 0.0867,-0.1214 0.2119,-0.1214 0.1558,0 0.2943,0.1201 0.2943,0.3649 0,0.1944 -0.0882,0.381 -0.2983,0.381 -0.1304,0 -0.177,-0.0706 -0.1997,-0.1094l-0.0027 0 0 0.3663 -0.1865 0 0 -0.9839 0.1783 0 0 0.1025z"/>
   <path class="fil1" d="M36.746 8.4913c-0.1436,0 -0.1704,0.1251 -0.1704,0.2157 0,0.0905 0.0268,0.2157 0.1704,0.2157 0.1441,0 0.1705,-0.1252 0.1705,-0.2157 0,-0.0906 -0.0264,-0.2157 -0.1705,-0.2157zm0 0.5884c-0.1903,0 -0.362,-0.1173 -0.362,-0.3727 0,-0.2558 0.1717,-0.3728 0.362,-0.3728 0.1904,0 0.3622,0.117 0.3622,0.3728 0,0.2554 -0.1718,0.3727 -0.3622,0.3727z"/>
   <path class="fil1" d="M37.27 8.3528l0.1783 0 0 0.1225 0.0027 0c0.0388,-0.0721 0.0813,-0.141 0.1945,-0.141 0.012,0 0.024,0.0014 0.036,0.0028l0 0.1889c-0.0161,-0.0027 -0.036,-0.0027 -0.0535,-0.0027 -0.1451,0 -0.1718,0.0905 -0.1718,0.169l0 0.3686 -0.1862 0 0 -0.7081z"/>
   <path class="fil1" d="M38.0578 8.3528l0.1159 0 0 0.1331 -0.1159 0 0 0.3847c0,0.0415 0.0013,0.0573 0.0771,0.0573 0.0121,0 0.0254,-0.0014 0.0388,-0.0028l0 0.1414c-0.0295,0.0013 -0.0586,0.0027 -0.0881,0.0027l-0.024 0c-0.1608,0 -0.19,-0.0615 -0.19,-0.1533l0 -0.43 -0.096 0 0 -0.1331 0.096 0 0 -0.1917 0.1862 0 0 0.1917z"/>
   <path class="fil1" d="M38.7298 8.6364c-0.0107,-0.1145 -0.0837,-0.1492 -0.1437,-0.1492 -0.0881,0 -0.1344,0.0559 -0.1451,0.1492l0.2888 0zm0.1834 0.2171c-0.049,0.1704 -0.1899,0.2263 -0.311,0.2263 -0.1999,0 -0.3529,-0.096 -0.3529,-0.3875 0,-0.0853 0.0292,-0.358 0.3396,-0.358 0.1396,0 0.3326,0.0665 0.3326,0.3899l0 0.0332 -0.4859 0c0.0054,0.0532 0.0161,0.1733 0.1666,0.1733 0.0518,0 0.105,-0.0268 0.1197,-0.0772l0.1913 0z"/>
  </g>
 </g>
</svg>
