<?xml version="1.0" encoding="UTF-8"?>
<!DOCTYPE svg PUBLIC "-//W3C//DTD SVG 1.1//EN" "http://www.w3.org/Graphics/SVG/1.1/DTD/svg11.dtd">
<!-- Creator: CorelDRAW -->
<svg xmlns="http://www.w3.org/2000/svg" xml:space="preserve" width="65mm" height="65mm" version="1.1" style="shape-rendering:geometricPrecision; text-rendering:geometricPrecision; image-rendering:optimizeQuality; fill-rule:evenodd; clip-rule:evenodd"
viewBox="0 0 6500 6500"
 xmlns:xlink="http://www.w3.org/1999/xlink"
 xmlns:xodm="http://www.corel.com/coreldraw/odm/2003">
 <defs>
  <style type="text/css">
   <![CDATA[
    .fil0 {fill:#FEFEFE}
    .fil1 {fill:#FEFEFE;fill-rule:nonzero}
   ]]>
  </style>
 </defs>
 <g id="Capa_x0020_1">
  <metadata id="CorelCorpID_0Corel-Layer"/>
  <g id="_2848281171024">
   <path class="fil0" d="M777.63 2614.8c24.76,-1325.97 1089.08,-2396.8 2409.68,-2426.55l0 337.79c-1134.65,29.6 -2048.35,949.32 -2073,2088.76l-336.68 0z"/>
   <path class="fil1" d="M3183.74 5166.35c-667.54,-15.81 -1270.2,-294.28 -1709.19,-736.35 -439.48,-442.56 -715.04,-1049.12 -727.56,-1720.27 -0.27,-16.92 13.23,-30.86 30.16,-31.12l0.48 0 0 -0.12 336.68 0c16.99,0 30.77,13.77 30.77,30.76l-0.06 1.82c12.75,560.41 243.73,1066.79 611.05,1436.88 368,370.81 872.79,604.83 1431.97,619.42 16.68,0.39 29.93,14.04 29.92,30.64l0.12 0 0 337.79c0,16.99 -13.78,30.76 -30.77,30.76 -1.2,0 -2.39,-0.07 -3.57,-0.21zm-1665.7 -779.61c422,424.96 998.9,694.96 1638.51,717.51l0 -276.6c-563.74,-22.47 -1071.87,-261.5 -1443.98,-636.43 -371.95,-374.78 -608.05,-885.39 -628.02,-1451.21l-275.49 0c20.05,642.15 287.07,1221.88 708.98,1646.73z"/>
   <path class="fil0" d="M5709.85 2709.25c-24.87,1332.11 -1098.99,2406.62 -2428.09,2426.78l0 -337.75c1143.16,-20.09 2066.64,-943.44 2091.41,-2089.03l336.68 0z"/>
   <path class="fil1" d="M3285.15 157.44c671.6,10.99 1278.65,287.76 1721.13,730 443.35,443.11 721.62,1052.38 734.22,1726.88 0.26,16.92 -13.24,30.86 -30.16,31.12l-0.49 0 0 0.13 -336.68 0c-16.99,0 -30.76,-13.78 -30.76,-30.77l0.05 -1.82c-12.82,-563.66 -246.42,-1072.62 -617.46,-1443.24 -371.46,-371.03 -880.57,-603.44 -1443.72,-613.33 -16.76,-0.26 -30.16,-13.94 -30.16,-30.64l-0.12 0 0 -337.75c0,-16.99 13.78,-30.76 30.76,-30.76 1.15,0 2.28,0.06 3.39,0.18zm1677.87 773.5c-425.51,-425.28 -1006.82,-693.72 -1650.49,-711.61l0 276.56c567.71,17.83 1080.18,255.23 1455.73,630.35 375.78,375.36 614.59,888.63 634.68,1457.8l275.49 0c-20.15,-645.41 -289.8,-1227.72 -715.41,-1653.1z"/>
   <path class="fil1" d="M2604.01 1248.76c81,0 154.36,32.85 207.45,85.94 53.09,53.09 85.93,126.44 85.93,207.45 0,81.01 -32.84,154.37 -85.93,207.46 -53.09,53.09 -126.45,85.93 -207.45,85.93 -81.01,0 -154.37,-32.84 -207.46,-85.93 -53.09,-53.09 -85.94,-126.44 -85.94,-207.46 0,-81.01 32.85,-154.36 85.94,-207.45 53.09,-53.09 126.45,-85.94 207.46,-85.94zm178.45 114.94c-45.66,-45.66 -108.76,-73.92 -178.45,-73.92 -69.69,0 -132.8,28.26 -178.46,73.91 -45.67,45.67 -73.92,108.77 -73.92,178.46 0,69.7 28.25,132.8 73.92,178.46 45.66,45.66 108.77,73.91 178.46,73.91 69.69,0 132.79,-28.25 178.45,-73.91 45.66,-45.66 73.91,-108.77 73.91,-178.46 0,-69.69 -28.25,-132.79 -73.91,-178.45zm-209.63 864.88l322.94 -158.14c4.66,-52.95 57.28,-171.89 121.25,-282.69l0.67 -1.07c32.42,-56.07 67.51,-110.47 100.21,-153.25 34.58,-45.23 67.58,-78.61 94.01,-89.71 15.27,-6.4 29.42,-6.56 42,0.7 2.55,1.47 4.67,3.4 6.3,5.64 167.37,227.93 252.75,458.6 264.86,691.67 11.79,226.98 -45.94,455.62 -165.1,685.68l261.62 137.35c169.8,-306.94 232.15,-620.92 178.47,-942.49 -54.2,-324.64 -226.6,-657.67 -525.92,-999.68 -59.25,34.54 -116.32,71.31 -170.52,110.58 -54.21,39.28 -105.55,81.04 -153.35,125.53 13.56,25.51 24.38,52.64 32.04,80.96 8.85,32.71 13.58,67.09 13.58,102.49 0,108.21 -43.86,206.19 -114.78,277.11 -70.64,70.63 -168.13,114.44 -275.83,114.78 -11.29,47.41 -19.77,96.63 -25.22,147.75 -5.03,47.27 -7.5,96.19 -7.23,146.79zm352.61 -127.18l-362.88 177.7c-2.71,1.45 -5.79,2.31 -9.07,2.39 -11.27,0.31 -20.67,-8.59 -20.98,-19.86 -1.79,-64.13 0.61,-125.48 6.86,-184.17 6.28,-58.99 16.42,-115.34 30.06,-169.2 2.33,-9.2 10.83,-15.85 20.68,-15.47 4.73,0.16 9.16,0.23 13.9,0.24 96.89,0 184.61,-39.28 248.1,-102.77 63.49,-63.48 102.76,-151.22 102.76,-248.11 0,-31.85 -4.22,-62.67 -12.13,-91.91 -8.11,-29.95 -20.03,-58.23 -35.18,-84.27 -5.35,-8.11 -4.3,-19.15 2.99,-26.08 52.54,-50 109.17,-96.51 169.04,-139.89 59.86,-43.38 123.03,-83.7 188.63,-121.32 8.25,-4.68 18.94,-3.14 25.47,4.24 311.45,352.44 490.62,696.46 546.75,1032.62 56.29,337.2 -11.11,665.88 -192.94,986.65 -5.42,9.52 -17.45,13.13 -27.23,8.02l-295.88 -155.34 -1.67 -0.79c-10,-5.31 -13.8,-17.73 -8.5,-27.73 122.2,-229.76 181.69,-457.39 169.99,-682.54 -11.58,-223.02 -93.09,-444.34 -252.69,-663.69 -0.95,0.29 -2.22,0.77 -3.75,1.41 -19.41,8.15 -46.87,36.89 -77.34,76.74 -31.91,41.73 -65.98,94.56 -97.38,148.86l-0.61 1.13c-69.23,119.9 -126.55,244.31 -117.08,266.86l-0.06 0.03c4.16,9.91 -0.09,21.47 -9.86,26.25z"/>
   <path class="fil0" d="M3933.61 2325.87c-6.55,134.76 -13.09,269.53 -19.63,404.29 63.13,6.75 372.48,493.24 298.16,538.12 -552.64,71.9 -957.46,-143.73 -1245.87,-585.74 -93.44,61.68 -186.88,123.36 -280.31,185.04 381.21,620.04 1007.03,859.29 1917.24,655.89 -2.53,-149.88 -19.04,-296.16 -55.36,-434.47 -63.74,1.66 -128.76,-13.06 -188.64,-46.07 -179.62,-99.04 -244.94,-324.93 -145.91,-504.54 2.37,-4.31 4.85,-8.54 7.37,-12.72 -79.94,-74.8 -174.87,-141.96 -287.05,-199.8z"/>
   <circle class="fil0" transform="matrix(-0.275682 0.500011 -0.500011 -0.275682 4538.51 2717.7)" r="477.92"/>
   <path class="fil0" d="M3203.03 3486.05c-112.46,-74.53 -224.94,-149.06 -337.4,-223.59 -38.08,50.8 -614.34,67.9 -614.91,-18.92 220.79,-511.69 613.09,-749.33 1140.42,-771.18 -5.23,-111.84 -10.46,-223.68 -15.69,-335.51 -727.78,10.56 -1253.39,426.06 -1543.99,1312.28 130.09,74.47 264.25,135.07 401.68,174.58 31.16,-55.63 77.06,-103.98 136.05,-138.55 176.95,-103.73 404.48,-44.37 508.2,132.58 2.49,4.25 4.86,8.54 7.16,12.84 105.16,-30.46 211.42,-77.7 318.48,-144.53z"/>
   <circle class="fil0" transform="matrix(-0.288742 -0.492585 0.492585 -0.288741 2557 3805.55)" r="477.92"/>
   <path class="fil1" d="M2020.34 5918.07l148.8 0c50.36,0 90.49,12.67 120.41,38 29.91,25.33 44.87,61.53 44.87,108.6 0,29.92 -6.63,55.45 -19.88,76.59 -13.26,21.14 -31.62,37.1 -55.1,47.87l82.36 159.76 -108.48 0 -65.89 -141.81 -45.43 0 0 141.81 -101.66 0 0 -430.82zm153.34 92.15l-51.68 0 0 109.5 52.25 0c16.66,0 30,-4.49 40.05,-13.46 10.03,-8.98 15.04,-22.84 15.04,-41.59 0,-17.95 -5.11,-31.51 -15.33,-40.69 -10.22,-9.17 -23.67,-13.76 -40.33,-13.76z"/>
   <polygon id="_1" class="fil1" points="2695.07,6348.89 2418.48,6348.89 2418.48,5918.07 2686.54,5918.07 2686.54,6010.22 2522.41,6010.22 2522.41,6086.81 2662.69,6086.81 2662.69,6174.17 2522.41,6174.17 2522.41,6256.74 2695.07,6256.74 "/>
   <path id="_2" class="fil1" d="M2911.45 6348.89l-137.44 0 0 -430.82 136.87 0c70.43,0 126.65,20.05 168.68,60.14 42.03,40.09 63.05,91.84 63.05,155.27 0,63.43 -20.92,115.18 -62.76,155.27 -41.84,40.09 -97.98,60.14 -168.4,60.14zm-1.71 -338.67l-31.79 0 0 246.52 32.36 0c39.77,0 70.91,-11.77 93.43,-35.3 22.54,-23.54 33.79,-52.86 33.79,-87.96 0,-35.1 -11.25,-64.42 -33.79,-87.96 -22.52,-23.53 -53.85,-35.3 -94,-35.3z"/>
   <polygon id="_3" class="fil1" points="3326.07,6348.89 3222.13,6348.89 3222.13,5918.07 3326.07,5918.07 "/>
   <polygon id="_4" class="fil1" points="3716.25,6010.22 3607.21,6010.22 3607.21,6348.89 3502.7,6348.89 3502.7,6010.22 3393.65,6010.22 3393.65,5918.07 3716.25,5918.07 "/>
   <path id="_5" class="fil1" d="M4135.4 5918.07l0 271.06c0,51.06 -15.71,91.85 -47.14,122.36 -31.43,30.52 -74.97,45.78 -130.63,45.78 -55.28,0 -98.73,-15.26 -130.35,-45.78 -31.61,-30.51 -47.42,-71.3 -47.42,-122.36l0 -271.06 103.94 0 0 259.09c0,25.53 6.34,45.28 19.02,59.24 12.69,13.96 30.95,20.94 54.81,20.94 23.86,0 42.03,-6.98 54.53,-20.94 12.49,-13.96 18.73,-33.71 18.73,-59.24l0 -259.09 104.51 0z"/>
   <polygon id="_6" class="fil1" points="4484.69,6348.89 4233.09,6348.89 4233.09,5918.07 4337.02,5918.07 4337.02,6256.74 4484.69,6256.74 "/>
   <path class="fil1" d="M443.03 3650.31l329.1 -126.06 45.8 119.58c9.57,24.97 13.54,44.53 11.99,58.83 -1.58,14.22 -8.12,27.88 -19.43,41 -11.42,13.07 -26.57,23.27 -45.42,30.49 -24.9,9.54 -47.51,10.82 -67.86,3.77 -20.37,-7.05 -37.39,-22.14 -51.05,-45.19 -2.13,12.32 -5.17,22.27 -9.27,29.9 -8.52,15.38 -18.96,30.1 -31.27,44.05l-71.57 81.26 -17.16 -44.82 54.5 -62.25c21.33,-24.16 35.38,-41.57 42.01,-52.28 6.63,-10.63 10.31,-19.85 10.97,-27.75 0.77,-7.85 -1.17,-17.74 -5.72,-29.61l-15.72 -41.06 -146.17 55.99 -13.73 -35.85zm197.58 -34.58l29.35 76.61c6.43,16.78 13.26,28.65 20.67,35.83 7.37,7.1 16.34,11.49 26.96,13.3 10.67,1.71 21.75,0.37 33.24,-4.03 16.62,-6.38 27.87,-16.22 33.65,-29.58 5.77,-13.37 5,-29.59 -2.33,-48.74l-32.6 -85.11 -108.94 41.72zm45.5 392.68l11.27 35.06c-27.03,6.58 -50.32,5.73 -69.73,-2.44 -19.51,-8.21 -34.44,-22.88 -44.87,-44 -13.15,-26.63 -13.68,-53.08 -1.58,-79.54 12.02,-26.43 37.08,-49.05 75.18,-67.86 39.5,-19.5 73.69,-26.05 102.71,-19.7 28.95,6.38 49.67,22.22 62.28,47.75 11.98,24.27 11.85,49.58 -0.5,75.9 -12.38,26.24 -37.84,48.97 -76.46,68.03l-10.4 4.87 -69.3 -140.34c-25.17,14.07 -41.72,29.65 -49.54,46.78 -7.9,17.17 -8.06,33.34 -0.5,48.65 11.8,23.9 35.64,32.9 71.44,26.84zm11.32 -136.05l51.79 104.89c19.13,-11.28 31.84,-22.77 38.14,-34.66 9.16,-17.23 9.85,-33.78 2.05,-49.59 -7.05,-14.27 -19,-23.46 -35.81,-27.7 -16.82,-4.23 -35.51,-1.86 -56.17,7.06zm22.02 361.18l27.52 -16.13c-13.84,0.7 -26.1,-1.72 -36.79,-7.14 -10.7,-5.43 -18.98,-13.23 -24.91,-23.34 -12.49,-21.31 -13.22,-45.6 -2.25,-72.95 10.97,-27.35 34.71,-51.73 71.23,-73.14 25.05,-14.69 48.24,-23.63 69.72,-26.9 21.42,-3.34 39.81,-1.66 55,4.94 15.18,6.59 26.94,16.91 35.24,31.07 5.89,10.05 8.78,21 8.54,32.74 -0.25,11.75 -3.49,23.25 -9.65,34.47l109.12 -63.97 17.93 30.56 -304.02 178.24 -16.68 -28.45zm53 -161.15c-28.52,16.71 -46.78,34.07 -54.87,52.04 -8,18 -8.17,33.6 -0.49,46.7 7.63,13.01 20.88,20.37 39.78,22.12 18.84,1.8 41.72,-5.25 68.54,-20.97 30.92,-18.13 50.65,-36.07 59.2,-53.92 8.62,-17.89 8.65,-34.07 0.14,-48.58 -7.55,-12.87 -20.81,-19.93 -39.91,-21.2 -19.09,-1.26 -43.16,6.67 -72.39,23.81zm140.87 436.13l25.06 -19.76c-13.62,2.6 -26.09,1.88 -37.43,-2.03 -11.34,-3.91 -20.61,-10.5 -27.86,-19.71 -15.3,-19.39 -19.35,-43.35 -12.23,-71.95 7.12,-28.59 27.3,-56 60.54,-82.2 22.8,-17.98 44.55,-30.02 65.38,-36.2 20.77,-6.24 39.21,-7.1 55.16,-2.64 15.94,4.46 29.01,13.07 39.16,25.95 7.22,9.14 11.58,19.6 12.95,31.26 1.36,11.67 -0.27,23.51 -4.84,35.47l99.33 -78.32 21.95 27.82 -276.74 218.21 -20.43 -25.9zm30.44 -166.9c-25.96,20.47 -41.67,40.16 -47.23,59.07 -5.45,18.93 -3.49,34.4 5.91,46.32 9.34,11.85 23.47,17.32 42.44,16.47 18.9,-0.8 40.6,-10.91 65.01,-30.16 28.15,-22.2 45.24,-42.67 51.27,-61.52 6.08,-18.9 3.89,-34.93 -6.52,-48.14 -9.24,-11.72 -23.35,-16.9 -42.44,-15.53 -19.08,1.36 -41.84,12.51 -68.44,33.49zm179.95 292.03l19.53 31.22c-24.59,13.01 -47.38,17.9 -68.2,14.75 -20.93,-3.17 -39,-13.73 -54.29,-31.64 -19.28,-22.59 -26.28,-48.1 -21.05,-76.73 5.17,-28.57 23.91,-56.64 56.23,-84.23 33.51,-28.6 65.04,-43.33 94.73,-44.3 29.63,-0.92 53.61,9.35 72.09,31.01 17.58,20.58 23.66,45.15 18.15,73.7 -5.56,28.47 -24.67,56.75 -57.43,84.72l-8.9 7.27 -101.61 -119.05c-20.94,19.81 -33.16,38.98 -36.55,57.51 -3.44,18.58 0.38,34.3 11.46,47.28 17.31,20.27 42.63,23.15 75.84,8.49zm-22.41 -134.66l75.94 88.97c15.78,-15.63 25.29,-29.89 28.48,-42.96 4.64,-18.95 1.26,-35.16 -10.19,-48.58 -10.33,-12.1 -24.17,-18.08 -41.51,-18.06 -17.34,0.03 -34.88,6.9 -52.72,20.63zm105.37 333.55l244.19 -254.1 27.69 26.6 -244.2 254.1 -27.68 -26.6zm73.02 68.17l167.69 -192.71 24.14 21.01 -24.02 27.59c15.08,-5.58 29.03,-7.36 41.96,-5.35 12.99,2.07 24.84,7.81 35.67,17.24 8.49,7.37 14.83,15.83 19.1,25.42 4.32,9.53 6.3,18.87 6.01,28.08 -0.29,9.2 -3.09,19.05 -8.41,29.54 -5.27,10.42 -15.63,24.57 -31.08,42.33l-102.96 118.32 -26.74 -23.27 101.89 -117.08c12.33,-14.17 20.14,-25.53 23.39,-34.13 3.24,-8.59 3.88,-16.95 1.87,-25 -2.07,-8.01 -6.38,-14.92 -13.19,-20.84 -12.75,-11.09 -27.04,-15.15 -42.95,-12.25 -15.96,2.96 -33.95,16.01 -54.14,39.22l-91.5 105.14 -26.73 -23.26zm220.74 177.51l84.12 -253.83 29.98 21.4 -52.31 150.44c-5.86,17.09 -12.22,33.62 -18.95,49.68 10.29,-9.19 23.21,-19.81 38.84,-31.93l128.54 -99.53 30.04 21.45 -213.09 161.72 -27.17 -19.4zm281.38 92.06l27.57 24.42c-19.91,19.43 -40.38,30.57 -61.24,33.44 -20.97,2.88 -41.29,-2.13 -61.02,-14.98 -24.88,-16.22 -38.82,-38.7 -41.91,-67.64 -3.13,-28.86 6.9,-61.09 30.1,-96.7 24.04,-36.91 50.12,-59.96 78.32,-69.3 28.17,-9.27 54.07,-6.2 77.92,9.34 22.69,14.77 35.48,36.62 38.27,65.56 2.72,28.89 -7.61,61.42 -31.12,97.5l-6.47 9.49 -131.15 -85.42c-14.47,24.93 -20.77,46.77 -18.78,65.5 1.96,18.79 10.07,32.79 24.37,42.11 22.34,14.55 47.43,10.14 75.14,-13.32zm-59.6 -122.83l98.02 63.85c10.71,-19.45 15.79,-35.81 15.15,-49.26 -0.91,-19.49 -8.74,-34.08 -23.52,-43.7 -13.33,-8.69 -28.3,-10.51 -44.92,-5.58 -16.63,4.93 -31.5,16.49 -44.73,34.69zm106.44 159.12l34.55 10.17c-6.23,16.97 -7.17,31.47 -2.78,43.4 4.35,12 13.32,21.37 27.04,28.25 13.7,6.88 25.99,8.73 36.89,5.66 10.9,-3.06 18.98,-9.84 24.24,-20.32 4.53,-9.02 4.9,-17.64 1.14,-25.87 -2.67,-5.65 -11.23,-15.27 -25.63,-29.02 -20.86,-19.91 -34.12,-34.64 -39.82,-44.11 -5.71,-9.47 -8.67,-19.86 -8.83,-31.05 -0.17,-11.19 2.63,-22.45 8.3,-33.74 9.75,-19.43 23.92,-32.14 42.5,-38.06 18.57,-5.91 38.93,-3.32 61,7.76 13.86,6.96 24.85,15.59 32.87,25.95 7.98,10.24 12.62,21.11 14.04,32.38 1.3,11.3 -0.88,25.34 -6.71,42.25l-33.66 -9.73c9.94,-26.95 2.71,-46.55 -21.56,-58.73 -13.85,-6.96 -25.52,-9.32 -35.09,-7.25 -9.51,2.12 -16.41,7.47 -20.72,16.04 -4.23,8.44 -4.35,16.73 -0.26,24.84 2.45,4.81 11.72,15.24 27.84,31.22 22.31,21.2 35.97,36.23 41.17,45.08 5.16,8.73 7.68,18.53 7.66,29.17 -0.05,10.71 -3.04,21.98 -8.96,33.78 -10.96,21.85 -26.72,36.06 -47.35,42.6 -20.59,6.64 -42.82,3.93 -66.8,-8.1 -44.79,-22.48 -58.46,-59.99 -41.07,-112.57zm247.01 161.09l-11.12 37.08c-10.07,-1.61 -18.69,-4.02 -25.89,-7.22 -11.31,-5.04 -19.38,-11.33 -24.34,-18.93 -4.93,-7.49 -6.91,-15.73 -5.98,-24.67 0.8,-8.88 6.44,-24.96 16.76,-48.12l59.87 -134.43 -23.82 -10.61 13.61 -30.58 23.83 10.62 25.64 -57.55 42.98 -9.41 -36.25 81.38 32.83 14.62 -13.62 30.57 -32.82 -14.62 -60.89 136.68c-5.63,12.67 -8.27,21.19 -8.03,25.7 0.4,6.55 4.48,11.51 12.13,14.92 3.67,1.63 8.73,3.17 15.11,4.57zm137.46 -227.57l20.23 -45.41 32.37 14.41 -20.23 45.42 -32.37 -14.42zm-123.16 276.51l103.93 -233.35 32.38 14.42 -103.94 233.35 -32.37 -14.42zm67.88 56.94l30.68 16.94c-2.74,13.44 -1.34,24.53 4.2,33.38 5.61,8.87 15.14,15.58 28.84,20.13 14.86,4.95 27.86,5.38 39.01,1.22 11.15,-4.16 20.64,-12.68 28.55,-25.53 4.76,-7.83 11.73,-25.41 20.81,-52.73 -10.76,7.92 -21.62,13.05 -32.58,15.28 -10.84,2.19 -21.91,1.45 -33.04,-2.25 -23.83,-7.92 -40.26,-24.53 -49.31,-49.85 -10.32,-29.02 -9.08,-62.92 3.81,-101.68 8.65,-26.01 20.17,-47.42 34.58,-64.24 14.4,-16.82 29.5,-27.62 45.44,-32.44 15.88,-4.83 31.88,-4.62 47.91,0.71 11.68,3.88 21.47,10.34 29.23,19.23 7.82,8.99 13.54,20.4 17.21,34.33l9.7 -29.19 30.83 10.24 -69.58 209.33c-12.4,37.29 -24.26,62.82 -35.61,76.69 -11.43,13.83 -25.58,23.12 -42.5,27.71 -16.91,4.58 -35.09,3.63 -54.63,-2.86 -25.69,-8.54 -43.24,-22.07 -52.51,-40.45 -9.28,-18.39 -9.63,-39.68 -1.04,-63.97zm76.39 -136.17c-10.61,31.9 -13.06,56.95 -7.41,75.07 5.64,18.14 16.06,29.72 31.31,34.79 15.26,5.07 30.56,2.2 45.99,-8.58 15.42,-10.77 28.37,-31.8 38.77,-63.09 10.15,-30.52 12.23,-54.98 6.2,-73.5 -6.03,-18.51 -16.94,-30.43 -32.67,-35.66 -14.01,-4.66 -28.79,-1.28 -44.31,10.07 -15.54,11.35 -28.15,31.62 -37.88,60.9zm289.52 195.46c-14.77,8.76 -29.12,14.4 -43.11,16.97 -14.1,2.64 -27.73,2.09 -41.02,-1.6 -21.02,-5.85 -36.02,-16.83 -44.98,-33.02 -9.05,-16.14 -10.54,-34.95 -4.57,-56.44 3.95,-14.23 10.37,-25.99 19.35,-35.33 8.9,-9.36 19.36,-15.73 31.27,-19.06 11.91,-3.33 28.67,-3.61 50.19,-0.78 28.92,3.78 50.71,4.72 65.21,2.79l3.21 -10.6c4.69,-16.91 4.99,-29.61 0.89,-38.15 -5.71,-12.23 -17.37,-20.83 -34.92,-25.71 -15.88,-4.41 -28.66,-4.39 -38.39,-0.03 -9.65,4.39 -18.87,15.19 -27.61,32.27l-32.43 -15.66c12.09,-24.82 27.01,-41.12 44.95,-48.98 17.93,-7.87 40.53,-7.98 67.72,-0.43 21.18,5.89 36.67,14.45 46.55,25.8 9.82,11.24 14.74,23.25 14.65,35.83 -0.11,12.65 -3.27,30.16 -9.53,52.69l-15.44 55.56c-10.81,38.89 -16.91,63.59 -18.22,74.13 -1.37,10.43 -1.19,21.12 0.5,31.89l-35.57 -9.89c-1.28,-9.47 -0.84,-20.24 1.3,-32.25zm23.24 -93.74c-14.19,2.69 -34.29,2.72 -60.22,0.12 -15.06,-1.55 -25.9,-1.5 -32.47,0.08 -6.64,1.56 -12.32,4.84 -17.08,9.73 -4.77,4.88 -8.22,11.17 -10.33,18.76 -3.25,11.69 -2.23,22.11 3.09,31.16 5.32,9.06 14.39,15.32 27.19,18.89 12.25,3.4 24.2,3.32 35.92,-0.24 11.71,-3.56 21.56,-9.93 29.41,-19.16 7.9,-9.13 14.63,-23.86 20.26,-44.09l4.23 -15.25zm208.28 84.62l33.31 13.24c-10.74,28.67 -25.8,49.03 -45.06,61 -19.34,11.95 -40,15.35 -61.98,10.28 -26.78,-6.18 -46.23,-22.21 -58.42,-48.18 -12.21,-25.88 -13.36,-60.32 -3.45,-103.25 9.98,-43.24 26.19,-73.68 48.6,-91.24 22.5,-17.63 47.37,-23.25 74.7,-16.95 21.19,4.9 37.42,15.55 48.86,31.99 11.44,16.46 16.18,38.26 14.2,65.42l-35.01 -1.52c0.62,-17.62 -2.14,-31.56 -8.37,-41.75 -6.23,-10.28 -15.01,-16.68 -26.44,-19.32 -17.03,-3.93 -32.83,0.34 -47.51,12.86 -14.68,12.52 -25.81,35.21 -33.37,67.98 -7.84,33.97 -8.15,59.74 -1,77.31 7.12,17.64 18.96,28.37 35.58,32.21 13.11,3.02 25.38,0.55 36.96,-7.3 11.52,-7.95 21.03,-22.18 28.4,-42.78zm99.48 -197.16l9.2 -48.85 34.83 6.55 -9.2 48.86 -34.83 -6.56zm-55.98 297.48l47.24 -251.04 34.83 6.55 -47.25 251.04 -34.82 -6.55zm90.5 -115.79c5.16,-43.75 18.25,-75.66 39.22,-95.82 20.95,-20.08 45.57,-28.5 73.68,-25.18 27.7,3.26 49.43,17.15 65.47,41.59 15.94,24.52 21.44,57.71 16.48,99.75 -5.36,45.46 -18.48,78.27 -39.45,98.43 -20.87,20.09 -45.48,28.5 -73.75,25.16 -27.78,-3.27 -49.69,-17.17 -65.53,-41.76 -15.86,-24.5 -21.26,-58.59 -16.12,-102.17zm36.19 4.1c-3.88,32.92 -0.81,58.05 9.18,75.5 10,17.46 23.81,27.18 41.41,29.26 16.45,1.94 31.58,-4.46 45.31,-19.27 13.72,-14.82 22.46,-38.49 26.3,-71.08 3.86,-32.67 0.78,-57.72 -9.22,-75.18 -10,-17.45 -23.8,-27.17 -41.4,-29.24 -16.62,-1.97 -31.75,4.43 -45.38,19.18 -13.63,14.66 -22.36,38.33 -26.2,70.83zm53.86 -154.06l33.8 -63.91 45.95 5.42 -50.75 61.91 -29 -3.42zm131.6 299.64l8.8 -255.29 31.98 1.09 -1.26 36.57c8.19,-13.84 17.9,-24.01 29.21,-30.59 11.38,-6.59 24.21,-9.6 38.56,-9.1 11.23,0.39 21.49,2.96 30.84,7.71 9.37,4.67 16.79,10.68 22.37,18.02 5.57,7.33 9.6,16.74 12.08,28.24 2.47,11.41 3.34,28.92 2.53,52.45l-5.41 156.75 -35.41 -1.22 5.35 -155.11c0.64,-18.78 -0.44,-32.52 -3.34,-41.24 -2.9,-8.72 -7.67,-15.61 -14.31,-20.6 -6.65,-4.91 -14.35,-7.56 -23.37,-7.87 -16.88,-0.58 -30.54,5.27 -41.07,17.55 -10.52,12.36 -16.27,33.82 -17.33,64.57l-4.8 139.29 -35.42 -1.22zm340.91 5.16l-41.27 -349.99 57.1 -6.73 97.1 239.82 19.71 50.2c1.81,-13.34 4.66,-32.59 8.62,-57.92l39.95 -251.61 51.24 -6.04 41.28 349.98 -36.65 4.33 -34.72 -294.27 -48.71 304.11 -34.21 4.03 -118.05 -289.3 35.28 299.06 -36.67 4.33zm464.07 -67.1l-6.94 -36.85c-5.31,15.7 -12.82,28.12 -22.27,37.33 -9.55,9.14 -21.14,15 -34.84,17.58 -16.2,3.05 -30.81,1.29 -43.99,-5.33 -13.09,-6.55 -22.84,-16.23 -29.23,-28.89 -6.39,-12.65 -11.77,-30.59 -16.14,-53.81l-29.28 -155.59 34.83 -6.55 26.2 139.23c4.87,25.87 9.41,42.88 13.63,51.18 4.23,8.22 10.39,14.33 18.32,18.34 8,3.93 16.48,5.08 25.43,3.39 16.61,-3.12 28.94,-12.54 37.09,-28.25 6.88,-13.57 7.31,-36.11 1.37,-67.63l-25.3 -134.47 34.82 -6.55 47.25 251.04 -30.95 5.83zm85.51 -19.28l-68.39 -246.12 30.83 -8.57 9.79 35.25c3.65,-15.66 9.85,-28.28 18.65,-37.96 8.88,-9.71 20.21,-16.44 34.04,-20.28 10.83,-3.01 21.39,-3.64 31.74,-1.92 10.33,1.64 19.22,5.13 26.74,10.45 7.53,5.32 14.2,13.08 20.02,23.3 5.79,10.14 11.89,26.58 18.19,49.26l42 151.12 -34.15 9.49 -41.55 -149.54c-5.03,-18.1 -10.2,-30.88 -15.58,-38.32 -5.39,-7.45 -12.01,-12.59 -19.85,-15.35 -7.82,-2.69 -15.96,-2.89 -24.65,-0.47 -16.28,4.52 -27.55,14.21 -33.9,29.08 -6.32,14.96 -5.34,37.16 2.9,66.8l37.32 134.29 -34.15 9.49zm113.33 -347.95l-16.76 -46.8 33.37 -11.94 16.75 46.8 -33.36 11.94zm102.01 285l-86.09 -240.51 33.37 -11.94 86.09 240.5 -33.37 11.95zm179.05 -165.71l35.03 -7.62c7.1,29.78 5.98,55.07 -3.31,75.76 -9.37,20.72 -24.6,35.07 -45.67,43.14 -25.66,9.83 -50.75,7.41 -75.37,-7.32 -24.58,-14.65 -44.77,-42.58 -60.52,-83.72 -15.88,-41.44 -19.44,-75.74 -10.66,-102.83 8.82,-27.18 26.3,-45.74 52.51,-55.78 20.3,-7.77 39.71,-8 58.38,-0.75 18.69,7.25 34.79,22.69 48.32,46.32l-29.89 18.31c-9.33,-14.97 -19.4,-24.99 -30.27,-29.97 -10.89,-5.05 -21.76,-5.45 -32.71,-1.25 -16.32,6.25 -27.05,18.61 -32.23,37.2 -5.18,18.59 -1.74,43.62 10.3,75.03 12.47,32.56 26.6,54.11 42.34,64.68 15.77,10.66 31.57,12.95 47.51,6.84 12.56,-4.81 21.36,-13.71 26.58,-26.69 5.11,-13.03 5.05,-30.14 -0.34,-51.35zm-31.67 -214.32l-20.49 -45.29 32.28 -14.61 20.5 45.3 -32.29 14.6zm124.8 275.78l-105.32 -232.73 32.29 -14.61 105.32 232.73 -32.29 14.61zm125.29 51.36l-156.46 -316.87 29.58 -14.6 14.85 30.08c1.03,-15.88 4.58,-28.7 10.64,-38.46 6.04,-9.84 14.69,-17.51 25.95,-23.07 14.78,-7.3 30.27,-9.45 46.44,-6.55 16.24,2.87 32.3,11.5 48.41,25.78 16.03,14.32 30.27,34.09 42.7,59.24 19.21,38.91 25.87,72.96 19.99,102.01 -5.94,29.11 -19.8,49.03 -41.79,59.89 -9.78,4.83 -20.06,6.8 -31.06,6.01 -10.93,-0.83 -21.74,-4.37 -32.42,-10.43l54.95 111.28 -31.78 15.69zm-69.91 -215.15c14.6,29.57 30.32,48.99 47.07,58.09 16.8,9.18 32.16,10.29 46.14,3.39 13.39,-6.61 21.56,-19.7 24.48,-39.17 3,-19.5 -3.01,-44.44 -17.97,-74.75 -14.78,-29.93 -30.64,-49.64 -47.58,-59.12 -16.94,-9.48 -32.41,-10.8 -46.53,-3.83 -12.73,6.29 -20.46,19.71 -23.28,40.32 -2.75,20.57 3.1,45.58 17.67,75.07zm72.63 -237.01l-25.15 -42.88 30.57 -17.92 25.15 42.88 -30.57 17.92zm153.09 261.14l-129.19 -220.37 30.56 -17.93 129.2 220.38 -30.57 17.92zm-2.2 -146.02c-23.58,-37.2 -33.54,-70.23 -29.98,-99.1 3.6,-28.79 17.39,-50.84 41.3,-66 23.55,-14.93 49.18,-17.86 77.04,-9.01 27.82,8.97 53.03,31.26 75.7,67.01 24.5,38.66 35.01,72.4 31.45,101.27 -3.53,28.76 -17.32,50.81 -41.37,66.05 -23.62,14.97 -49.39,18 -77.19,8.92 -27.76,-9.01 -53.45,-32.07 -76.95,-69.14zm30.68 -19.64c17.75,27.99 35.98,45.57 54.75,52.81 18.76,7.24 35.61,6.07 50.57,-3.41 14,-8.87 21.71,-23.37 23.01,-43.53 1.31,-20.15 -6.84,-44.04 -24.4,-71.75 -17.62,-27.78 -35.81,-45.29 -54.57,-52.53 -18.77,-7.24 -35.62,-6.08 -50.58,3.41 -14.13,8.97 -21.84,23.46 -23.12,43.51 -1.33,19.97 6.82,43.85 24.34,71.49zm431.77 -155.85l-19.76 -25.06c2.6,13.62 1.88,26.1 -2.03,37.43 -3.91,11.34 -10.5,20.61 -19.71,27.87 -19.39,15.29 -43.35,19.35 -71.95,12.23 -28.59,-7.12 -56,-27.3 -82.2,-60.55 -17.99,-22.8 -30.02,-44.55 -36.2,-65.38 -6.24,-20.77 -7.1,-39.21 -2.64,-55.16 4.46,-15.94 13.06,-29 25.95,-39.16 9.14,-7.21 19.59,-11.58 31.26,-12.94 11.67,-1.37 23.51,0.27 35.47,4.83l-78.32 -99.33 27.82 -21.94 218.21 276.74 -25.9 20.42zm-166.9 -30.43c20.47,25.96 40.16,41.66 59.07,47.23 18.93,5.45 34.4,3.48 46.32,-5.92 11.85,-9.34 17.32,-23.46 16.47,-42.43 -0.8,-18.91 -10.91,-40.61 -30.16,-65.02 -22.2,-28.15 -42.67,-45.23 -61.52,-51.26 -18.9,-6.09 -34.93,-3.9 -48.14,6.52 -11.72,9.24 -16.9,23.34 -15.53,42.43 1.36,19.08 12.51,41.85 33.49,68.45zm280.27 -186.06l30.01 -21.35c14.44,23.78 20.68,46.24 18.76,67.2 -1.92,21.09 -11.39,39.76 -28.36,56.07 -21.4,20.59 -46.46,29.1 -75.34,25.58 -28.82,-3.46 -57.96,-20.51 -87.42,-51.14 -30.54,-31.75 -47.12,-62.35 -49.84,-91.94 -2.68,-29.52 6.15,-54.07 26.67,-73.8 19.51,-18.77 43.67,-26.3 72.5,-22.49 28.75,3.87 58.12,21.27 87.97,52.3l7.79 8.45 -112.82 108.5c21.03,19.73 40.89,30.79 59.59,33.07 18.74,2.34 34.21,-2.41 46.51,-14.23 19.22,-18.48 20.58,-43.93 3.98,-76.22zm-133.1 30.36l84.31 -81.09c-16.53,-14.82 -31.34,-23.47 -44.58,-25.87 -19.19,-3.51 -35.17,0.82 -47.88,13.05 -11.47,11.03 -16.62,25.2 -15.57,42.51 1.06,17.31 8.96,34.4 23.72,51.4zm369.35 -167.09l-236.94 -201.56 -61.55 72.35 -31.49 -26.79 148.3 -174.32 31.49 26.79 -61.87 72.73 236.94 201.56 -24.88 29.24zm176 -229.69l-30.5 -21.79c7.03,15 10.21,29.17 9.76,42.36 -0.56,13.21 -4.87,25.45 -12.98,36.81 -9.58,13.41 -21.34,22.25 -35.43,26.6 -13.98,4.33 -27.72,4.1 -41.09,-0.62 -13.37,-4.71 -29.67,-13.93 -48.89,-27.66l-128.84 -92.02 20.6 -28.84 115.28 82.34c21.43,15.3 36.48,24.44 45.28,27.51 8.74,3.01 17.4,3.15 25.91,0.55 8.49,-2.71 15.41,-7.74 20.7,-15.15 9.82,-13.75 12.21,-29.09 7.2,-46.07 -4.42,-14.55 -19.71,-31.11 -45.81,-49.75l-111.35 -79.53 20.6 -28.84 207.87 148.47 -18.31 25.63zm48.6 -71.69l-295.3 -192.35 19.34 -29.7 295.3 192.35 -19.34 29.7zm118.24 -194.25l-32.44 -18.79c8.43,14.27 12.94,28.07 13.75,41.24 0.7,13.21 -2.43,25.8 -9.42,37.87 -8.26,14.27 -19.13,24.19 -32.75,29.86 -13.5,5.64 -27.2,6.71 -40.96,3.29 -13.75,-3.42 -30.86,-11.05 -51.3,-22.89l-137 -79.36 17.76 -30.66 122.6 71.01c22.78,13.2 38.62,20.86 47.68,23.07 8.98,2.16 17.63,1.48 25.84,-1.9 8.2,-3.51 14.61,-9.18 19.17,-17.06 8.47,-14.62 9.39,-30.11 2.79,-46.54 -5.79,-14.06 -22.58,-29.1 -50.34,-45.18l-118.4 -68.58 17.77 -30.67 221.04 128.04 -15.79 27.25zm69.52 -213.95c6.48,15.9 9.94,30.92 10.42,45.15 0.54,14.33 -2.02,27.74 -7.63,40.33 -8.88,19.93 -21.95,33.15 -39.29,39.61 -17.3,6.58 -36.12,5.28 -56.5,-3.8 -13.49,-6 -24.17,-14.08 -32.08,-24.34 -7.95,-10.18 -12.71,-21.47 -14.25,-33.74 -1.54,-12.26 0.66,-28.89 6.63,-49.75 8,-28.05 12.15,-49.46 12.38,-64.09l-10.02 -4.73c-16.03,-7.15 -28.54,-9.31 -37.6,-6.51 -12.94,3.85 -23.16,14.11 -30.57,30.74 -6.71,15.06 -8.57,27.71 -5.69,37.97 2.91,10.19 12.24,20.9 27.84,32.06l-20.27 29.77c-22.77,-15.61 -36.68,-32.77 -41.82,-51.67 -5.14,-18.9 -1.92,-41.27 9.56,-67.05 8.95,-20.08 19.71,-34.14 32.38,-42.24 12.56,-8.05 25.17,-11.15 37.6,-9.21 12.5,1.98 29.35,7.69 50.71,17.21l52.68 23.46c36.87,16.42 60.4,26.09 70.63,28.94 10.11,2.89 20.72,4.29 31.62,4.21l-15.02 33.72c-9.56,-0.12 -20.15,-2.15 -31.71,-6.04zm-89.3 -36.81c0.57,14.44 -2.35,34.33 -8.76,59.59 -3.75,14.67 -5.3,25.39 -4.7,32.12 0.56,6.81 2.96,12.9 7.1,18.34 4.13,5.43 9.84,9.77 17.03,12.97 11.09,4.94 21.54,5.47 31.28,1.54 9.74,-3.92 17.28,-11.97 22.69,-24.11 5.17,-11.62 6.85,-23.44 5.06,-35.56 -1.79,-12.11 -6.64,-22.8 -14.61,-31.91 -7.87,-9.16 -21.45,-17.99 -40.63,-26.54l-14.46 -6.44zm-175.76 3.88l-50.99 -51.26 18.83 -42.27 44.04 66.85 -11.88 26.68z"/>
   <path class="fil1" d="M440.97 3644.88l334.5 -128.13 47.89 125.02c4.87,12.71 8.35,24.17 10.42,34.32 2.11,10.39 2.74,19.45 1.91,27.18 -0.86,7.74 -3.06,15.32 -6.56,22.71 -3.46,7.32 -8.24,14.48 -14.26,21.47 -6.07,6.94 -13.12,13.11 -21.11,18.48 -7.95,5.34 -16.84,9.9 -26.62,13.65 -12.98,4.97 -25.46,7.8 -37.38,8.47 -12.04,0.66 -23.53,-0.89 -34.44,-4.66 -10.9,-3.77 -20.91,-9.7 -29.98,-17.72 -5.88,-5.21 -11.37,-11.29 -16.46,-18.25l-1.07 3.72c-1.66,5.36 -3.6,10.11 -5.81,14.24l-0.05 0.04c-4.41,7.98 -9.28,15.71 -14.56,23.15 -5.29,7.45 -11.11,14.78 -17.42,21.93l-77.91 88.49 -21.84 -57.04 56.81 -64.9c10.56,-11.96 19.36,-22.29 26.36,-31 6.87,-8.55 11.92,-15.39 15.08,-20.5 3.16,-5.09 5.59,-9.75 7.27,-13.99 1.6,-4.05 2.56,-7.79 2.84,-11.2l0.02 -0.09c0.34,-3.35 0.06,-7.23 -0.79,-11.63 -0.9,-4.65 -2.43,-9.77 -4.57,-15.34l-13.66 -35.63 -146.17 55.99 -17.88 -46.7 5.44 -2.08zm327.81 -113.13l-318.25 121.9 9.58 25.01 146.16 -55.99 17.81 46.5c2.39,6.29 4.12,12.06 5.13,17.28 1.04,5.42 1.36,10.38 0.94,14.87 -0.36,4.47 -1.59,9.32 -3.64,14.51 -1.98,4.98 -4.71,10.27 -8.18,15.82 -3.46,5.57 -8.78,12.81 -15.9,21.67 -7,8.69 -15.91,19.16 -26.68,31.36l-52.19 59.62 12.48 32.59 65.22 -74.05c6,-6.77 11.55,-13.77 16.68,-20.99 5.14,-7.23 9.76,-14.57 13.86,-21.96 1.86,-3.51 3.51,-7.57 4.92,-12.15 1.45,-4.71 2.7,-10.05 3.72,-15.99l2.68 -15.53 8.03 13.55c6.53,11.03 13.83,20.11 21.87,27.23 7.93,7.02 16.64,12.19 26.07,15.45 9.44,3.27 19.45,4.6 30.03,4.02 10.67,-0.6 21.98,-3.2 33.89,-7.75 9.03,-3.46 17.14,-7.6 24.3,-12.41 7.14,-4.81 13.43,-10.29 18.8,-16.44 5.31,-6.17 9.51,-12.46 12.53,-18.84 2.95,-6.22 4.8,-12.57 5.52,-19 0.71,-6.56 0.13,-14.44 -1.74,-23.63 -1.92,-9.42 -5.23,-20.26 -9.92,-32.51l-43.72 -114.14zm-120.66 87.33l27.27 71.19c3.13,8.18 6.32,15.09 9.56,20.7 3.14,5.46 6.37,9.79 9.69,13.02 3.25,3.13 6.86,5.67 10.8,7.61 3.97,1.95 8.35,3.34 13.12,4.15 4.75,0.76 9.65,0.83 14.67,0.23 5.04,-0.61 10.23,-1.95 15.54,-3.97 7.66,-2.94 14.05,-6.65 19.14,-11.13 4.94,-4.31 8.69,-9.43 11.23,-15.32 2.55,-5.85 3.64,-12.4 3.3,-19.63 -0.35,-7.47 -2.27,-15.73 -5.72,-24.75l-30.52 -79.68 -98.08 37.58zm16.41 75.32l-31.42 -82.01 119.78 -45.88 34.69 90.54c3.87,10.12 6.02,19.57 6.44,28.33 0.43,8.99 -0.99,17.26 -4.22,24.77 -3.2,7.44 -7.96,13.93 -14.23,19.44 -6.12,5.41 -13.7,9.83 -22.68,13.27 -6.17,2.36 -12.28,3.92 -18.3,4.65 -6.03,0.73 -12.01,0.62 -17.91,-0.32l-0.07 0c-5.83,-0.99 -11.25,-2.73 -16.26,-5.19 -5.04,-2.47 -9.64,-5.69 -13.74,-9.65 -4.09,-3.96 -7.98,-9.16 -11.7,-15.61 -3.63,-6.3 -7.09,-13.75 -10.38,-22.34zm27.1 312.24l13.16 40.99 -6.05 1.47c-14,3.41 -27.1,4.89 -39.23,4.47 -12.36,-0.43 -23.74,-2.84 -34.11,-7.2 -10.43,-4.39 -19.67,-10.52 -27.65,-18.37 -7.94,-7.79 -14.67,-17.26 -20.17,-28.4 -6.94,-14.07 -10.56,-28.16 -10.85,-42.28 -0.27,-14.12 2.79,-28.19 9.19,-42.21 6.32,-13.93 16.07,-26.84 29.2,-38.7 12.92,-11.67 29.16,-22.34 48.7,-31.98 20.21,-9.98 39.14,-16.67 56.75,-20.04 17.91,-3.43 34.49,-3.48 49.75,-0.14 15.3,3.36 28.49,9.29 39.56,17.76 11.09,8.49 19.99,19.53 26.69,33.1 6.4,12.95 9.55,26.23 9.46,39.8 -0.08,13.49 -3.39,27.21 -9.91,41.12 -6.54,13.88 -16.48,26.76 -29.83,38.63 -13.1,11.67 -29.54,22.4 -49.32,32.16 -4.77,1.75 -10.81,5.04 -15.66,7.31l-69.06 -139.87c-9.8,5.85 -18.08,11.98 -24.84,18.35 -7.72,7.28 -13.39,14.87 -16.97,22.72 -3.61,7.83 -5.46,15.4 -5.53,22.66 -0.07,7.16 1.58,14.18 4.96,21.01 5.23,10.58 13.1,17.86 23.59,21.8 10.92,4.11 24.84,4.75 41.7,1.89l4.93 -0.83 1.54 4.78zm-1.71 32.56l-7.82 -24.31c-16.74,2.26 -31,1.18 -42.74,-3.23 -13.34,-5.02 -23.31,-14.21 -29.89,-27.53 -4.18,-8.47 -6.22,-17.21 -6.14,-26.24 0.09,-8.93 2.29,-18.06 6.57,-27.38 4.23,-9.26 10.76,-18.05 19.56,-26.35 8.58,-8.1 19.41,-15.81 32.44,-23.08l5.31 -2.97 69.49 140.72 5.15 -2.41c18.8,-9.29 34.38,-19.44 46.72,-30.43 12.19,-10.84 21.21,-22.47 27.06,-34.89 5.81,-12.37 8.75,-24.46 8.82,-36.24 0.07,-11.73 -2.69,-23.28 -8.29,-34.62 -5.89,-11.95 -13.67,-21.62 -23.32,-29.01 -9.67,-7.41 -21.34,-12.61 -35,-15.62 -13.75,-3.01 -28.78,-2.95 -45.08,0.17 -16.59,3.18 -34.54,9.54 -53.82,19.06 -18.55,9.16 -33.91,19.23 -46.05,30.18 -11.92,10.74 -20.72,22.37 -26.4,34.85 -5.7,12.46 -8.42,24.85 -8.18,37.22 0.25,12.36 3.48,24.82 9.68,37.38 4.92,9.97 10.88,18.4 17.88,25.27 6.95,6.81 14.97,12.14 24.03,15.95 9.05,3.81 19.06,5.92 29.97,6.3 9.33,0.32 19.36,-0.61 30.05,-2.79zm15.48 -163.8l46.21 93.6c6.88,-4.36 12.75,-8.73 17.6,-13.13 5.84,-5.32 10.2,-10.65 13.02,-15.99 4.17,-7.88 6.43,-15.51 6.72,-22.85 0.3,-7.28 -1.28,-14.45 -4.75,-21.47 -3.12,-6.33 -7.33,-11.53 -12.58,-15.58 -5.31,-4.11 -11.8,-7.12 -19.43,-9.04 -7.69,-1.94 -15.88,-2.36 -24.53,-1.28 -7.06,0.88 -14.48,2.8 -22.26,5.74zm38.62 104.41l-54.5 -110.36 5.61 -2.42c10.79,-4.66 21.16,-7.63 31.1,-8.88 10.08,-1.28 19.67,-0.77 28.77,1.52 9.17,2.31 17.08,6.02 23.7,11.13 6.68,5.16 12,11.71 15.91,19.64 4.33,8.77 6.3,17.8 5.92,27.04 -0.37,9.17 -3.06,18.46 -8.04,27.83 -3.47,6.54 -8.64,12.92 -15.48,19.13 -6.68,6.03 -14.96,11.97 -24.86,17.8l-5.37 3.17 -2.76 -5.6zm-27.5 248.74l11.06 -6.48 -1.23 -0.23c-6.67,-1.29 -12.95,-3.43 -18.78,-6.39 -5.86,-2.97 -11.07,-6.61 -15.61,-10.87 -4.53,-4.25 -8.43,-9.17 -11.68,-14.72 -6.75,-11.51 -10.32,-23.84 -10.72,-36.98 -0.4,-12.95 2.3,-26.65 8.07,-41.06 5.77,-14.38 14.86,-27.95 27.26,-40.68 12.23,-12.54 27.71,-24.33 46.43,-35.3 12.81,-7.5 25.16,-13.56 37.04,-18.14 12.04,-4.64 23.63,-7.81 34.75,-9.5 11.14,-1.72 21.55,-2.15 31.16,-1.29 9.81,0.88 18.83,3.11 26.99,6.65 8.19,3.55 15.45,8.11 21.74,13.66 6.32,5.55 11.72,12.15 16.2,19.8 3.23,5.51 5.64,11.28 7.2,17.26 1.55,5.94 2.26,12.13 2.14,18.52 -0.13,6.39 -1.07,12.69 -2.81,18.87l-0.48 1.66 99.04 -58.06 23.77 40.55 -314 184.1 -22.54 -38.44 5 -2.93zm33.38 -6.15l-22.53 13.21 10.82 18.46 294.03 -172.38 -12.06 -20.58 -122.28 71.68 10.13 -18.42c2.88,-5.23 5.07,-10.52 6.55,-15.82 1.48,-5.3 2.29,-10.64 2.4,-15.98 0.11,-5.3 -0.49,-10.44 -1.78,-15.39 -1.29,-4.95 -3.29,-9.74 -5.97,-14.3 -3.81,-6.51 -8.44,-12.16 -13.88,-16.94 -5.44,-4.8 -11.68,-8.72 -18.66,-11.75 -7.03,-3.05 -14.85,-4.98 -23.4,-5.74 -8.7,-0.78 -18.19,-0.38 -28.42,1.21 -10.37,1.59 -21.14,4.55 -32.32,8.85 -11.33,4.38 -23.12,10.15 -35.35,17.32 -17.79,10.43 -32.46,21.57 -43.97,33.39 -11.34,11.64 -19.61,23.95 -24.81,36.92 -5.19,12.93 -7.6,25.08 -7.26,36.42 0.34,11.16 3.39,21.64 9.13,31.44 2.66,4.54 5.88,8.59 9.65,12.13 3.73,3.5 8.04,6.5 12.87,8.96 4.89,2.47 10.14,4.28 15.75,5.36 5.67,1.1 11.74,1.49 18.16,1.17l23.63 -1.2 -20.43 11.98zm25.48 -145.02c-13.83,8.1 -25.17,16.36 -33.99,24.74 -8.61,8.16 -14.79,16.41 -18.52,24.7 -3.68,8.24 -5.55,15.88 -5.62,22.85 -0.07,6.72 1.54,12.91 4.83,18.53 3.28,5.58 7.79,9.98 13.49,13.15 5.92,3.29 13.2,5.34 21.83,6.13 8.67,0.82 18.34,-0.41 29.01,-3.67 11,-3.36 23.03,-8.88 36.07,-16.53 15.08,-8.84 27.42,-17.63 37.01,-26.35 9.32,-8.49 15.97,-16.85 19.9,-25.07 3.93,-8.17 5.91,-15.87 5.92,-23.06 0.02,-7.04 -1.83,-13.75 -5.55,-20.09 -3.21,-5.48 -7.67,-9.73 -13.34,-12.75 -5.95,-3.15 -13.26,-5.01 -21.94,-5.59 -8.79,-0.58 -18.87,1 -30.21,4.73 -11.72,3.85 -24.67,9.94 -38.89,18.28zm-41.99 16.33c9.43,-8.95 21.48,-17.73 36.13,-26.32 14.99,-8.78 28.69,-15.23 41.11,-19.31 12.76,-4.21 24.28,-5.97 34.58,-5.29 10.4,0.69 19.28,3 26.64,6.91 7.6,4.05 13.57,9.76 17.89,17.15 4.79,8.16 7.17,16.82 7.15,25.95 -0.02,8.99 -2.37,18.36 -7.06,28.09 -4.61,9.61 -12.13,19.15 -22.53,28.62 -10.12,9.21 -23.12,18.47 -38.96,27.76 -13.81,8.1 -26.69,13.99 -38.57,17.62 -12.13,3.71 -23.29,5.09 -33.44,4.13 -10.26,-0.96 -19.06,-3.48 -26.39,-7.55 -7.54,-4.19 -13.5,-10 -17.85,-17.41 -4.37,-7.46 -6.51,-15.65 -6.42,-24.48 0.08,-8.57 2.3,-17.75 6.62,-27.48 4.36,-9.73 11.4,-19.19 21.1,-28.39zm176.35 410.25l10.04 -7.92 -1.21 -0.06c-6.83,-0.37 -13.34,-1.63 -19.5,-3.76 -6.19,-2.15 -11.84,-5.04 -16.92,-8.63 -5.11,-3.61 -9.67,-7.95 -13.62,-12.98 -8.25,-10.46 -13.49,-22.18 -15.68,-35.16 -2.17,-12.77 -1.37,-26.7 2.37,-41.76 3.75,-15.05 10.9,-29.74 21.44,-44.05 10.4,-14.12 24.13,-27.91 41.16,-41.34 11.63,-9.15 23.05,-16.83 34.22,-23.02 11.29,-6.24 22.32,-10.97 33.08,-14.16 10.79,-3.25 21.05,-5.1 30.74,-5.57 9.83,-0.47 19.06,0.5 27.63,2.89 8.57,2.39 16.38,5.92 23.4,10.57 7.05,4.66 13.32,10.46 18.77,17.38 3.94,5 7.12,10.38 9.49,16.09 2.35,5.72 3.93,11.77 4.66,18.11 0.73,6.26 0.66,12.62 -0.21,19.02l-0.25 1.71 90.15 -71.08 29.14 36.94 -285.86 225.39 -27.61 -35.01 4.57 -3.6zm32.23 -10.64l-20.5 16.16 13.24 16.79 267.63 -211.02 -14.76 -18.71 -111.33 87.78 7.53 -19.67c2.15,-5.61 3.6,-11.15 4.34,-16.58 0.73,-5.4 0.78,-10.81 0.16,-16.17 -0.62,-5.28 -1.91,-10.29 -3.85,-14.97 -1.96,-4.73 -4.61,-9.2 -7.89,-13.36 -4.69,-5.95 -10.05,-10.92 -16.05,-14.89 -6.03,-3.98 -12.73,-7.01 -20.09,-9.07 -7.39,-2.06 -15.4,-2.88 -24,-2.48 -8.68,0.41 -18.02,2.12 -27.96,5.11 -10.07,2.97 -20.34,7.37 -30.82,13.17 -10.59,5.86 -21.47,13.2 -32.63,22 -16.2,12.79 -29.21,25.83 -38.97,39.09 -9.65,13.09 -16.16,26.42 -19.53,39.96 -3.36,13.52 -4.1,25.89 -2.2,37.09 1.86,10.98 6.33,20.96 13.36,29.89 3.29,4.17 7.03,7.74 11.2,10.7 4.17,2.97 8.85,5.35 13.98,7.12 5.2,1.77 10.66,2.84 16.34,3.14 5.74,0.31 11.8,-0.13 18.12,-1.34l23.35 -4.45 -18.67 14.71zm5.37 -147.14c-12.62,9.94 -22.73,19.66 -30.3,29.14 -7.39,9.24 -12.37,18.25 -14.95,27.01 -2.5,8.67 -3.31,16.5 -2.43,23.43 0.84,6.63 3.3,12.53 7.34,17.66 4,5.09 9.06,8.82 15.14,11.18 6.31,2.45 13.82,3.48 22.49,3.09 8.67,-0.36 18.07,-2.91 28.22,-7.62 10.41,-4.83 21.57,-11.95 33.46,-21.31 13.77,-10.87 24.8,-21.26 33.06,-31.16 8.06,-9.67 13.5,-18.86 16.27,-27.55 2.77,-8.63 3.67,-16.53 2.7,-23.68 -0.94,-6.96 -3.7,-13.34 -8.26,-19.12 -3.94,-5 -8.93,-8.6 -14.97,-10.81 -6.28,-2.31 -13.79,-3.14 -22.5,-2.52 -8.8,0.62 -18.56,3.57 -29.27,8.81 -10.98,5.37 -22.99,13.2 -36,23.45zm-39.34 21.92c8.14,-10.19 18.87,-20.53 32.17,-31.02 13.58,-10.74 26.28,-18.99 38.08,-24.76 12.1,-5.92 23.28,-9.25 33.54,-9.98 10.38,-0.75 19.49,0.32 27.32,3.19 8.09,2.96 14.79,7.82 20.09,14.55 5.85,7.41 9.4,15.67 10.63,24.74 1.2,8.89 0.16,18.47 -3.16,28.75 -3.25,10.14 -9.39,20.63 -18.4,31.44 -8.83,10.58 -20.43,21.55 -34.79,32.87 -12.56,9.91 -24.5,17.49 -35.77,22.73 -11.49,5.33 -22.36,8.23 -32.58,8.66 -10.29,0.46 -19.35,-0.82 -27.17,-3.86 -8.04,-3.11 -14.73,-8.07 -20.06,-14.81 -5.37,-6.78 -8.61,-14.59 -9.73,-23.39 -1.08,-8.49 -0.15,-17.88 2.79,-28.1 2.99,-10.21 8.67,-20.54 17.04,-31.01zm220.64 262.49l22.83 36.5 -5.53 2.92c-12.76,6.74 -25.09,11.41 -36.95,13.97 -12.07,2.61 -23.69,3.07 -34.81,1.38 -11.18,-1.69 -21.62,-5.37 -31.31,-11.02 -9.6,-5.59 -18.44,-13.13 -26.52,-22.59 -10.19,-11.94 -17.17,-24.73 -20.9,-38.35 -3.73,-13.62 -4.22,-28.02 -1.44,-43.2 2.72,-15.07 9,-29.96 18.81,-44.66 9.66,-14.47 22.79,-28.79 39.34,-42.92 17.14,-14.63 33.84,-25.75 50.11,-33.36 16.51,-7.71 32.58,-11.83 48.21,-12.33 15.7,-0.48 29.94,2 42.71,7.49 12.83,5.52 24.16,14.04 33.97,25.54 9.39,11 15.72,23.1 18.96,36.27 3.22,13.1 3.39,27.21 0.48,42.29 -2.93,15.02 -9.42,29.95 -19.46,44.75 -9.86,14.55 -23.17,29 -39.9,43.28 -4.5,3.55 -8.95,7.31 -13.4,10.95l-101.27 -118.67c-8.07,8.09 -14.61,16.06 -19.58,23.88 -5.68,8.98 -9.33,17.72 -10.88,26.21 -1.57,8.48 -1.49,16.26 0.22,23.34 1.69,6.97 5.01,13.35 9.94,19.13 7.67,8.98 17.08,14.1 28.21,15.35 11.6,1.3 25.25,-1.5 40.9,-8.4l4.59 -2.03 2.67 4.28zm6.31 31.98l-13.54 -21.65c-15.67,6.29 -29.75,8.75 -42.2,7.35 -14.17,-1.59 -26.1,-8.04 -35.75,-19.34 -6.13,-7.19 -10.27,-15.17 -12.4,-23.95 -2.1,-8.67 -2.21,-18.06 -0.34,-28.15 1.83,-10.03 6,-20.15 12.48,-30.33 6.36,-9.98 14.97,-20.1 25.79,-30.34l4.43 -4.19 101.88 119.37 4.41 -3.6c15.97,-13.64 28.6,-27.31 37.85,-40.97 9.13,-13.46 15.01,-26.95 17.65,-40.45 2.59,-13.42 2.47,-25.87 -0.35,-37.32 -2.81,-11.4 -8.32,-21.91 -16.51,-31.51 -8.65,-10.13 -18.56,-17.6 -29.73,-22.39 -11.26,-4.83 -23.85,-7.02 -37.78,-6.59 -14.05,0.45 -28.6,4.21 -43.66,11.24 -15.28,7.15 -31.12,17.71 -47.48,31.68 -15.76,13.44 -28.19,26.98 -37.26,40.56 -8.92,13.37 -14.61,26.81 -17.04,40.28 -2.45,13.47 -2.05,26.15 1.22,38.09 3.27,11.93 9.46,23.22 18.54,33.85 7.2,8.43 15.06,15.14 23.55,20.1 8.38,4.9 17.46,8.09 27.19,9.56 9.71,1.47 19.94,1.06 30.63,-1.25 9.14,-1.97 18.62,-5.33 28.42,-10.05zm-25.19 -162.61l67.77 79.41c5.59,-5.9 10.21,-11.59 13.84,-17.05 4.37,-6.6 7.29,-12.83 8.71,-18.68 2.11,-8.63 2.41,-16.59 0.9,-23.84 -1.49,-7.12 -4.78,-13.66 -9.86,-19.61 -4.58,-5.37 -9.93,-9.39 -16.03,-12.03 -6.18,-2.68 -13.22,-4.02 -21.07,-4.01 -7.9,0.01 -15.94,1.61 -24.06,4.79 -6.68,2.62 -13.41,6.29 -20.2,11.02zm63.08 91.77l-79.91 -93.62 4.83 -3.71c9.38,-7.22 18.71,-12.64 27.98,-16.27 9.42,-3.69 18.86,-5.55 28.28,-5.56 9.47,-0.01 18.05,1.64 25.7,4.96 7.73,3.36 14.49,8.4 20.22,15.13 6.36,7.45 10.5,15.72 12.4,24.78 1.87,8.94 1.54,18.59 -0.99,28.92 -1.76,7.2 -5.2,14.67 -10.31,22.36 -4.96,7.48 -11.54,15.26 -19.71,23.35l-4.45 4.4 -4.04 -4.74zm29.65 236.8l248.2 -258.28 36.05 34.63 -252.23 262.47 -36.03 -34.64 4.01 -4.18zm248.54 -241.89l-236.16 245.74 19.32 18.57 236.16 -245.74 -19.32 -18.57zm-175.72 310.26l171.5 -197.09 32.9 28.63 -15.23 17.51 4.08 -0.61c7.52,-0.96 14.78,-0.89 21.78,0.19 7.09,1.12 13.85,3.25 20.29,6.36 6.43,3.1 12.55,7.18 18.32,12.21 4.53,3.96 8.53,8.23 11.94,12.79 3.43,4.57 6.31,9.46 8.62,14.64 2.34,5.13 4.05,10.25 5.13,15.33 1.09,5.09 1.55,10.21 1.39,15.31 -0.15,5.11 -1,10.35 -2.52,15.69 -1.49,5.26 -3.66,10.69 -6.5,16.28 -2.79,5.52 -6.89,11.98 -12.29,19.32 -5.3,7.22 -11.84,15.3 -19.58,24.21l-106.79 122.71 -35.5 -30.9 105.7 -121.46c6.05,-6.95 10.97,-13.17 14.7,-18.61 3.64,-5.3 6.2,-9.9 7.65,-13.75 1.42,-3.77 2.28,-7.49 2.54,-11.11 0.27,-3.55 -0.02,-7.04 -0.87,-10.45 -0.87,-3.39 -2.24,-6.57 -4.1,-9.51 -1.87,-2.99 -4.29,-5.78 -7.25,-8.35 -5.74,-4.97 -11.77,-8.37 -18.09,-10.17 -6.3,-1.8 -12.99,-2.05 -20.02,-0.77 -7.09,1.32 -14.8,5 -23.13,11.03 -8.65,6.27 -17.87,15.05 -27.68,26.31l-95.32 109.53 -35.49 -30.89 3.82 -4.38zm172.64 -180.7l-160.06 183.94 17.96 15.63 87.68 -100.75c10.38,-11.93 20.26,-21.3 29.64,-28.09 9.71,-7.03 18.99,-11.38 27.84,-13.02 8.86,-1.62 17.3,-1.29 25.3,0.99 7.99,2.27 15.5,6.47 22.51,12.58 3.83,3.35 6.98,7 9.47,10.93 2.5,3.97 4.34,8.25 5.52,12.83 1.17,4.67 1.57,9.39 1.21,14.17 -0.35,4.71 -1.45,9.52 -3.26,14.34 -1.79,4.73 -4.77,10.14 -8.93,16.2 -4.05,5.91 -9.23,12.48 -15.51,19.7l-98.07 112.7 17.97 15.63 99.15 -113.94c7.62,-8.76 13.96,-16.59 18.99,-23.44 5.03,-6.85 8.8,-12.75 11.29,-17.68 2.48,-4.9 4.38,-9.65 5.69,-14.23 1.27,-4.5 1.98,-8.8 2.11,-12.88 0.13,-4.1 -0.26,-8.29 -1.17,-12.54 -0.9,-4.27 -2.36,-8.61 -4.34,-12.98 -1.96,-4.42 -4.4,-8.57 -7.31,-12.45 -2.93,-3.9 -6.36,-7.56 -10.29,-10.97 -5.06,-4.4 -10.31,-7.91 -15.76,-10.54 -5.43,-2.63 -11.11,-4.42 -17.03,-5.35 -5.91,-0.92 -12.1,-0.98 -18.54,-0.16 -6.48,0.83 -13.32,2.58 -20.51,5.24l-21.31 7.88 35.13 -40.36 -15.37 -13.38zm46.97 360.2l86.59 -261.31 39.91 28.5 -53.71 154.5c-3,8.78 -6.09,17.26 -9.21,25.43l-1.02 2.66c6.37,-5.23 13.41,-10.83 21.09,-16.79l131.94 -102.16 39.94 28.53c-74.25,56.35 -148.46,112.76 -222.75,169.06l-34.13 -24.37 1.35 -4.05zm92.67 -242.72l-80.3 242.31 20.22 14.44 203.4 -154.38 -20.13 -14.38 -125.13 96.89c-7.74,6.01 -14.85,11.67 -21.28,16.96 -6.49,5.33 -12.24,10.24 -17.24,14.7l-19.12 17.06 9.9 -23.6c3.3,-7.89 6.56,-15.99 9.73,-24.29 3.19,-8.36 6.25,-16.72 9.08,-25.02l50.91 -146.38 -20.04 -14.31zm198.06 332.26l32.23 28.56 -4.46 4.36c-10.31,10.07 -20.82,18.01 -31.49,23.84 -10.85,5.92 -21.87,9.65 -33.02,11.18 -11.21,1.54 -22.26,0.97 -33.13,-1.7 -10.79,-2.65 -21.41,-7.38 -31.82,-14.16 -13.16,-8.57 -23.46,-18.87 -30.9,-30.87 -7.44,-12.01 -11.98,-25.68 -13.61,-41.02 -1.65,-15.21 0.15,-31.28 5.4,-48.15 5.17,-16.6 13.71,-34.06 25.6,-52.32 12.3,-18.88 25.18,-34.28 38.62,-46.17 13.66,-12.08 27.92,-20.58 42.74,-25.49 14.91,-4.89 29.27,-6.53 43.08,-4.88 13.86,1.66 27.14,6.62 39.82,14.88 12.11,7.89 21.62,17.7 28.45,29.42 6.8,11.62 10.95,25.13 12.42,40.45 1.43,15.25 -0.56,31.39 -5.98,48.4 -5.35,16.76 -14.03,34.38 -26.04,52.81 -2.79,4.66 -6.6,9.69 -9.74,14.29l-130.72 -85.15c-5.43,10.04 -9.44,19.53 -12,28.43 -2.93,10.22 -3.94,19.64 -3.03,28.23 0.89,8.58 3.16,16.02 6.8,22.31 3.6,6.21 8.59,11.4 14.95,15.55 9.89,6.44 20.38,8.68 31.42,6.73 11.49,-2.04 23.78,-8.58 36.82,-19.62l3.83 -3.24 3.76 3.33zm15.14 28.89l-19.12 -16.94c-13.25,10.49 -26.08,16.83 -38.43,19.02 -14.02,2.48 -27.28,-0.34 -39.73,-8.45 -7.92,-5.17 -14.16,-11.66 -18.67,-19.45 -4.47,-7.72 -7.24,-16.7 -8.3,-26.91 -1.07,-10.13 0.06,-21.01 3.39,-32.62 3.26,-11.36 8.65,-23.5 16.13,-36.4l3.07 -5.28 131.51 85.66 3.27 -4.81c11.43,-17.55 19.65,-34.2 24.65,-49.88 4.95,-15.5 6.78,-30.13 5.49,-43.8 -1.31,-13.58 -4.95,-25.48 -10.91,-35.69 -5.91,-10.16 -14.17,-18.67 -24.74,-25.56 -11.15,-7.26 -22.78,-11.62 -34.87,-13.07 -12.13,-1.44 -24.82,0.03 -38.08,4.38 -13.36,4.43 -26.27,12.14 -38.7,23.13 -12.64,11.19 -24.84,25.8 -36.58,43.82 -11.29,17.34 -19.38,33.83 -24.24,49.45 -4.77,15.35 -6.43,29.85 -4.95,43.48 1.45,13.59 5.43,25.65 11.94,36.16 6.52,10.51 15.64,19.6 27.35,27.23 9.31,6.06 18.75,10.27 28.28,12.61 9.45,2.32 19.07,2.82 28.82,1.49 9.73,-1.34 19.41,-4.63 29.01,-9.87 8.18,-4.47 16.33,-10.37 24.41,-17.7zm-70.18 -148.82l87.47 56.97c3.7,-7.26 6.52,-14.02 8.45,-20.26 2.32,-7.55 3.35,-14.36 3.06,-20.41 -0.41,-8.86 -2.38,-16.56 -5.88,-23.08 -3.46,-6.42 -8.46,-11.77 -15,-16.03 -5.9,-3.85 -12.17,-6.18 -18.78,-6.99 -6.71,-0.83 -13.83,-0.12 -21.36,2.11 -7.6,2.25 -14.84,6.06 -21.71,11.38 -5.64,4.4 -11.06,9.84 -16.25,16.31zm86.46 70.15l-103.14 -67.18 3.58 -4.93c6.94,-9.55 14.36,-17.4 22.23,-23.51 8.04,-6.22 16.56,-10.68 25.57,-13.35 9.08,-2.69 17.77,-3.54 26.03,-2.52 8.35,1.03 16.26,3.97 23.68,8.81 8.22,5.35 14.53,12.11 18.91,20.25 4.33,8.05 6.74,17.4 7.24,28.04 0.35,7.39 -0.84,15.51 -3.56,24.36 -2.65,8.6 -6.76,17.92 -12.29,27.96l-3.02 5.47 -5.23 -3.4zm13.22 84.84l40.49 11.93 -2.13 5.81c-2.92,7.97 -4.61,15.31 -5.03,21.97 -0.41,6.4 0.34,12.22 2.25,17.43 1.9,5.26 4.81,9.93 8.73,14.02 4.05,4.24 9.21,7.92 15.44,11.05 6.28,3.15 12.22,5.15 17.77,6 5.34,0.81 10.34,0.56 14.97,-0.75 4.64,-1.29 8.68,-3.39 12.08,-6.24 3.44,-2.88 6.3,-6.59 8.55,-11.08 1.89,-3.76 2.92,-7.4 3.07,-10.89 0.15,-3.36 -0.52,-6.67 -1.99,-9.92 -1.1,-2.33 -3.62,-5.7 -7.52,-10.11 -4.1,-4.63 -9.73,-10.36 -16.87,-17.17 -10.51,-10.04 -19.14,-18.79 -25.84,-26.23 -6.92,-7.66 -11.9,-14.04 -14.95,-19.09 -3.12,-5.18 -5.5,-10.62 -7.11,-16.29 -1.6,-5.64 -2.45,-11.55 -2.54,-17.69 -0.09,-6.08 0.61,-12.18 2.11,-18.23 1.48,-6.03 3.76,-12.1 6.8,-18.16 5.21,-10.38 11.64,-19 19.27,-25.84 7.69,-6.89 16.58,-11.95 26.66,-15.15 10.08,-3.21 20.66,-4.12 31.66,-2.72 10.82,1.37 22.06,4.98 33.68,10.81 7.28,3.65 13.86,7.79 19.67,12.37 5.84,4.61 10.93,9.7 15.19,15.22 4.26,5.47 7.66,11.15 10.18,16.96 2.57,5.93 4.24,12.03 5.02,18.23l0.03 0.07c0.7,6.16 0.46,13.06 -0.75,20.67 -1.17,7.4 -3.25,15.46 -6.23,24.12l-1.81 5.21 -44.96 -13 2.16 -5.82c4.48,-12.13 5.15,-22.44 2.05,-30.89 -3.07,-8.37 -10,-15.26 -20.75,-20.66 -6.45,-3.24 -12.37,-5.41 -17.71,-6.51 -5.03,-1.03 -9.56,-1.1 -13.57,-0.24 -3.88,0.85 -7.22,2.37 -9.99,4.51 -2.76,2.13 -5.02,4.95 -6.77,8.44 -1.72,3.43 -2.61,6.79 -2.64,10.02 -0.03,3.17 0.75,6.39 2.37,9.6 1.02,1.97 3.7,5.4 8.03,10.27 4.6,5.16 10.83,11.63 18.64,19.38 11.2,10.63 20.25,19.76 27.18,27.34 7.15,7.82 12.14,14.16 14.97,18.99 2.85,4.79 4.97,9.91 6.38,15.26 1.4,5.38 2.1,11.01 2.09,16.86 -0.03,5.9 -0.85,11.89 -2.46,17.96 -1.58,5.98 -3.97,12.13 -7.11,18.41 -5.82,11.6 -12.94,21.2 -21.35,28.77 -8.51,7.66 -18.33,13.27 -29.43,16.78 -11.11,3.56 -22.64,4.63 -34.56,3.18 -11.77,-1.43 -23.96,-5.31 -36.57,-11.64 -23.78,-11.93 -39.36,-28 -46.72,-48.2 -7.31,-20.02 -6.39,-43.82 2.72,-71.37l1.76 -5.34 5.39 1.59zm25.48 19.6l-23.27 -6.85c-6.71,22.71 -7.1,42.19 -1.18,58.41 6.32,17.32 19.98,31.26 40.99,41.8 11.36,5.7 22.29,9.2 32.76,10.46 10.31,1.25 20.21,0.36 29.68,-2.7 9.53,-3.03 17.93,-7.82 25.19,-14.35 7.36,-6.62 13.61,-15.08 18.75,-25.32 2.76,-5.51 4.86,-10.92 6.25,-16.18 1.38,-5.19 2.08,-10.21 2.1,-15.02 0,-4.83 -0.57,-9.47 -1.72,-13.89 -1.14,-4.32 -2.86,-8.45 -5.15,-12.32 -2.38,-4.08 -6.9,-9.77 -13.57,-17.07 -6.73,-7.39 -15.6,-16.31 -26.6,-26.76l-0.09 -0.09c-8.16,-8.1 -14.58,-14.77 -19.22,-19.97 -5.02,-5.63 -8.25,-9.88 -9.71,-12.73 -2.45,-4.89 -3.65,-9.88 -3.6,-14.95 0.05,-5.04 1.35,-10.09 3.86,-15.11 2.55,-5.08 5.9,-9.23 10.05,-12.44 4.12,-3.19 9,-5.42 14.6,-6.66 5.57,-1.22 11.69,-1.15 18.35,0.21 6.33,1.3 13.2,3.81 20.58,7.51 13.52,6.79 22.37,15.8 26.48,27.02 3.53,9.62 3.5,20.63 -0.11,33l22.48 6.5c1.9,-6.12 3.25,-11.76 4.07,-16.93 1.03,-6.51 1.25,-12.36 0.65,-17.54 -0.63,-5.1 -2.01,-10.13 -4.14,-15.03 -2.13,-4.91 -5.04,-9.75 -8.7,-14.45 -3.73,-4.82 -8.15,-9.24 -13.22,-13.24 -5.17,-4.08 -11.07,-7.79 -17.66,-11.09 -10.46,-5.25 -20.46,-8.48 -29.97,-9.69 -9.32,-1.18 -18.23,-0.42 -26.7,2.27 -8.49,2.7 -15.97,6.96 -22.44,12.75 -6.53,5.85 -12.08,13.32 -16.63,22.38 -2.63,5.25 -4.61,10.52 -5.9,15.75 -1.27,5.15 -1.86,10.28 -1.79,15.33 0.07,5.03 0.79,9.93 2.12,14.65 1.34,4.68 3.31,9.19 5.89,13.47 2.67,4.43 7.22,10.22 13.63,17.33 6.53,7.24 14.95,15.78 25.22,25.58 7.25,6.92 13.11,12.89 17.55,17.91 4.65,5.26 7.77,9.53 9.32,12.84l0.02 0.07c2.27,4.96 3.29,10.07 3.07,15.29 -0.22,5.13 -1.66,10.33 -4.29,15.56 -3,5.99 -6.83,10.93 -11.45,14.82 -4.67,3.91 -10.14,6.76 -16.4,8.51 -6.26,1.76 -12.87,2.11 -19.83,1.05 -6.71,-1.02 -13.8,-3.4 -21.22,-7.12 -7.47,-3.75 -13.68,-8.21 -18.63,-13.37 -5.06,-5.29 -8.82,-11.31 -11.27,-18.06 -2.47,-6.72 -3.45,-14.11 -2.93,-22.17 0.38,-6.08 1.63,-12.55 3.73,-19.37zm225.46 148.72l-12.6 41.93 -5 -0.79c-5.27,-0.84 -10.16,-1.89 -14.65,-3.14 -4.58,-1.28 -8.82,-2.78 -12.69,-4.51 -6.11,-2.72 -11.37,-5.8 -15.76,-9.21 -4.55,-3.57 -8.25,-7.51 -11.08,-11.85 -2.82,-4.31 -4.81,-8.84 -5.95,-13.57 -1.16,-4.77 -1.47,-9.72 -0.94,-14.85 0.46,-4.92 2.17,-11.6 5.11,-20.02 2.85,-8.16 6.91,-18.14 12.13,-29.87l57.51 -129.13 -23.82 -10.62 18.33 -41.16 23.83 10.62 24.48 -54.96 57.03 -12.49 -38.56 86.58 32.82 14.62 -18.33 41.15 -32.82 -14.61 -58.53 131.39c-2.68,6.04 -4.66,11.11 -5.95,15.22 -1.13,3.6 -1.65,6.2 -1.58,7.77 0.12,2.03 0.81,3.81 2.04,5.31 1.44,1.77 3.67,3.34 6.66,4.67 1.62,0.72 3.58,1.43 5.83,2.12 2.5,0.73 5.24,1.44 8.17,2.09l6.1 1.34 -1.78 5.97zm-20.77 28.81l7.88 -26.27 -2.9 -0.83c-2.79,-0.86 -5.22,-1.74 -7.25,-2.65 -4.67,-2.08 -8.33,-4.73 -10.93,-7.94 -2.8,-3.43 -4.36,-7.42 -4.63,-11.93 -0.16,-3 0.53,-6.96 2.08,-11.92 1.39,-4.42 3.54,-9.92 6.45,-16.48l63.24 -141.97 32.82 14.62 8.91 -19.99 -32.83 -14.62 33.94 -76.19 -28.93 6.34 -26.8 60.14 -23.82 -10.61 -8.9 19.99 23.82 10.62 -62.23 139.72c-5.09,11.43 -9.03,21.1 -11.77,28.96 -2.64,7.59 -4.16,13.37 -4.52,17.32l0 0.07c-0.39,3.82 -0.17,7.47 0.67,10.95 0.84,3.46 2.31,6.79 4.38,9.95 2.16,3.28 4.99,6.29 8.51,9.03 3.73,2.88 8.18,5.49 13.36,7.79 3.31,1.48 7.01,2.79 11.06,3.91 2.66,0.74 5.46,1.4 8.39,1.99zm147.37 -260.4l22.58 -50.7 42.95 19.13 -24.94 55.99 -42.95 -19.13 2.36 -5.29zm28.45 -35.4l-15.51 34.82 21.79 9.71 15.51 -34.83 -21.79 -9.7zm-151.61 311.91l106.29 -238.64 42.95 19.14c-36.16,81.33 -72.36,162.65 -108.65,243.92l-42.95 -19.13 2.36 -5.29zm112.16 -223.34l-99.22 222.77 21.78 9.7 99.23 -222.76 -21.79 -9.71zm-36.2 277.56l34.41 18.99 -0.84 4.16c-1.24,6.11 -1.56,11.63 -0.94,16.56 0.59,4.71 2.05,8.92 4.35,12.61 2.41,3.77 5.68,7.13 9.81,10.02 4.33,3.03 9.66,5.61 15.96,7.7 6.89,2.28 13.32,3.53 19.26,3.72 5.74,0.18 11.05,-0.63 15.91,-2.44 4.89,-1.83 9.46,-4.63 13.65,-8.39 4.29,-3.84 8.29,-8.77 11.96,-14.75 2.21,-3.6 5.01,-9.72 8.39,-18.29 2.06,-5.19 4.27,-11.15 6.64,-17.87l-3.06 1.5c-5.84,2.74 -11.72,4.73 -17.62,5.93 -5.97,1.2 -11.98,1.6 -17.98,1.19 -5.95,-0.4 -11.99,-1.62 -18.04,-3.63 -12.8,-4.25 -23.65,-10.87 -32.51,-19.83 -8.82,-8.92 -15.65,-20.12 -20.45,-33.55 -5.4,-15.22 -7.78,-31.69 -7.11,-49.38 0.65,-17.48 4.28,-36.18 10.9,-56.08 4.44,-13.38 9.62,-25.56 15.51,-36.5 5.94,-11.05 12.68,-20.95 20.15,-29.69 7.51,-8.77 15.25,-16.01 23.19,-21.68 8.1,-5.78 16.43,-9.97 24.98,-12.55 8.52,-2.57 17.09,-3.81 25.67,-3.69 8.58,0.13 17.18,1.62 25.74,4.47 6.32,2.1 12.14,4.9 17.43,8.38 5.32,3.5 10.12,7.69 14.34,12.52 4.23,4.87 7.89,10.38 10.98,16.55l1.73 3.65 6.17 -18.56 41.81 13.9 -71.4 214.81c-6.29,18.92 -12.43,34.84 -18.42,47.74 -6.15,13.25 -12.22,23.52 -18.19,30.81 -6.09,7.38 -12.96,13.57 -20.58,18.54 -7.58,4.93 -15.88,8.65 -24.88,11.09 -9.01,2.45 -18.41,3.42 -28.15,2.91 -9.59,-0.49 -19.54,-2.46 -29.83,-5.88 -13.47,-4.47 -24.87,-10.3 -34.13,-17.44 -9.46,-7.28 -16.71,-15.92 -21.74,-25.89 -5.03,-9.97 -7.64,-20.73 -7.83,-32.28 -0.18,-11.37 1.98,-23.45 6.5,-36.23l2.28 -6.46 5.98 3.31zm21.47 25.1l-20.9 -11.54c-2.63,9.05 -3.88,17.6 -3.75,25.63 0.16,9.74 2.37,18.83 6.61,27.25 4.24,8.41 10.4,15.73 18.46,21.94 8.25,6.36 18.49,11.58 30.69,15.63 9.26,3.07 18.18,4.84 26.78,5.28 8.45,0.44 16.63,-0.41 24.51,-2.54 7.88,-2.13 15.08,-5.35 21.62,-9.6 6.56,-4.29 12.55,-9.7 17.92,-16.2 5.37,-6.57 10.92,-16 16.62,-28.29 5.88,-12.65 11.87,-28.17 17.97,-46.52l67.76 -203.84 -19.84 -6.59 -14.03 42.19 -4.95 -18.84c-1.74,-6.61 -3.95,-12.58 -6.62,-17.91 -2.64,-5.26 -5.77,-9.97 -9.36,-14.11 -3.54,-4.04 -7.54,-7.56 -11.96,-10.46 -4.45,-2.93 -9.37,-5.29 -14.7,-7.07 -7.44,-2.47 -14.87,-3.76 -22.25,-3.87 -7.4,-0.1 -14.8,0.97 -22.17,3.21 -7.38,2.25 -14.59,5.89 -21.62,10.9 -7.17,5.13 -14.21,11.73 -21.09,19.77 -6.92,8.08 -13.19,17.31 -18.75,27.65 -5.63,10.47 -10.55,22.02 -14.75,34.64 -6.26,18.83 -9.69,36.45 -10.3,52.85 -0.61,16.2 1.56,31.23 6.47,45.06 4.25,11.86 10.17,21.64 17.76,29.31 7.58,7.68 16.89,13.34 27.9,16.99 5.05,1.68 10.13,2.7 15.17,3.04 5.03,0.34 10,0.02 14.9,-0.96 5.02,-1.03 10.04,-2.73 15.03,-5.06 5.04,-2.37 10.14,-5.46 15.27,-9.23l14.66 -10.8 -5.74 17.3c-4.61,13.88 -8.64,25.17 -12.06,33.83 -3.6,9.15 -6.7,15.86 -9.29,20.11 -4.22,6.87 -8.94,12.65 -14.15,17.31 -5.3,4.74 -11.08,8.29 -17.33,10.62 -6.28,2.34 -13.05,3.39 -20.31,3.16 -7.05,-0.21 -14.57,-1.67 -22.54,-4.31 -7.38,-2.45 -13.7,-5.53 -18.95,-9.2 -5.44,-3.81 -9.76,-8.27 -12.98,-13.35 -3.21,-5.15 -5.23,-10.94 -6.04,-17.32 -0.63,-4.99 -0.52,-10.34 0.33,-16.06zm57.62 -154.38c-5.16,15.51 -8.33,29.33 -9.52,41.42 -1.16,11.74 -0.43,21.79 2.16,30.12 2.57,8.25 6.18,14.97 10.82,20.13 4.54,5.05 10.14,8.68 16.77,10.89 6.68,2.21 13.38,2.69 20.07,1.45 6.83,-1.27 13.77,-4.38 20.79,-9.28 7.02,-4.9 13.58,-12.31 19.64,-22.17 6.27,-10.2 11.92,-22.87 16.95,-38 4.91,-14.76 7.87,-28.07 8.87,-39.9 0.96,-11.48 0.07,-21.48 -2.7,-29.98 -2.76,-8.48 -6.59,-15.4 -11.45,-20.71 -4.76,-5.2 -10.61,-8.96 -17.52,-11.26 -5.96,-1.98 -12.13,-2.24 -18.48,-0.81 -6.59,1.5 -13.46,4.87 -20.58,10.07 -7.16,5.23 -13.71,12.6 -19.62,22.11 -6.09,9.8 -11.5,21.78 -16.2,35.92zm-21.06 40.29c1.27,-12.91 4.63,-27.56 10.07,-43.92 5.03,-15.12 10.81,-27.93 17.33,-38.42 6.7,-10.78 14.25,-19.22 22.62,-25.34 8.4,-6.14 16.72,-10.16 24.89,-12.02 8.41,-1.9 16.65,-1.53 24.67,1.13 8.81,2.93 16.3,7.76 22.42,14.44 6.02,6.57 10.69,14.9 13.95,24.92 3.26,10.02 4.33,21.53 3.24,34.53 -1.07,12.65 -4.23,26.85 -9.46,42.59 -5.36,16.12 -11.38,29.61 -18.03,40.44 -6.86,11.17 -14.52,19.71 -22.93,25.57 -8.39,5.88 -16.84,9.61 -25.32,11.2 -8.62,1.6 -17.22,0.98 -25.8,-1.87 -8.62,-2.86 -15.88,-7.57 -21.75,-14.1 -5.78,-6.42 -10.21,-14.58 -13.28,-24.45 -3.05,-9.81 -3.93,-21.38 -2.62,-34.7zm297.79 163.98c-4.18,2.11 -8.32,3.97 -12.44,5.59 -7.47,2.94 -14.9,5.1 -22.3,6.45 -7.46,1.4 -14.84,1.96 -22.11,1.67 -7.29,-0.28 -14.46,-1.41 -21.52,-3.38 -11.21,-3.11 -20.85,-7.63 -28.9,-13.53 -8.14,-5.98 -14.68,-13.4 -19.58,-22.25 -4.95,-8.8 -7.84,-18.34 -8.66,-28.58 -0.82,-10.05 0.37,-20.81 3.54,-32.23 2.09,-7.52 4.86,-14.45 8.29,-20.72 3.47,-6.34 7.63,-12.03 12.45,-17.05 4.79,-5.05 10.04,-9.31 15.68,-12.75 5.67,-3.46 11.76,-6.1 18.22,-7.91 6.44,-1.79 14.11,-2.77 23.01,-2.91 8.65,-0.12 18.49,0.53 29.5,1.97 14.29,1.86 26.82,3.04 37.53,3.5 8.73,0.37 16.23,0.28 22.47,-0.29l2.1 -6.95c2.21,-7.94 3.39,-14.84 3.52,-20.65 0.13,-5.45 -0.63,-9.89 -2.28,-13.32 -2.46,-5.26 -6.21,-9.73 -11.24,-13.44 -5.26,-3.87 -11.94,-6.94 -20.01,-9.18 -7.43,-2.07 -14.09,-3.11 -19.92,-3.11 -5.56,0 -10.42,0.93 -14.54,2.78 -4.02,1.83 -8.07,5.12 -12.1,9.84 -4.33,5.04 -8.58,11.65 -12.73,19.77l-2.59 5.04 -42.77 -20.64 2.55 -5.24c6.27,-12.86 13.35,-23.6 21.23,-32.21 8.02,-8.76 16.9,-15.27 26.62,-19.54 9.67,-4.23 20.57,-6.4 32.65,-6.47 11.84,-0.07 24.83,1.86 38.93,5.78 11.05,3.06 20.64,6.85 28.76,11.34 8.41,4.68 15.29,10.09 20.63,16.22 5.3,6.1 9.33,12.47 12.02,19.05 2.74,6.68 4.09,13.58 4.04,20.62 -0.05,6.67 -0.91,14.55 -2.55,23.65 -1.63,9 -4.03,19.2 -7.19,30.57l-15.44 55.56c-5.36,19.3 -9.57,35.16 -12.62,47.53 -2.97,12.07 -4.78,20.67 -5.42,25.75 -0.66,4.97 -0.94,9.97 -0.87,15 0.08,5.07 0.53,10.18 1.33,15.3l1.4 8.88 -47.92 -13.32 -0.51 -3.78c-0.68,-5.07 -0.92,-10.45 -0.68,-16.16 0.08,-2.03 0.22,-4.12 0.42,-6.25zm-16.66 -5.22c6.89,-2.71 13.89,-6.18 21.01,-10.39l10.88 -6.45 -2.23 12.47c-1.02,5.7 -1.64,11.15 -1.84,16.3 -0.15,3.62 -0.09,7.09 0.18,10.39l23.45 6.52c-0.23,-2.72 -0.37,-5.42 -0.41,-8.11 -0.08,-5.58 0.23,-11.12 0.94,-16.59 0.65,-5.45 2.56,-14.5 5.66,-27.11 3.03,-12.31 7.28,-28.28 12.72,-47.86l15.44 -55.55c3.1,-11.16 5.42,-21 6.96,-29.53 1.53,-8.44 2.32,-15.67 2.37,-21.67 0.03,-5.5 -1.03,-10.9 -3.17,-16.15 -2.2,-5.39 -5.56,-10.68 -10.05,-15.82 -4.54,-5.19 -10.35,-9.75 -17.46,-13.69 -7.38,-4.06 -16.15,-7.52 -26.28,-10.33 -13.1,-3.64 -25.06,-5.44 -35.79,-5.37 -10.46,0.06 -19.83,1.91 -28.07,5.52 -8.2,3.6 -15.78,9.19 -22.71,16.75 -6.02,6.55 -11.58,14.64 -16.69,24.28l22.09 10.66c3.75,-6.74 7.61,-12.43 11.56,-17.04 5.15,-6.02 10.55,-10.33 16.15,-12.88 5.63,-2.52 12.06,-3.78 19.3,-3.78 6.92,0.01 14.6,1.18 23.02,3.51 9.45,2.63 17.4,6.31 23.77,11 6.6,4.86 11.57,10.83 14.84,17.84 2.44,5.1 3.57,11.29 3.4,18.53 -0.15,6.85 -1.48,14.74 -3.95,23.63 -0.66,3.82 -3.05,10.14 -4.31,14.3l-3.73 0.5c-7.57,1 -16.96,1.26 -28.13,0.79 -11.04,-0.47 -23.92,-1.68 -38.58,-3.59 -10.46,-1.37 -19.75,-2 -27.82,-1.88 -7.85,0.13 -14.55,0.96 -20.05,2.5 -5.44,1.53 -10.56,3.75 -15.31,6.64 -4.78,2.91 -9.23,6.54 -13.32,10.84 -4.16,4.32 -7.72,9.19 -10.68,14.61 -3,5.48 -5.44,11.58 -7.29,18.26 -2.79,10.06 -3.85,19.48 -3.14,28.23 0.68,8.55 3.08,16.51 7.19,23.83 4.04,7.37 9.5,13.54 16.33,18.55 6.93,5.08 15.32,9 25.13,11.72 6.21,1.73 12.51,2.73 18.89,2.97 6.38,0.25 12.89,-0.24 19.51,-1.48 6.61,-1.2 13.35,-3.17 20.22,-5.87zm39.25 -92.16c-5.34,0.56 -11.25,0.84 -17.74,0.85 -10.26,0.03 -21.98,-0.63 -35.1,-1.94 -7.36,-0.76 -13.62,-1.12 -18.77,-1.11 -4.98,0.01 -8.93,0.37 -11.79,1.05 -2.8,0.68 -5.37,1.68 -7.69,3 -2.37,1.35 -4.57,3.08 -6.58,5.14 -2,2.05 -3.75,4.44 -5.22,7.1 -1.52,2.75 -2.74,5.82 -3.67,9.16 -1.43,5.16 -1.93,9.99 -1.49,14.47 0.43,4.36 1.76,8.44 3.98,12.22 2.22,3.77 5.26,7 9.11,9.67 3.98,2.77 8.87,4.96 14.64,6.56 5.62,1.56 11.15,2.32 16.58,2.29 5.41,-0.03 10.79,-0.87 16.11,-2.48 5.33,-1.62 10.25,-3.89 14.72,-6.8 4.43,-2.88 8.44,-6.41 11.97,-10.56 3.61,-4.2 6.98,-9.71 10.12,-16.55 3.23,-7.05 6.22,-15.51 8.95,-25.35l1.87 -6.72zm-17.74 -10.73c9.64,-0.01 17.86,-0.67 24.62,-1.95l9.15 -1.74 -6.73 24.24c-2.87,10.38 -6.08,19.42 -9.59,27.06 -3.6,7.86 -7.56,14.3 -11.86,19.28 -4.29,5.01 -9.11,9.27 -14.45,12.74 -5.35,3.49 -11.27,6.21 -17.67,8.16 -6.39,1.94 -12.88,2.94 -19.42,2.98 -6.52,0.04 -13.1,-0.86 -19.72,-2.7 -7.03,-1.94 -13.08,-4.68 -18.15,-8.2 -5.22,-3.61 -9.39,-8.06 -12.5,-13.34 -3.08,-5.25 -4.93,-10.92 -5.52,-16.95 -0.59,-5.91 0.03,-12.16 1.84,-18.69 1.18,-4.24 2.75,-8.15 4.68,-11.65 1.96,-3.56 4.34,-6.78 7.08,-9.6 2.76,-2.84 5.83,-5.24 9.17,-7.14 3.33,-1.89 6.93,-3.31 10.75,-4.21 3.73,-0.86 8.56,-1.33 14.45,-1.34 5.62,-0.02 12.29,0.37 19.93,1.15 12.79,1.29 24.13,1.92 33.94,1.9zm236.1 82.99l38.6 15.34 -1.99 5.31c-5.57,14.84 -12.28,27.58 -20.1,38.18 -7.95,10.77 -17.08,19.35 -27.33,25.72 -10.33,6.37 -21.05,10.48 -32.13,12.31 -11.08,1.84 -22.5,1.39 -34.21,-1.31 -14.26,-3.28 -26.62,-9.24 -37.06,-17.85 -10.39,-8.56 -18.83,-19.74 -25.29,-33.51 -6.45,-13.64 -9.98,-29.5 -10.58,-47.52 -0.59,-17.73 1.64,-37.58 6.71,-59.5 5.09,-22.09 11.83,-41 20.19,-56.69 8.47,-15.91 18.64,-28.53 30.49,-37.81 11.94,-9.35 24.56,-15.54 37.84,-18.54 13.3,-3.02 27.22,-2.85 41.73,0.5 11.27,2.6 21.26,6.76 29.97,12.46 8.75,5.73 16.21,13.03 22.36,21.87 6.16,8.86 10.51,19.13 13.04,30.78 2.48,11.43 3.2,24.22 2.18,38.35l-0.41 5.62 -46.39 -2 0.21 -5.74c0.29,-8.31 -0.21,-15.76 -1.53,-22.33 -1.25,-6.28 -3.26,-11.7 -6.01,-16.2 -2.73,-4.51 -5.97,-8.13 -9.72,-10.86 -3.77,-2.74 -8.12,-4.68 -13.06,-5.82 -7.56,-1.75 -14.85,-1.67 -21.83,0.21 -7.08,1.91 -13.95,5.72 -20.61,11.4 -6.74,5.74 -12.72,13.92 -17.91,24.52 -5.36,10.91 -9.89,24.38 -13.57,40.35 -3.83,16.59 -5.83,31.13 -5.99,43.54 -0.16,12.09 1.42,22.19 4.71,30.29 3.23,8.02 7.48,14.41 12.73,19.17 5.16,4.67 11.43,7.87 18.77,9.56 5.74,1.32 11.29,1.45 16.64,0.39 5.38,-1.06 10.63,-3.34 15.73,-6.8 5.14,-3.55 9.91,-8.6 14.24,-15.13 4.46,-6.71 8.46,-15 11.98,-24.83l2.02 -5.65 5.58 2.22zm23.69 21.87l-22.47 -8.93c-3.32,8.31 -7.03,15.56 -11.12,21.72 -5.15,7.76 -10.95,13.86 -17.34,18.26 -6.49,4.4 -13.18,7.3 -20.08,8.66 -6.96,1.38 -14.11,1.23 -21.46,-0.47 -9.27,-2.14 -17.26,-6.23 -23.95,-12.29 -6.58,-5.97 -11.83,-13.77 -15.72,-23.4 -3.86,-9.47 -5.7,-21.07 -5.53,-34.78 0.17,-13.32 2.26,-28.67 6.25,-46 3.88,-16.79 8.71,-31.09 14.48,-42.84 5.91,-12.05 12.85,-21.47 20.78,-28.25 8.02,-6.83 16.4,-11.44 25.15,-13.8 8.82,-2.38 17.97,-2.49 27.42,-0.31 6.48,1.5 12.26,4.09 17.31,7.78 5.04,3.69 9.32,8.43 12.81,14.2 3.46,5.68 5.96,12.35 7.48,19.96 1.16,5.8 1.75,12.23 1.79,19.25l23.66 1.02c0.41,-10.78 -0.34,-20.61 -2.27,-29.46 -2.2,-10.14 -5.95,-19.02 -11.22,-26.6 -5.28,-7.6 -11.68,-13.87 -19.18,-18.78 -7.57,-4.95 -16.3,-8.58 -26.2,-10.87 -12.82,-2.95 -25.02,-3.13 -36.6,-0.5 -11.6,2.63 -22.69,8.09 -33.25,16.35 -10.55,8.26 -19.69,19.66 -27.4,34.14 -7.85,14.74 -14.22,32.69 -19.1,53.84 -4.85,20.99 -6.99,39.86 -6.44,56.54 0.54,16.39 3.71,30.71 9.47,42.93 5.72,12.21 13.12,22.04 22.18,29.51 9.02,7.44 19.8,12.61 32.29,15.49 10.26,2.36 20.19,2.77 29.76,1.18 9.57,-1.58 18.87,-5.16 27.87,-10.72 9,-5.61 17.07,-13.21 24.13,-22.78 6.26,-8.46 11.76,-18.49 16.5,-30.05zm67.96 -214.72l10.27 -54.56 46.22 8.7 -11.34 60.26 -46.22 -8.71 1.07 -5.69zm19.52 -41.02l-7.05 37.47 23.44 4.41 7.05 -37.46 -23.44 -4.42zm-75.5 338.5l48.32 -256.74 46.22 8.69 -49.4 262.44 -46.21 -8.7 1.07 -5.69zm57.57 -243.2l-45.1 239.64 23.43 4.42 45.11 -239.65 -23.44 -4.41zm32.86 127.81c2.64,-22.37 7.33,-41.79 14.08,-58.26 6.85,-16.73 15.82,-30.42 26.9,-41.07 11.09,-10.63 23.21,-18.21 36.31,-22.68 13.11,-4.48 27.13,-5.84 42.03,-4.09 14.72,1.73 27.91,6.33 39.57,13.74 11.62,7.4 21.66,17.55 30.11,30.44 8.4,12.95 14.06,28.13 16.94,45.55 2.83,17.17 2.99,36.52 0.45,58.06 -2.75,23.22 -7.49,43.29 -14.26,60.18 -6.87,17.16 -15.86,31.09 -26.94,41.75 -11.05,10.64 -23.15,18.21 -36.27,22.68 -13.11,4.48 -27.19,5.84 -42.18,4.07 -14.76,-1.74 -28.02,-6.35 -39.71,-13.79 -11.64,-7.42 -21.66,-17.62 -30.03,-30.61 -8.35,-12.93 -13.96,-28.34 -16.77,-46.2 -2.77,-17.57 -2.85,-37.51 -0.23,-59.77zm24.8 -53.85c-6.32,15.43 -10.75,33.84 -13.27,55.2 -2.51,21.28 -2.46,40.19 0.14,56.65 2.55,16.21 7.59,30.12 15.08,41.68 7.48,11.61 16.33,20.65 26.5,27.13 10.17,6.48 21.8,10.49 34.83,12.03 13.29,1.56 25.67,0.38 37.12,-3.53 11.48,-3.91 22.15,-10.61 31.96,-20.05 9.87,-9.49 17.95,-22.07 24.21,-37.71 6.37,-15.91 10.87,-34.99 13.49,-57.2 2.41,-20.52 2.29,-38.8 -0.36,-54.86 -2.61,-15.8 -7.69,-29.48 -15.21,-41.05 -7.58,-11.53 -16.45,-20.56 -26.62,-27.03 -10.13,-6.45 -21.69,-10.45 -34.66,-11.98 -13.2,-1.55 -25.55,-0.37 -37,3.55 -11.47,3.91 -22.15,10.62 -32,20.05 -9.9,9.52 -17.98,21.9 -24.21,37.12zm22.93 59.28c-1.88,16 -2.09,30.08 -0.61,42.21 1.43,11.79 4.46,21.71 9.06,29.75 4.58,7.99 9.97,14.17 16.15,18.53 6.1,4.31 13.07,6.92 20.87,7.84 7.24,0.85 14.18,-0.12 20.77,-2.93 6.81,-2.9 13.37,-7.73 19.64,-14.5 6.32,-6.85 11.55,-15.83 15.65,-26.95 4.23,-11.42 7.27,-25.04 9.13,-40.86 1.88,-15.88 2.07,-29.86 0.59,-41.93 -1.44,-11.75 -4.48,-21.66 -9.08,-29.71 -4.57,-7.98 -9.97,-14.17 -16.15,-18.53 -6.09,-4.29 -13.07,-6.9 -20.89,-7.83 -7.31,-0.86 -14.29,0.1 -20.88,2.89 -6.8,2.87 -13.33,7.7 -19.58,14.45 -6.26,6.77 -11.45,15.71 -15.55,26.79 -4.21,11.4 -7.26,25.01 -9.12,40.78zm-12.15 43.57c-1.58,-13.01 -1.38,-27.99 0.62,-44.89 1.97,-16.73 5.22,-31.24 9.74,-43.46 4.63,-12.53 10.64,-22.77 17.98,-30.67 7.38,-7.97 15.24,-13.72 23.56,-17.24 8.51,-3.6 17.44,-4.85 26.74,-3.75 9.76,1.15 18.51,4.45 26.21,9.88 7.6,5.37 14.13,12.79 19.55,22.24 5.38,9.41 8.9,20.78 10.53,34.07 1.59,12.98 1.4,27.89 -0.58,44.68 -1.98,16.77 -5.23,31.28 -9.76,43.52 -4.64,12.56 -10.66,22.84 -18.07,30.83 -7.44,8 -15.31,13.78 -23.58,17.29 -8.51,3.62 -17.4,4.88 -26.63,3.79 -9.77,-1.14 -18.53,-4.45 -26.23,-9.88 -7.61,-5.37 -14.14,-12.79 -19.56,-22.25 -5.38,-9.4 -8.9,-20.79 -10.52,-34.16zm55.11 -200.99l35.66 -67.44 60.42 7.12 -59.49 72.57 -40.55 -4.78 3.96 -7.47zm42.2 -54.98l-27.98 52.91 17.44 2.06 42.02 -51.26 -31.48 -3.71zm88.74 357.14l9 -261.11 43.56 1.5 -0.8 23.2 2.78 -3.05c5.24,-5.49 10.94,-10.03 17.07,-13.6 6.21,-3.58 12.79,-6.21 19.76,-7.84 6.88,-1.62 14.18,-2.29 21.89,-2.03 6.08,0.21 11.87,1 17.36,2.37 5.56,1.39 10.89,3.39 15.94,5.95 5,2.5 9.54,5.4 13.6,8.67 4.07,3.28 7.65,6.97 10.74,11.03 3.09,4.07 5.74,8.67 7.92,13.79 2.16,5.04 3.91,10.63 5.22,16.72 1.3,5.98 2.17,13.56 2.62,22.73 0.43,8.84 0.44,19.24 0.03,31.13l-5.61 162.56 -46.99 -1.62 5.55 -160.88c0.31,-9.09 0.2,-17.02 -0.34,-23.76 -0.52,-6.45 -1.42,-11.62 -2.7,-15.48 -1.27,-3.81 -2.95,-7.24 -5.03,-10.23 -2.03,-2.91 -4.44,-5.44 -7.21,-7.52 -2.85,-2.1 -5.93,-3.72 -9.23,-4.84 -3.36,-1.13 -7,-1.77 -10.9,-1.91 -7.57,-0.25 -14.4,0.91 -20.46,3.5 -6.01,2.57 -11.35,6.58 -16.02,12.02 -4.68,5.49 -8.35,13.2 -11.02,23.13 -2.78,10.36 -4.42,22.99 -4.93,37.86l-5.01 145.1 -47 -1.62 0.21 -5.77zm20.19 -249.13l-8.42 243.72 23.84 0.83 4.61 -133.49c0.54,-15.86 2.31,-29.37 5.29,-40.5 3.11,-11.56 7.58,-20.78 13.43,-27.64 5.84,-6.85 12.61,-11.91 20.28,-15.18 7.61,-3.25 16.07,-4.73 25.37,-4.41 5.11,0.18 9.86,1.02 14.26,2.51 4.46,1.5 8.58,3.68 12.36,6.47l0.05 0.04c3.83,2.88 7.12,6.29 9.84,10.21 2.69,3.9 4.86,8.31 6.48,13.21 1.62,4.85 2.72,10.94 3.3,18.21 0.56,7 0.67,15.36 0.34,25.03l-5.15 149.34 23.83 0.82 5.21 -150.94c0.39,-11.54 0.38,-21.64 -0.03,-30.23 -0.41,-8.4 -1.21,-15.35 -2.39,-20.82 -1.16,-5.4 -2.68,-10.29 -4.54,-14.63 -1.83,-4.29 -4,-8.08 -6.47,-11.33 -2.48,-3.27 -5.42,-6.28 -8.79,-8.99 -3.36,-2.72 -7.22,-5.16 -11.56,-7.33 -4.33,-2.2 -8.84,-3.89 -13.53,-5.06 -4.78,-1.19 -9.76,-1.88 -14.92,-2.06 -6.62,-0.22 -12.92,0.36 -18.87,1.76 -5.88,1.38 -11.41,3.58 -16.59,6.57 -5.16,3 -9.99,6.86 -14.47,11.55 -4.57,4.78 -8.78,10.44 -12.65,16.97l-11.56 19.52 1.84 -53.44 -20.39 -0.71zm320.75 255.13l-41.96 -355.74 67.27 -7.93c36.93,91.17 74.49,182.17 110.46,273.71l5.53 -36.2 40.63 -255.99 61.36 -7.23c14.28,120.49 28.48,241 42.65,361.51l-48.19 5.69 -30.5 -258.61 -42.82 267.26 -42.95 5.06 -103.56 -253.81 30.95 262.38 -48.19 5.68 -0.68 -5.78zm-29.07 -345.56l39.92 338.46 25.14 -2.97 -39.61 -335.76 132.53 324.8 25.48 -3 54.61 -340.96 38.92 329.92 25.13 -2.96 -39.92 -338.46 -41.13 4.85 -39.26 247.27 -5 32.79 -3.59 25 -3 22.08 -27.84 -70.88 -95.44 -235.72 -46.94 5.54zm493.2 278.87l-3.42 -18.15 -2.36 4.19c-4,6.7 -8.59,12.55 -13.69,17.53 -5.22,5 -10.99,9.09 -17.29,12.27 -6.28,3.17 -13.12,5.46 -20.52,6.85 -8.7,1.63 -17,1.98 -24.88,1.03 -7.97,-0.96 -15.56,-3.26 -22.77,-6.88 -7.1,-3.55 -13.29,-7.96 -18.58,-13.18 -5.35,-5.29 -9.77,-11.4 -13.24,-18.28 -3.35,-6.63 -6.43,-14.61 -9.21,-23.9 -2.73,-9.1 -5.21,-19.59 -7.45,-31.45l-30.35 -161.29 46.22 -8.69 27.27 144.93c2.4,12.75 4.74,23.34 6.98,31.77 2.15,8.08 4.21,14.04 6.14,17.85 1.82,3.55 4.06,6.64 6.65,9.25 2.66,2.63 5.7,4.82 9.1,6.54 3.42,1.68 6.94,2.76 10.54,3.24 3.61,0.48 7.36,0.36 11.21,-0.36 7.39,-1.39 13.82,-4.17 19.27,-8.32 5.49,-4.18 10.07,-9.82 13.73,-16.9 3.04,-6.01 4.66,-14.2 4.86,-24.54 0.21,-10.84 -1.13,-23.97 -4.03,-39.36l-26.38 -140.17 46.22 -8.69 49.39 262.43 -42.34 7.97 -1.07 -5.69zm4.46 -38.99l5.86 31.15 19.56 -3.68 -45.1 -239.65 -23.44 4.41 24.24 128.77c3.03,16.13 4.44,30.05 4.21,41.73 -0.24,12.16 -2.28,22.04 -6.1,29.58 -4.49,8.67 -10.17,15.62 -17.03,20.85 -6.91,5.26 -14.96,8.76 -24.17,10.49 -5.06,0.95 -10.03,1.11 -14.87,0.46 -4.88,-0.65 -9.6,-2.1 -14.18,-4.35l-0.06 -0.02c-4.56,-2.3 -8.6,-5.21 -12.08,-8.69 -3.46,-3.5 -6.41,-7.55 -8.78,-12.17 -2.3,-4.51 -4.64,-11.23 -7.03,-20.18 -2.3,-8.62 -4.69,-19.48 -7.15,-32.59l-25.13 -133.54 -23.43 4.42 28.21 149.89c2.13,11.35 4.53,21.45 7.18,30.28 2.59,8.65 5.41,15.99 8.44,21.99 2.9,5.76 6.59,10.86 11.01,15.24 4.44,4.39 9.66,8.1 15.62,11.08 5.97,2.99 12.29,4.9 18.96,5.71 6.76,0.81 13.89,0.51 21.38,-0.9 6.3,-1.18 12.12,-3.13 17.44,-5.81 5.28,-2.66 10.11,-6.09 14.45,-10.25 4.38,-4.27 8.34,-9.33 11.81,-15.14 3.46,-5.81 6.48,-12.44 8.99,-19.87l7.09 -20.97 4.1 21.76zm81.17 20.19l-69.95 -251.71 41.99 -11.67 6.23 22.37 1.73 -3.75c3.35,-6.83 7.41,-12.86 12.17,-18.1 4.87,-5.3 10.37,-9.78 16.5,-13.42 6.12,-3.63 12.89,-6.48 20.29,-8.54 5.81,-1.61 11.56,-2.59 17.25,-2.94 5.7,-0.34 11.36,-0.04 16.96,0.89 5.6,0.89 10.81,2.28 15.6,4.16 4.88,1.91 9.4,4.34 13.55,7.27 4.15,2.93 8.07,6.54 11.72,10.78 3.55,4.15 6.9,8.95 9.98,14.38 3.08,5.36 6.21,12.34 9.36,20.88 3.05,8.25 6.19,18.17 9.4,29.71l43.54 156.7 -45.31 12.59 -43.11 -155.12c-2.43,-8.77 -4.93,-16.29 -7.45,-22.53 -2.42,-5.94 -4.84,-10.6 -7.25,-13.94 -2.38,-3.29 -5.01,-6.06 -7.86,-8.26 -2.78,-2.15 -5.85,-3.83 -9.16,-5 -3.37,-1.15 -6.79,-1.78 -10.24,-1.85 -3.51,-0.07 -7.17,0.42 -10.98,1.48 -7.3,2.03 -13.46,5.19 -18.46,9.48 -4.95,4.25 -8.83,9.68 -11.65,16.29 -2.81,6.65 -4,15.12 -3.56,25.37 0.46,10.67 2.71,23.21 6.7,37.61l38.87 139.86 -45.31 12.59 -1.55 -5.58zm-55.67 -243.64l65.29 234.95 22.97 -6.39 -35.77 -128.7c-4.23,-15.23 -6.61,-28.64 -7.11,-40.2 -0.52,-11.99 0.97,-22.12 4.47,-30.4 3.52,-8.27 8.45,-15.13 14.79,-20.58 6.29,-5.4 13.93,-9.35 22.89,-11.84 4.88,-1.35 9.65,-1.97 14.32,-1.88 4.73,0.1 9.33,0.92 13.76,2.45 4.53,1.6 8.69,3.87 12.48,6.81 3.79,2.92 7.19,6.48 10.19,10.62 2.96,4.1 5.83,9.58 8.6,16.39 2.65,6.53 5.27,14.47 7.87,23.8l40 143.94 22.97 -6.38 -40.45 -145.54c-3.07,-11.06 -6.12,-20.67 -9.12,-28.81 -2.93,-7.94 -5.79,-14.32 -8.53,-19.12 -2.7,-4.79 -5.63,-8.99 -8.73,-12.6 -3.01,-3.5 -6.21,-6.45 -9.58,-8.84 -3.37,-2.38 -7.08,-4.37 -11.09,-5.94 -4.09,-1.6 -8.51,-2.79 -13.22,-3.53 -4.76,-0.79 -9.57,-1.04 -14.44,-0.75 -4.88,0.29 -9.83,1.15 -14.84,2.54 -6.42,1.78 -12.24,4.22 -17.45,7.32 -5.21,3.11 -9.84,6.87 -13.86,11.26 -4.02,4.45 -7.47,9.58 -10.34,15.41 -2.89,5.87 -5.2,12.54 -6.93,19.98l-5.16 22.12 -14.33 -51.55 -19.65 5.46zm169.11 -103.9l-18.72 -52.28 44.31 -15.85 20.66 57.75 -44.3 15.85 -1.95 -5.47zm-3.86 -45.25l12.84 35.87 22.43 -8.03 -12.85 -35.87 -22.42 8.03zm105.87 330.24l-88.05 -245.98 44.31 -15.85 90 251.44 -44.3 15.86 -1.96 -5.47zm-73.19 -238.95l82.18 229.57 22.42 -8.03 -82.17 -229.57 -22.43 8.03zm256.48 65.61l40.59 -8.84 1.33 5.56c3.65,15.36 5.2,29.67 4.62,42.87 -0.58,13.36 -3.36,25.58 -8.3,36.59 -5,11.08 -11.59,20.47 -19.76,28.18 -8.17,7.71 -17.89,13.72 -29.13,18.03 -13.65,5.23 -27.22,7.19 -40.69,5.89 -13.43,-1.3 -26.67,-5.86 -39.72,-13.67 -12.96,-7.73 -24.75,-18.91 -35.3,-33.51 -10.4,-14.38 -19.64,-32.11 -27.68,-53.12 -8.11,-21.16 -13.09,-40.6 -14.92,-58.27 -1.86,-17.94 -0.46,-34.09 4.17,-48.39 4.68,-14.43 11.69,-26.61 21.03,-36.52 9.35,-9.94 21.01,-17.58 34.93,-22.92 10.76,-4.11 21.37,-6.24 31.8,-6.37 10.48,-0.12 20.73,1.76 30.74,5.64 10.07,3.91 19.42,10 28.02,18.25 8.46,8.11 16.22,18.33 23.25,30.6l2.8 4.88 -39.61 24.26 -3.05 -4.89c-4.43,-7.11 -9.01,-13.02 -13.71,-17.68 -4.55,-4.51 -9.24,-7.89 -14.03,-10.08 -4.78,-2.2 -9.49,-3.4 -14.14,-3.57 -4.63,-0.17 -9.35,0.65 -14.11,2.48 -7.26,2.78 -13.25,6.89 -17.97,12.33 -4.79,5.54 -8.38,12.54 -10.73,20.98 -2.37,8.53 -2.76,18.67 -1.15,30.39 1.64,12.01 5.42,25.7 11.29,41.04 6.07,15.86 12.54,29.02 19.36,39.43 6.64,10.15 13.58,17.66 20.78,22.5 7.17,4.83 14.27,7.76 21.28,8.77 6.91,1 13.9,0.14 20.93,-2.55 5.52,-2.11 10.18,-5.1 14,-8.94 3.85,-3.87 6.93,-8.69 9.25,-14.43 2.29,-5.86 3.43,-12.73 3.38,-20.54 -0.05,-7.99 -1.37,-17.09 -3.95,-27.27l-1.49 -5.83 5.89 -1.28zm31.84 4.96l-23.6 5.14c1.88,8.72 2.84,16.8 2.89,24.23 0.06,9.34 -1.34,17.62 -4.16,24.81 -2.92,7.25 -6.86,13.38 -11.83,18.39 -5.01,5.04 -11.04,8.92 -18.09,11.62 -8.88,3.4 -17.79,4.46 -26.7,3.18 -8.8,-1.27 -17.51,-4.82 -26.12,-10.64 -8.53,-5.75 -16.55,-14.33 -24.02,-25.76 -7.28,-11.11 -14.13,-25.01 -20.5,-41.67 -6.16,-16.07 -10.14,-30.63 -11.92,-43.62 -1.82,-13.28 -1.33,-24.96 1.47,-35.02 2.82,-10.12 7.21,-18.62 13.13,-25.47 6.02,-6.94 13.57,-12.15 22.61,-15.61 6.18,-2.37 12.41,-3.44 18.65,-3.2 6.24,0.23 12.44,1.78 18.56,4.62 6.06,2.79 11.85,6.92 17.37,12.39 4.23,4.19 8.32,9.18 12.25,14.94l20.19 -12.36c-5.69,-9.19 -11.81,-16.93 -18.32,-23.17 -7.49,-7.18 -15.55,-12.45 -24.16,-15.79 -8.65,-3.36 -17.47,-4.99 -26.43,-4.88 -8.99,0.12 -18.27,2 -27.81,5.65 -12.27,4.7 -22.48,11.37 -30.61,20.01 -8.15,8.65 -14.3,19.37 -18.44,32.14 -4.14,12.76 -5.36,27.32 -3.67,43.63 1.71,16.59 6.47,35.06 14.23,55.34 7.71,20.11 16.46,36.96 26.23,50.47 9.61,13.29 20.24,23.42 31.85,30.34 11.56,6.91 23.18,10.94 34.86,12.07 11.63,1.13 23.46,-0.61 35.47,-5.21 9.81,-3.75 18.26,-8.97 25.31,-15.62 7.05,-6.65 12.77,-14.82 17.13,-24.47 4.35,-9.66 6.79,-20.46 7.3,-32.35 0.46,-10.48 -0.58,-21.87 -3.12,-34.13zm-67.57 -211.21l-22.88 -50.57 42.85 -19.4 25.28 55.87 -42.86 19.39 -2.39 -5.29zm-7.52 -44.78l15.7 34.72 21.72 -9.83 -15.72 -34.72 -21.7 9.83zm132.32 320.56l-107.71 -238.01 42.86 -19.4 110.1 243.3 -42.86 19.4 -2.39 -5.29zm-92.35 -232.22l100.53 222.15 21.72 -9.82 -100.54 -222.16 -21.71 9.83zm217.73 283.76l-159.03 -322.07 39.97 -19.74 9.14 18.49 0.94 -3.71c1.91,-6.92 4.54,-13.06 7.85,-18.41 3.29,-5.39 7.34,-10.21 12.11,-14.44 4.69,-4.19 10.12,-7.8 16.21,-10.81 7.93,-3.91 16.09,-6.46 24.44,-7.64 8.32,-1.17 16.86,-0.97 25.56,0.59 8.71,1.52 17.37,4.61 25.99,9.2 8.45,4.51 16.88,10.51 25.26,17.94 8.36,7.46 16.22,16.31 23.57,26.5 7.32,10.15 14.16,21.68 20.5,34.52 9.83,19.91 16.47,38.64 19.89,56.13 3.48,17.74 3.67,34.28 0.58,49.58 -3.12,15.33 -8.39,28.33 -15.81,38.96 -7.53,10.8 -17.22,19.14 -29.09,25 -5.35,2.64 -10.87,4.51 -16.55,5.6 -5.67,1.09 -11.5,1.42 -17.49,0.99 -5.88,-0.44 -11.74,-1.62 -17.57,-3.5l-2.02 -0.68 50.3 101.87 -42.18 20.83 -2.57 -5.2zm-143.49 -316.81l151.33 306.48 21.37 -10.56 -60.75 -123.03 16.43 9.34c5.03,2.85 10.08,5.11 15.12,6.73 4.9,1.58 9.87,2.57 14.87,2.95 4.99,0.35 9.81,0.1 14.46,-0.8 4.66,-0.89 9.19,-2.44 13.61,-4.62 10.11,-4.99 18.36,-12.07 24.73,-21.21 6.49,-9.3 11.13,-20.85 13.95,-34.63 2.77,-13.76 2.57,-28.8 -0.62,-45.07 -3.23,-16.5 -9.54,-34.26 -18.91,-53.22 -6.08,-12.31 -12.58,-23.29 -19.5,-32.88 -6.87,-9.53 -14.15,-17.74 -21.83,-24.59 -7.7,-6.84 -15.39,-12.31 -23.04,-16.4 -7.48,-3.99 -15,-6.67 -22.53,-8 -7.48,-1.36 -14.82,-1.53 -21.97,-0.52 -7.1,0.99 -14.08,3.19 -20.91,6.56 -5.14,2.53 -9.69,5.56 -13.63,9.06 -3.89,3.43 -7.2,7.38 -9.92,11.82 -2.76,4.42 -4.96,9.58 -6.58,15.46 -1.66,6.01 -2.74,12.8 -3.23,20.35l-1.41 21.61 -21.87 -44.3 -19.17 9.47zm83.98 96.53c7.11,14.41 14.47,26.3 22.03,35.63 7.36,9.1 14.91,15.75 22.62,19.93 7.65,4.18 14.91,6.53 21.75,7.02 6.64,0.49 13,-0.76 19.04,-3.74 5.7,-2.81 10.3,-7.03 13.8,-12.63 3.66,-5.81 6.16,-13.23 7.51,-22.2 1.38,-9.04 0.67,-19.42 -2.14,-31.12 -2.88,-11.99 -7.99,-25.41 -15.29,-40.21 -14.25,-28.85 -29.33,-47.72 -45.21,-56.62 -7.72,-4.32 -15.05,-6.78 -21.97,-7.35 -6.69,-0.55 -13.08,0.67 -19.16,3.67 -5.32,2.62 -9.63,6.79 -12.91,12.47 -3.49,6.07 -5.89,13.88 -7.2,23.41 -1.28,9.57 -0.53,20.29 2.26,32.14 2.85,12.08 7.81,25.29 14.87,39.6zm13.04 42.95c-8.13,-10.05 -15.97,-22.67 -23.45,-37.82 -7.47,-15.14 -12.73,-29.18 -15.77,-42.09 -3.1,-13.19 -3.9,-25.29 -2.43,-36.3 1.51,-11.08 4.39,-20.32 8.65,-27.68 4.48,-7.74 10.41,-13.44 17.81,-17.09 8.03,-3.96 16.45,-5.56 25.25,-4.84 8.55,0.71 17.45,3.66 26.66,8.81 18,10.06 34.65,30.61 49.96,61.62 7.65,15.5 13.05,29.74 16.16,42.66 3.17,13.21 3.96,25.06 2.36,35.51 -1.58,10.48 -4.64,19.37 -9.16,26.6 -4.64,7.48 -10.83,13.12 -18.51,16.91 -7.93,3.92 -16.26,5.56 -24.98,4.93 -8.51,-0.62 -17.35,-3.43 -26.49,-8.43 -9.05,-4.92 -17.74,-12.52 -26.06,-22.79zm49.39 -274.47l-28.07 -47.88 40.56 -23.77 31 52.87 -40.56 23.78 -2.93 -5zm-12.23 -43.75l19.29 32.9 20.59 -12.06 -19.29 -32.9 -20.59 12.06zm165.33 304.89l-132.13 -225.37 40.56 -23.77c45.08,76.74 90.07,153.54 135.05,230.35l-40.56 23.78 -2.92 -4.99zm-116.28 -221.24l123.34 210.38 20.58 -12.06 -123.34 -210.38 -20.58 12.06zm114.17 75.4c-12.07,-19.03 -20.67,-37.06 -25.82,-54.06 -5.23,-17.3 -6.91,-33.59 -5.03,-48.85 1.91,-15.24 6.54,-28.76 13.87,-40.48 7.36,-11.76 17.41,-21.69 30.09,-29.73 12.51,-7.93 25.63,-12.69 39.36,-14.29 13.61,-1.57 27.8,-0.01 42.54,4.67 14.7,4.73 28.65,12.95 41.87,24.65 13.06,11.55 25.39,26.48 36.98,44.77 12.52,19.74 21.49,38.32 26.89,55.69 5.49,17.7 7.3,34.17 5.43,49.39 -1.87,15.2 -6.49,28.7 -13.86,40.46 -7.38,11.79 -17.45,21.73 -30.17,29.8 -12.55,7.95 -25.75,12.76 -39.52,14.34 -13.68,1.58 -27.89,-0.01 -42.58,-4.82 -14.67,-4.76 -28.74,-13.19 -42.17,-25.26 -13.22,-11.88 -25.86,-27.32 -37.88,-46.28zm-14.69 -57.43c4.83,16 13.01,33.08 24.5,51.21 11.46,18.08 23.42,32.72 35.83,43.87 12.24,10.99 24.91,18.62 37.98,22.86 13.1,4.27 25.67,5.7 37.7,4.32 11.98,-1.38 23.54,-5.61 34.61,-12.63 11.31,-7.17 20.18,-15.88 26.58,-26.11 6.42,-10.24 10.47,-22.18 12.14,-35.74 1.67,-13.61 0.01,-28.47 -4.97,-44.53 -5.1,-16.36 -13.65,-34.01 -25.63,-52.92 -11.06,-17.45 -22.68,-31.55 -34.85,-42.32 -11.99,-10.62 -24.57,-18.05 -37.72,-22.28 -13.1,-4.17 -25.67,-5.57 -37.7,-4.17 -11.94,1.39 -23.42,5.57 -34.45,12.57 -11.21,7.1 -20.04,15.8 -26.45,26.04 -6.43,10.28 -10.5,22.22 -12.19,35.76 -1.68,13.63 -0.14,28.33 4.62,44.07zm55.18 31.57c8.64,13.63 17.34,24.67 26.1,33.12 8.56,8.25 17.18,14.06 25.82,17.39 8.57,3.31 16.66,4.7 24.24,4.18 7.44,-0.5 14.49,-2.87 21.14,-7.09 6.14,-3.89 10.91,-9.02 14.26,-15.35 3.44,-6.52 5.48,-14.41 6.07,-23.63 0.6,-9.31 -1.01,-19.59 -4.82,-30.82 -3.91,-11.48 -10.15,-23.97 -18.7,-37.46 -16.93,-26.71 -34.19,-43.47 -51.75,-50.23 -8.57,-3.31 -16.66,-4.7 -24.24,-4.18 -7.44,0.5 -14.49,2.87 -21.14,7.09 -6.18,3.92 -10.99,9.07 -14.36,15.42 -3.46,6.52 -5.5,14.38 -6.08,23.55 -0.61,9.2 0.99,19.44 4.8,30.61 3.9,11.46 10.13,23.94 18.66,37.4zm18.07 41.48c-9.48,-9.15 -18.78,-20.9 -27.89,-35.26 -8.99,-14.19 -15.61,-27.51 -19.83,-39.9 -4.3,-12.63 -6.1,-24.35 -5.39,-35.07 0.69,-10.86 3.17,-20.3 7.4,-28.27 4.33,-8.15 10.48,-14.75 18.4,-19.77 8.3,-5.26 17.17,-8.23 26.59,-8.86 9.26,-0.63 19,1.01 29.18,4.94 19.97,7.7 39.11,25.99 57.39,54.83 9.01,14.22 15.65,27.55 19.87,39.96 4.32,12.68 6.12,24.44 5.42,35.27 -0.7,10.89 -3.18,20.33 -7.39,28.3 -4.32,8.19 -10.44,14.78 -18.3,19.76 -8.29,5.26 -17.17,8.23 -26.59,8.86 -9.25,0.63 -18.99,-1.01 -29.18,-4.94 -10.11,-3.9 -20.01,-10.53 -29.68,-19.85zm404.22 -190.63l-7.91 -10.05 -0.06 1.21c-0.37,6.83 -1.63,13.34 -3.76,19.51 -2.11,6.14 -5,11.79 -8.63,16.91 -3.61,5.12 -7.95,9.67 -12.98,13.63 -10.46,8.24 -22.18,13.48 -35.16,15.68 -12.77,2.16 -26.7,1.36 -41.76,-2.38 -15.05,-3.75 -29.74,-10.9 -44.05,-21.43 -14.13,-10.4 -27.92,-24.13 -41.34,-41.16 -9.11,-11.56 -16.79,-22.98 -23.02,-34.22 -6.24,-11.29 -10.97,-22.33 -14.17,-33.09 -3.24,-10.79 -5.09,-21.05 -5.56,-30.73 -0.47,-9.84 0.49,-19.07 2.89,-27.63 2.39,-8.57 5.91,-16.37 10.57,-23.41 4.66,-7.04 10.46,-13.32 17.38,-18.77 4.99,-3.94 10.38,-7.12 16.09,-9.48 5.72,-2.36 11.77,-3.93 18.1,-4.67 6.27,-0.73 12.63,-0.66 19.03,0.21l1.71 0.25 -71.09 -90.15 36.94 -29.13c75.21,95.22 150.29,190.55 225.4,285.85l-35.02 27.62 -3.6 -4.57zm-10.63 -32.24l16.16 20.5 16.79 -13.24 -211.02 -267.62 -18.71 14.76 87.77 111.32 -19.67 -7.53c-5.61,-2.14 -11.15,-3.59 -16.58,-4.33 -5.4,-0.74 -10.8,-0.79 -16.16,-0.17 -5.28,0.62 -10.29,1.92 -14.97,3.85 -4.73,1.97 -9.2,4.61 -13.37,7.9 -5.94,4.68 -10.91,10.04 -14.88,16.05 -3.97,6.01 -7,12.72 -9.07,20.11 -2.06,7.38 -2.89,15.38 -2.48,23.97 0.41,8.69 2.12,18.03 5.1,27.97 2.99,10.07 7.38,20.33 13.18,30.81 5.82,10.53 13.17,21.41 22.02,32.63 12.77,16.21 25.8,29.21 39.07,38.98 13.09,9.64 26.42,16.15 39.96,19.52 13.53,3.37 25.89,4.1 37.08,2.21 11,-1.86 20.97,-6.33 29.9,-13.37 4.16,-3.28 7.74,-7.02 10.7,-11.19 2.94,-4.14 5.31,-8.82 7.1,-13.99 1.79,-5.2 2.86,-10.65 3.16,-16.33 0.31,-5.75 -0.13,-11.8 -1.34,-18.13l-4.46 -23.34 14.72 18.66zm-147.14 -5.36c9.94,12.62 19.66,22.73 29.14,30.3 9.24,7.39 18.25,12.37 27.01,14.94 8.67,2.51 16.5,3.32 23.43,2.43 6.63,-0.84 12.53,-3.3 17.66,-7.34 5.1,-4.02 8.83,-9.07 11.18,-15.13 2.45,-6.31 3.48,-13.82 3.09,-22.49 -0.36,-8.67 -2.92,-18.08 -7.62,-28.22 -4.83,-10.42 -11.95,-21.58 -21.32,-33.46 -10.86,-13.78 -21.25,-24.81 -31.15,-33.06 -9.67,-8.07 -18.86,-13.5 -27.55,-16.27 -8.63,-2.78 -16.53,-3.67 -23.68,-2.71 -6.96,0.94 -13.34,3.71 -19.12,8.27 -5,3.94 -8.61,8.93 -10.81,14.94 -2.3,6.31 -3.14,13.82 -2.52,22.53 0.63,8.8 3.57,18.55 8.8,29.26 5.38,10.99 13.21,22.99 23.46,36.01zm21.92 39.33c-10.19,-8.14 -20.53,-18.87 -31.02,-32.16 -10.73,-13.58 -18.98,-26.29 -24.76,-38.09 -5.91,-12.09 -9.24,-23.27 -9.98,-33.54 -0.74,-10.37 0.32,-19.48 3.19,-27.32 2.98,-8.09 7.84,-14.8 14.54,-20.09 7.42,-5.85 15.68,-9.4 24.75,-10.62 8.88,-1.21 18.47,-0.16 28.75,3.15 10.15,3.25 20.64,9.39 31.44,18.4 10.58,8.83 21.55,20.44 32.87,34.79 9.91,12.57 17.49,24.5 22.73,35.78 5.33,11.49 8.23,22.36 8.66,32.58 0.46,10.28 -0.82,19.34 -3.86,27.16 -3.12,8.07 -8.07,14.77 -14.82,20.09 -6.77,5.33 -14.58,8.58 -23.38,9.7 -8.5,1.09 -17.88,0.15 -28.1,-2.79 -10.21,-2.99 -20.54,-8.67 -31.01,-17.04zm250.43 -226.54l35.08 -24.95 3.24 5.33c7.49,12.34 12.88,24.38 16.14,36.07 3.31,11.88 4.46,23.45 3.43,34.66 -1.02,11.28 -4.07,21.93 -9.12,31.91 -5.02,9.92 -12.02,19.2 -20.98,27.81 -11.32,10.89 -23.66,18.61 -37.03,23.15 -13.38,4.54 -27.72,5.87 -43.01,4.01 -15.18,-1.81 -30.43,-7.21 -45.72,-16.15 -15.04,-8.79 -30.12,-21.05 -45.2,-36.73 -15.65,-16.28 -27.76,-32.3 -36.28,-48.02 -8.66,-16.01 -13.72,-31.81 -15.15,-47.41 -1.41,-15.62 0.23,-29.97 4.95,-43.06 4.75,-13.15 12.58,-24.97 23.47,-35.45 10.41,-10.02 22.12,-17.06 35.1,-21.08 12.87,-3.99 26.93,-4.99 42.17,-2.97 15.2,2.04 30.48,7.62 45.82,16.74 15.1,8.97 30.3,21.41 45.58,37.29 3.96,3.96 7.88,8.54 11.72,12.71l-112.44 108.14c8.58,7.59 16.92,13.64 24.99,18.13 9.25,5.13 18.19,8.23 26.81,9.29 8.59,1.07 16.36,0.53 23.29,-1.58 6.85,-2.1 13.01,-5.79 18.51,-11.07 8.5,-8.18 13.06,-17.88 13.64,-29.06 0.6,-11.67 -2.99,-25.12 -10.81,-40.33l-2.3 -4.46 4.1 -2.92zm31.56 -8.22l-20.82 14.81c7.22,15.28 10.5,29.19 9.85,41.71 -0.74,14.23 -6.48,26.53 -17.19,36.83 -6.8,6.53 -14.53,11.14 -23.18,13.79 -8.55,2.61 -17.91,3.29 -28.06,2.03 -10.07,-1.23 -20.41,-4.8 -31.02,-10.7 -10.37,-5.75 -20.98,-13.74 -31.83,-23.91l-4.45 -4.17 113.12 -108.8 -3.94 -4.28c-14.5,-15.06 -28.86,-26.82 -43.03,-35.24 -14.02,-8.34 -27.85,-13.42 -41.45,-15.24 -13.54,-1.79 -25.97,-0.93 -37.24,2.56 -11.2,3.47 -21.37,9.61 -30.47,18.36 -9.6,9.24 -16.47,19.58 -20.59,31 -4.15,11.49 -5.58,24.2 -4.33,38.1 1.29,13.96 5.9,28.28 13.83,42.92 8.08,14.87 19.56,30.06 34.43,45.53 14.36,14.93 28.61,26.54 42.7,34.78 13.85,8.09 27.59,12.97 41.22,14.6 13.58,1.66 26.23,0.5 37.93,-3.47 11.73,-3.98 22.64,-10.82 32.71,-20.52 8.01,-7.69 14.23,-15.92 18.66,-24.67 4.4,-8.71 7.06,-17.96 7.95,-27.74 0.89,-9.77 -0.13,-19.96 -3.07,-30.52 -2.51,-8.99 -6.42,-18.25 -11.73,-27.76zm-160.83 34.81l75.26 -72.38c-6.22,-5.22 -12.17,-9.49 -17.85,-12.78 -6.85,-3.99 -13.25,-6.53 -19.17,-7.6 -8.76,-1.59 -16.71,-1.43 -23.84,0.52 -7.01,1.9 -13.36,5.58 -19.01,11.01 -5.08,4.89 -8.76,10.47 -11.03,16.7 -2.32,6.33 -3.23,13.44 -2.76,21.29 0.48,7.91 2.56,15.83 6.2,23.73 3,6.5 7.07,13 12.2,19.51zm87.86 -68.41l-88.71 85.32 -4.01 -4.62c-7.73,-8.91 -13.7,-17.9 -17.87,-26.94 -4.26,-9.22 -6.68,-18.53 -7.25,-27.91 -0.57,-9.45 0.56,-18.09 3.43,-25.92 2.89,-7.93 7.53,-14.97 13.91,-21.11 7.05,-6.78 15.07,-11.4 23.99,-13.83 8.83,-2.4 18.49,-2.65 28.96,-0.74 7.3,1.33 14.94,4.32 22.91,8.96 7.75,4.5 15.9,10.61 24.48,18.3l4.65 4.17 -4.49 4.32zm277.27 -85.77l-232.53 -197.81 -61.55 72.35 -40.31 -34.28 155.8 -183.14 40.3 34.28 -61.86 72.73 236.93 201.56 -32.38 38.06 -4.4 -3.75zm-229.44 -210.38l232.53 197.81 17.38 -20.43 -236.94 -201.55 61.87 -72.73 -22.67 -19.29 -140.8 165.51 22.68 19.29 61.54 -72.35 4.41 3.74zm405.83 -18.99l-15.02 -10.73 1.19 4.65c1.75,7.56 2.48,14.95 2.24,22.1 -0.3,7.25 -1.63,14.19 -3.98,20.85 -2.35,6.66 -5.71,13.04 -10.06,19.14 -5.13,7.18 -10.89,13.17 -17.27,17.97 -6.44,4.83 -13.51,8.44 -21.18,10.81 -7.56,2.34 -15.07,3.44 -22.53,3.34 -7.52,-0.12 -14.94,-1.47 -22.2,-4.03 -6.97,-2.45 -14.72,-6.08 -23.17,-10.87 -8.35,-4.72 -17.4,-10.58 -27.15,-17.54l-133.57 -95.38 27.33 -38.28 120 85.7c10.67,7.61 19.67,13.65 27.01,18.11 7.16,4.35 12.77,7.23 16.79,8.63 3.81,1.31 7.57,2 11.22,2.07 3.73,0.08 7.45,-0.45 11.13,-1.57 3.58,-1.15 6.87,-2.8 9.82,-4.97 2.94,-2.15 5.57,-4.82 7.83,-8 4.39,-6.14 7.12,-12.6 8.17,-19.34 1.06,-6.8 0.46,-14.06 -1.8,-21.73 -1.94,-6.4 -6.45,-13.42 -13.48,-21.05 -7.37,-8 -17.43,-16.54 -30.13,-25.62l-116.08 -82.9 27.34 -38.27c72.46,51.7 144.93,103.4 217.3,155.21l-25.05 35.07 -4.7 -3.37zm-23.78 -31.25l25.79 18.43 11.57 -16.19 -198.43 -141.73 -13.86 19.4 106.62 76.15c13.38,9.55 24.03,18.63 31.94,27.21 8.22,8.92 13.59,17.46 16.05,25.59 2.77,9.35 3.47,18.28 2.14,26.81 -1.34,8.6 -4.73,16.71 -10.15,24.3 -3.01,4.22 -6.5,7.77 -10.43,10.64 -3.94,2.89 -8.37,5.12 -13.25,6.67l-0.07 0.02c-4.86,1.48 -9.77,2.18 -14.72,2.07 -4.93,-0.1 -9.87,-0.99 -14.76,-2.67 -4.79,-1.69 -11.13,-4.91 -19.02,-9.7 -7.72,-4.69 -16.97,-10.89 -27.73,-18.57l-110.57 -78.97 -13.86 19.39 124.11 88.64c9.47,6.76 18.19,12.41 26.15,16.91 7.82,4.42 14.94,7.77 21.31,10.01 6.11,2.15 12.29,3.29 18.48,3.38 6.23,0.09 12.57,-0.85 18.98,-2.83 6.4,-1.97 12.28,-4.98 17.64,-9 5.39,-4.05 10.32,-9.2 14.77,-15.42 3.74,-5.25 6.61,-10.67 8.57,-16.26 1.97,-5.61 3.09,-11.42 3.34,-17.41 0.2,-6.1 -0.45,-12.49 -1.97,-19.11 -1.54,-6.66 -3.95,-13.54 -7.24,-20.58l-9.39 -20.02 17.99 12.84zm72.58 -40.31l-300.16 -195.51 25.67 -39.41c101.71,66.14 203.36,132.41 305,198.67l-25.66 39.41 -4.85 -3.16zm-284.12 -198.9l285.58 186.02 13.02 -19.98 -285.59 -186.03 -13.01 19.99zm402.62 4.81l-15.99 -9.26 1.63 4.54c2.47,7.42 3.93,14.72 4.36,21.81 0.38,7.22 -0.28,14.24 -1.98,21.09 -1.7,6.83 -4.45,13.52 -8.21,20.03 -4.43,7.65 -9.59,14.17 -15.48,19.53 -5.94,5.42 -12.63,9.69 -20.06,12.78 -7.31,3.05 -14.7,4.88 -22.12,5.47 -7.45,0.59 -14.95,-0.04 -22.45,-1.91 -7.19,-1.78 -15.24,-4.67 -24.13,-8.63 -8.76,-3.91 -18.34,-8.88 -28.7,-14.88l-142.01 -82.25 23.57 -40.7 127.61 73.91c11.27,6.52 20.8,11.68 28.61,15.45 7.57,3.66 13.42,6 17.53,7 3.86,0.93 7.67,1.25 11.39,0.99 3.69,-0.28 7.31,-1.14 10.82,-2.59 3.51,-1.5 6.65,-3.48 9.38,-5.91 2.73,-2.43 5.09,-5.35 7.05,-8.72 3.77,-6.51 5.86,-13.2 6.27,-20.02 0.41,-6.89 -0.88,-14.05 -3.85,-21.46 -2.56,-6.2 -7.71,-12.77 -15.41,-19.67 -8.07,-7.24 -18.89,-14.79 -32.46,-22.64l-123.42 -71.49 23.58 -40.7c77.08,44.52 154.08,89.19 231.07,133.85l-21.59 37.29 -5.01 -2.91zm-26.63 -28.82l27.42 15.88 9.97 -17.22 -211 -122.22 -11.95 20.63 113.38 65.68c14.19,8.21 25.66,16.23 34.36,24.04 9.06,8.12 15.21,16.11 18.43,23.94 3.64,9.06 5.2,17.89 4.69,26.5 -0.52,8.66 -3.12,17.05 -7.82,25.16 -2.59,4.47 -5.72,8.34 -9.36,11.58 -3.66,3.25 -7.86,5.9 -12.55,7.9l-0.07 0.03c-4.7,1.94 -9.55,3.11 -14.49,3.47 -4.85,0.35 -9.84,-0.07 -14.92,-1.3 -4.95,-1.2 -11.56,-3.82 -19.86,-7.83 -8.07,-3.9 -17.86,-9.19 -29.37,-15.85l-117.58 -68.11 -11.94 20.63 131.98 76.45c10.07,5.83 19.28,10.61 27.61,14.33 8.2,3.66 15.61,6.32 22.17,7.95 6.26,1.55 12.54,2.08 18.77,1.59 6.2,-0.5 12.41,-2.04 18.58,-4.61 6.18,-2.58 11.76,-6.13 16.7,-10.64 5.01,-4.57 9.43,-10.16 13.25,-16.76 3.22,-5.56 5.55,-11.23 6.98,-16.99 1.42,-5.74 1.98,-11.63 1.67,-17.63 -0.37,-6.15 -1.63,-12.45 -3.76,-18.86 -2.13,-6.4 -5.19,-13.01 -9.19,-19.77l-11.29 -19.08 19.19 11.11zm108.48 -181.36c1.46,4.43 2.69,8.81 3.68,13.11 1.81,7.84 2.85,15.52 3.1,23.04 0.28,7.6 -0.25,14.97 -1.6,22.09 -1.36,7.16 -3.54,14.09 -6.53,20.81 -4.73,10.61 -10.62,19.48 -17.65,26.58 -7.13,7.19 -15.43,12.57 -24.89,16.09 -9.41,3.59 -19.27,5.03 -29.52,4.34 -10.08,-0.67 -20.55,-3.44 -31.38,-8.27 -7.13,-3.17 -13.56,-6.93 -19.27,-11.26 -5.76,-4.36 -10.78,-9.31 -15.04,-14.83 -4.27,-5.48 -7.71,-11.3 -10.27,-17.38 -2.6,-6.15 -4.33,-12.56 -5.16,-19.19 -0.8,-6.63 -0.63,-14.37 0.53,-23.15 1.15,-8.64 3.25,-18.29 6.28,-28.9 3.97,-13.93 6.98,-26.15 9,-36.62 1.66,-8.6 2.68,-16.04 3.04,-22.27l-6.56 -3.1c-7.5,-3.34 -14.15,-5.51 -19.92,-6.5 -5.36,-0.93 -9.88,-0.83 -13.51,0.29l-0.07 0.02c-5.5,1.64 -10.49,4.69 -14.89,9.11 -4.59,4.63 -8.62,10.78 -12.02,18.44 -3.12,6.99 -5.11,13.41 -5.99,19.22 -0.82,5.52 -0.62,10.46 0.59,14.79 1.22,4.27 3.88,8.77 7.95,13.44 4.34,5 10.24,10.17 17.67,15.49l4.62 3.31 -26.73 39.26 -4.79 -3.29c-11.84,-8.11 -21.43,-16.69 -28.74,-25.73 -7.51,-9.26 -12.65,-19 -15.42,-29.21 -2.77,-10.19 -3.29,-21.29 -1.59,-33.25 1.66,-11.7 5.5,-24.27 11.47,-37.68 4.66,-10.46 9.82,-19.4 15.48,-26.77 5.78,-7.56 12.15,-13.56 19.06,-17.98 6.8,-4.37 13.69,-7.42 20.6,-9.11 7.01,-1.72 14.03,-2.03 21.02,-0.95 6.62,1.05 14.3,3.05 23.01,6 8.56,2.9 18.28,6.78 29.17,11.64l52.68 23.46c18.33,8.15 33.38,14.67 45.15,19.49 11.54,4.73 19.78,7.79 24.66,9.16 4.89,1.38 9.79,2.4 14.7,3.05 5.03,0.67 10.17,0.99 15.35,0.95l8.97 -0.06 -20.23 45.41 -3.8 -0.05c-5.13,-0.06 -10.51,-0.64 -16.08,-1.7 -2,-0.38 -4.05,-0.82 -6.13,-1.34zm-7.63 15.71c-1.65,-7.19 -4.06,-14.64 -7.18,-22.32l-4.77 -11.7 11.99 4.03c5.52,1.85 10.82,3.27 15.86,4.23 3.58,0.68 7.02,1.14 10.31,1.36l9.91 -22.24c-2.71,-0.17 -5.41,-0.43 -8.07,-0.79 -5.62,-0.75 -11.08,-1.88 -16.33,-3.37 -5.33,-1.51 -13.99,-4.71 -25.94,-9.61 -11.77,-4.83 -26.92,-11.38 -45.46,-19.63l-52.68 -23.46c-10.46,-4.67 -19.86,-8.41 -28.18,-11.23 -8.17,-2.77 -15.19,-4.62 -21.05,-5.55 -5.43,-0.84 -10.94,-0.59 -16.48,0.77 -5.64,1.37 -11.36,3.92 -17.1,7.61 -5.77,3.66 -11.14,8.76 -16.11,15.26 -5.13,6.68 -9.84,14.85 -14.12,24.45 -5.51,12.39 -9.04,23.92 -10.56,34.6 -1.48,10.34 -1.04,19.89 1.32,28.56 2.36,8.7 6.75,17.01 13.18,24.94 5.62,6.94 12.82,13.64 21.56,20.1l13.81 -20.27c-6.1,-4.7 -11.15,-9.36 -15.15,-13.96 -5.2,-6 -8.67,-11.96 -10.35,-17.86 -1.66,-5.95 -1.97,-12.5 -0.9,-19.65 1.01,-6.81 3.32,-14.24 6.89,-22.26 3.98,-8.95 8.8,-16.26 14.38,-21.88 5.79,-5.82 12.43,-9.86 19.85,-12.07 5.39,-1.65 11.67,-1.86 18.79,-0.62 6.71,1.15 14.32,3.63 22.81,7.41 4.34,1.74 9.16,4.32 13.5,6.38l-0.06 3.73c-0.12,7.68 -1.25,17.02 -3.36,27.97 -2.11,10.91 -5.19,23.47 -9.22,37.61 -2.93,10.22 -4.92,19.31 -5.97,27.23 -1.05,7.85 -1.21,14.61 -0.5,20.24 0.72,5.63 2.16,11.01 4.31,16.1 2.17,5.16 5.1,10.1 8.75,14.77 3.67,4.76 7.97,9 12.89,12.72 4.97,3.78 10.64,7.08 16.99,9.9 9.54,4.25 18.69,6.68 27.43,7.27 8.57,0.58 16.81,-0.63 24.66,-3.61 7.9,-2.93 14.81,-7.41 20.76,-13.41 6.04,-6.1 11.14,-13.82 15.29,-23.13 2.62,-5.87 4.53,-11.95 5.71,-18.23 1.2,-6.3 1.67,-12.81 1.42,-19.54 -0.22,-6.72 -1.17,-13.66 -2.83,-20.85zm-85.36 -52.41c-0.23,5.38 -0.82,11.27 -1.76,17.68 -1.49,10.13 -3.86,21.61 -7.11,34.41 -1.83,7.2 -3.12,13.34 -3.86,18.4 -0.72,4.93 -0.94,8.87 -0.68,11.82 0.24,2.89 0.85,5.59 1.82,8.09 1,2.55 2.37,4.97 4.1,7.25 1.72,2.26 3.83,4.34 6.26,6.2 2.5,1.91 5.34,3.57 8.52,4.98 4.88,2.17 9.58,3.38 14.07,3.59 4.37,0.22 8.61,-0.5 12.69,-2.14 4.07,-1.64 7.71,-4.17 10.9,-7.57 3.34,-3.55 6.24,-8.07 8.66,-13.52 2.35,-5.29 3.93,-10.65 4.68,-16.03 0.77,-5.37 0.74,-10.81 -0.08,-16.32 -0.81,-5.56 -2.33,-10.76 -4.52,-15.56 -2.2,-4.79 -5.1,-9.27 -8.7,-13.39l-0.05 -0.04c-3.56,-4.16 -8.52,-8.3 -14.82,-12.41 -6.52,-4.26 -14.45,-8.47 -23.76,-12.61l-6.36 -2.83zm-13.24 15.99c1.4,-9.61 1.98,-17.84 1.71,-24.66l-0.37 -9.31 22.98 10.23c9.88,4.4 18.34,8.89 25.36,13.47 7.23,4.72 13.03,9.6 17.31,14.59 4.32,4.95 7.82,10.35 10.47,16.16 2.68,5.86 4.52,12.11 5.48,18.68 0.97,6.6 1,13.14 0.08,19.63 -0.91,6.44 -2.79,12.82 -5.59,19.13 -2.97,6.68 -6.58,12.27 -10.78,16.75 -4.35,4.63 -9.38,8.1 -15.04,10.38 -5.64,2.27 -11.51,3.27 -17.56,2.96 -5.93,-0.29 -12.03,-1.83 -18.24,-4.59 -4.02,-1.79 -7.64,-3.91 -10.83,-6.34 -3.23,-2.45 -6.06,-5.27 -8.45,-8.42 -2.4,-3.16 -4.31,-6.52 -5.69,-10.07 -1.39,-3.58 -2.26,-7.35 -2.59,-11.27 -0.33,-3.8 -0.08,-8.64 0.78,-14.49 0.82,-5.6 2.18,-12.15 4.08,-19.56 3.15,-12.45 5.46,-23.55 6.89,-33.27zm-172.37 -16.93l-53.79 -54.07 24.75 -55.56c17.21,26.11 34.46,52.19 51.6,78.34l-16.61 37.29 -5.95 -6zm-39.97 -56.62l42.23 42.46 7.15 -16.07 -36.47 -55.36 -12.91 28.97z"/>
  </g>
 </g>
</svg>
