<?xml version="1.0" encoding="UTF-8"?>
<!DOCTYPE svg PUBLIC "-//W3C//DTD SVG 1.1//EN" "http://www.w3.org/Graphics/SVG/1.1/DTD/svg11.dtd">
<!-- Creator: CorelDRAW -->
<svg xmlns="http://www.w3.org/2000/svg" xml:space="preserve" width="64mm" height="98mm" version="1.1" style="shape-rendering:geometricPrecision; text-rendering:geometricPrecision; image-rendering:optimizeQuality; fill-rule:evenodd; clip-rule:evenodd"
viewBox="0 0 6400 9800"
 xmlns:xlink="http://www.w3.org/1999/xlink"
 xmlns:xodm="http://www.corel.com/coreldraw/odm/2003">
 <defs>
  <style type="text/css">
   <![CDATA[
    .fil0 {fill:#FEFEFE;fill-rule:nonzero}
   ]]>
  </style>
 </defs>
 <g id="Capa_x0020_1">
  <metadata id="CorelCorpID_0Corel-Layer"/>
  <g id="_2847521424000">
   <path class="fil0" d="M900.2 6855.4c0,204.18 -121.13,303.21 -322.94,303.21 -203.18,0 -321.86,-97.96 -321.86,-303.21l0 -470.22 166.47 0 0 470.22c0,82.51 21.34,163.5 155.39,163.5 118.69,0 156.47,-51.32 156.47,-163.5l0 -470.22 166.47 0 0 470.22z"/>
   <path class="fil0" d="M1027.53 6593.87l142.69 0 0 76.09 2.99 0c38.31,-61.79 103.84,-91.23 167.47,-91.23 160.28,0 200.2,89.85 200.2,225.82l0 336.39 -150.5 0 0 -309.4c0,-89.85 -26.22,-134.05 -96.35,-134.05 -81.44,0 -116.54,45.04 -116.54,156.46l0 286.99 -149.96 0 0 -547.07z"/>
   <path class="fil0" d="M1659.41 6594.02l150.57 0 0 547.08 -150.57 0 0 -547.08zm150.57 -85.27l-150.57 0 0 -123.57 150.57 0 0 123.57z"/>
   <polygon class="fil0" points="2230.88,7141.02 2063.94,7141.02 1876.44,6593.87 2033.74,6593.87 2149.44,6967.51 2151.58,6967.51 2267.36,6593.87 2416.55,6593.87 "/>
   <path class="fil0" d="M2847.24 6808.45c-13.76,-76.09 -46.34,-116.24 -119.75,-116.24 -95.21,0 -122.2,73.64 -124.65,116.24l244.4 0zm-244.4 95.51c4.05,95.21 50.47,138.64 134.36,138.64 60.41,0 108.97,-37.24 118.45,-70.96l132.45 0c-42.13,129 -132.45,184.29 -256.02,184.29 -172.68,0 -279.51,-118.45 -279.51,-288.14 0,-164.03 113.33,-288.91 279.51,-288.91 186.13,0 275.98,156.69 265.73,325.08l-394.97 0z"/>
   <path class="fil0" d="M3086.44 6593.87l143.31 0 0 101.17 2.14 0c27.23,-69.05 101.4,-116.31 174.28,-116.31 10.78,0 23.71,1.91 32.88,5.43l0 139.71c-13.76,-3.21 -35.56,-5.35 -53.91,-5.35 -109.81,0 -147.89,79.6 -147.89,175.57l0 246.85 -150.81 0 0 -547.07z"/>
   <path class="fil0" d="M3615.01 6963.07c1.38,65.54 56.36,92.3 115.48,92.3 43.66,0 98.18,-16.74 98.18,-69.89 0,-45.89 -62.01,-61.26 -169.91,-84.96 -86.88,-19.2 -173.75,-49.63 -173.75,-145.99 0,-139.71 120.83,-175.57 237.9,-175.57 119.53,0 230.11,39.91 241.42,174.81l-142.92 0c-3.82,-58.58 -48.56,-74.25 -102.55,-74.25 -33.95,0 -83.58,5.96 -83.58,50.77 0,53.91 84.96,61.18 170.45,81.44 87.95,19.96 173.52,52.08 173.52,154.02 0,143.84 -124.65,190.18 -250.14,190.18 -126.48,0 -250.6,-47.41 -257.1,-192.86l143 0z"/>
   <path class="fil0" d="M4071.47 6594.02l150.57 0 0 547.08 -150.57 0 0 -547.08zm150.57 -85.27l-150.87 0 0 -123.57 150.87 0 0 123.57z"/>
   <path class="fil0" d="M4599.74 6692.21c-98.5,0 -132.15,84.42 -132.15,174.28 0,85.8 39.08,176.11 132.15,176.11 99.56,0 128.93,-86.87 128.93,-176.95 0,-89.02 -31.82,-173.44 -128.93,-173.44zm131.37 379.3l-2.44 0c-34.26,58.5 -95.98,84.42 -165.87,84.42 -165.1,0 -245.47,-142.46 -245.47,-293.49 0,-147.06 80.9,-283.56 241.95,-283.56 65,0 128.4,27.22 162.12,81.21l2.45 0 0 -274.91 149.96 0 0 755.92 -142.7 0 0 -69.59z"/>
   <path class="fil0" d="M5328.28 6872.91c-25.85,22.41 -78.23,23.71 -125.19,32.35 -46.11,8.95 -88.47,24.85 -88.47,80.14 0,56.13 43.74,69.9 91.76,69.9 117.31,0 121.9,-93.38 121.9,-126.26l0 -56.13zm-347.72 -110.88c8.64,-140.86 134.9,-183.23 257.86,-183.23 108.75,0 240.12,24.32 240.12,155.7l0 284.32c0,49.63 5.43,99.87 19.2,122.2l-152.48 0c-5.36,-16.67 -9.72,-34.79 -10.79,-53.15 -47.72,49.71 -117.3,67.99 -184.22,67.99 -103.31,0 -186.13,-51.78 -186.13,-164.26 0,-123.58 93.3,-153.25 186.13,-165.95 92,-13.99 178.03,-10.47 178.03,-72.03 0,-64.7 -44.51,-74.18 -97.66,-74.18 -56.89,0 -93.83,23.48 -99.03,82.59l-151.03 0z"/>
   <path class="fil0" d="M5854.63 6692.21c-98.8,0 -132.52,84.42 -132.52,174.28 0,85.8 39.38,176.11 132.52,176.11 99.49,0 128.93,-86.87 128.93,-176.95 0,-89.02 -31.58,-173.44 -128.93,-173.44zm131.07 379.3l-2.14 0c-35.1,58.5 -96.35,84.42 -166.17,84.42 -165.41,0 -245.55,-142.46 -245.55,-293.49 0,-147.06 81.52,-283.56 242.8,-283.56 64,0 127.63,27.22 161.66,81.21l1.83 0 0 -274.91 150.8 0 0 755.92 -143.23 0 0 -69.59z"/>
   <path class="fil0" d="M1411.95 7705.15c-98.5,0 -132.22,84.5 -132.22,174.05 0,86.03 39.15,176.11 132.22,176.11 99.57,0 129.24,-87.1 129.24,-176.42 0,-89.24 -31.59,-173.74 -129.24,-173.74zm131.07 379.07l-1.83 0c-34.8,59.34 -96.05,84.19 -165.95,84.19 -165.4,0 -245.47,-141.93 -245.47,-293.04 0,-147.51 81.21,-284.01 242.26,-284.01 64.16,0 127.56,27.99 161.82,81.75l2.21 0 0 -275.22 149.96 0 0 756.45 -143 0 0 -70.12z"/>
   <path class="fil0" d="M2168.1 7821.16c-13.69,-76.09 -46.65,-116.01 -119.76,-116.01 -94.97,0 -122.73,73.64 -124.87,116.01l244.63 0zm-244.63 95.97c4.59,94.98 51,138.18 134.89,138.18 59.88,0 108.44,-37.01 118.38,-70.96l132.22 0c-42.37,129.23 -132.22,183.99 -256.26,183.99 -172.67,0 -279.5,-118.15 -279.5,-287.84 0,-163.8 113.25,-289.22 279.5,-289.22 186.36,0 276.52,157 265.67,325.85l-394.9 0z"/>
   <polygon class="fil0" points="2411.81,7397.96 2562.08,7397.96 2562.08,8153.81 2411.81,8153.81 "/>
   <polygon class="fil0" points="3342.62,8154.11 3155.11,8154.11 2909.34,7397.96 3080.94,7397.96 3249.79,7929.36 3251.7,7929.36 3422.15,7397.96 3593.53,7397.96 "/>
   <path class="fil0" d="M3925.11 7885.85c-25.7,22.41 -78.54,23.17 -124.65,32.12 -46.96,9.41 -89.02,24.78 -89.02,80.06 0,56.44 42.6,70.21 92.23,70.21 117.38,0 121.44,-93.38 121.44,-126.03l0 -56.36zm-347.26 -110.88c8.64,-140.25 134.36,-183.46 257.1,-183.46 109.27,0 240.34,24.86 240.34,155.7l0 285.08c0,49.71 5.43,99.34 19.43,121.98l-152.64 0c-5.96,-17.29 -9.71,-35.33 -10.55,-53.38 -47.49,49.63 -117.31,67.37 -183.99,67.37 -103.85,0 -186.67,-51.47 -186.67,-163.95 0,-123.89 93.07,-153.25 186.67,-165.64 91.99,-14.3 177.57,-11.09 177.57,-72.34 0,-65 -44.59,-74.18 -97.12,-74.18 -57.51,0 -94.22,23.17 -99.88,82.82l-150.26 0z"/>
   <polygon class="fil0" points="4196.12,7397.96 4346.39,7397.96 4346.39,8153.81 4196.12,8153.81 "/>
   <polygon class="fil0" points="4469.96,7397.96 4619.92,7397.96 4619.92,8153.81 4469.96,8153.81 "/>
   <path class="fil0" d="M5107.12 7821.16c-13.99,-76.09 -46.95,-116.01 -120.06,-116.01 -94.9,0 -122.43,73.64 -124.34,116.01l244.4 0zm-244.4 95.97c4.05,94.98 50.47,138.18 134.06,138.18 60.48,0 109.27,-37.01 118.76,-70.96l132.14 0c-42.37,129.23 -132.14,183.99 -256.03,183.99 -172.67,0 -279.5,-118.15 -279.5,-287.84 0,-163.8 113.33,-289.22 279.5,-289.22 186.13,0 276.29,157 265.51,325.85l-394.44 0z"/>
   <polygon class="fil0" points="6230.49,8660.2 153.54,8660.2 153.54,8463.52 6230.49,8463.52 "/>
   <path class="fil0" d="M4205.22 5902.18l-1861.7 -3724 3723.17 0 -1861.47 3724zm-2025.73 -1901.07c-1060.96,0 -1924.25,-863.06 -1924.25,-1923.79l0 -1924.56 3848.88 0 0 1924.56 -1924.63 0 860.31 1719.84c-258.94,130.53 -551.13,203.95 -860.31,203.95zm-2025.72 2127.12l6076.64 0 0 -6077.18 -6076.64 0 0 6077.18z"/>
   <path class="fil0" d="M565.1 9517.34l142.4 -14.08c8.65,47.6 25.8,82.45 51.92,104.87 26.04,22.42 61.29,33.52 105.58,33.52 46.81,0 82.14,-9.92 105.9,-29.82 23.76,-19.83 35.71,-43.11 35.71,-69.71 0,-17.15 -5.03,-31.62 -15.02,-43.74 -9.92,-11.96 -27.46,-22.42 -52.32,-31.15 -16.99,-6.14 -55.78,-16.52 -116.36,-31.71 -77.96,-19.51 -132.72,-43.43 -164.19,-71.91 -44.29,-39.88 -66.4,-88.58 -66.4,-146.01 0,-36.82 10.46,-71.52 31.15,-103.69 20.93,-32.18 50.91,-56.57 90.09,-73.41 39.25,-16.91 86.46,-25.33 142,-25.33 90.4,0 158.61,20.06 204.24,60.34 45.86,40.2 69.7,93.78 72.06,160.97l-146.49 5.03c-6.21,-37.37 -19.51,-64.12 -39.89,-80.48 -20.37,-16.36 -51.05,-24.55 -91.81,-24.55 -42.09,0 -75.05,8.74 -98.81,26.28 -15.34,11.25 -23.05,26.2 -23.05,45.08 0,17.23 7.24,31.86 21.71,43.98 18.33,15.66 62.94,31.78 133.82,48.62 70.97,16.68 123.29,34.22 157.19,52.08 33.99,18.02 60.58,42.41 79.78,73.56 19.2,31.16 28.79,69.55 28.79,115.18 0,41.46 -11.4,80.32 -34.53,116.59 -23.06,36.19 -55.55,63.1 -97.64,80.64 -42.09,17.7 -94.64,26.44 -157.5,26.44 -91.42,0 -161.6,-21.09 -210.61,-63.34 -49.01,-42.09 -78.12,-103.53 -87.72,-184.25zm1014.41 68.76l138.39 23.21c-17.7,50.67 -45.79,89.3 -84.02,115.89 -38.4,26.43 -86.39,39.73 -143.82,39.73 -91.1,0 -158.6,-29.82 -202.27,-89.45 -34.54,-47.84 -51.84,-108.1 -51.84,-181.03 0,-86.86 22.73,-155.07 68.05,-204.24 45.31,-49.33 102.67,-73.95 172.06,-73.95 77.81,0 139.33,25.8 184.41,77.34 45,51.53 66.56,130.51 64.51,236.88l-346.56 0c1.03,41.15 12.12,73.09 33.52,95.98 21.24,22.97 47.83,34.38 79.46,34.38 21.71,0 39.89,-5.9 54.6,-17.7 14.79,-11.72 25.88,-30.76 33.51,-57.04zm8.03 -140.43c-1.02,-40.28 -11.25,-70.96 -31,-91.81 -19.67,-21.09 -43.58,-31.47 -71.91,-31.47 -30.13,0 -54.99,11.09 -74.74,33.12 -19.66,22.11 -29.26,52.24 -28.95,90.16l206.6 0zm731.74 306.12l-128.32 0 0 -76.94c-21.4,29.97 -46.81,52.31 -75.92,67.5 -29.19,15.02 -58.61,22.58 -88.27,22.58 -60.5,0 -112.19,-24.23 -155.3,-72.93 -42.88,-48.62 -64.43,-116.36 -64.43,-203.45 0,-88.9 20.84,-156.56 62.78,-202.9 41.93,-46.34 94.8,-69.39 158.76,-69.39 58.61,0 109.51,24.47 152.23,73.09l0 -261.04 138.47 0 0 723.48zm-369.84 -272.29c0,56.09 7.78,96.61 23.13,121.71 22.34,36.42 53.49,54.6 93.62,54.6 31.78,0 58.92,-13.61 81.19,-40.91 22.34,-27.3 33.43,-67.9 33.43,-122.1 0,-60.5 -10.77,-103.93 -32.49,-130.52 -21.71,-26.59 -49.33,-39.89 -83.16,-39.89 -32.8,0 -60.26,13.14 -82.52,39.41 -22.03,26.28 -33.2,65.46 -33.2,117.7zm809.23 106.6l138.39 23.21c-17.71,50.67 -45.79,89.3 -84.03,115.89 -38.39,26.43 -86.38,39.73 -143.81,39.73 -91.11,0 -158.61,-29.82 -202.27,-89.45 -34.54,-47.84 -51.85,-108.1 -51.85,-181.03 0,-86.86 22.74,-155.07 68.06,-204.24 45.31,-49.33 102.66,-73.95 172.05,-73.95 77.81,0 139.33,25.8 184.41,77.34 45.01,51.53 66.56,130.51 64.52,236.88l-346.56 0c1.02,41.15 12.12,73.09 33.51,95.98 21.25,22.97 47.84,34.38 79.47,34.38 21.71,0 39.88,-5.9 54.59,-17.7 14.79,-11.72 25.89,-30.76 33.52,-57.04zm8.02 -140.43c-1.02,-40.28 -11.25,-70.96 -30.99,-91.81 -19.67,-21.09 -43.59,-31.47 -71.91,-31.47 -30.13,0 -54.99,11.09 -74.74,33.12 -19.67,22.11 -29.27,52.24 -28.95,90.16l206.59 0zm695.16 306.12l0 -601.22 -214.15 0 0 -122.26 573.85 0 0 122.26 -213.21 0 0 601.22 -146.49 0zm725.13 0l0 -78.44c-19.19,27.93 -44.29,50.12 -75.44,66.79 -31.16,16.53 -63.97,24.79 -98.5,24.79 -35.41,0 -67.03,-7.79 -95.04,-23.21 -28.09,-15.5 -48.31,-37.45 -60.74,-65.38 -12.66,-28.09 -18.88,-66.87 -18.88,-116.36l0 -332.63 138.47 0 0 241.53c0,73.95 2.51,119.03 7.71,135.71 5.03,16.68 14.32,29.98 27.93,39.57 13.53,9.76 30.68,14.64 51.53,14.64 23.76,0 45,-6.53 63.88,-19.51 18.8,-12.99 31.63,-29.11 38.55,-48.47 6.84,-19.35 10.38,-66.55 10.38,-141.85l0 -221.62 138.47 0 0 524.44 -128.32 0zm270.64 0l0 -723.48 138.39 0 0 723.48 -138.39 0zm627.26 0l0 -78.44c-19.19,27.93 -44.29,50.12 -75.45,66.79 -31.15,16.53 -63.96,24.79 -98.49,24.79 -35.41,0 -67.03,-7.79 -95.04,-23.21 -28.09,-15.5 -48.31,-37.45 -60.74,-65.38 -12.66,-28.09 -18.88,-66.87 -18.88,-116.36l0 -332.63 138.47 0 0 241.53c0,73.95 2.51,119.03 7.71,135.71 5.03,16.68 14.31,29.98 27.93,39.57 13.53,9.76 30.68,14.64 51.53,14.64 23.76,0 45,-6.53 63.88,-19.51 18.8,-12.99 31.63,-29.11 38.55,-48.47 6.84,-19.35 10.38,-66.55 10.38,-141.85l0 -221.62 138.47 0 0 524.44 -128.32 0zm373.7 -362.76l-125.33 -22.19c14.17,-51.22 38.55,-89.14 73.09,-113.68 34.54,-24.63 85.91,-36.9 153.97,-36.9 61.75,0 107.94,7.24 138.22,21.87 30.14,14.71 51.54,33.2 63.81,55.78 12.27,22.58 18.57,63.8 18.57,124.15l-2.05 161.59c0,46.03 2.2,80.01 6.53,101.88 4.41,21.95 12.67,45.32 24.78,70.26l-137.44 0c-3.54,-9.13 -8.02,-22.58 -13.3,-40.44 -2.2,-8.26 -3.85,-13.61 -4.87,-16.13 -23.53,23.21 -48.86,40.6 -75.77,52.16 -26.9,11.65 -55.54,17.55 -86.06,17.55 -53.74,0 -96.14,-14.64 -127.14,-43.98 -31,-29.11 -46.5,-66.17 -46.5,-110.93 0,-29.5 7.08,-55.94 21.25,-79.15 14.16,-23.13 33.82,-40.91 59.47,-53.26 25.41,-12.27 62.08,-23.05 110.14,-32.33 64.6,-12.12 109.6,-23.53 134.54,-33.99l0 -14c0,-26.91 -6.61,-46.11 -19.75,-57.75 -13.3,-11.41 -38.24,-17.15 -74.74,-17.15 -24.78,0 -43.98,4.88 -57.75,14.79 -14,9.76 -25.09,27.14 -33.67,51.85zm185.91 112.18c-17.71,5.9 -45.79,12.98 -84.42,21.25 -38.39,8.26 -63.65,16.28 -75.45,24.07 -18.01,12.98 -27.06,29.11 -27.06,48.78 0,19.59 7.24,36.27 21.71,50.35 14.48,14.16 32.81,21.24 55.23,21.24 24.94,0 48.86,-8.26 71.59,-24.55 16.68,-12.66 27.78,-27.85 32.97,-46.02 3.54,-11.8 5.43,-34.3 5.43,-67.5l0 -27.62z"/>
  </g>
 </g>
</svg>
