<?xml version="1.0" encoding="UTF-8"?>
<!DOCTYPE svg PUBLIC "-//W3C//DTD SVG 1.1//EN" "http://www.w3.org/Graphics/SVG/1.1/DTD/svg11.dtd">
<!-- Creator: CorelDRAW -->
<svg xmlns="http://www.w3.org/2000/svg" xml:space="preserve" width="95mm" height="62mm" version="1.1" style="shape-rendering:geometricPrecision; text-rendering:geometricPrecision; image-rendering:optimizeQuality; fill-rule:evenodd; clip-rule:evenodd"
viewBox="0 0 9500 6200"
 xmlns:xlink="http://www.w3.org/1999/xlink"
 xmlns:xodm="http://www.corel.com/coreldraw/odm/2003">
 <defs>
  <style type="text/css">
   <![CDATA[
    .fil2 {fill:#FEFEFE}
    .fil4 {fill:#FEFEFE}
    .fil0 {fill:#373435}
    .fil1 {fill:#F7D117}
    .fil3 {fill:#3B3939;fill-rule:nonzero}
   ]]>
  </style>
 </defs>
 <g id="Capa_x0020_1">
  <metadata id="CorelCorpID_0Corel-Layer"/>
  <g id="_2847521424288">
   <path class="fil0" d="M3158.4 1493.48l500.29 0 372.84 301.61 395.43 -301.61 443 0 0 1440.73 -478.66 0 0 -807.36 -376.84 426.58 -24.21 7.48 -336.33 -411.67 0 784.97 -495.52 0 0 -1440.73zm1691.68 -0.99l698.68 0c137.44,0 248.67,17.78 333.75,53.01 84.65,35.57 154.8,86.2 210.06,152.28 55.28,66.47 95.32,143.26 120.49,231.11 24.76,87.9 37.17,180.82 37.17,279.09 0,153.99 -18.43,273.41 -55.61,358.27 -36.83,84.87 -88.2,155.97 -154.15,213.01 -65.5,57.36 -136.01,95.6 -211.49,114.7 -103.08,26.17 -196.62,39.27 -280.22,39.27l-698.68 0 0 -1440.74zm470.17 326.37l0 786.97 115.14 0c98.49,0 168.29,-10.06 209.72,-30.85 41.47,-20.46 74.06,-56.69 97.78,-108.01 23.39,-51.34 35.1,-134.85 35.1,-250.27 0,-152.63 -26.24,-256.93 -78.64,-313.28 -52.81,-56.36 -139.97,-84.56 -261.84,-84.56l-117.26 0z"/>
   <path class="fil1" d="M3233.22 1418.69l500.28 0 372.85 301.6 395.44 -301.6 443 0 0 1440.73 -478.7 0 0 -807.41 -376.81 426.63 -24.22 7.46 -336.34 -411.66 0 784.98 -495.5 0 0 -1440.73zm1691.71 -1l698.66 0c137.44,0 248.68,17.78 333.72,53.02 84.68,35.53 154.83,86.19 210.11,152.27 55.23,66.42 95.27,143.26 120.43,231.12 24.77,87.89 37.18,180.83 37.18,279.09 0,153.97 -18.4,273.39 -55.58,358.25 -36.88,84.85 -88.23,155.99 -154.14,213.01 -65.56,57.35 -136.05,95.59 -211.5,114.72 -103.13,26.16 -196.62,39.24 -280.22,39.24l-698.66 0 0 -1440.72zm470.11 326.38l0 786.96 115.14 0c98.48,0 168.3,-10.08 209.73,-30.86 41.47,-20.48 74.06,-56.71 97.83,-108.02 23.34,-51.34 35.05,-134.84 35.05,-250.24 0,-152.63 -26.2,-256.97 -78.66,-313.28 -52.75,-56.4 -139.91,-84.56 -261.82,-84.56l-117.27 0z"/>
   <polygon class="fil0" points="4642.92,67.61 4679.93,158.71 4753.99,215.68 4803.31,318.24 4778.63,500.5 4815.64,1138.47 4926.7,1127.1 4988.4,1024.54 5087.1,967.57 5161.11,922.02 5259.82,922.02 5346.15,865.06 5457.16,773.9 5555.86,705.58 5654.57,648.61 5790.31,546.1 5864.33,454.94 6000.04,397.98 6098.73,318.24 6197.44,386.57 6197.44,500.5 6123.38,557.46 5938.34,671.39 5728.63,819.51 5642.25,922.02 5506.54,944.8 5444.85,1013.17 5321.5,1070.14 5259.82,1127.1 5124.11,1229.62 4976.03,1332.18 4852.64,1411.87 4840.33,1628.37 4840.33,2197.96 4889.7,2573.92 4939.02,2870.11 4914.34,3109.36 4951.35,3337.21 5000.72,3667.57 5000.72,3747.32 4988.4,3918.21 5013.04,4294.15 4963.72,4499.22 5000.72,4590.36 4778.63,4499.22 4729.31,4408.09 4790.99,3599.23 4753.99,3280.24 4692.3,3075.19 4692.3,2710.61 4630.6,2494.17 4630.6,2186.55 4618.28,1616.96 4581.28,1503.03 4408.53,1571.4 4248.15,1673.92 4186.46,1799.26 4013.76,1913.14 3779.34,2027.07 3581.94,2152.41 3384.56,2289.11 3273.52,2334.66 3187.18,2334.66 3162.48,2277.7 3162.48,2186.55 3322.87,2095.44 3544.95,1981.52 3729.98,1833.4 3878.04,1708.11 4026.1,1559.99 4100.12,1514.44 4161.8,1423.29 4297.5,1343.55 4396.2,1286.58 4581.28,1229.62 4544.22,363.79 4507.22,204.31 "/>
   <polygon class="fil2" points="4741.23,24.13 4778.24,115.29 4852.26,172.25 4901.62,274.77 4876.94,457.07 4913.95,1095.04 5024.97,1083.63 5086.66,981.11 5185.36,924.15 5259.37,878.6 5358.08,878.6 5444.46,821.63 5555.47,730.48 5654.17,662.1 5752.88,605.19 5888.59,502.62 5962.6,411.47 6098.35,354.56 6197.01,274.77 6295.7,343.14 6295.7,457.07 6221.69,514.04 6036.65,627.96 5826.89,776.03 5740.56,878.6 5604.85,901.37 5543.16,969.7 5419.78,1026.66 5358.08,1083.63 5222.37,1186.15 5074.34,1288.71 4950.95,1368.45 4938.63,1584.89 4938.63,2154.54 4988.01,2530.47 5037.33,2826.67 5012.65,3065.91 5049.66,3293.75 5099.03,3624.13 5099.03,3703.88 5086.66,3874.76 5111.35,4250.72 5062.02,4455.78 5099.03,4546.9 4876.94,4455.78 4827.62,4364.63 4889.3,3555.77 4852.26,3236.79 4790.61,3031.73 4790.61,2667.16 4728.91,2450.72 4728.91,2143.12 4716.55,1573.53 4679.55,1459.6 4506.82,1527.93 4346.48,1630.45 4284.77,1755.79 4112.05,1869.72 3877.63,1983.64 3680.25,2108.94 3482.84,2245.64 3371.83,2291.24 3285.47,2291.24 3260.78,2234.28 3260.78,2143.12 3421.18,2051.97 3643.23,1938.09 3828.29,1789.98 3976.34,1664.63 4124.38,1516.57 4198.41,1470.97 4260.1,1379.81 4395.81,1300.12 4494.51,1243.16 4679.55,1186.15 4642.53,320.37 4605.53,160.89 "/>
   <g>
    <path class="fil3" d="M4766.71 119.94l-37.03 -91.12 23.08 -9.38 37.03 91.12 -19.13 14.56 -3.95 -5.18zm3.95 5.18l-2.68 -2.07 -1.27 -3.11 3.95 5.18zm74.04 56.99l-74.04 -56.99 15.18 -19.74 74.04 56.99 3.63 4.47 -18.81 15.27zm15.18 -19.74l2.35 1.81 1.28 2.66 -3.63 -4.47zm30.5 117.77l-49.31 -102.5 22.44 -10.8 49.31 102.5 1.12 7.07 -23.56 3.73zm22.44 -10.8l1.62 3.37 -0.5 3.7 -1.12 -7.07zm-48.19 186.01l24.63 -182.28 24.68 3.34 -24.63 182.28 -24.77 -0.95 0.09 -2.39zm-0.09 2.39l-0.07 -1.21 0.16 -1.18 -0.09 2.39zm36.98 637.98l-36.98 -637.98 24.86 -1.44 36.98 637.98 -11.16 13.11 -13.7 -11.67zm13.7 11.67l-12.95 1.33 -0.75 -13 13.7 11.67zm111.05 -11.38l-111.05 11.38 -2.54 -24.78 111.05 -11.38 11.94 18.81 -9.4 5.97zm9.4 -5.97l-3.21 5.34 -6.19 0.63 9.4 -5.97zm61.66 -102.56l-61.66 102.56 -21.34 -12.84 61.66 -102.56 4.45 -4.37 16.89 17.21zm-21.34 -12.84l1.66 -2.76 2.79 -1.61 -4.45 4.37zm115.61 -39.73l-98.72 56.94 -12.44 -21.58 98.72 -56.94 12.75 21.39 -0.31 0.19zm0.31 -0.19l-0.29 0.18 -0.02 0.01 0.31 -0.19zm73.99 -45.56l-73.99 45.56 -13.06 -21.2 73.99 -45.56 6.53 -1.85 6.53 23.05zm-13.06 -21.2l3 -1.85 3.53 0 -6.53 1.85zm105.25 23.05l-98.72 0 0 -24.9 98.72 0 6.86 22.84 -6.86 2.06zm6.86 -2.06l-3.12 2.06 -3.74 0 6.86 -2.06zm86.34 -56.99l-86.34 56.99 -13.72 -20.78 86.34 -56.99 14.76 20.02 -1.04 0.76zm1.04 -0.76l-0.46 0.38 -0.58 0.38 1.04 -0.76zm111.05 -91.11l-111.05 91.11 -15.8 -19.26 111.05 -91.11 0.81 -0.61 14.99 19.87zm-15.8 -19.26l0.38 -0.31 0.43 -0.3 -0.81 0.61zm113.67 -48.47l-98.68 68.34 -14.18 -20.48 98.68 -68.34 0.86 -0.54 13.32 21.02zm-14.18 -20.48l0.38 -0.26 0.48 -0.28 -0.86 0.54zm112.04 -35.97l-98.72 56.99 -12.46 -21.56 98.72 -56.99 13.74 20.72 -1.28 0.84zm1.28 -0.84l-0.57 0.43 -0.71 0.41 1.28 -0.84zm135.69 -102.51l-135.69 102.51 -15.02 -19.88 135.69 -102.51 17.17 17.79 -2.15 2.09zm2.15 -2.09l-0.98 1.21 -1.17 0.88 2.15 -2.09zm74.05 -91.16l-74.05 91.16 -19.32 -15.7 74.05 -91.16 4.84 -3.63 14.48 19.33zm-19.32 -15.7l1.97 -2.43 2.87 -1.2 -4.84 3.63zm150.18 -37.61l-135.7 56.94 -9.64 -22.96 135.7 -56.94 12.65 21.16 -3.01 1.8zm3.01 -1.8l-1.38 1.12 -1.63 0.68 3.01 -1.8zm98.67 -79.78l-98.67 79.78 -15.66 -19.36 98.67 -79.78 14.92 -0.56 0.74 19.92zm-15.66 -19.36l7.26 -5.87 7.66 5.31 -14.92 0.56zm99.46 88.31l-98.72 -68.39 14.18 -20.48 98.72 68.39 5.36 10.24 -19.54 10.24zm14.18 -20.48l5.36 3.71 0 6.53 -5.36 -10.24zm-19.54 124.13l0 -113.89 24.9 0 0 113.89 -4.85 9.87 -20.05 -9.87zm24.9 0l0 6.13 -4.85 3.74 4.85 -9.87zm-94.05 47.12l74 -56.99 15.2 19.74 -74 56.99 -1.07 0.73 -14.13 -20.47zm15.2 19.74l-0.46 0.36 -0.61 0.37 1.07 -0.73zm-199.19 93.42l185.06 -113.89 13.06 21.2 -185.06 113.89 -13.71 -20.77 0.65 -0.43zm-0.65 0.43l0.33 -0.23 0.32 -0.2 -0.65 0.43zm-209.73 148.12l209.73 -148.12 14.36 20.34 -209.73 148.12 -16.7 -18.19 2.34 -2.15zm-2.34 2.15l1.03 -1.23 1.31 -0.92 -2.34 2.15zm-86.38 102.54l86.38 -102.54 19.04 16.04 -86.38 102.54 -7.46 4.26 -11.58 -20.3zm19.04 16.04l-2.95 3.5 -4.51 0.76 7.46 -4.26zm-147.27 2.48l135.69 -22.78 4.12 24.56 -135.69 22.78 -11.3 -20.62 7.18 -3.94zm-7.18 3.94l2.91 -3.22 4.27 -0.72 -7.18 3.94zm-61.7 68.34l61.7 -68.34 18.48 16.68 -61.7 68.34 -4.02 2.96 -14.46 -19.64zm18.48 16.68l-1.71 1.89 -2.31 1.07 4.02 -2.96zm-137.82 37.34l123.36 -56.98 10.44 22.6 -123.36 56.98 -13.67 -20.45 3.23 -2.15zm-3.23 2.15l1.43 -1.32 1.8 -0.83 -3.23 2.15zm-61.7 56.96l61.7 -56.96 16.9 18.3 -61.7 56.96 -0.95 0.79 -15.95 -19.09zm16.9 18.3l-0.43 0.4 -0.52 0.39 0.95 -0.79zm-151.65 83.41l135.7 -102.5 15 19.88 -135.7 102.5 -0.41 0.3 -14.59 -20.18zm15 19.88l-0.41 0.3 0.15 -0.11 0.26 -0.19zm-162.67 82.37l148.08 -102.55 14.18 20.48 -148.08 102.55 -0.33 0.22 -13.85 -20.7zm14.18 20.48l-0.14 0.1 -0.19 0.12 0.33 -0.22zm-137.2 59.07l123.35 -79.77 13.52 20.92 -123.35 79.77 -19.19 -11.17 5.67 -9.75zm-5.67 9.75l0.36 -6.32 5.31 -3.43 -5.67 9.75zm-12.33 216.44l12.33 -216.44 24.86 1.42 -12.33 216.44 -24.88 -0.71 0.02 -0.71zm-0.02 0.71l0 -0.36 0.02 -0.35 -0.02 0.71zm0 569.61l0 -569.61 24.9 0 0 569.61 -24.8 1.62 -0.1 -1.62zm0.1 1.62l-0.1 -0.76 0 -0.86 0.1 1.62zm49.35 375.96l-49.35 -375.96 24.7 -3.24 49.35 375.96 -24.63 3.67 -0.07 -0.43zm0.07 0.43l-0.07 -0.43 0.01 0.05 0.06 0.38zm49.37 296.21l-49.37 -296.21 24.56 -4.1 49.37 296.21 0.11 3.33 -24.67 0.77zm24.56 -4.1l0.28 1.68 -0.17 1.65 -0.11 -3.33zm-49.36 240.01l24.69 -239.24 24.78 2.56 -24.69 239.24 -24.68 0.71 -0.1 -3.27zm0.1 3.27l-0.27 -1.65 0.17 -1.62 0.1 3.27zm36.98 227.83l-36.98 -227.83 24.58 -3.98 36.98 227.83 0.03 0.15 -24.61 3.83zm24.58 -3.98l0.03 0.15 0.07 0.44 -0.1 -0.59zm24.75 334.22l-49.36 -330.39 24.64 -3.68 49.36 330.39 0.13 1.84 -24.77 1.84zm24.64 -3.68l0.13 0.87 0 0.97 -0.13 -1.84zm-24.77 81.59l0 -79.75 24.9 0 0 79.75 -0.03 0.9 -24.87 -0.9zm24.9 0l0 0.48 -0.03 0.42 0.03 -0.9zm-37.21 169.98l12.34 -170.88 24.84 1.8 -12.34 170.88 -24.84 -0.08 0 -1.72zm0 1.72l-0.06 -0.9 0.06 -0.82 0 1.72zm24.68 375.96l-24.68 -375.96 24.84 -1.64 24.68 375.96 -0.31 3.73 -24.53 -2.09zm24.84 -1.64l0.13 1.92 -0.44 1.81 0.31 -3.73zm-73.84 202.97l49.31 -205.06 24.22 5.82 -49.31 205.06 -23.65 1.77 -0.57 -7.59zm0.57 7.59l-1.5 -3.71 0.93 -3.88 0.57 7.59zm36.97 91.13l-36.97 -91.13 23.08 -9.36 36.97 91.13 -16.27 16.2 -6.81 -6.84zm23.08 -9.36l11.14 27.45 -27.41 -11.25 16.27 -16.2zm-228.84 -97.97l222.03 91.13 -9.46 23.04 -222.03 -91.13 -6.22 -5.59 15.68 -17.45zm-9.46 23.04l-4.1 -1.68 -2.12 -3.91 6.22 5.59zm-33.69 -108.59l49.37 91.14 -21.9 11.86 -49.37 -91.14 -1.47 -6.88 23.37 -4.98zm-21.9 11.86l-1.75 -3.23 0.28 -3.65 1.47 6.88zm85.07 -813.86l-61.7 808.88 -24.84 -1.9 61.7 -808.88 24.79 -0.49 0.05 2.39zm-0.05 -2.39l0.14 1.21 -0.09 1.18 -0.05 -2.39zm-37.01 -318.97l37.01 318.97 -24.74 2.88 -37.01 -318.97 24.29 -5.03 0.45 2.15zm-0.45 -2.15l0.33 1.08 0.12 1.07 -0.45 -2.15zm-61.7 -205.07l61.7 205.07 -23.84 7.18 -61.7 -205.07 -0.53 -3.59 24.37 -3.59zm-23.84 7.18l-0.53 -1.76 0 -1.83 0.53 3.59zm24.37 -368.15l0 364.56 -24.9 0 0 -364.56 24.42 -3.41 0.48 3.41zm-0.48 -3.41l0.48 1.68 0 1.73 -0.48 -3.41zm-61.7 -216.45l61.7 216.45 -23.94 6.82 -61.7 -216.45 -0.48 -3.41 24.42 -3.41zm-23.94 6.82l-0.48 -1.68 0 -1.73 0.48 3.41zm24.42 -311.01l0 307.6 -24.9 0 0 -307.6 24.9 -0.27 0 0.27zm0 -0.27l0 0 0 0.27 0 -0.27zm-12.34 -569.61l12.34 569.61 -24.9 0.54 -12.34 -569.61 24.29 -4.11 0.61 3.57zm-0.61 -3.57l0.57 1.76 0.04 1.81 -0.61 -3.57zm-36.98 -113.94l36.98 113.94 -23.68 7.68 -36.98 -113.94 7.26 -15.42 16.42 7.74zm-16.42 -7.74l12.33 -4.88 4.09 12.62 -16.42 -7.74zm-172.71 68.34l172.71 -68.34 9.16 23.16 -172.71 68.34 -11.29 -22.07 2.13 -1.09zm-2.13 1.09l1.01 -0.65 1.12 -0.44 -2.13 1.09zm-160.43 102.56l160.43 -102.56 13.42 20.98 -160.43 102.56 -17.88 -15.99 4.46 -4.99zm-4.46 4.99l1.54 -3.12 2.92 -1.87 -4.46 4.99zm-61.66 125.32l61.66 -125.32 22.34 11 -61.66 125.32 -4.32 4.89 -18.02 -15.89zm22.34 11l-1.49 3.02 -2.83 1.87 4.32 -4.89zm-190.74 98.01l172.72 -113.9 13.7 20.78 -172.72 113.9 -1.41 0.81 -12.29 -21.59zm13.7 20.78l-0.72 0.47 -0.69 0.34 1.41 -0.81zm-246.71 92.35l234.42 -113.94 10.88 22.4 -234.42 113.94 -12.11 -21.71 1.23 -0.69zm-1.23 0.69l0.62 -0.39 0.61 -0.3 -1.23 0.69zm-197.38 125.33l197.38 -125.33 13.34 21.02 -197.38 125.33 -13.76 -20.75 0.42 -0.27zm-0.42 0.27l0.06 -0.04 0.36 -0.23 -0.42 0.27zm-197.39 136.71l197.39 -136.71 14.18 20.48 -197.39 136.71 -2.36 1.28 -11.82 -21.76zm14.18 20.48l-1.1 0.76 -1.26 0.52 2.36 -1.28zm-122.85 23.79l111.03 -45.55 9.46 23.04 -111.03 45.55 -4.73 0.93 -4.73 -23.97zm9.46 23.04l-2.27 0.93 -2.46 0 4.73 -0.93zm-91.09 -23.97l86.36 0 0 24.9 -86.36 0 -11.43 -7.5 11.43 -17.4zm0 24.9l-8.18 0 -3.25 -7.5 11.43 7.5zm-13.26 -74.39l24.69 56.99 -22.86 9.9 -24.69 -56.99 -1.02 -4.95 23.88 -4.95zm-22.86 9.9l-1.02 -2.35 0 -2.6 1.02 4.95zm23.88 -96.06l0 91.11 -24.9 0 0 -91.11 6.3 -10.83 18.6 10.83zm-24.9 0l0 -7.25 6.3 -3.58 -6.3 10.83zm179 -80.29l-160.4 91.12 -12.3 -21.66 160.4 -91.12 0.47 -0.25 11.83 21.91zm-12.3 -21.66l0.16 -0.09 0.31 -0.16 -0.47 0.25zm233.88 -92.03l-222.05 113.94 -11.36 -22.16 222.05 -113.94 13.46 20.8 -2.1 1.36zm2.1 -1.36l-0.98 0.79 -1.12 0.57 2.1 -1.36zm185.06 -148.1l-185.06 148.1 -15.56 -19.44 185.06 -148.1 15.83 19.22 -0.27 0.22zm0.27 -0.22l-0.08 0.07 -0.19 0.15 0.27 -0.22zm148.04 -125.33l-148.04 125.33 -16.1 -19 148.04 -125.33 16.86 18.3 -0.76 0.7zm0.76 -0.7l-0.37 0.37 -0.39 0.33 0.76 -0.7zm148.05 -148.1l-148.05 148.1 -17.62 -17.6 148.05 -148.1 2.28 -1.8 15.34 19.4zm-17.62 -17.6l1.03 -1.03 1.25 -0.77 -2.28 1.8zm89.36 -26.17l-74.02 45.57 -13.06 -21.2 74.02 -45.57 16.84 17.58 -3.78 3.62zm3.78 -3.62l-1.5 2.22 -2.28 1.4 3.78 -3.62zm61.69 -91.11l-61.69 91.11 -20.62 -13.96 61.69 -91.11 4 -3.75 16.62 17.71zm-20.62 -13.96l1.57 -2.32 2.43 -1.43 -4 3.75zm152.33 -62.06l-135.71 79.77 -12.62 -21.46 135.71 -79.77 0.09 -0.05 12.53 21.51zm-12.62 -21.46l0.09 -0.05 -0.27 0.16 0.18 -0.11zm111.21 -35.44l-98.68 56.95 -12.44 -21.56 98.68 -56.95 2.56 -1.12 9.88 22.68zm-12.44 -21.56l1.23 -0.71 1.33 -0.41 -2.56 1.12zm194.97 -34.31l-185.09 56.99 -7.32 -23.8 185.09 -56.99 16.1 11.37 -8.78 12.43zm8.78 -12.43l0.41 9.6 -9.19 2.83 8.78 -12.43zm-37.01 -865.78l37.01 865.78 -24.88 1.06 -37.01 -865.78 24.57 -3.35 0.31 2.29zm-0.31 -2.29l0.26 1.12 0.05 1.17 -0.31 -2.29zm-37.03 -159.49l37.03 159.49 -24.26 5.64 -37.03 -159.49 3.29 -11.59 20.97 5.95zm-24.26 5.64l-1.56 -6.71 4.85 -4.88 -3.29 11.59zm156.66 -130.77l-135.69 136.72 -17.68 -17.54 135.69 -136.72 20.38 4.08 -2.7 13.46zm-17.68 -17.54l13.28 -13.38 7.1 17.46 -20.38 -4.08z"/>
   </g>
   <path class="fil4" d="M-6.27 4971.68l298.2 0 0 266.73c0,39.24 1.89,67.43 5.85,84.51 3.97,17.05 10.88,31.23 20.48,42.85 11.38,13.82 31.43,24.74 59.84,32.1 28.37,7.33 63.16,10.99 104.09,10.99 40.93,0 75.46,-3.63 103.83,-10.99 28.15,-7.33 48.32,-18.18 60.1,-32.1 9.69,-11.51 16.5,-25.8 20.45,-42.85 3.96,-17.09 5.88,-45.24 5.88,-84.51l0 -266.73 297.44 0 0 290c0,60.1 -7.17,104.46 -21.74,133.11 -14.58,28.64 -38.91,52.9 -73.4,73.26 -37.37,22.09 -88.99,38.9 -154.23,50.02 -65.45,11.14 -144.99,16.61 -238.33,16.61 -93.87,0 -173.39,-5.5 -238.61,-16.61 -65.2,-11.13 -116.97,-27.71 -154.72,-50.02 -34.11,-20.14 -58.41,-44.57 -73.15,-73.26 -14.67,-28.6 -21.98,-73.01 -21.98,-133.11l0 -290zm1216.49 547.48l0 -548.43 288.47 0 414.27 282.08c7.93,5.74 20.98,17.26 39.4,34.66 18.15,17.37 38.1,37.96 60.1,61.99 -5.9,-22.74 -10.24,-42.94 -13.03,-60.73 -2.82,-17.64 -4.11,-33.36 -4.11,-47.17l0 -270.83 286.94 0 0 548.43 -286.94 0 -414.31 -283.25c-8.43,-5.74 -21.72,-17.26 -40.14,-34.64 -18.15,-17.38 -37.84,-37.72 -59.34,-61.24 5.9,23.02 10.26,43.35 13.05,61.12 2.82,17.63 4.11,33.37 4.11,47.19l0 270.82 -288.47 0zm1314.74 0l0 -548.43 302.02 0 0 548.43 -302.02 0zm1801.17 0l-279.53 0 -64.43 -237.08c-4.34,-16.74 -8.44,-35.4 -12.28,-55.87 -3.85,-20.46 -7.17,-42.83 -10.25,-67 -6.88,23.13 -20.69,52.17 -41.16,86.83 -4.35,7.26 -7.68,12.65 -9.72,16.09l-149.08 257.03 -199.25 0 -149.07 -257.03c-2.06,-3.44 -5.13,-8.83 -8.96,-16.09 -20.98,-34.66 -34.77,-63.56 -41.18,-86.45 -3.06,20.7 -6.66,41.18 -10.47,61.51 -4.08,20.46 -8.96,40.64 -14.34,60.98l-64.43 237.08 -278 0 169.3 -548.43 295.89 0 165.72 282.84c1.03,1.92 3.06,5.24 5.89,9.72 15.59,25.2 25.31,46.81 29.4,64.83 1.78,-9.72 5.63,-20.58 11.01,-32.49 5.62,-11.75 13.05,-26.07 22.5,-42.82l167.27 -282.08 296.64 0 168.53 548.43zm168.56 0l0 -548.43 302 0 0 548.43 -302 0zm543.17 0l0 -548.43 288.46 0 414.32 282.08c7.9,5.74 20.96,17.26 39.36,34.66 18.17,17.37 38.13,37.96 60.12,61.99 -5.9,-22.74 -10.23,-42.94 -13.06,-60.73 -2.82,-17.64 -4.07,-33.36 -4.07,-47.17l0 -270.83 286.94 0 0 548.43 -286.94 0 -414.33 -283.25c-8.41,-5.74 -21.73,-17.26 -40.13,-34.64 -18.18,-17.38 -37.88,-37.72 -59.35,-61.24 5.9,23.02 10.24,43.35 13.06,61.12 2.82,17.63 4.08,33.37 4.08,47.19l0 270.82 -288.46 0zm1300.66 -548.43l298.23 0 0 266.73c0,39.27 2.04,67.38 5.85,84.53 4.13,16.99 10.76,31.32 20.49,42.83 11.23,13.95 31.44,24.68 59.82,32.1 28.38,7.28 63.17,10.99 104.09,10.99 40.95,0 75.43,-3.71 103.85,-10.99 28.11,-7.42 48.33,-18.15 60.04,-32.1 9.76,-11.51 16.41,-25.84 20.53,-42.83 3.82,-17.15 5.85,-45.26 5.85,-84.53l0 -266.73 297.45 0 0 290c0,60.09 -7.21,104.47 -21.74,133.11 -14.58,28.65 -38.91,52.95 -73.41,73.28 -37.35,22.12 -88.97,38.87 -154.23,50 -65.46,11.12 -144.99,16.6 -238.34,16.6 -93.85,0 -173.37,-5.48 -238.59,-16.6 -65.2,-11.13 -116.88,-27.88 -154.74,-50 -34.02,-20.33 -58.32,-44.63 -73.15,-73.28 -14.57,-28.64 -22,-73.02 -22,-133.11l0 -290zm1361.32 548.43l0 -418.77 -245.77 0 0 -129.66 790.51 0 0 129.66 -245.77 0 0 418.77 -298.97 0zm1789.91 -273.12c0,39.5 -14.61,76.46 -43.51,110.85 -28.89,34.53 -71.06,65.34 -126.54,92.58 -56.06,26.99 -119.97,47.7 -191.82,62.4 -71.88,14.58 -146.55,21.85 -224.03,21.85 -78.52,0 -153.45,-7.27 -225.08,-21.85 -71.84,-14.7 -134.76,-35.41 -189.24,-62.4 -56.49,-27.24 -99.23,-58.18 -128.6,-92.96 -29.19,-34.66 -43.76,-71.48 -43.76,-110.47 0,-39.25 14.57,-76.09 43.76,-110.74 29.37,-34.54 72.11,-65.48 128.6,-92.7 54.48,-26.99 117.4,-47.7 189.24,-62.41 71.63,-14.57 146.56,-21.87 225.08,-21.87 78.01,0 152.93,7.3 225.03,21.87 72.37,14.71 135.79,35.42 190.82,62.41 54.96,26.96 96.92,57.79 126.32,92.57 29.12,34.66 43.73,71.62 43.73,110.87zm-585.9 161.11c82.87,0 151.41,-15.24 205.6,-45.65 54.23,-30.56 81.35,-69.05 81.35,-115.46 0,-45.91 -27.39,-84.28 -82.35,-115.09 -55.01,-30.69 -123.3,-46.03 -204.6,-46.03 -82.86,0 -151.41,15.34 -205.6,45.91 -54.23,30.53 -81.35,69.04 -81.35,115.21 0,46.92 26.6,85.54 80.05,115.71 53.45,30.3 122.51,45.4 206.9,45.4z"/>
   <path class="fil4" d="M330.54 5975.97l0 59.45c-39.68,21.69 -85.46,32.48 -137.44,32.48 -42.18,0 -77.91,-8.48 -107.34,-25.47 -29.35,-16.9 -52.62,-40.25 -69.79,-69.98 -17.08,-29.81 -25.68,-61.93 -25.68,-96.55 0,-55 19.58,-101.25 58.81,-138.73 39.23,-37.47 87.6,-56.3 145.11,-56.3 39.71,0 83.73,10.41 132.29,31.11l0 58.15c-44.24,-25.2 -87.42,-37.85 -129.6,-37.85 -43.21,0 -79.21,13.66 -107.73,40.99 -28.63,27.31 -42.93,61.47 -42.93,102.63 0,41.46 14.13,75.51 42.18,102.2 28.15,26.67 64.15,40.04 107.9,40.04 45.81,0 90.56,-14.12 134.22,-42.17zm178.73 -161.72c37.84,0 69.31,12.19 94.32,36.65 25.1,24.36 37.66,55.11 37.66,92.01 0,35.91 -12.74,65.75 -38.11,89.47 -25.47,23.62 -57.42,35.52 -96.01,35.52 -37.39,0 -68.59,-11.99 -93.6,-36.1 -25.1,-24.08 -37.57,-54.17 -37.57,-90.15 0,-36.48 12.67,-66.75 37.95,-91.05 25.38,-24.26 57.14,-36.35 95.36,-36.35zm-2.69 44.3c-23.63,0 -43.02,7.76 -58.15,23.28 -15.14,15.49 -22.71,35.26 -22.71,59.24 0,23.83 7.74,43.21 23.25,58.25 15.51,15.04 35.37,22.62 59.73,22.62 24.19,0 43.93,-7.66 59.35,-22.9 15.41,-15.24 23.17,-34.7 23.17,-58.51 0,-23.64 -8.03,-43.21 -24.08,-58.7 -16.06,-15.52 -36.28,-23.28 -60.56,-23.28zm242.03 -43.76l0 57.06 2.77 -4.32c23.72,-38.44 47.53,-57.62 71.35,-57.62 18.56,0 37.95,9.41 58.15,28.15l-25.94 43.2c-17.17,-16.14 -33.03,-24.29 -47.63,-24.29 -15.88,0 -29.61,7.58 -41.26,22.73 -11.62,15.14 -17.44,33.05 -17.44,53.82l0 130.04 -49.48 0 0 -248.77 49.48 0zm163.39 375.62l0 -375.62 86.22 0c44.2,0 78.54,10.98 103.2,32.97 24.64,21.95 36.9,52.7 36.9,92.21 0,37.28 -11.62,67.94 -34.79,91.93 -23.17,24.01 -52.6,36 -88.51,36 -15.89,0 -33.44,-3.51 -52.71,-10.53l0 133.04 -50.31 0zm85.19 -329.64l-34.88 0 0 153.05c15.12,7.75 31.02,11.62 47.52,11.62 23.09,0 42.01,-8.03 56.68,-24.09 14.69,-16.07 22.08,-36.66 22.08,-61.93 0,-16.25 -3.53,-30.57 -10.44,-43.02 -6.94,-12.38 -16.44,-21.41 -28.45,-27.14 -11.9,-5.72 -29.43,-8.49 -52.51,-8.49zm313.93 -46.52c37.85,0 69.33,12.19 94.34,36.65 25.1,24.36 37.66,55.11 37.66,92.01 0,35.91 -12.73,65.75 -38.12,89.47 -25.46,23.62 -57.42,35.52 -95.98,35.52 -37.39,0 -68.59,-11.99 -93.6,-36.1 -25.11,-24.08 -37.57,-54.17 -37.57,-90.15 0,-36.48 12.64,-66.75 37.93,-91.05 25.38,-24.26 57.14,-36.35 95.34,-36.35zm-2.68 44.3c-23.62,0 -42.99,7.76 -58.14,23.28 -15.14,15.49 -22.72,35.26 -22.72,59.24 0,23.83 7.76,43.21 23.28,58.25 15.5,15.04 35.35,22.62 59.72,22.62 24.17,0 43.94,-7.66 59.35,-22.9 15.42,-15.24 23.18,-34.7 23.18,-58.51 0,-23.64 -8.04,-43.21 -24.11,-58.7 -16.05,-15.52 -36.27,-23.28 -60.56,-23.28zm242.04 -43.76l0 57.06 2.76 -4.32c23.73,-38.44 47.56,-57.62 71.37,-57.62 18.56,0 37.93,9.41 58.14,28.15l-25.93 43.2c-17.18,-16.14 -33.06,-24.29 -47.63,-24.29 -15.87,0 -29.63,7.58 -41.25,22.73 -11.65,15.14 -17.46,33.05 -17.46,53.82l0 130.04 -49.47 0 0 -248.77 49.47 0zm322.89 99.25l0 105.69c0,8.49 2.95,12.74 8.68,12.74 5.91,0 15.22,-4.43 27.87,-13.21l0 29.99c-11.16,7.21 -20.13,12.1 -26.96,14.69 -6.72,2.67 -13.84,3.96 -21.21,3.96 -21.05,0 -33.52,-8.3 -37.29,-24.91 -20.98,16.25 -43.21,24.37 -66.84,24.37 -17.26,0 -31.68,-5.74 -43.21,-17.17 -11.52,-11.45 -17.35,-25.84 -17.35,-43.11 0,-15.7 5.64,-29.73 16.91,-42.11 11.24,-12.34 27.3,-22.14 48,-29.34l63.03 -21.59 0 -13.31c0,-29.91 -14.96,-44.85 -44.87,-44.85 -26.86,0 -53.07,13.83 -78.45,41.62l0 -53.8c19.1,-22.54 46.62,-33.79 82.53,-33.79 26.85,0 48.36,7.01 64.6,21.04 5.37,4.53 10.26,10.52 14.6,18.01 4.32,7.47 7.1,14.95 8.22,22.41 1.18,7.58 1.74,21.7 1.74,42.67zm-48.37 100.32l0 -73.83 -33.04 12.74c-16.71,6.63 -28.63,13.36 -35.54,20.12 -6.94,6.72 -10.44,15.12 -10.44,25.29 0,10.25 3.34,18.65 9.89,25.1 6.64,6.55 15.15,9.78 25.55,9.78 15.7,0 30.2,-6.46 43.58,-19.2zm315.05 -8.96l0 48.66c-24.64,9.24 -48.84,13.84 -72.47,13.84 -38.93,0 -69.95,-11.53 -93.12,-34.61 -23.18,-23.08 -34.73,-53.99 -34.73,-92.76 0,-39.14 11.28,-70.73 33.78,-94.62 22.53,-24 52.19,-36 88.99,-36 12.74,0 24.28,1.2 34.44,3.59 10.14,2.5 22.81,7.02 37.75,13.66l0 52.54c-24.93,-15.89 -47.98,-23.82 -69.22,-23.82 -22.15,0 -40.44,7.76 -54.66,23.35 -14.2,15.61 -21.32,35.53 -21.32,59.64 0,25.47 7.66,45.68 23.07,60.64 15.42,14.95 36.19,22.43 62.31,22.43 18.93,0 40.71,-5.55 65.18,-16.54zm81.42 -295.29c8.11,0 15.05,2.78 20.84,8.43 5.74,5.52 8.7,12.34 8.7,20.48 0,7.94 -2.96,14.85 -8.7,20.58 -5.79,5.82 -12.73,8.68 -20.84,8.68 -7.58,0 -14.22,-2.95 -19.95,-8.77 -5.82,-5.91 -8.68,-12.74 -8.68,-20.49 0,-7.57 2.86,-14.21 8.68,-20.13 5.73,-5.81 12.37,-8.78 19.95,-8.78zm-24.29 104.68l49.21 0 0 248.77 -49.21 0 0 -248.77zm239.25 -0.54c37.87,0 69.34,12.19 94.36,36.65 25.11,24.36 37.65,55.11 37.65,92.01 0,35.91 -12.73,65.75 -38.11,89.47 -25.49,23.62 -57.42,35.52 -96.01,35.52 -37.39,0 -68.59,-11.99 -93.6,-36.1 -25.11,-24.08 -37.57,-54.17 -37.57,-90.15 0,-36.48 12.64,-66.75 37.95,-91.05 25.38,-24.26 57.13,-36.35 95.33,-36.35zm-2.66 44.3c-23.63,0 -43.02,7.76 -58.15,23.28 -15.14,15.49 -22.71,35.26 -22.71,59.24 0,23.83 7.76,43.21 23.26,58.25 15.51,15.04 35.36,22.62 59.71,22.62 24.2,0 43.94,-7.66 59.36,-22.9 15.43,-15.24 23.17,-34.7 23.17,-58.51 0,-23.64 -8.02,-43.21 -24.08,-58.7 -16.07,-15.52 -36.29,-23.28 -60.56,-23.28zm57.33 -178.7l-61.12 81.15 -30.27 0 36.45 -81.15 54.94 0zm181.19 134.94l0 31.58c21.96,-24.27 46.99,-36.46 74.96,-36.46 15.5,0 29.91,3.97 43.19,12 13.4,8.03 23.53,19.02 30.48,33.05 6.91,13.93 10.42,36.09 10.42,66.37l0 142.23 -49.2 0 0 -141.68c0,-25.48 -3.88,-43.57 -11.64,-54.47 -7.75,-10.98 -20.76,-16.41 -38.94,-16.41 -23.28,0 -43.02,11.62 -59.27,34.89l0 177.67 -50.32 0 0 -248.77 50.32 0zm651.22 -129.03l54.37 0 0 214.43c0,29.08 -2.11,50.95 -6.37,65.72 -4.24,14.87 -9.51,27.13 -15.69,36.93 -6.19,9.88 -13.84,18.64 -22.88,26.39 -29.92,25.75 -69.06,38.67 -117.34,38.67 -49.18,0 -88.68,-12.83 -118.43,-38.39 -9.03,-7.94 -16.59,-16.79 -22.88,-26.67 -6.18,-9.8 -11.36,-21.88 -15.42,-36.12 -4.07,-14.2 -6.1,-36.54 -6.1,-67l0 -213.96 54.38 0 0 214.43c0,35.54 4.05,60.27 12.19,74.11 8.12,13.95 20.49,25.02 37.01,33.42 16.61,8.41 36.2,12.56 58.71,12.56 32.13,0 58.24,-8.41 78.46,-25.11 10.61,-9.04 18.28,-19.67 22.98,-31.95 4.63,-12.28 7.01,-33.22 7.01,-63.03l0 -214.43zm171.69 129.03l0 31.58c21.98,-24.27 46.99,-36.46 74.96,-36.46 15.51,0 29.92,3.97 43.2,12 13.38,8.03 23.54,19.02 30.48,33.05 6.91,13.93 10.41,36.09 10.41,66.37l0 142.23 -49.19 0 0 -141.68c0,-25.48 -3.88,-43.57 -11.64,-54.47 -7.75,-10.98 -20.76,-16.41 -38.95,-16.41 -23.24,0 -43.01,11.62 -59.27,34.89l0 177.67 -50.31 0 0 -248.77 50.31 0zm253.11 -104.68c8.14,0 15.05,2.78 20.87,8.43 5.72,5.52 8.67,12.34 8.67,20.48 0,7.94 -2.95,14.85 -8.67,20.58 -5.82,5.82 -12.73,8.68 -20.87,8.68 -7.58,0 -14.22,-2.95 -19.92,-8.77 -5.82,-5.91 -8.69,-12.74 -8.69,-20.49 0,-7.57 2.87,-14.21 8.69,-20.13 5.7,-5.81 12.34,-8.78 19.92,-8.78zm-24.27 104.68l49.2 0 0 248.77 -49.2 0 0 -248.77zm272.48 0l53.37 0 -109.86 253.11 -16.52 0 -112.42 -253.11 53.82 0 67.01 153.05 64.6 -153.05zm291.34 128.69l-175.01 0c1.27,23.82 9.21,42.73 23.98,56.77 14.68,14.11 33.59,21.12 56.86,21.12 32.49,0 62.4,-10.04 89.83,-30.26l0 48.1c-15.15,10.13 -30.18,17.35 -45.06,21.69 -14.87,4.34 -32.31,6.46 -52.32,6.46 -27.44,0 -49.57,-5.74 -66.48,-17.09 -16.99,-11.35 -30.56,-26.56 -40.71,-45.77 -10.24,-19.22 -15.32,-41.46 -15.32,-66.65 0,-37.85 10.71,-68.69 32.23,-92.4 21.41,-23.72 49.28,-35.54 83.52,-35.54 32.96,0 59.36,11.54 78.94,34.61 19.65,23.08 29.54,54.01 29.54,92.77l0 6.19zm-173.93 -29.44l125.19 0c-1.2,-19.68 -7.12,-34.81 -17.56,-45.42 -10.42,-10.71 -24.54,-15.99 -42.18,-15.99 -17.63,0 -32.1,5.28 -43.37,15.99 -11.28,10.61 -18.64,25.74 -22.08,45.42zm279.89 -99.25l0 57.06 2.76 -4.32c23.74,-38.44 47.56,-57.62 71.38,-57.62 18.52,0 37.92,9.41 58.13,28.15l-25.94 43.2c-17.18,-16.14 -33.06,-24.29 -47.63,-24.29 -15.88,0 -29.64,7.58 -41.26,22.73 -11.64,15.14 -17.44,33.05 -17.44,53.82l0 130.04 -49.47 0 0 -248.77 49.47 0zm154.45 230.96l0 -53.08c13.83,9.8 28.06,17.65 42.63,23.72 14.45,6 26.69,9.05 36.63,9.05 10.28,0 19.13,-2.48 26.5,-7.57 7.38,-5.07 11.07,-11.07 11.07,-18.08 0,-7.29 -2.39,-13.22 -7.21,-18.02 -4.77,-4.79 -15,-11.7 -30.89,-20.66 -31.79,-17.72 -52.54,-32.77 -62.43,-45.33 -9.8,-12.54 -14.65,-26.22 -14.65,-40.97 0,-19.13 7.36,-34.73 22.24,-46.8 14.93,-12.1 34.07,-18.1 57.5,-18.1 24.37,0 49.27,6.83 74.88,20.57l0 48.67c-29.21,-17.65 -53.07,-26.52 -71.67,-26.52 -9.46,0 -17.23,2.06 -23.05,6.1 -5.94,4.07 -8.84,9.41 -8.84,16.08 0,5.81 2.64,11.26 8.01,16.5 5.26,5.17 14.68,11.56 27.95,18.93l17.57 9.97c41.52,23.45 62.17,49.38 62.17,77.9 0,20.42 -7.9,37.11 -23.86,50.13 -15.97,13.11 -36.49,19.66 -61.48,19.66 -14.88,0 -27.98,-1.58 -39.53,-4.71 -11.53,-3.23 -26.02,-9.03 -43.54,-17.44zm250.72 -335.64c8.1,0 15,2.78 20.82,8.43 5.73,5.52 8.67,12.34 8.67,20.48 0,7.94 -2.94,14.85 -8.67,20.58 -5.82,5.82 -12.72,8.68 -20.82,8.68 -7.6,0 -14.25,-2.95 -19.96,-8.77 -5.82,-5.91 -8.69,-12.74 -8.69,-20.49 0,-7.57 2.87,-14.21 8.69,-20.13 5.71,-5.81 12.36,-8.78 19.96,-8.78zm-24.3 104.68l49.2 0 0 248.77 -49.2 0 0 -248.77zm85.38 39.43l92.49 -90.85 0 51.42 78.75 0 0 44.32 -78.75 0 0 121.94c0,28.52 11.8,42.73 35.45,42.73 17.61,0 36.26,-5.91 55.91,-17.8l0 45.95c-18.91,10.62 -39.56,15.97 -61.94,15.97 -22.48,0 -41.22,-6.55 -56.19,-19.74 -4.72,-3.97 -8.58,-8.41 -11.62,-13.39 -3.04,-4.98 -5.65,-11.44 -7.77,-19.47 -2.03,-8.03 -3.04,-23.26 -3.04,-45.87l0 -110.32 -43.29 0 0 -4.89zm375.58 59.82l0 105.69c0,8.49 2.99,12.74 8.67,12.74 5.95,0 15.23,-4.43 27.9,-13.21l0 29.99c-11.2,7.21 -20.13,12.1 -26.94,14.69 -6.78,2.67 -13.85,3.96 -21.26,3.96 -21.05,0 -33.49,-8.3 -37.27,-24.91 -20.95,16.25 -43.21,24.37 -66.85,24.37 -17.23,0 -31.68,-5.74 -43.18,-17.17 -11.53,-11.45 -17.35,-25.84 -17.35,-43.11 0,-15.7 5.6,-29.73 16.89,-42.11 11.22,-12.34 27.32,-22.14 47.97,-29.34l63.09 -21.59 0 -13.31c0,-29.91 -14.97,-44.85 -44.91,-44.85 -26.85,0 -53.06,13.83 -78.44,41.62l0 -53.8c19.09,-22.54 46.6,-33.79 82.52,-33.79 26.86,0 48.38,7.01 64.64,21.04 5.34,4.53 10.24,10.52 14.58,18.01 4.34,7.47 7.11,14.95 8.21,22.41 1.16,7.58 1.73,21.7 1.73,42.67zm-48.33 100.32l0 -73.83 -33.06 12.74c-16.71,6.63 -28.64,13.36 -35.54,20.12 -6.94,6.72 -10.45,15.12 -10.45,25.29 0,10.25 3.34,18.65 9.89,25.1 6.64,6.55 15.15,9.78 25.55,9.78 15.7,0 30.2,-6.46 43.61,-19.2zm181.17 -199.57l0 57.06 2.77 -4.32c23.73,-38.44 47.56,-57.62 71.38,-57.62 18.52,0 37.91,9.41 58.13,28.15l-25.95 43.2c-17.18,-16.14 -33.06,-24.29 -47.63,-24.29 -15.88,0 -29.64,7.58 -41.26,22.73 -11.63,15.14 -17.44,33.05 -17.44,53.82l0 130.04 -49.46 0 0 -248.77 49.46 0zm192.02 -104.68c8.11,0 15.01,2.78 20.87,8.43 5.68,5.52 8.67,12.34 8.67,20.48 0,7.94 -2.99,14.85 -8.67,20.58 -5.86,5.82 -12.76,8.68 -20.87,8.68 -7.6,0 -14.23,-2.95 -19.96,-8.77 -5.81,-5.91 -8.68,-12.74 -8.68,-20.49 0,-7.57 2.87,-14.21 8.68,-20.13 5.73,-5.81 12.36,-8.78 19.96,-8.78zm-24.3 104.68l49.21 0 0 248.77 -49.21 0 0 -248.77zm276.58 99.25l0 105.69c0,8.49 2.96,12.74 8.67,12.74 5.86,0 15.23,-4.43 27.86,-13.21l0 29.99c-11.16,7.21 -20.13,12.1 -26.95,14.69 -6.71,2.67 -13.83,3.96 -21.21,3.96 -21.08,0 -33.54,-8.3 -37.31,-24.91 -20.96,16.25 -43.2,24.37 -66.8,24.37 -17.27,0 -31.68,-5.74 -43.27,-17.17 -11.49,-11.45 -17.35,-25.84 -17.35,-43.11 0,-15.7 5.68,-29.73 16.92,-42.11 11.24,-12.34 27.34,-22.14 48.02,-29.34l63.01 -21.59 0 -13.31c0,-29.91 -14.93,-44.85 -44.87,-44.85 -26.81,0 -53.06,13.83 -78.43,41.62l0 -53.8c19.08,-22.54 46.63,-33.79 82.52,-33.79 26.84,0 48.36,7.01 64.63,21.04 5.34,4.53 10.25,10.52 14.58,18.01 4.3,7.47 7.12,14.95 8.2,22.41 1.22,7.58 1.78,21.7 1.78,42.67zm-48.41 100.32l0 -73.83 -33.02 12.74c-16.7,6.63 -28.63,13.36 -35.53,20.12 -6.95,6.72 -10.46,15.12 -10.46,25.29 0,10.25 3.34,18.65 9.89,25.1 6.64,6.55 15.14,9.78 25.56,9.78 15.7,0 30.19,-6.46 43.56,-19.2zm589.84 -328.6l50.34 0 0 377.8 -54.37 0 0 -294 -116.31 146.05 -9.98 0 -117.39 -146.05 0 294 -54.1 0 0 -377.8 50.84 0 125.82 155.25 125.15 -155.25zm150.38 24.35c8.16,0 15.06,2.78 20.86,8.43 5.73,5.52 8.68,12.34 8.68,20.48 0,7.94 -2.95,14.85 -8.68,20.58 -5.8,5.82 -12.7,8.68 -20.86,8.68 -7.55,0 -14.19,-2.95 -19.92,-8.77 -5.8,-5.91 -8.67,-12.74 -8.67,-20.49 0,-7.57 2.87,-14.21 8.67,-20.13 5.73,-5.81 12.37,-8.78 19.92,-8.78zm-24.25 104.68l49.19 0 0 248.77 -49.19 0 0 -248.77zm169.46 0l0 31.58c22,-24.27 46.99,-36.46 74.96,-36.46 15.5,0 29.9,3.97 43.22,12 13.36,8.03 23.51,19.02 30.45,33.05 6.9,13.93 10.42,36.09 10.42,66.37l0 142.23 -49.21 0 0 -141.68c0,-25.48 -3.86,-43.57 -11.62,-54.47 -7.76,-10.98 -20.78,-16.41 -38.96,-16.41 -23.26,0 -42.99,11.62 -59.26,34.89l0 177.67 -50.29 0 0 -248.77 50.29 0zm380.78 248.77l0 -31.66c-10.54,11.35 -22.42,20.22 -35.84,26.49 -13.44,6.37 -26.84,9.51 -40.25,9.51 -15.58,0 -30.07,-3.96 -43.39,-11.81 -13.19,-7.85 -23.25,-18.46 -29.98,-31.84 -6.73,-13.48 -10.14,-35.74 -10.14,-66.92l0 -142.54 49.19 0 0 141.97c0,26.13 3.77,44.4 11.24,54.74 7.5,10.35 20.61,15.51 39.35,15.51 23.43,0 43.38,-11.43 59.82,-34.34l0 -177.88 49.15 0 0 248.77 -49.15 0zm83.51 -209.34l92.51 -90.85 0 51.42 78.74 0 0 44.32 -78.74 0 0 121.94c0,28.52 11.84,42.73 35.44,42.73 17.61,0 36.27,-5.91 55.97,-17.8l0 45.95c-18.91,10.62 -39.61,15.97 -61.96,15.97 -22.51,0 -41.26,-6.55 -56.22,-19.74 -4.69,-3.97 -8.6,-8.41 -11.63,-13.39 -3.03,-4.98 -5.64,-11.44 -7.77,-19.47 -2.04,-8.03 -3.04,-23.26 -3.04,-45.87l0 -110.32 -43.3 0 0 -4.89zm338.32 -39.97c37.88,0 69.32,12.19 94.36,36.65 25.08,24.36 37.61,55.11 37.61,92.01 0,35.91 -12.7,65.75 -38.09,89.47 -25.47,23.62 -57.44,35.52 -96.01,35.52 -37.39,0 -68.58,-11.99 -93.57,-36.1 -25.13,-24.08 -37.57,-54.17 -37.57,-90.15 0,-36.48 12.62,-66.75 37.91,-91.05 25.39,-24.26 57.14,-36.35 95.36,-36.35zm-2.69 44.3c-23.6,0 -43,7.76 -58.13,23.28 -15.14,15.49 -22.69,35.26 -22.69,59.24 0,23.83 7.72,43.21 23.2,58.25 15.53,15.04 35.41,22.62 59.75,22.62 24.21,0 43.95,-7.66 59.35,-22.9 15.44,-15.24 23.16,-34.7 23.16,-58.51 0,-23.64 -8.03,-43.21 -24.07,-58.7 -16.05,-15.52 -36.27,-23.28 -60.57,-23.28zm509.24 -172.79l49.52 0 0 377.8 -105.21 0c-36.75,0 -66.13,-11.63 -88,-34.89 -21.98,-23.27 -32.83,-54.47 -32.83,-93.6 0,-36.54 11.41,-66.63 34.4,-90.28 22.99,-23.63 52.36,-35.43 88.07,-35.43 16.62,0 34.62,3.5 54.05,10.52l0 -134.12zm0 335.61l0 -157.64c-15.31,-7.75 -30.79,-11.64 -46.49,-11.64 -24.53,0 -44.04,8.02 -58.53,24.09 -14.59,16.06 -21.78,37.67 -21.78,64.89 0,25.56 6.28,45.33 18.91,59.18 7.59,8.3 15.62,13.93 24.12,16.81 8.42,2.85 23.65,4.31 45.69,4.31l38.08 0zm328.38 -77.89l-175.01 0c1.31,23.82 9.2,42.73 24,56.77 14.65,14.11 33.62,21.12 56.87,21.12 32.5,0 62.39,-10.04 89.8,-30.26l0 48.1c-15.14,10.13 -30.19,17.35 -45.03,21.69 -14.88,4.34 -32.32,6.46 -52.37,6.46 -27.41,0 -49.58,-5.74 -66.45,-17.09 -16.96,-11.35 -30.55,-26.56 -40.7,-45.77 -10.24,-19.22 -15.31,-41.46 -15.31,-66.65 0,-37.85 10.66,-68.69 32.18,-92.4 21.44,-23.72 49.29,-35.54 83.57,-35.54 32.92,0 59.35,11.54 78.92,34.61 19.65,23.08 29.53,54.01 29.53,92.77l0 6.19zm-173.93 -29.44l125.17 0c-1.16,-19.68 -7.07,-34.81 -17.52,-45.42 -10.47,-10.71 -24.56,-15.99 -42.17,-15.99 -17.62,0 -32.15,5.28 -43.44,15.99 -11.23,10.61 -18.6,25.74 -22.04,45.42zm388.34 148.97l0 -377.25 127.38 0c51.45,0 92.06,7.75 121.95,23.17 29.94,15.42 53.75,38.03 71.46,68.02 17.61,29.91 26.47,62.5 26.47,97.86 0,25.28 -4.86,49.37 -14.54,72.44 -9.8,23.09 -23.65,43.4 -41.74,60.84 -18.4,18.09 -39.7,31.66 -64.07,40.89 -14.19,5.55 -27.34,9.32 -39.22,11.18 -11.94,1.93 -34.63,2.85 -68.17,2.85l-119.52 0zm121.7 -329.06l-67.6 0 0 280.95 69.25 0c27.03,0 47.98,-1.83 63.04,-5.52 14.96,-3.7 27.41,-8.41 37.39,-14.12 10.06,-5.64 19.18,-12.64 27.5,-20.96 26.69,-27.05 39.96,-61.2 39.96,-102.45 0,-40.62 -13.66,-73.66 -41.08,-99.24 -10.07,-9.59 -21.69,-17.44 -34.71,-23.54 -13.1,-6.18 -25.47,-10.23 -37.18,-12.19 -11.72,-2.02 -30.59,-2.93 -56.57,-2.93zm311.8 -23.84c8.12,0 15.05,2.78 20.87,8.43 5.68,5.52 8.67,12.34 8.67,20.48 0,7.94 -2.99,14.85 -8.67,20.58 -5.82,5.82 -12.75,8.68 -20.87,8.68 -7.59,0 -14.23,-2.95 -19.96,-8.77 -5.82,-5.91 -8.67,-12.74 -8.67,-20.49 0,-7.57 2.85,-14.21 8.67,-20.13 5.73,-5.81 12.37,-8.78 19.96,-8.78zm-24.3 104.68l49.2 0 0 248.77 -49.2 0 0 -248.77zm239.27 -0.54c37.83,0 69.32,12.19 94.36,36.65 25.08,24.36 37.62,55.11 37.62,92.01 0,35.91 -12.71,65.75 -38.1,89.47 -25.47,23.62 -57.39,35.52 -96.01,35.52 -37.35,0 -68.58,-11.99 -93.57,-36.1 -25.13,-24.08 -37.57,-54.17 -37.57,-90.15 0,-36.48 12.61,-66.75 37.91,-91.05 25.38,-24.26 57.14,-36.35 95.36,-36.35zm-2.69 44.3c-23.6,0 -43,7.76 -58.14,23.28 -15.13,15.49 -22.69,35.26 -22.69,59.24 0,23.83 7.73,43.21 23.26,58.25 15.48,15.04 35.36,22.62 59.69,22.62 24.22,0 43.96,-7.66 59.35,-22.9 15.45,-15.24 23.17,-34.7 23.17,-58.51 0,-23.64 -7.98,-43.21 -24.08,-58.7 -16.04,-15.52 -36.26,-23.28 -60.56,-23.28zm177.14 187.2l0 -53.08c13.88,9.8 28.07,17.65 42.69,23.72 14.44,6 26.64,9.05 36.62,9.05 10.24,0 19.08,-2.48 26.5,-7.57 7.38,-5.07 11.07,-11.07 11.07,-18.08 0,-7.29 -2.39,-13.22 -7.21,-18.02 -4.77,-4.79 -15.05,-11.7 -30.93,-20.66 -31.72,-17.72 -52.54,-32.77 -62.39,-45.33 -9.76,-12.54 -14.66,-26.22 -14.66,-40.97 0,-19.13 7.38,-34.73 22.26,-46.8 14.92,-12.1 34.06,-18.1 57.48,-18.1 24.38,0 49.28,6.83 74.84,20.57l0 48.67c-29.15,-17.65 -53.06,-26.52 -71.59,-26.52 -9.54,0 -17.27,2.06 -23.07,6.1 -5.95,4.07 -8.9,9.41 -8.9,16.08 0,5.81 2.69,11.26 8.03,16.5 5.3,5.17 14.7,11.56 27.99,18.93l17.56 9.97c41.52,23.45 62.21,49.38 62.21,77.9 0,20.42 -7.98,37.11 -23.94,50.13 -15.96,13.11 -36.45,19.66 -61.48,19.66 -14.84,0 -27.94,-1.58 -39.47,-4.71 -11.55,-3.23 -26.04,-9.03 -43.61,-17.44z"/>
  </g>
 </g>
</svg>
