<?xml version="1.0" encoding="UTF-8"?>
<!DOCTYPE svg PUBLIC "-//W3C//DTD SVG 1.1//EN" "http://www.w3.org/Graphics/SVG/1.1/DTD/svg11.dtd">
<!-- Creator: CorelDRAW -->
<svg xmlns="http://www.w3.org/2000/svg" xml:space="preserve" width="95mm" height="62mm" version="1.1" style="shape-rendering:geometricPrecision; text-rendering:geometricPrecision; image-rendering:optimizeQuality; fill-rule:evenodd; clip-rule:evenodd"
viewBox="0 0 9500 6200"
 xmlns:xlink="http://www.w3.org/1999/xlink"
 xmlns:xodm="http://www.corel.com/coreldraw/odm/2003">
 <defs>
  <style type="text/css">
   <![CDATA[
    .fil2 {fill:#FEFEFE}
    .fil1 {fill:#FEFEFE}
    .fil4 {fill:#00467F}
    .fil3 {fill:#EE3124}
    .fil5 {fill:#FEFEFE;fill-rule:nonzero}
    .fil0 {fill:#FEFEFE;fill-rule:nonzero}
   ]]>
  </style>
 </defs>
 <g id="Capa_x0020_1">
  <metadata id="CorelCorpID_0Corel-Layer"/>
  <g id="_2848273126336">
   <g>
    <g>
     <path class="fil0" d="M1759.06 5100.58c-13.35,-11.39 -27.52,-19.93 -42.36,-25.62 -14.92,-5.7 -30.57,-8.55 -46.98,-8.55 -31.72,0 -57.54,10.17 -77.47,30.57 -19.92,20.41 -29.89,46.78 -29.89,79.24 0,31.31 9.69,57.2 29.08,77.61 19.39,20.4 43.85,30.57 73.34,30.57 17.21,0 33.55,-3.05 49.14,-9.15 15.52,-6.1 30.43,-15.25 44.73,-27.59l0 53.41c-12.67,9.15 -26.5,15.99 -41.48,20.47 -14.98,4.54 -31.17,6.78 -48.6,6.78 -22.23,0 -42.77,-3.66 -61.61,-10.92 -18.91,-7.31 -35.45,-18.02 -49.75,-32.19 -14.17,-13.9 -25.01,-30.3 -32.67,-49.14 -7.59,-18.84 -11.38,-38.97 -11.38,-60.26 0,-21.35 3.79,-41.34 11.38,-60.05 7.66,-18.78 18.64,-35.18 33.08,-49.35 14.43,-14.29 30.97,-25.14 49.61,-32.46 18.64,-7.39 38.84,-11.05 60.53,-11.05 17.08,0 33.35,2.51 48.8,7.46 15.53,5.01 30.51,12.54 45.07,22.63l-2.57 47.59z"/>
     <path class="fil0" d="M2063.7 5175.81c0,-14.71 -2.71,-28.67 -8.06,-41.89 -5.36,-13.21 -13.08,-25.01 -23.11,-35.31 -9.83,-10.23 -21.15,-18.03 -34.03,-23.52 -12.95,-5.49 -26.57,-8.27 -40.8,-8.27 -14.3,0 -27.93,2.71 -40.88,8.14 -12.87,5.42 -24.4,13.28 -34.43,23.65 -10.03,10.17 -17.75,21.89 -23.04,35.11 -5.29,13.22 -7.93,27.25 -7.93,42.09 0,14.71 2.64,28.61 7.93,41.69 5.29,13.08 13.01,24.8 23.04,35.11 10.03,10.37 21.49,18.23 34.37,23.65 12.81,5.43 26.5,8.14 40.94,8.14 14.16,0 27.59,-2.71 40.39,-8.14 12.75,-5.42 24.27,-13.28 34.44,-23.65 10.03,-10.31 17.75,-22.03 23.11,-35.18 5.35,-13.22 8.06,-27.05 8.06,-41.62zm49.21 0c0,20.67 -3.86,40.2 -11.58,58.56 -7.8,18.44 -19.05,34.85 -33.9,49.28 -14.91,14.44 -31.78,25.49 -50.63,33.15 -18.78,7.66 -38.5,11.52 -59.1,11.52 -20.95,0 -40.88,-3.86 -59.92,-11.59 -18.98,-7.79 -35.72,-18.78 -50.29,-33.08 -14.85,-14.43 -26.1,-30.77 -33.76,-49.07 -7.65,-18.24 -11.52,-37.82 -11.52,-58.77 0,-20.81 3.87,-40.4 11.52,-58.76 7.66,-18.44 18.91,-34.91 33.76,-49.48 14.84,-14.44 31.65,-25.42 50.43,-32.94 18.77,-7.53 38.7,-11.32 59.78,-11.32 20.87,0 40.66,3.79 59.44,11.32 18.71,7.52 35.52,18.5 50.29,32.94 14.85,14.71 26.1,31.31 33.9,49.75 7.72,18.5 11.58,37.95 11.58,58.49z"/>
     <path class="fil0" d="M2198.85 5153.85l8.6 0c25.02,0 41.62,-2.91 49.82,-8.74 8.2,-5.83 12.34,-16.14 12.34,-30.98 0,-15.99 -4.41,-27.24 -13.22,-33.82 -8.81,-6.57 -25.14,-9.83 -48.94,-9.83l-8.6 0 0 83.37zm-2.85 36.6l0 130.14 -44.33 0 0 -290.78 65.88 0c19.32,0 34.3,1.29 45.01,3.8 10.64,2.51 19.72,6.64 27.25,12.47 9.01,7.05 15.93,16.13 20.88,27.25 4.87,11.11 7.32,23.25 7.32,36.53 0,23.25 -5.63,41.49 -16.88,54.7 -11.26,13.15 -27.86,21.08 -49.82,23.73l100.04 132.3 -53.27 0 -96.79 -130.14 -5.29 0z"/>
     <path class="fil0" d="M2423.71 5151.41l12.13 0c26.23,0 43.73,-2.84 52.47,-8.54 8.74,-5.69 13.08,-15.72 13.08,-30.16 0,-15.46 -4.68,-26.37 -14.03,-32.74 -9.29,-6.3 -26.5,-9.49 -51.52,-9.49l-12.13 0 0 80.93zm-2.85 38.64l0 130.54 -44.32 0 0 -290.78 71.44 0c21.22,0 36.8,1.16 46.84,3.46 9.96,2.3 18.7,6.17 26.16,11.46 9.15,6.71 16.26,15.86 21.49,27.25 5.14,11.45 7.72,24.06 7.72,37.82 0,13.82 -2.58,26.5 -7.72,38.16 -5.23,11.65 -12.34,20.8 -21.49,27.38 -7.46,5.29 -16.2,9.08 -26.16,11.32 -10.04,2.23 -25.62,3.39 -46.84,3.39l-9.29 0 -17.83 0z"/>
     <path class="fil0" d="M2851.5 5175.81c0,-14.71 -2.71,-28.67 -8.07,-41.89 -5.35,-13.21 -13.07,-25.01 -23.11,-35.31 -9.82,-10.23 -21.15,-18.03 -34.02,-23.52 -12.95,-5.49 -26.57,-8.27 -40.81,-8.27 -14.3,0 -27.92,2.71 -40.87,8.14 -12.88,5.42 -24.4,13.28 -34.43,23.65 -10.03,10.17 -17.76,21.89 -23.04,35.11 -5.29,13.22 -7.93,27.25 -7.93,42.09 0,14.71 2.64,28.61 7.93,41.69 5.28,13.08 13.01,24.8 23.04,35.11 10.03,10.37 21.49,18.23 34.36,23.65 12.82,5.43 26.51,8.14 40.94,8.14 14.17,0 27.59,-2.71 40.4,-8.14 12.74,-5.42 24.27,-13.28 34.43,-23.65 10.04,-10.31 17.76,-22.03 23.11,-35.18 5.36,-13.22 8.07,-27.05 8.07,-41.62zm49.21 0c0,20.67 -3.87,40.2 -11.59,58.56 -7.8,18.44 -19.04,34.85 -33.89,49.28 -14.91,14.44 -31.79,25.49 -50.63,33.15 -18.78,7.66 -38.5,11.52 -59.11,11.52 -20.94,0 -40.87,-3.86 -59.91,-11.59 -18.98,-7.79 -35.72,-18.78 -50.3,-33.08 -14.84,-14.43 -26.09,-30.77 -33.75,-49.07 -7.66,-18.24 -11.52,-37.82 -11.52,-58.77 0,-20.81 3.86,-40.4 11.52,-58.76 7.66,-18.44 18.91,-34.91 33.75,-49.48 14.85,-14.44 31.66,-25.42 50.43,-32.94 18.78,-7.53 38.7,-11.32 59.78,-11.32 20.88,0 40.67,3.79 59.45,11.32 18.7,7.52 35.51,18.5 50.29,32.94 14.85,14.71 26.09,31.31 33.89,49.75 7.72,18.5 11.59,37.95 11.59,58.49z"/>
     <path class="fil0" d="M2992.91 5153.85l8.6 0c25.02,0 41.62,-2.91 49.82,-8.74 8.2,-5.83 12.34,-16.14 12.34,-30.98 0,-15.99 -4.41,-27.24 -13.22,-33.82 -8.81,-6.57 -25.15,-9.83 -48.94,-9.83l-8.6 0 0 83.37zm-2.85 36.6l0 130.14 -44.33 0 0 -290.78 65.88 0c19.32,0 34.3,1.29 45.01,3.8 10.64,2.51 19.72,6.64 27.25,12.47 9.01,7.05 15.93,16.13 20.87,27.25 4.88,11.11 7.33,23.25 7.33,36.53 0,23.25 -5.63,41.49 -16.88,54.7 -11.26,13.15 -27.86,21.08 -49.82,23.73l100.04 132.3 -53.27 0 -96.79 -130.14 -5.29 0z"/>
     <path class="fil0" d="M3238.27 5206.32l81.06 0 -29.82 -66.3c-1.69,-4.2 -3.52,-9.08 -5.36,-14.57 -1.82,-5.49 -3.72,-11.59 -5.55,-18.36 -1.56,6.37 -3.26,12.26 -5.09,17.75 -1.76,5.49 -3.59,10.57 -5.42,15.18l-29.82 66.3zm130.68 114.27l-32.94 -74.83 -115.23 0 -33.75 74.83 -49.62 0 140.78 -302.16 140.64 302.16 -49.88 0z"/>
     <path class="fil0" d="M3669.46 5100.58c-13.35,-11.39 -27.52,-19.93 -42.36,-25.62 -14.92,-5.7 -30.57,-8.55 -46.98,-8.55 -31.72,0 -57.54,10.17 -77.47,30.57 -19.92,20.41 -29.89,46.78 -29.89,79.24 0,31.31 9.69,57.2 29.08,77.61 19.39,20.4 43.85,30.57 73.34,30.57 17.21,0 33.55,-3.05 49.14,-9.15 15.52,-6.1 30.43,-15.25 44.73,-27.59l0 53.41c-12.67,9.15 -26.5,15.99 -41.48,20.47 -14.98,4.54 -31.17,6.78 -48.6,6.78 -22.23,0 -42.77,-3.66 -61.61,-10.92 -18.91,-7.31 -35.45,-18.02 -49.75,-32.19 -14.17,-13.9 -25.01,-30.3 -32.67,-49.14 -7.59,-18.84 -11.38,-38.97 -11.38,-60.26 0,-21.35 3.79,-41.34 11.38,-60.05 7.66,-18.78 18.64,-35.18 33.08,-49.35 14.43,-14.29 30.97,-25.14 49.61,-32.46 18.64,-7.39 38.84,-11.05 60.53,-11.05 17.08,0 33.35,2.51 48.8,7.46 15.52,5.01 30.51,12.54 45.07,22.63l-2.57 47.59z"/>
     <polygon class="fil0" points="3726.03,5320.59 3726.03,5029.81 3773.21,5029.81 3773.21,5320.59 "/>
     <path class="fil0" d="M4087.2 5175.81c0,-14.71 -2.71,-28.67 -8.07,-41.89 -5.35,-13.21 -13.07,-25.01 -23.11,-35.31 -9.82,-10.23 -21.15,-18.03 -34.02,-23.52 -12.95,-5.49 -26.57,-8.27 -40.81,-8.27 -14.29,0 -27.92,2.71 -40.87,8.14 -12.88,5.42 -24.4,13.28 -34.43,23.65 -10.03,10.17 -17.76,21.89 -23.04,35.11 -5.29,13.22 -7.93,27.25 -7.93,42.09 0,14.71 2.64,28.61 7.93,41.69 5.28,13.08 13.01,24.8 23.04,35.11 10.03,10.37 21.49,18.23 34.36,23.65 12.82,5.43 26.51,8.14 40.94,8.14 14.17,0 27.59,-2.71 40.4,-8.14 12.74,-5.42 24.27,-13.28 34.43,-23.65 10.04,-10.31 17.76,-22.03 23.11,-35.18 5.36,-13.22 8.07,-27.05 8.07,-41.62zm49.21 0c0,20.67 -3.87,40.2 -11.59,58.56 -7.79,18.44 -19.04,34.85 -33.89,49.28 -14.91,14.44 -31.79,25.49 -50.63,33.15 -18.78,7.66 -38.5,11.52 -59.11,11.52 -20.94,0 -40.87,-3.86 -59.91,-11.59 -18.98,-7.79 -35.72,-18.78 -50.3,-33.08 -14.84,-14.43 -26.09,-30.77 -33.75,-49.07 -7.66,-18.24 -11.52,-37.82 -11.52,-58.77 0,-20.81 3.86,-40.4 11.52,-58.76 7.66,-18.44 18.91,-34.91 33.75,-49.48 14.85,-14.44 31.66,-25.42 50.43,-32.94 18.78,-7.53 38.7,-11.32 59.78,-11.32 20.88,0 40.67,3.79 59.45,11.32 18.7,7.52 35.51,18.5 50.29,32.94 14.85,14.71 26.1,31.31 33.89,49.75 7.72,18.5 11.59,37.95 11.59,58.49zm-183.41 -174.46l37.82 -54.09 44.74 0 -58.09 54.09 -24.47 0z"/>
     <path class="fil0" d="M4175.17 5320.59l0 -302.16 184.77 177.65c5.01,5.01 10.1,10.37 15.31,16.06 5.16,5.69 10.58,12.13 16.27,19.25l0 -201.58 43.51 0 0 302.17 -188.35 -180.97c-5.02,-4.96 -9.9,-10.1 -14.58,-15.53 -4.74,-5.42 -9.15,-11.11 -13.41,-17.08l0 202.19 -43.52 0z"/>
     <path class="fil0" d="M4620.46 5029.81l46.76 0 0 176.57c0,26.17 6.03,45.89 18.17,59.04 12.13,13.22 30.23,19.79 54.36,19.79 23.92,0 41.95,-6.57 54.09,-19.79 12.13,-13.15 18.16,-32.87 18.16,-59.04l0 -176.57 47.18 0 0 180.91c0,39.31 -9.9,68.8 -29.76,88.31 -19.86,19.53 -49.81,29.29 -89.81,29.29 -39.99,0 -69.81,-9.76 -89.54,-29.22 -19.72,-19.45 -29.61,-48.93 -29.61,-88.38l0 -180.91z"/>
     <path class="fil0" d="M4927.71 5320.59l0 -302.16 184.76 177.65c5.02,5.01 10.1,10.37 15.32,16.06 5.15,5.69 10.57,12.13 16.27,19.25l0 -201.58 43.51 0 0 302.17 -188.36 -180.97c-5.02,-4.96 -9.89,-10.1 -14.57,-15.53 -4.74,-5.42 -9.15,-11.11 -13.42,-17.08l0 202.19 -43.51 0z"/>
     <polygon class="fil0" points="5258.54,5320.59 5258.54,5029.81 5305.72,5029.81 5305.72,5320.59 "/>
     <path class="fil0" d="M5463.2 5331.98l-129.79 -302.17 49.14 0 65.13 154.95c3.87,8.95 7.06,17.29 9.56,24.88 2.51,7.66 4.47,14.91 5.96,21.75 1.7,-7.25 3.87,-14.77 6.51,-22.64 2.64,-7.79 5.76,-15.79 9.36,-23.99l64.93 -154.95 48.87 0 -129.67 302.17z"/>
     <polygon class="fil0" points="5619.35,5320.59 5619.35,5029.81 5781.61,5029.81 5781.61,5070.08 5666.52,5070.08 5666.52,5142.87 5781.61,5142.87 5781.61,5184.35 5666.52,5184.35 5666.52,5278.3 5781.61,5278.3 5781.61,5320.59 "/>
     <path class="fil0" d="M5880.07 5153.85l8.6 0c25.02,0 41.62,-2.91 49.83,-8.74 8.19,-5.83 12.33,-16.14 12.33,-30.98 0,-15.99 -4.4,-27.24 -13.22,-33.82 -8.81,-6.57 -25.14,-9.83 -48.94,-9.83l-8.6 0 0 83.37zm-2.85 36.6l0 130.14 -44.32 0 0 -290.78 65.88 0c19.31,0 34.29,1.29 45,3.8 10.64,2.51 19.72,6.64 27.25,12.47 9.02,7.05 15.93,16.13 20.88,27.25 4.88,11.11 7.32,23.25 7.32,36.53 0,23.25 -5.63,41.49 -16.88,54.7 -11.25,13.15 -27.86,21.08 -49.82,23.73l100.04 132.3 -53.27 0 -96.79 -130.14 -5.29 0z"/>
     <path class="fil0" d="M6072.4 5262.37l37.69 -17.42c3.59,12.94 10.16,22.84 19.72,29.62 9.49,6.85 21.69,10.23 36.53,10.23 14.1,0 25.22,-3.93 33.55,-11.72 8.27,-7.8 12.41,-18.24 12.41,-31.32 0,-17.08 -14.16,-32.33 -42.57,-45.68 -3.99,-1.96 -7.04,-3.46 -9.15,-4.34 -32.06,-15.66 -53.41,-29.75 -64.05,-42.43 -10.64,-12.68 -16,-28.13 -16,-46.36 0,-23.72 8.07,-42.91 24.14,-57.61 16.06,-14.71 37.2,-22.03 63.3,-22.03 21.42,0 39.38,4.13 53.82,12.4 14.44,8.27 24.4,20.13 29.96,35.58l-36.87 19.12c-5.83,-9.15 -12.2,-15.86 -19.19,-20.06 -6.98,-4.27 -14.98,-6.37 -23.99,-6.37 -12.68,0 -22.84,3.32 -30.3,9.96 -7.52,6.57 -11.25,15.45 -11.25,26.57 0,17.49 16.47,33.82 49.35,48.87 2.5,1.22 4.47,2.17 5.96,2.78 28.74,13.28 48.46,26.23 59.17,38.84 10.71,12.67 16.07,28.46 16.07,47.38 0,27.51 -8.68,49.41 -26.03,65.61 -17.36,16.19 -40.81,24.33 -70.36,24.33 -24.74,0 -45.01,-5.69 -60.87,-17.08 -15.79,-11.39 -26.16,-27.66 -31.04,-48.87z"/>
     <polygon class="fil0" points="6303.95,5320.59 6303.95,5029.81 6351.13,5029.81 6351.13,5320.59 "/>
     <polygon class="fil0" points="6522.7,5070.08 6522.7,5320.59 6475.53,5320.59 6475.53,5070.08 6398.26,5070.08 6398.26,5029.81 6599.57,5029.81 6599.57,5070.08 "/>
     <path class="fil0" d="M6658.35 5206.32l81.06 0 -29.82 -66.3c-1.69,-4.2 -3.52,-9.08 -5.36,-14.57 -1.82,-5.49 -3.72,-11.59 -5.55,-18.36 -1.56,6.37 -3.26,12.26 -5.09,17.75 -1.76,5.49 -3.58,10.57 -5.42,15.18l-29.82 66.3zm130.68 114.27l-32.94 -74.83 -115.23 0 -33.75 74.83 -49.62 0 140.78 -302.16 140.64 302.16 -49.88 0z"/>
     <path class="fil0" d="M6901.14 5153.85l8.6 0c25.02,0 41.62,-2.91 49.82,-8.74 8.2,-5.83 12.34,-16.14 12.34,-30.98 0,-15.99 -4.41,-27.24 -13.22,-33.82 -8.81,-6.57 -25.14,-9.83 -48.94,-9.83l-8.6 0 0 83.37zm-2.85 36.6l0 130.14 -44.33 0 0 -290.78 65.88 0c19.32,0 34.3,1.29 45.01,3.8 10.64,2.51 19.72,6.64 27.25,12.47 9.01,7.05 15.93,16.13 20.88,27.25 4.87,11.11 7.32,23.25 7.32,36.53 0,23.25 -5.63,41.49 -16.88,54.7 -11.26,13.15 -27.86,21.08 -49.82,23.73l100.04 132.3 -53.27 0 -96.79 -130.14 -5.29 0z"/>
     <polygon class="fil0" points="7091.06,5320.59 7091.06,5029.81 7138.23,5029.81 7138.23,5320.59 "/>
     <path class="fil0" d="M7281.26 5206.32l81.06 0 -29.83 -66.3c-1.69,-4.2 -3.52,-9.08 -5.35,-14.57 -1.83,-5.49 -3.73,-11.59 -5.56,-18.36 -1.56,6.37 -3.25,12.26 -5.08,17.75 -1.76,5.49 -3.59,10.57 -5.43,15.18l-29.81 66.3zm130.67 114.27l-32.94 -74.83 -115.23 0 -33.75 74.83 -49.61 0 140.78 -302.16 140.64 302.16 -49.89 0z"/>
    </g>
    <g>
     <path class="fil0" d="M2163.57 5601.71l6.22 0c18.05,0 30.03,-2.11 35.95,-6.35 5.92,-4.23 8.9,-11.71 8.9,-22.49 0,-11.62 -3.17,-19.79 -9.53,-24.56 -6.36,-4.77 -18.15,-7.14 -35.32,-7.14l-6.22 0 0 60.54zm-2.05 26.58l0 94.5 -31.99 0 0 -211.15 47.55 0c13.94,0 24.75,0.93 32.48,2.75 7.68,1.83 14.23,4.83 19.66,9.06 6.52,5.12 11.5,11.71 15.07,19.79 3.53,8.07 5.29,16.88 5.29,26.53 0,16.88 -4.07,30.12 -12.18,39.72 -8.13,9.55 -20.11,15.31 -35.97,17.22l72.21 96.08 -38.45 0 -69.86 -94.5 -3.81 0z"/>
     <polygon class="fil0" points="2293.89,5722.79 2293.89,5511.64 2411.01,5511.64 2411.01,5540.87 2327.94,5540.87 2327.94,5593.74 2411.01,5593.74 2411.01,5623.86 2327.94,5623.86 2327.94,5692.08 2411.01,5692.08 2411.01,5722.79 "/>
     <path class="fil0" d="M2438.06 5680.51l27.2 -12.65c2.59,9.4 7.34,16.59 14.23,21.52 6.85,4.96 15.66,7.42 26.37,7.42 10.18,0 18.19,-2.85 24.21,-8.51 5.98,-5.66 8.96,-13.24 8.96,-22.74 0,-12.4 -10.22,-23.48 -30.72,-33.17 -2.89,-1.43 -5.09,-2.52 -6.61,-3.15 -23.13,-11.37 -38.55,-21.61 -46.23,-30.82 -7.68,-9.2 -11.55,-20.42 -11.55,-33.66 0,-17.23 5.84,-31.16 17.42,-41.84 11.6,-10.68 26.86,-16 45.7,-16 15.45,0 28.42,3.01 38.84,9.01 10.42,6 17.61,14.62 21.62,25.84l-26.61 13.88c-4.21,-6.64 -8.81,-11.52 -13.85,-14.57 -5.04,-3.1 -10.81,-4.62 -17.32,-4.62 -9.14,0 -16.48,2.41 -21.86,7.23 -5.44,4.77 -8.12,11.22 -8.12,19.3 0,12.69 11.88,24.55 35.61,35.48 1.81,0.89 3.23,1.58 4.31,2.02 20.73,9.65 34.97,19.05 42.7,28.21 7.73,9.2 11.6,20.67 11.6,34.4 0,19.99 -6.27,35.88 -18.79,47.65 -12.52,11.76 -29.44,17.67 -50.78,17.67 -17.85,0 -32.48,-4.14 -43.92,-12.41 -11.4,-8.27 -18.89,-20.08 -22.41,-35.49z"/>
     <path class="fil0" d="M2588.73 5706.85c0,-5.32 1.81,-9.8 5.43,-13.58 3.67,-3.75 8.12,-5.62 13.35,-5.62 5.29,0 9.69,1.87 13.36,5.62 3.62,3.78 5.43,8.26 5.43,13.58 0,5.17 -1.81,9.59 -5.43,13.19 -3.67,3.59 -8.07,5.41 -13.36,5.41 -5.23,0 -9.68,-1.82 -13.35,-5.41 -3.62,-3.6 -5.43,-8.02 -5.43,-13.19z"/>
     <path class="fil0" d="M2905.93 5695.33l0 27.46 -140.59 0 78.47 -94.45c9.73,-11.82 16.83,-22.2 21.33,-31.16 4.5,-8.91 6.75,-17.02 6.75,-24.36 0,-10.43 -3.08,-18.71 -9.25,-24.71 -6.16,-6 -14.63,-9.01 -25.29,-9.01 -9.59,0 -17.46,3.01 -23.68,9.01 -6.21,6.05 -9.68,13.93 -10.46,23.77l-32.88 0c0,-18.94 6.32,-34.06 18.93,-45.38 12.63,-11.27 29.55,-16.93 50.88,-16.93 20.25,0 36.25,5.22 47.94,15.7 11.7,10.49 17.56,24.76 17.56,42.82 0,12.85 -3.37,25.84 -10.07,38.98 -6.76,13.1 -21,32.15 -42.76,57.15l-26.66 31.11 79.78 0z"/>
     <path class="fil0" d="M2985.18 5658.02c0,12.65 3.48,22.79 10.47,30.47 6.95,7.72 16,11.56 27.05,11.56 12.53,0 22.36,-3.73 29.5,-11.27 7.19,-7.48 10.76,-17.77 10.76,-30.76 0,-13.14 -3.51,-23.48 -10.61,-30.96 -7.05,-7.43 -16.84,-11.17 -29.35,-11.17 -11.15,0 -20.25,3.89 -27.3,11.71 -7,7.78 -10.52,17.92 -10.52,30.42zm19.03 -63.45c4.7,-2.16 9.3,-3.89 13.85,-5.01 4.55,-1.14 9.05,-1.73 13.55,-1.73 18.73,0 34.19,6.4 46.32,19.2 12.13,12.75 18.2,29.09 18.2,49.02 0,21.71 -6.8,39.18 -20.44,52.47 -13.61,13.24 -31.56,19.89 -53.82,19.89 -20.84,0 -37.62,-6.5 -50.29,-19.44 -12.67,-13 -18.98,-30.08 -18.98,-51.2 0,-22.59 15.31,-55.52 45.89,-98.78l3.71 -5.07 36.7 -52.32 26.07 13.29 -60.76 79.68z"/>
     <path class="fil0" d="M3162.47 5658.02c0,12.65 3.48,22.79 10.47,30.47 6.94,7.72 15.99,11.56 27.05,11.56 12.52,0 22.36,-3.73 29.5,-11.27 7.19,-7.48 10.76,-17.77 10.76,-30.76 0,-13.14 -3.52,-23.48 -10.61,-30.96 -7.05,-7.43 -16.84,-11.17 -29.35,-11.17 -11.16,0 -20.26,3.89 -27.3,11.71 -7.01,7.78 -10.52,17.92 -10.52,30.42zm19.03 -63.45c4.7,-2.16 9.29,-3.89 13.85,-5.01 4.54,-1.14 9.05,-1.73 13.54,-1.73 18.74,0 34.2,6.4 46.33,19.2 12.13,12.75 18.2,29.09 18.2,49.02 0,21.71 -6.81,39.18 -20.45,52.47 -13.6,13.24 -31.55,19.89 -53.81,19.89 -20.84,0 -37.62,-6.5 -50.29,-19.44 -12.67,-13 -18.99,-30.08 -18.99,-51.2 0,-22.59 15.32,-55.52 45.89,-98.78l3.72 -5.07 36.69 -52.32 26.08 13.29 -60.76 79.68z"/>
     <polygon class="fil0" points="3368.52,5722.79 3368.52,5540.87 3325.07,5540.87 3338.28,5513.71 3399.63,5513.71 3399.63,5722.79 "/>
     <path class="fil0" d="M3752.09 5618.55c-0.39,-1.63 -1.03,-6.16 -1.86,-13.54 -0.79,-6.15 -1.47,-11.27 -2,-15.31 -0.89,4.82 -2.1,9.65 -3.68,14.42 -1.56,4.83 -3.57,9.7 -5.97,14.72l-54.88 112.52 -54.89 -114.84c-2.3,-4.72 -4.31,-9.25 -5.97,-13.67 -1.65,-4.44 -3.13,-8.82 -4.35,-13.15 -0.1,4.43 -0.44,9.06 -1.08,13.93 -0.63,4.87 -1.56,9.94 -2.78,15.21l-22.51 103.95 -31.4 0 49.6 -220.01 61.93 133.24c0.93,2.07 2.4,5.61 4.36,10.49 1.95,4.91 4.31,10.97 7.09,18.16 2.01,-6.06 5.19,-13.74 9.49,-23.04 1.13,-2.51 2,-4.43 2.54,-5.76l60.52 -133.09 50.73 220.01 -31.7 0 -23.19 -104.24z"/>
     <polygon class="fil0" points="3834.23,5722.79 3834.23,5511.64 3951.34,5511.64 3951.34,5540.87 3868.27,5540.87 3868.27,5593.74 3951.34,5593.74 3951.34,5623.86 3868.27,5623.86 3868.27,5692.08 3951.34,5692.08 3951.34,5722.79 "/>
     <path class="fil0" d="M3990.43 5722.79l0 -219.42 133.35 129.01c3.62,3.64 7.29,7.52 11.05,11.66 3.72,4.14 7.64,8.81 11.75,13.98l0 -146.38 31.4 0 0 219.42 -135.95 -131.41c-3.62,-3.6 -7.14,-7.34 -10.51,-11.28 -3.43,-3.94 -6.61,-8.07 -9.69,-12.4l0 146.82 -31.4 0z"/>
     <path class="fil0" d="M4313.06 5684.4c3.51,4.24 6.94,7.29 10.17,9.21 3.28,1.92 6.7,2.9 10.32,2.9 6.7,0 11.4,-2.21 14.14,-6.65 2.69,-4.42 4.06,-12.64 4.06,-24.65l0 -153.57 33.76 0 0 164.69c0,17.87 -3.92,31.01 -11.75,39.43 -7.82,8.41 -20.06,12.65 -36.64,12.65 -9.19,0 -17.46,-1.78 -24.85,-5.32 -7.39,-3.6 -14.38,-9.11 -20.99,-16.64l21.78 -22.05z"/>
     <path class="fil0" d="M4429.53 5511.64l33.76 0 0 128.22c0,19 4.35,33.32 13.11,42.87 8.75,9.6 21.81,14.37 39.23,14.37 17.26,0 30.29,-4.77 39.03,-14.37 8.76,-9.55 13.12,-23.87 13.12,-42.87l0 -128.22 34.05 0 0 131.37c0,28.55 -7.14,49.95 -21.48,64.13 -14.33,14.18 -35.96,21.27 -64.82,21.27 -28.86,0 -50.38,-7.09 -64.62,-21.22 -14.23,-14.13 -21.38,-35.54 -21.38,-64.18l0 -131.37z"/>
     <path class="fil0" d="M4648.84 5722.79l0 -219.42 133.35 129.01c3.62,3.64 7.29,7.52 11.05,11.66 3.72,4.14 7.64,8.81 11.75,13.98l0 -146.38 31.4 0 0 219.42 -135.95 -131.41c-3.62,-3.6 -7.14,-7.34 -10.51,-11.28 -3.43,-3.94 -6.61,-8.07 -9.69,-12.4l0 146.82 -31.4 0z"/>
     <polygon class="fil0" points="4872.64,5722.79 4872.64,5511.64 4906.69,5511.64 4906.69,5722.79 "/>
     <path class="fil0" d="M5147.91 5617.66c0,-10.68 -1.95,-20.82 -5.81,-30.42 -3.87,-9.6 -9.45,-18.16 -16.68,-25.64 -7.1,-7.44 -15.27,-13.1 -24.56,-17.08 -9.35,-3.99 -19.18,-6.01 -29.45,-6.01 -10.33,0 -20.16,1.97 -29.5,5.91 -9.3,3.94 -17.61,9.64 -24.85,17.18 -7.24,7.38 -12.82,15.89 -16.63,25.49 -3.82,9.6 -5.73,19.79 -5.73,30.57 0,10.68 1.91,20.77 5.73,30.27 3.81,9.5 9.39,18.02 16.63,25.49 7.24,7.54 15.5,13.24 24.8,17.18 9.25,3.94 19.12,5.91 29.55,5.91 10.22,0 19.91,-1.97 29.15,-5.91 9.2,-3.94 17.52,-9.64 24.86,-17.18 7.23,-7.47 12.81,-15.99 16.68,-25.54 3.86,-9.6 5.81,-19.64 5.81,-30.22zm35.52 0c0,15.01 -2.79,29.19 -8.36,42.52 -5.63,13.39 -13.75,25.31 -24.46,35.79 -10.77,10.48 -22.95,18.51 -36.55,24.07 -13.54,5.56 -27.78,8.37 -42.65,8.37 -15.12,0 -29.5,-2.81 -43.25,-8.42 -13.69,-5.66 -25.78,-13.64 -36.29,-24.02 -10.71,-10.48 -18.84,-22.35 -24.37,-35.64 -5.53,-13.24 -8.31,-27.46 -8.31,-42.67 0,-15.11 2.78,-29.34 8.31,-42.68 5.53,-13.38 13.66,-25.34 24.37,-35.93 10.71,-10.48 22.84,-18.46 36.39,-23.92 13.55,-5.46 27.93,-8.22 43.15,-8.22 15.06,0 29.35,2.76 42.9,8.22 13.5,5.46 25.63,13.44 36.3,23.92 10.71,10.69 18.83,22.74 24.46,36.13 5.57,13.44 8.36,27.57 8.36,42.48z"/>
     <path class="fil0" d="M5433.8 5695.33l0 27.46 -140.59 0 78.47 -94.45c9.73,-11.82 16.83,-22.2 21.33,-31.16 4.5,-8.91 6.75,-17.02 6.75,-24.36 0,-10.43 -3.09,-18.71 -9.25,-24.71 -6.16,-6 -14.63,-9.01 -25.29,-9.01 -9.59,0 -17.47,3.01 -23.68,9.01 -6.21,6.05 -9.68,13.93 -10.46,23.77l-32.88 0c0,-18.94 6.31,-34.06 18.93,-45.38 12.62,-11.27 29.55,-16.93 50.88,-16.93 20.25,0 36.25,5.22 47.93,15.7 11.7,10.49 17.57,24.76 17.57,42.82 0,12.85 -3.37,25.84 -10.07,38.98 -6.76,13.1 -21,32.15 -42.76,57.15l-26.66 31.11 79.78 0z"/>
     <polygon class="fil0" points="5541.82,5722.79 5541.82,5540.87 5498.37,5540.87 5511.58,5513.71 5572.93,5513.71 5572.93,5722.79 "/>
     <path class="fil0" d="M5788.32 5691.79l28.71 0c15.75,0 27.59,-1.04 35.47,-3.15 7.93,-2.12 14.77,-5.72 20.59,-10.69 7.93,-6.84 13.9,-15.3 17.87,-25.49 3.95,-10.14 5.96,-21.96 5.96,-35.39 0,-13.48 -2.01,-25.25 -5.96,-35.39 -3.97,-10.19 -9.94,-18.65 -17.87,-25.5 -5.92,-4.97 -13.01,-8.56 -21.28,-10.68 -8.27,-2.11 -21.22,-3.15 -38.84,-3.15l-12.32 0 -12.33 0 0 149.44zm-34.05 31l0 -211.15 45.93 0c29.95,0 50.98,1.53 63.21,4.53 12.18,3.05 22.84,8.12 32.04,15.2 12.13,9.36 21.33,21.32 27.59,35.93 6.26,14.63 9.39,31.31 9.39,50.06 0,18.76 -3.13,35.35 -9.39,49.81 -6.26,14.48 -15.46,26.44 -27.59,35.89 -9.2,7.08 -19.61,12.16 -31.36,15.21 -11.68,3 -29.93,4.52 -54.69,4.52l-9.2 0 -45.93 0z"/>
     <polygon class="fil0" points="5971.52,5722.79 5971.52,5511.64 6088.63,5511.64 6088.63,5540.87 6005.57,5540.87 6005.57,5593.74 6088.63,5593.74 6088.63,5623.86 6005.57,5623.86 6005.57,5692.08 6088.63,5692.08 6088.63,5722.79 "/>
     <polygon class="fil0" points="6282.27,5722.79 6282.27,5540.87 6238.83,5540.87 6252.04,5513.71 6313.38,5513.71 6313.38,5722.79 "/>
     <path class="fil0" d="M6507.98 5579.56c0,-12.6 -3.43,-22.74 -10.32,-30.42 -6.85,-7.68 -15.9,-11.52 -27.05,-11.52 -12.53,0 -22.41,3.75 -29.6,11.23 -7.19,7.53 -10.81,17.76 -10.81,30.71 0,13.29 3.52,23.67 10.61,31.21 7.04,7.53 16.78,11.32 29.2,11.32 11.16,0 20.31,-3.99 27.35,-11.91 7.09,-7.93 10.62,-18.12 10.62,-30.62zm-19.18 63.8c-4.4,2.21 -8.85,3.83 -13.4,4.91 -4.55,1.04 -9.15,1.58 -13.79,1.58 -18.84,0 -34.3,-6.35 -46.39,-19.05 -12.13,-12.65 -18.19,-28.94 -18.19,-48.87 0,-21.71 6.79,-39.18 20.4,-52.47 13.6,-13.24 31.6,-19.89 53.96,-19.89 20.79,0 37.57,6.45 50.33,19.39 12.78,12.95 19.13,29.93 19.13,50.94 0,22.6 -15.35,55.53 -46.03,98.79l-3.63 5.17 -36.92 52.23 -25.84 -13.3 60.37 -79.43z"/>
     <path class="fil0" d="M6685.26 5579.56c0,-12.6 -3.42,-22.74 -10.32,-30.42 -6.84,-7.68 -15.89,-11.52 -27.05,-11.52 -12.52,0 -22.41,3.75 -29.6,11.23 -7.19,7.53 -10.81,17.76 -10.81,30.71 0,13.29 3.52,23.67 10.62,31.21 7.04,7.53 16.78,11.32 29.2,11.32 11.15,0 20.3,-3.99 27.35,-11.91 7.09,-7.93 10.61,-18.12 10.61,-30.62zm-19.17 63.8c-4.41,2.21 -8.85,3.83 -13.41,4.91 -4.55,1.04 -9.15,1.58 -13.79,1.58 -18.84,0 -34.29,-6.35 -46.38,-19.05 -12.13,-12.65 -18.19,-28.94 -18.19,-48.87 0,-21.71 6.79,-39.18 20.39,-52.47 13.61,-13.24 31.61,-19.89 53.97,-19.89 20.78,0 37.56,6.45 50.33,19.39 12.77,12.95 19.13,29.93 19.13,50.94 0,22.6 -15.36,55.53 -46.03,98.79l-3.63 5.17 -36.93 52.23 -25.83 -13.3 60.37 -79.43z"/>
     <path class="fil0" d="M6772.83 5658.02c0,12.65 3.47,22.79 10.46,30.47 6.95,7.72 16,11.56 27.05,11.56 12.53,0 22.36,-3.73 29.5,-11.27 7.2,-7.48 10.76,-17.77 10.76,-30.76 0,-13.14 -3.51,-23.48 -10.61,-30.96 -7.04,-7.43 -16.83,-11.17 -29.35,-11.17 -11.15,0 -20.25,3.89 -27.3,11.71 -7,7.78 -10.51,17.92 -10.51,30.42zm19.02 -63.45c4.7,-2.16 9.3,-3.89 13.85,-5.01 4.55,-1.14 9.05,-1.73 13.55,-1.73 18.74,0 34.19,6.4 46.33,19.2 12.13,12.75 18.2,29.09 18.2,49.02 0,21.71 -6.81,39.18 -20.45,52.47 -13.61,13.24 -31.56,19.89 -53.81,19.89 -20.85,0 -37.63,-6.5 -50.3,-19.44 -12.67,-13 -18.98,-30.08 -18.98,-51.2 0,-22.59 15.31,-55.52 45.89,-98.78l3.71 -5.07 36.7 -52.32 26.07 13.29 -60.76 79.68z"/>
    </g>
    <g>
     <path class="fil0" d="M257.75 3990.81l224.5 0 0 402.92c0,59.07 1.54,101.74 4.43,127.42 3.09,25.87 8.1,47.49 15.43,64.87 8.49,21.04 23.73,37.26 45.13,48.45 21.41,11.01 47.64,16.61 78.5,16.61 30.85,0 56.9,-5.6 78.3,-16.61 21.22,-11.19 36.45,-27.41 45.32,-48.45 7.34,-17.38 12.35,-39 15.43,-64.87 2.9,-25.68 4.44,-68.35 4.44,-127.42l0 -56.57 0 -346.35 224.5 0 0 437.86c0,90.94 -5.4,157.92 -16.4,201.17 -10.99,43.05 -29.31,79.93 -55.35,110.62 -28.16,33.4 -66.92,58.69 -116.3,75.49 -49.37,16.8 -109.16,25.1 -179.56,25.1 -70.97,0 -130.76,-8.3 -179.94,-25.1 -49.19,-16.8 -88.14,-42.09 -116.68,-75.49 -25.66,-30.69 -43.98,-67.57 -55.16,-110.62 -11,-43.25 -16.59,-110.23 -16.59,-201.17l0 -85.91 0 -351.95z"/>
     <path class="fil0" d="M1117.62 4841.05l0 -738.85 194.08 0 279.07 379.93c5.34,7.75 14.1,23.42 26.32,46.84 12.39,23.25 25.81,51.15 40.61,83.53 -3.96,-30.65 -6.89,-57.87 -8.78,-81.8 -1.89,-23.94 -2.75,-45.13 -2.75,-63.55l0 -364.95 193.05 0 0 738.85 -193.05 0 -278.9 -381.48c-5.85,-7.75 -14.79,-23.43 -27.01,-46.67 -12.39,-23.43 -25.63,-50.98 -40.09,-82.68 3.95,31.01 6.89,58.39 8.77,82.33 1.9,23.94 2.76,45.13 2.76,63.55l0 364.95 -194.08 0z"/>
     <polygon class="fil0" points="1993.45,4841.05 1993.45,4102.2 2196.82,4102.2 2196.82,4841.05 "/>
     <path class="fil0" d="M2349.86 4841.05l0 -738.85 210.59 0c82.24,0 139.71,3.79 172.06,11.37 32.34,7.58 60.38,20.32 83.96,38.06 26.49,20.15 46.96,45.98 61.25,77.16 14.28,31.34 21.34,65.79 21.34,103.5 0,57.18 -14.11,103.69 -42.16,139.5 -28.21,35.83 -69.17,59.6 -123.02,71.31l201.31 297.95 -227.12 0 -169.3 -289.34 0 289.34 -188.91 0zm188.91 -389.57l37.17 0c43.36,0 75.01,-7.41 94.97,-22.22 19.96,-14.82 29.94,-38.07 29.94,-69.58 0,-37.03 -9.29,-63.38 -27.88,-79.05 -18.75,-15.68 -49.89,-23.43 -93.94,-23.43l-40.26 0 0 194.28z"/>
     <polygon class="fil0" points="3002.88,4841.05 3002.88,4102.2 3455.04,4102.2 3455.04,4264.44 3199.02,4264.44 3199.02,4392.57 3440.41,4392.57 3440.41,4550.68 3199.02,4550.68 3199.02,4675.71 3455.04,4675.71 3455.04,4841.05 "/>
     <path class="fil0" d="M4425.68 4841.05l-188.05 0 -43.19 -319.48c-3.1,-22.56 -5.85,-47.53 -8.43,-75.26 -2.41,-27.56 -4.82,-57.7 -6.72,-90.25 -4.81,31.35 -13.92,70.27 -27.69,117.11 -3.1,9.65 -5.33,16.88 -6.71,21.7l-100.14 346.18 -134.2 0 -100.13 -346.18c-1.38,-4.82 -3.44,-12.05 -6.2,-21.7 -14.11,-46.84 -23.22,-85.59 -27.7,-116.59 -1.89,27.9 -4.3,55.63 -7.05,83.01 -2.58,27.39 -5.85,54.77 -9.46,81.98l-43.36 319.48 -187.02 0 113.9 -738.85 199.06 0 111.32 380.96c0.69,2.76 2.06,7.07 4.13,13.27 10.32,33.92 16.86,63.03 19.62,87.31 1.37,-13.26 3.78,-27.73 7.56,-43.74 3.62,-16.02 8.78,-35.31 15.15,-57.87l112.34 -379.93 199.58 0 113.39 738.85z"/>
     <polygon class="fil0" points="4530.19,4841.05 4530.19,4102.2 4733.56,4102.2 4733.56,4841.05 "/>
     <path class="fil0" d="M4886.6 4841.05l0 -738.85 194.08 0 279.07 379.93c5.33,7.75 14.1,23.42 26.32,46.84 12.39,23.25 25.81,51.15 40.6,83.53 -3.95,-30.65 -6.88,-57.87 -8.77,-81.8 -1.89,-23.94 -2.75,-45.13 -2.75,-63.55l0 -364.95 193.04 0 0 738.85 -193.04 0 -278.9 -381.48c-5.85,-7.75 -14.8,-23.43 -27.01,-46.67 -12.39,-23.43 -25.63,-50.98 -40.09,-82.68 3.95,31.01 6.89,58.39 8.77,82.33 1.9,23.94 2.76,45.13 2.76,63.55l0 364.95 -194.08 0z"/>
     <path class="fil0" d="M6108.26 4569.28l0 -155.01 395.38 0c0.34,5 0.69,10.68 0.86,16.71 0.17,6.03 0.17,14.81 0.17,26.7 0,127.1 -33.55,225.61 -100.64,295.7 -66.93,70.1 -161.39,105.23 -283.03,105.23 -59.7,0 -113.04,-8.95 -159.5,-27.03 -46.63,-17.92 -88.09,-45.47 -124.74,-82.5 -34.92,-35.31 -62.11,-76.98 -81.55,-125.38 -19.27,-48.22 -28.9,-98.68 -28.9,-151.56 0,-55.11 9.46,-105.92 28.21,-152.07 18.75,-46.33 46.98,-87.84 84.13,-124.87 37,-35.99 79.49,-63.2 127.33,-81.81 48,-18.42 99.61,-27.72 155.02,-27.72 72.26,0 136.26,14.3 191.84,42.88 55.57,28.59 102.37,71.13 140.39,127.62l-174.46 83.7c-20.82,-28.58 -44.39,-49.77 -70.37,-63.72 -26.15,-13.95 -55.23,-21.01 -87.57,-21.01 -60.22,0 -107.71,20.15 -142.29,60.28 -34.59,40.3 -51.97,95.06 -51.97,164.82 0,70.26 17.38,125.55 51.97,165.85 34.58,40.47 82.07,60.62 142.29,60.62 51.1,0 93.76,-12.57 127.83,-37.54 34.23,-24.98 54.19,-58.21 59.87,-99.89l-200.27 0z"/>
     <polygon class="fil0" points="6706.75,4841.05 6706.75,4276.84 6541.58,4276.84 6541.58,4102.2 7073.23,4102.2 7073.23,4276.84 6908.05,4276.84 6908.05,4841.05 "/>
     <path class="fil0" d="M7902.26 4473.17c0,53.22 -9.8,103 -29.24,149.32 -19.45,46.51 -47.83,88.01 -85.17,124.69 -37.68,36.34 -80.7,64.24 -129.05,84.05 -48.34,19.63 -98.58,29.45 -150.54,29.45 -52.82,0 -103.41,-9.82 -151.58,-29.45 -48.17,-19.81 -90.5,-47.71 -127.15,-84.05 -38.02,-36.68 -66.75,-78.36 -86.54,-125.21 -19.62,-46.67 -29.42,-96.26 -29.42,-148.8 0,-52.87 9.8,-102.47 29.42,-149.15 19.79,-46.49 48.52,-88.17 86.54,-124.85 36.65,-36.34 78.98,-64.24 127.15,-84.05 48.17,-19.63 98.76,-29.45 151.58,-29.45 52.31,0 102.89,9.82 151.41,29.45 48.52,19.81 91.18,47.71 128.18,84.05 36.99,36.33 65.21,77.84 84.99,124.69 19.62,46.67 29.42,96.44 29.42,149.31zm-394.34 217.01c55.74,0 101.85,-20.5 138.33,-61.49 36.47,-41.16 54.71,-93 54.71,-155.52 0,-61.83 -18.41,-113.49 -55.4,-155 -36.99,-41.33 -82.93,-62 -137.64,-62 -55.75,0 -101.86,20.67 -138.33,61.83 -36.48,41.16 -54.72,93 -54.72,155.17 0,63.21 17.9,115.22 53.85,155.87 35.96,40.81 82.42,61.14 139.2,61.14z"/>
     <path class="fil0" d="M7989.07 4841.05l0 -850.24 223.34 0 321.15 437.21c6.13,8.92 16.23,26.96 30.28,53.9 14.26,26.76 29.7,58.87 46.73,96.13 -4.55,-35.28 -7.92,-66.59 -10.1,-94.14 -2.17,-27.55 -3.16,-51.93 -3.16,-73.14l0 -419.96 222.14 0 0 850.24 -222.14 0 -320.95 -439c-6.73,-8.91 -17.02,-26.94 -31.09,-53.71 -14.25,-26.95 -29.49,-58.66 -46.13,-95.12 4.56,35.67 7.92,67.18 10.1,94.73 2.18,27.55 3.17,51.93 3.17,73.13l0 419.97 -223.34 0z"/>
    </g>
    <path class="fil1" d="M9057.69 4164.01c0.05,-2.1 0.09,-4.19 0.12,-6.29 0.03,-3.11 0.03,-6.22 0.03,-9.33l0 -69.39c0,-2.6 0,-5.19 -0.03,-7.79 -0.03,-2.09 -0.07,-4.17 0.97,-5l-13.61 -4.28 -0.57 -11.74 4.91 0.15c7.14,0.23 14.28,0.35 21.42,0.35 1.69,0 3.4,-0.07 5.09,-0.14 2.6,-0.11 5.2,-0.18 7.8,-0.27 2.63,-0.08 5.24,-0.18 7.87,-0.23 1.67,-0.03 3.35,-0.06 5.02,-0.06 10.87,0 23.31,1.59 32.27,8.26 8.22,6.12 11.69,14.95 11.69,25.07 0,8.64 -2.15,16.93 -7.87,23.57 -4.54,5.3 -10.63,8.98 -17.09,11.58 2.39,3.69 4.71,7.43 6.97,11.21 2.81,4.69 5.65,9.37 8.53,14.02 3.35,5.42 8.95,15.36 13.04,19.77 7.22,7.76 19.62,15.25 30.02,19.11l-0.04 19.06c-18.89,-3.08 -39.38,-12.61 -48.78,-21.93 -3.94,-3.8 -7.4,-8.35 -10.43,-12.99 -2.57,-3.78 -4.97,-7.69 -7.27,-11.63 -2.63,-4.51 -5.2,-9.05 -7.73,-13.6 -2.6,-4.68 -5.36,-9.27 -8.26,-13.77 -0.62,-0.96 -1.26,-2 -2.09,-3.07 -0.21,-0.28 -0.45,-0.52 -0.74,-0.71 -0.25,-0.16 -0.59,-0.23 -0.87,-0.28 -1,-0.18 -2.06,-0.25 -3.01,-0.29l-1.33 -0.04 0 25.04c0,3.07 0,6.13 0.03,9.2 0.03,2.46 0.08,4.92 -0.86,6.48l12.49 3.74 0.83 11.78 -4.99 -0.12c-6.75,-0.18 -13.51,-0.26 -20.27,-0.26 -7.05,0 -14.1,0.09 -21.15,0.26l-4.26 0.1 -1.01 -11.59 13.16 -3.95zm26.03 -56.1c1.71,0.05 3.43,0.09 5.14,0.09 6.03,0 13.91,-0.84 18.59,-5.1 4.42,-4.03 5.41,-10.63 5.41,-16.31 0,-5.34 -0.9,-11.76 -5.09,-15.56 -4.42,-4.01 -11.88,-4.78 -17.57,-4.78 -1.6,0 -3.2,0.05 -4.81,0.16 -0.55,0.04 -1.11,0.08 -1.67,0.12l0 41.38z"/>
    <path class="fil1" d="M9108.04 4007.54c64.99,0 117.68,52.69 117.68,117.67 0,64.99 -52.69,117.68 -117.68,117.68 -64.98,0 -117.67,-52.69 -117.67,-117.68 0,-64.98 52.69,-117.67 117.67,-117.67zm0 16.57c55.84,0 101.1,45.27 101.1,101.1 0,55.84 -45.26,101.11 -101.1,101.11 -55.83,0 -101.1,-45.27 -101.1,-101.11 0,-55.83 45.27,-101.1 101.1,-101.1z"/>
   </g>
   <g>
    <g>
     <circle class="fil2" cx="4741.76" cy="1929.68" r="1402.4"/>
     <path class="fil3" d="M4277.2 3253.19c-546.19,-191.71 -937.84,-711.83 -937.84,-1323.51 0,-611.69 391.65,-1131.81 937.84,-1323.52l0 2647.03z"/>
     <path class="fil4" d="M4741.76 527.27c774.53,0 1402.4,627.88 1402.4,1402.41 0,516.87 -279.66,968.39 -695.89,1211.6l-647.06 -657.84 -28.77 0c450.93,0 819.87,-368.93 819.87,-819.86l0 0c0,-450.93 -368.94,-819.87 -819.87,-819.87l-495.24 0 0 -237.55c145.4,-51.03 301.72,-78.89 464.56,-78.89zm303.93 2771.68c-97.87,21.63 -199.55,33.13 -303.93,33.13 -162.84,0 -319.16,-27.85 -464.56,-78.89l0 -735.52 768.49 781.28zm-768.49 -1218.25l0 -834.25 495.25 0c229.42,0 417.12,187.7 417.12,417.13l0 0c0,229.42 -187.7,417.12 -417.12,417.12l-495.25 0z"/>
     <g>
      <polygon class="fil5" points="5221.32,2702.14 5221.32,2540.51 5182.49,2540.51 5194.29,2516.37 5249.13,2516.37 5249.13,2702.14 "/>
      <path class="fil5" d="M5391.51 2574.88c0,-11.19 -3.05,-20.2 -9.22,-27.02 -6.13,-6.83 -14.21,-10.24 -24.19,-10.24 -11.19,0 -20.02,3.33 -26.45,9.97 -6.43,6.7 -9.67,15.79 -9.67,27.29 0,11.81 3.15,21.04 9.49,27.73 6.3,6.69 15,10.06 26.11,10.06 9.97,0 18.15,-3.54 24.45,-10.58 6.34,-7.05 9.48,-16.1 9.48,-27.21zm-17.14 56.68c-3.94,1.97 -7.91,3.41 -11.98,4.38 -4.07,0.91 -8.18,1.39 -12.33,1.39 -16.84,0 -30.66,-5.64 -41.46,-16.92 -10.85,-11.24 -16.27,-25.71 -16.27,-43.43 0,-19.28 6.08,-34.81 18.24,-46.61 12.16,-11.77 28.25,-17.67 48.23,-17.67 18.59,0 33.59,5.73 45,17.23 11.42,11.5 17.1,26.58 17.1,45.26 0,20.07 -13.73,49.33 -41.15,87.77l-3.23 4.59 -33.02 46.4 -23.09 -11.81 53.96 -70.58z"/>
      <polygon class="fil5" points="5475.12,2702.14 5475.12,2540.51 5436.29,2540.51 5448.09,2516.37 5502.93,2516.37 5502.93,2702.14 "/>
      <path class="fil5" d="M5562.97 2657.32c4.37,8.05 9.97,14.21 16.79,18.45 6.86,4.29 14.48,6.43 22.83,6.43 12.42,0 22.44,-3.94 30.13,-11.85 7.7,-7.91 11.54,-18.32 11.54,-31.22 0,-12.42 -4.02,-22.48 -12.11,-30.27 -8.09,-7.78 -18.67,-11.67 -31.75,-11.67 -7.87,0 -15.13,1.36 -21.87,4.02 -6.68,2.71 -12.59,6.69 -17.75,12.02l-7.56 -1.7 23.35 -95.16 88.65 0 0 24.66 -70.33 0 -11.02 41.42c5.12,-2.1 10.1,-3.67 14.87,-4.72 4.77,-1.01 9.54,-1.53 14.35,-1.53 17.84,0 32.36,5.73 43.51,17.18 11.19,11.42 16.79,26.33 16.79,44.7 0,20.99 -6.51,37.78 -19.59,50.29 -13.08,12.51 -30.57,18.76 -52.53,18.76 -12.98,0 -24.26,-2.23 -33.84,-6.74 -9.53,-4.46 -17.8,-11.36 -24.71,-20.77l20.25 -22.3z"/>
     </g>
    </g>
    <path class="fil0" d="M4741.76 478.46c400.71,0 763.55,162.45 1026.16,425.06 262.61,262.61 425.06,625.45 425.06,1026.16 0,400.73 -162.45,763.54 -425.06,1026.15 -262.61,262.62 -625.45,425.06 -1026.16,425.06 -400.74,0 -763.54,-162.44 -1026.16,-425.06 -262.61,-262.61 -425.05,-625.42 -425.05,-1026.15 0,-400.71 162.44,-763.55 425.05,-1026.16 262.62,-262.61 625.42,-425.06 1026.16,-425.06zm957.28 493.94c-244.98,-244.98 -583.44,-396.51 -957.28,-396.51 -373.84,0 -712.3,151.53 -957.27,396.51 -244.98,244.98 -396.51,583.44 -396.51,957.28 0,373.83 151.53,712.29 396.51,957.27 244.97,244.98 583.43,396.51 957.27,396.51 373.84,0 712.3,-151.53 957.28,-396.51 244.97,-244.98 396.51,-583.44 396.51,-957.27 0,-373.84 -151.54,-712.3 -396.51,-957.28z"/>
   </g>
  </g>
 </g>
</svg>
