<?xml version="1.0" encoding="UTF-8"?>
<!DOCTYPE svg PUBLIC "-//W3C//DTD SVG 1.1//EN" "http://www.w3.org/Graphics/SVG/1.1/DTD/svg11.dtd">
<!-- Creator: CorelDRAW -->
<svg xmlns="http://www.w3.org/2000/svg" xml:space="preserve" width="98mm" height="30mm" version="1.1" style="shape-rendering:geometricPrecision; text-rendering:geometricPrecision; image-rendering:optimizeQuality; fill-rule:evenodd; clip-rule:evenodd"
viewBox="0 0 9800 3000"
 xmlns:xlink="http://www.w3.org/1999/xlink"
 xmlns:xodm="http://www.corel.com/coreldraw/odm/2003">
 <defs>
  <style type="text/css">
   <![CDATA[
    .str0 {stroke:#FEFEFE;stroke-width:7.62;stroke-miterlimit:22.9256}
    .fil1 {fill:none;fill-rule:nonzero}
    .fil0 {fill:#FEFEFE;fill-rule:nonzero}
   ]]>
  </style>
 </defs>
 <g id="Capa_x0020_1">
  <metadata id="CorelCorpID_0Corel-Layer"/>
  <g id="_2811786559680">
   <g>
    <path class="fil0" d="M1263.69 63.21l59.3 0c211.44,2.92 426.74,62 594.92,193.36 170.92,131.3 287.38,324.27 345.82,529.71 26.29,95.06 43.93,194.1 35.67,292.94 -149.81,0.73 -299.63,1.39 -449.44,2.06 -6.12,-114.91 -35.61,-230.34 -96.17,-329.05 -48.85,-80.12 -122.19,-145.77 -209.31,-181.81 -106.49,-44.74 -225.75,-47.99 -338.83,-32.2 -35.41,4.78 -71.15,10.49 -104.22,24.43 -112.08,44.54 -218.64,108.33 -300.63,197.61 -68.75,74.35 -115.94,170.07 -124.19,271.56 -11.05,122.61 28.29,243.82 84.86,351.22 59.16,109.73 126.12,216 206.65,311.52 98.03,116.7 222.82,217.26 371.57,259.88 159.4,47.26 328.98,26.35 488.44,-9.16 62.16,-13.28 124.66,-28.61 181.3,-58.28 134.37,-67.78 237,-184.67 314.13,-311.39 63.16,-104.55 112.21,-217.59 146.42,-334.75 263.09,-1.27 526.18,-2.53 789.27,-3.66 -354.34,477.61 -708.8,955.14 -1063.14,1432.75 -32.74,42.28 -61.43,88.15 -99.56,126.05 -86.79,85.5 -207.45,126.32 -325.85,143.65 -90.18,11.81 -182.5,17.12 -272.61,1.99 -103.03,-17.06 -200,-68.11 -271.08,-144.58 -39.46,-39.69 -66.95,-88.75 -97.36,-135.15 -286.59,-444.34 -572.97,-888.82 -859.69,-1333.17 -26.29,-40.22 -40.26,-86.89 -51.04,-133.36 -33.61,-156.12 -26.56,-320.61 17.5,-474.01 52.25,-185.27 171.11,-350.95 331.57,-458.22 203.66,-137.88 453.11,-189.72 695.7,-199.94z"/>
    <path class="fil0" d="M1850.43 1215.03c133.97,-0.79 267.94,-1.39 401.99,-1.92 -39.94,175.44 -126.99,346.3 -268.28,461.67 -107.29,88.15 -246.92,131.96 -385.09,131.03 -133.31,1.53 -268.94,-38.1 -373.5,-122.2 -140.56,-112.25 -223.82,-283.05 -258.56,-456.63 68.28,-0.53 136.57,-0.66 204.85,-1.13 27.02,89.62 75.81,176.84 153.67,231.8 80.33,57.22 190.42,64.19 280.33,26.02 115.27,-49.85 194.67,-157.05 244.59,-268.64z"/>
    <path class="fil0" d="M4902.04 1387.05c106.86,-102.88 258.12,-144.67 403.36,-149.37 133.02,-4.3 274.76,9.2 388.74,83.88 96.03,61.39 157.87,162.77 194.76,268.24 -107.75,23.4 -215.61,46.79 -323.47,69.98 -17.54,-55.68 -52.23,-108.07 -105.85,-134.66 -94.53,-48.89 -223.94,-26.4 -289.3,59.78 -55.43,71.49 -58.64,167.16 -58.44,253.74 3.21,80.98 7.02,169.16 55.64,237.75 62.14,82.78 183.23,94.08 274.75,59.79 83.4,-33.6 117.69,-126.07 137.63,-206.56 107.56,30.8 215.12,61.79 322.77,92.48 -30.87,129.17 -104.04,253.34 -220.82,322.23 -108.76,67.68 -241.58,77.28 -366.48,73.38 -110.36,-5.1 -225.44,-20.99 -320.87,-80.38 -74.58,-47.19 -134.22,-115.47 -178.32,-191.26 -63.96,-114.07 -78.79,-248.64 -71.98,-377.31 6.82,-139.77 53.83,-283.73 157.88,-381.71z"/>
    <path class="fil0" d="M3505.1 1258.68c122.49,-0.6 244.88,-1.2 367.38,-1.7 1.1,230.94 2.2,461.99 3.2,692.94 0.11,44.99 7.92,92.18 35.29,129.17 30.27,41.89 80.49,65.68 131.21,71.08 63.86,7.4 135.03,-3 183.64,-48.29 42.4,-38.29 56.64,-97.77 55.54,-152.96 -1.01,-231.25 -2.21,-462.6 -3.11,-693.84 122.39,-0.6 244.89,-1.2 367.28,-1.7 1.2,225.35 2.1,450.59 3.21,675.84 0.1,102.08 -22.46,207.76 -82.3,292.24 -58.04,81.38 -142.74,145.46 -240.48,170.56 -147.95,39.59 -303.62,28.39 -453.68,8.3 -131.42,-18.4 -248.8,-105.48 -310.35,-221.75 -40.19,-87.08 -55.73,-184.66 -54.03,-280.14 -0.7,-213.25 -1.9,-426.5 -2.8,-639.75z"/>
    <path class="fil0" d="M5971.2 1276.57c328.68,-1.6 657.27,-3 985.86,-4.6 0.5,81.39 0.8,162.77 1.1,244.15 -205.59,0.9 -411.18,1.7 -616.78,2.8 0.4,60.58 0.51,121.17 1.01,181.76 190.55,-0.8 381.21,-1.9 571.87,-2.6 0.2,77.58 0.8,155.26 0.9,232.84 -190.56,0.8 -381.21,1.6 -571.77,2.7 0.3,74.88 0.6,149.77 1,224.75 211.21,-0.9 422.31,-1.9 633.42,-2.8 0.4,86.08 1,172.26 1.1,258.34 -334.1,1.4 -668.2,3.1 -1002.3,4.6 -1.8,-380.61 -3.71,-761.32 -5.41,-1141.94z"/>
    <path class="fil0" d="M7939.51 1274.47c124.1,-0.8 248.19,-1.2 372.39,-1.8 -144.95,381.32 -290.3,762.53 -435.14,1143.94 -133.02,0.8 -266.04,1.2 -399.06,1.9 -151.46,-379.91 -302.92,-759.83 -454.18,-1139.74 128,-0.7 256.01,-1.4 384.02,-1.8 90.51,273.74 181.43,547.38 271.75,821.32 85.5,-274.94 173.71,-549.18 260.22,-823.82z"/>
    <path class="fil0" d="M8487.02 1274.67c133.72,-0.9 267.34,-1.4 400.96,-1.9 150.66,379.92 301.72,759.73 452.38,1139.64 -128.01,0.7 -256.01,1.3 -384.02,1.8 -19.65,-62.68 -39.29,-125.27 -59.14,-187.85 -140.14,1.6 -280.37,-0.6 -420.41,3.39 -16.74,62.89 -37.29,124.68 -55.73,186.96 -125.3,0.6 -250.5,1.2 -375.7,1.8 147.15,-381.31 294.71,-762.42 441.66,-1143.84zm70.07 706.04l0 0c86.9,-0.4 173.91,-0.7 260.92,-1.2 -44.31,-136.37 -88.71,-272.74 -133.22,-409.01 -42.8,136.67 -85.2,273.44 -127.7,410.21z"/>
   </g>
   <polygon class="fil0" points="3518.3,1076.57 3518.3,817.81 3552.72,817.81 3552.72,1076.57 "/>
   <path id="_1" class="fil0" d="M3609.19 1076.57l0 -187.56 28.62 0 0 26.62c13.77,-20.42 33.7,-30.6 59.73,-30.6 11.35,0 21.73,2.05 31.22,6.09 9.48,4.03 16.6,9.39 21.31,15.96 4.72,6.56 8.04,14.39 9.91,23.43 1.14,5.9 1.76,16.2 1.76,30.9l0 115.16 -31.9 0 0 -113.96c0,-12.95 -1.2,-22.65 -3.68,-29.03 -2.47,-6.38 -6.89,-11.5 -13.16,-15.36 -6.28,-3.79 -13.71,-5.72 -22.17,-5.72 -13.53,0 -25.18,4.28 -35.02,12.89 -9.85,8.55 -14.74,24.87 -14.74,48.85l0 102.33 -31.88 0z"/>
   <path id="_2" class="fil0" d="M3798.02 1020.55l31.52 -5.05c1.76,12.58 6.71,22.22 14.8,28.97 8.09,6.68 19.45,10.06 33.94,10.06 14.68,0 25.55,-2.96 32.68,-8.92 7.05,-5.9 10.62,-12.89 10.62,-20.9 0,-7.17 -3.2,-12.83 -9.54,-16.92 -4.47,-2.84 -15.34,-6.39 -32.61,-10.79 -23.31,-5.84 -39.44,-10.9 -48.49,-15.17 -9.01,-4.34 -15.82,-10.24 -20.48,-17.83 -4.65,-7.53 -7.01,-15.9 -7.01,-25.06 0,-8.37 1.94,-16.08 5.75,-23.19 3.86,-7.11 9.05,-13.01 15.64,-17.71 4.94,-3.61 11.71,-6.68 20.22,-9.21 8.59,-2.53 17.7,-3.8 27.49,-3.8 14.73,0 27.66,2.11 38.77,6.39 11.17,4.21 19.38,10 24.69,17.22 5.26,7.29 8.95,16.99 10.93,29.16l-31.16 4.33c-1.38,-9.75 -5.5,-17.4 -12.25,-22.89 -6.77,-5.48 -16.31,-8.19 -28.69,-8.19 -14.56,0 -25,2.41 -31.22,7.23 -6.23,4.82 -9.36,10.48 -9.36,16.93 0,4.09 1.27,7.83 3.87,11.14 2.59,3.37 6.63,6.2 12.19,8.43 3.21,1.21 12.5,3.92 28.08,8.13 22.47,5.97 38.17,10.9 47.1,14.7 8.95,3.79 15.95,9.4 21.02,16.62 5.13,7.29 7.67,16.33 7.67,27.17 0,10.54 -3.08,20.48 -9.29,29.81 -6.23,9.34 -15.16,16.57 -26.82,21.69 -11.72,5.12 -24.94,7.65 -39.68,7.65 -24.39,0 -43.05,-5.06 -55.86,-15.12 -12.8,-10.12 -20.95,-25.06 -24.52,-44.88z"/>
   <path id="_3" class="fil0" d="M4061.08 1048.2l4.34 28.07c-8.93,1.87 -16.96,2.83 -23.97,2.83 -11.53,0 -20.48,-1.81 -26.87,-5.48 -6.35,-3.68 -10.81,-8.43 -13.41,-14.4 -2.59,-5.96 -3.87,-18.49 -3.87,-37.58l0 -108.06 -23.55 0 0 -24.57 23.55 0 0 -46.38 31.89 -19.09 0 65.47 31.89 0 0 24.57 -31.89 0 0 109.87c0,9.09 0.55,14.93 1.69,17.52 1.09,2.59 2.9,4.64 5.43,6.21 2.54,1.5 6.17,2.29 10.87,2.29 3.51,0 8.16,-0.43 13.9,-1.27z"/>
   <path id="_4" class="fil0" d="M4092.54 853.95l0 -36.14 31.89 0 0 36.14 -31.89 0zm0 222.62l0 -187.56 31.89 0 0 187.56 -31.89 0z"/>
   <path id="_5" class="fil0" d="M4242.25 1048.2l4.35 28.07c-8.94,1.87 -16.97,2.83 -23.98,2.83 -11.53,0 -20.47,-1.81 -26.87,-5.48 -6.34,-3.68 -10.81,-8.43 -13.4,-14.4 -2.6,-5.96 -3.87,-18.49 -3.87,-37.58l0 -108.06 -23.55 0 0 -24.57 23.55 0 0 -46.38 31.88 -19.09 0 65.47 31.89 0 0 24.57 -31.89 0 0 109.87c0,9.09 0.55,14.93 1.7,17.52 1.09,2.59 2.89,4.64 5.43,6.21 2.54,1.5 6.17,2.29 10.87,2.29 3.51,0 8.16,-0.43 13.89,-1.27z"/>
   <path id="_6" class="fil0" d="M4396.55 1076.57l0 -27.89c-14.61,21.26 -34.42,31.87 -59.49,31.87 -11.05,0 -21.37,-2.11 -30.97,-6.33 -9.6,-4.28 -16.73,-9.58 -21.38,-15.96 -4.65,-6.45 -7.91,-14.28 -9.78,-23.55 -1.27,-6.27 -1.93,-16.14 -1.93,-29.63l0 -116.07 31.88 0 0 103.78c0,16.56 0.66,27.76 1.93,33.49 2,8.37 6.22,14.87 12.75,19.63 6.45,4.76 14.42,7.17 23.97,7.17 9.54,0 18.48,-2.41 26.81,-7.29 8.33,-4.88 14.26,-11.56 17.76,-19.94 3.44,-8.37 5.19,-20.59 5.19,-36.56l0 -100.28 31.88 0 0 187.56 -28.62 0z"/>
   <path id="_7" class="fil0" d="M4598.07 1007.91l31.16 4.33c-3.44,21.38 -12.13,38.07 -26.21,50.18 -14.07,12.1 -31.4,18.13 -51.88,18.13 -25.66,0 -46.31,-8.38 -61.89,-25.12 -15.64,-16.75 -23.43,-40.72 -23.43,-71.92 0,-20.24 3.38,-37.88 10.08,-53.06 6.7,-15.12 16.91,-26.5 30.68,-34.03 13.7,-7.59 28.62,-11.39 44.8,-11.39 20.36,0 37.09,5.12 50.02,15.42 12.98,10.3 21.31,24.94 24.93,43.85l-30.8 4.7c-2.96,-12.59 -8.15,-22.05 -15.7,-28.43 -7.49,-6.32 -16.54,-9.52 -27.17,-9.52 -16.06,0 -29.11,5.73 -39.19,17.17 -10.03,11.5 -15.04,29.57 -15.04,54.39 0,25.18 4.83,43.43 14.49,54.81 9.72,11.38 22.34,17.11 37.86,17.11 12.57,0 23.01,-3.8 31.35,-11.45 8.39,-7.59 13.7,-19.33 15.94,-35.17z"/>
   <path id="_8" class="fil0" d="M4656.4 853.95l0 -36.14 31.88 0 0 36.14 -31.88 0zm0 222.62l0 -187.56 31.88 0 0 187.56 -31.88 0z"/>
   <path id="_9" class="fil0" d="M4724.95 982.79c0,-34.63 9.65,-60.29 29.05,-76.98 16.12,-13.85 35.86,-20.78 59.11,-20.78 25.79,0 46.92,8.44 63.36,25.3 16.36,16.81 24.57,40.11 24.57,69.81 0,24.09 -3.62,43 -10.87,56.8 -7.25,13.79 -17.81,24.51 -31.7,32.16 -13.83,7.65 -28.99,11.45 -45.36,11.45 -26.33,0 -47.58,-8.38 -63.83,-25.18 -16.24,-16.81 -24.33,-41.02 -24.33,-72.58zm32.6 0.06c0,23.97 5.26,41.92 15.77,53.79 10.56,11.92 23.79,17.89 39.79,17.89 15.82,0 29,-5.97 39.56,-17.95 10.51,-11.99 15.77,-30.24 15.77,-54.75 0,-23.13 -5.32,-40.66 -15.89,-52.53 -10.57,-11.92 -23.74,-17.89 -39.44,-17.89 -16,0 -29.23,5.91 -39.79,17.77 -10.51,11.87 -15.77,29.76 -15.77,53.67zm28.99 -116.97l23.19 -49.51 42.03 0 -38.77 49.51 -26.45 0z"/>
   <path id="_10" class="fil0" d="M4938.42 1076.57l0 -187.56 28.62 0 0 26.62c13.77,-20.42 33.7,-30.6 59.73,-30.6 11.35,0 21.74,2.05 31.22,6.09 9.49,4.03 16.61,9.39 21.32,15.96 4.71,6.56 8.03,14.39 9.9,23.43 1.15,5.9 1.76,16.2 1.76,30.9l0 115.16 -31.9 0 0 -113.96c0,-12.95 -1.2,-22.65 -3.67,-29.03 -2.48,-6.38 -6.89,-11.5 -13.17,-15.36 -6.28,-3.79 -13.71,-5.72 -22.17,-5.72 -13.52,0 -25.17,4.28 -35.02,12.89 -9.85,8.55 -14.74,24.87 -14.74,48.85l0 102.33 -31.88 0z"/>
   <path id="_11" class="fil0" d="M5362 1076.57l0 -23.79c-11.9,18.49 -29.42,27.77 -52.54,27.77 -14.98,0 -28.74,-4.1 -41.25,-12.35 -12.56,-8.19 -22.29,-19.7 -29.22,-34.39 -6.89,-14.76 -10.33,-31.69 -10.33,-50.84 0,-18.67 3.14,-35.6 9.35,-50.84 6.29,-15.17 15.64,-26.86 28.15,-34.93 12.44,-8.13 26.45,-12.17 41.85,-12.17 11.35,0 21.43,2.41 30.26,7.17 8.81,4.76 16,11.02 21.55,18.67l0 -93.06 31.89 0 0 258.76 -29.71 0zm-100.74 -93.54c0,23.97 5.08,41.86 15.28,53.73 10.15,11.86 22.16,17.77 36,17.77 13.95,0 25.79,-5.67 35.56,-16.99 9.73,-11.32 14.62,-28.61 14.62,-51.86 0,-25.54 -4.95,-44.33 -14.92,-56.32 -9.9,-11.98 -22.16,-17.95 -36.71,-17.95 -14.19,0 -26.03,5.73 -35.57,17.23 -9.48,11.51 -14.26,29.63 -14.26,54.39z"/>
   <path id="_12" class="fil0" d="M5570.39 1015.86l32.98 4.33c-5.13,19.1 -14.74,33.97 -28.74,44.51 -14.01,10.54 -31.89,15.85 -53.7,15.85 -27.41,0 -49.14,-8.44 -65.22,-25.3 -16.06,-16.81 -24.09,-40.48 -24.09,-70.89 0,-31.45 8.09,-55.9 24.33,-73.25 16.26,-17.4 37.33,-26.08 63.24,-26.08 25.06,0 45.53,8.5 61.41,25.54 15.88,17.05 23.85,41.02 23.85,71.92 0,1.87 -0.06,4.7 -0.18,8.43l-140.03 0c1.2,20.54 6.99,36.32 17.5,47.22 10.45,10.9 23.55,16.39 39.19,16.39 11.67,0 21.63,-3.08 29.84,-9.22 8.27,-6.14 14.8,-15.96 19.62,-29.45zm-104.35 -50.96l104.73 0c-1.4,-15.78 -5.45,-27.59 -12.03,-35.48 -10.08,-12.22 -23.25,-18.37 -39.37,-18.37 -14.62,0 -26.88,4.88 -36.84,14.64 -9.9,9.76 -15.4,22.83 -16.49,39.21z"/>
   <polygon id="_13" class="fil0" points="5749.03,1076.57 5749.03,817.81 5936.36,817.81 5936.36,848.17 5783.45,848.17 5783.45,927.68 5926.58,927.68 5926.58,958.03 5783.45,958.03 5783.45,1046.21 5942.52,1046.21 5942.52,1076.57 "/>
   <path id="_14" class="fil0" d="M6107.39 1076.57l0 -23.79c-11.9,18.49 -29.42,27.77 -52.54,27.77 -14.98,0 -28.74,-4.1 -41.24,-12.35 -12.57,-8.19 -22.29,-19.7 -29.23,-34.39 -6.89,-14.76 -10.33,-31.69 -10.33,-50.84 0,-18.67 3.14,-35.6 9.36,-50.84 6.28,-15.17 15.64,-26.86 28.14,-34.93 12.44,-8.13 26.45,-12.17 41.85,-12.17 11.35,0 21.44,2.41 30.26,7.17 8.81,4.76 16,11.02 21.56,18.67l0 -93.06 31.88 0 0 258.76 -29.71 0zm-100.73 -93.54c0,23.97 5.07,41.86 15.28,53.73 10.14,11.86 22.16,17.77 35.99,17.77 13.95,0 25.79,-5.67 35.57,-16.99 9.72,-11.32 14.61,-28.61 14.61,-51.86 0,-25.54 -4.95,-44.33 -14.92,-56.32 -9.9,-11.98 -22.15,-17.95 -36.71,-17.95 -14.19,0 -26.03,5.73 -35.56,17.23 -9.49,11.51 -14.26,29.63 -14.26,54.39z"/>
   <path id="_15" class="fil0" d="M6310.35 1076.57l0 -27.89c-14.6,21.26 -34.42,31.87 -59.48,31.87 -11.05,0 -21.38,-2.11 -30.97,-6.33 -9.61,-4.28 -16.74,-9.58 -21.39,-15.96 -4.64,-6.45 -7.91,-14.28 -9.78,-23.55 -1.27,-6.27 -1.93,-16.14 -1.93,-29.63l0 -116.07 31.88 0 0 103.78c0,16.56 0.66,27.76 1.94,33.49 1.99,8.37 6.21,14.87 12.74,19.63 6.46,4.76 14.43,7.17 23.97,7.17 9.55,0 18.48,-2.41 26.81,-7.29 8.34,-4.88 14.26,-11.56 17.76,-19.94 3.44,-8.37 5.19,-20.59 5.19,-36.56l0 -100.28 31.89 0 0 187.56 -28.63 0z"/>
   <path id="_16" class="fil0" d="M6511.87 1007.91l31.16 4.33c-3.44,21.38 -12.13,38.07 -26.21,50.18 -14.06,12.1 -31.4,18.13 -51.87,18.13 -25.67,0 -46.31,-8.38 -61.89,-25.12 -15.64,-16.75 -23.44,-40.72 -23.44,-71.92 0,-20.24 3.38,-37.88 10.08,-53.06 6.71,-15.12 16.92,-26.5 30.68,-34.03 13.71,-7.59 28.63,-11.39 44.81,-11.39 20.35,0 37.09,5.12 50.01,15.42 12.98,10.3 21.32,24.94 24.94,43.85l-30.81 4.7c-2.95,-12.59 -8.15,-22.05 -15.7,-28.43 -7.49,-6.32 -16.54,-9.52 -27.17,-9.52 -16.06,0 -29.1,5.73 -39.19,17.17 -10.03,11.5 -15.04,29.57 -15.04,54.39 0,25.18 4.83,43.43 14.5,54.81 9.71,11.38 22.34,17.11 37.86,17.11 12.56,0 23.01,-3.8 31.34,-11.45 8.39,-7.59 13.71,-19.33 15.94,-35.17z"/>
   <path id="_17" class="fil0" d="M6693.04 1053.08c-11.83,10.06 -23.25,17.11 -34.18,21.26 -10.93,4.16 -22.65,6.21 -35.21,6.21 -20.65,0 -36.53,-5 -47.65,-15.06 -11.11,-10 -16.66,-22.83 -16.66,-38.43 0,-9.16 2.11,-17.53 6.27,-25.12 4.23,-7.59 9.73,-13.61 16.5,-18.19 6.81,-4.57 14.42,-8.07 22.95,-10.42 6.27,-1.62 15.76,-3.19 28.37,-4.76 25.73,-3.01 44.76,-6.68 56.89,-10.9 0.12,-4.33 0.18,-7.1 0.18,-8.25 0,-12.89 -3.02,-21.98 -9.05,-27.28 -8.16,-7.17 -20.3,-10.73 -36.36,-10.73 -15.04,0 -26.15,2.65 -33.28,7.9 -7.19,5.24 -12.44,14.51 -15.88,27.88l-31.16 -4.33c2.84,-13.32 7.49,-24.1 14.01,-32.29 6.52,-8.19 15.95,-14.45 28.26,-18.91 12.26,-4.4 26.57,-6.63 42.76,-6.63 16.06,0 29.17,1.87 39.26,5.67 10.02,3.79 17.44,8.49 22.15,14.21 4.72,5.72 8.03,12.95 9.97,21.68 1.02,5.42 1.57,15.18 1.57,29.22l0 42.16c0,29.45 0.67,48.06 1.99,55.95 1.27,7.89 3.93,15.42 7.79,22.65l-33.33 0c-3.21,-6.69 -5.25,-14.52 -6.16,-23.49zm-2.54 -70.47c-11.59,4.7 -28.99,8.67 -52.18,11.92 -13.16,1.87 -22.46,3.98 -27.89,6.33 -5.43,2.35 -9.61,5.78 -12.56,10.24 -2.96,4.52 -4.47,9.51 -4.47,15.06 0,8.37 3.19,15.42 9.66,21.02 6.46,5.6 15.88,8.43 28.26,8.43 12.26,0 23.2,-2.65 32.79,-8.01 9.55,-5.3 16.61,-12.59 21.08,-21.81 3.44,-7.16 5.13,-17.7 5.13,-31.62l0.18 -11.56z"/>
   <path id="_18" class="fil0" d="M6894.55 1007.91l31.17 4.33c-3.44,21.38 -12.14,38.07 -26.21,50.18 -14.07,12.1 -31.41,18.13 -51.88,18.13 -25.67,0 -46.31,-8.38 -61.89,-25.12 -15.64,-16.75 -23.43,-40.72 -23.43,-71.92 0,-20.24 3.38,-37.88 10.07,-53.06 6.71,-15.12 16.92,-26.5 30.68,-34.03 13.71,-7.59 28.63,-11.39 44.81,-11.39 20.36,0 37.09,5.12 50.01,15.42 12.99,10.3 21.32,24.94 24.94,43.85l-30.8 4.7c-2.96,-12.59 -8.15,-22.05 -15.7,-28.43 -7.49,-6.32 -16.55,-9.52 -27.17,-9.52 -16.07,0 -29.11,5.73 -39.2,17.17 -10.02,11.5 -15.04,29.57 -15.04,54.39 0,25.18 4.84,43.43 14.5,54.81 9.72,11.38 22.34,17.11 37.86,17.11 12.56,0 23.01,-3.8 31.34,-11.45 8.39,-7.59 13.71,-19.33 15.94,-35.17z"/>
   <path id="_19" class="fil0" d="M6952.89 853.95l0 -36.14 31.88 0 0 36.14 -31.88 0zm0 222.62l0 -187.56 31.88 0 0 187.56 -31.88 0z"/>
   <path id="_20" class="fil0" d="M7021.44 982.79c0,-34.63 9.65,-60.29 29.04,-76.98 16.13,-13.85 35.87,-20.78 59.12,-20.78 25.79,0 46.92,8.44 63.35,25.3 16.37,16.81 24.58,40.11 24.58,69.81 0,24.09 -3.62,43 -10.87,56.8 -7.25,13.79 -17.82,24.51 -31.7,32.16 -13.83,7.65 -28.99,11.45 -45.36,11.45 -26.33,0 -47.59,-8.38 -63.83,-25.18 -16.24,-16.81 -24.33,-41.02 -24.33,-72.58zm32.6 0.06c0,23.97 5.26,41.92 15.76,53.79 10.57,11.92 23.8,17.89 39.8,17.89 15.82,0 28.99,-5.97 39.56,-17.95 10.51,-11.99 15.76,-30.24 15.76,-54.75 0,-23.13 -5.31,-40.66 -15.88,-52.53 -10.58,-11.92 -23.74,-17.89 -39.44,-17.89 -16,0 -29.23,5.91 -39.8,17.77 -10.5,11.87 -15.76,29.76 -15.76,53.67zm28.99 -116.97l23.19 -49.51 42.03 0 -38.77 49.51 -26.45 0z"/>
   <path id="_21" class="fil0" d="M7234.91 1076.57l0 -187.56 28.62 0 0 26.62c13.77,-20.42 33.7,-30.6 59.73,-30.6 11.35,0 21.73,2.05 31.22,6.09 9.48,4.03 16.6,9.39 21.32,15.96 4.71,6.56 8.03,14.39 9.9,23.43 1.14,5.9 1.76,16.2 1.76,30.9l0 115.16 -31.9 0 0 -113.96c0,-12.95 -1.2,-22.65 -3.68,-29.03 -2.47,-6.38 -6.89,-11.5 -13.16,-15.36 -6.28,-3.79 -13.71,-5.72 -22.17,-5.72 -13.53,0 -25.18,4.28 -35.02,12.89 -9.85,8.55 -14.74,24.87 -14.74,48.85l0 102.33 -31.88 0z"/>
   <path id="_22" class="fil0" d="M7529.85 993.45l32.25 -2.89c1.51,13.01 5.08,23.67 10.69,32.04 5.62,8.31 14.31,15.06 26.09,20.24 11.77,5.12 25.06,7.71 39.79,7.71 13.11,0 24.65,-1.93 34.66,-5.84 10.03,-3.92 17.46,-9.28 22.35,-16.08 4.9,-6.81 7.37,-14.22 7.37,-22.17 0,-8.07 -2.35,-15.12 -7.07,-21.2 -4.71,-6.02 -12.5,-11.08 -23.37,-15.24 -6.95,-2.65 -22.34,-6.87 -46.2,-12.59 -23.85,-5.72 -40.51,-11.08 -50.06,-16.14 -12.38,-6.51 -21.56,-14.58 -27.59,-24.15 -6.11,-9.58 -9.13,-20.36 -9.13,-32.23 0,-13.13 3.75,-25.35 11.17,-36.68 7.43,-11.38 18.24,-20 32.56,-25.9 14.25,-5.9 30.13,-8.85 47.58,-8.85 19.21,0 36.18,3.07 50.86,9.27 14.67,6.15 25.97,15.24 33.88,27.29 7.91,11.98 12.13,25.6 12.74,40.78l-32.98 2.53c-1.75,-16.33 -7.73,-28.68 -17.93,-36.99 -10.21,-8.37 -25.31,-12.53 -45.23,-12.53 -20.78,0 -35.94,3.8 -45.42,11.39 -9.48,7.59 -14.25,16.74 -14.25,27.46 0,9.28 3.38,16.93 10.09,22.95 6.63,5.97 23.85,12.17 51.75,18.43 27.9,6.33 47.05,11.81 57.43,16.51 15.03,6.92 26.21,15.66 33.39,26.32 7.19,10.6 10.75,22.83 10.75,36.68 0,13.79 -3.92,26.68 -11.83,38.85 -7.91,12.17 -19.2,21.62 -34,28.37 -14.8,6.74 -31.4,10.12 -49.94,10.12 -23.43,0 -43.06,-3.44 -58.89,-10.24 -15.88,-6.81 -28.26,-17.05 -37.25,-30.78 -9.07,-13.67 -13.77,-29.15 -14.26,-46.44z"/>
   <path id="_23" class="fil0" d="M7901.61 1076.57l0 -27.89c-14.61,21.26 -34.42,31.87 -59.48,31.87 -11.05,0 -21.38,-2.11 -30.97,-6.33 -9.61,-4.28 -16.74,-9.58 -21.39,-15.96 -4.64,-6.45 -7.91,-14.28 -9.78,-23.55 -1.27,-6.27 -1.93,-16.14 -1.93,-29.63l0 -116.07 31.88 0 0 103.78c0,16.56 0.66,27.76 1.94,33.49 1.99,8.37 6.21,14.87 12.74,19.63 6.46,4.76 14.43,7.17 23.97,7.17 9.55,0 18.48,-2.41 26.81,-7.29 8.34,-4.88 14.26,-11.56 17.76,-19.94 3.44,-8.37 5.19,-20.59 5.19,-36.56l0 -100.28 31.89 0 0 187.56 -28.63 0z"/>
   <path id="_24" class="fil0" d="M7980.3 1148.49l0 -259.48 28.99 0 0 24.63c6.82,-9.51 14.55,-16.68 23.19,-21.44 8.57,-4.76 19.02,-7.17 31.28,-7.17 16.06,0 30.2,4.1 42.45,12.35 12.26,8.19 21.51,19.82 27.78,34.75 6.23,15 9.37,31.39 9.37,49.27 0,19.1 -3.45,36.32 -10.33,51.68 -6.89,15.3 -16.92,27.05 -30.08,35.24 -13.1,8.13 -26.93,12.23 -41.43,12.23 -10.63,0 -20.16,-2.23 -28.56,-6.69 -8.46,-4.46 -15.34,-10.06 -20.78,-16.87l0 91.5 -31.88 0zm28.99 -164.56c0,24.04 4.89,41.8 14.61,53.31 9.79,11.5 21.62,17.29 35.52,17.29 14.12,0 26.21,-5.97 36.22,-17.89 10.09,-11.93 15.1,-30.36 15.1,-55.36 0,-23.85 -4.89,-41.68 -14.73,-53.54 -9.84,-11.87 -21.56,-17.77 -35.21,-17.77 -13.53,0 -25.49,6.32 -35.87,18.91 -10.45,12.65 -15.64,30.96 -15.64,55.05z"/>
   <path id="_25" class="fil0" d="M8310.08 1015.86l32.98 4.33c-5.13,19.1 -14.74,33.97 -28.75,44.51 -14,10.54 -31.88,15.85 -53.69,15.85 -27.41,0 -49.15,-8.44 -65.22,-25.3 -16.06,-16.81 -24.09,-40.48 -24.09,-70.89 0,-31.45 8.09,-55.9 24.33,-73.25 16.26,-17.4 37.33,-26.08 63.24,-26.08 25.05,0 45.53,8.5 61.41,25.54 15.88,17.05 23.85,41.02 23.85,71.92 0,1.87 -0.06,4.7 -0.18,8.43l-140.03 0c1.2,20.54 6.99,36.32 17.5,47.22 10.45,10.9 23.55,16.39 39.19,16.39 11.66,0 21.63,-3.08 29.84,-9.22 8.27,-6.14 14.8,-15.96 19.62,-29.45zm-104.35 -50.96l104.72 0c-1.39,-15.78 -5.44,-27.59 -12.02,-35.48 -10.08,-12.22 -23.25,-18.37 -39.37,-18.37 -14.62,0 -26.88,4.88 -36.84,14.64 -9.9,9.76 -15.4,22.83 -16.49,39.21z"/>
   <path id="_26" class="fil0" d="M8382.97 1076.57l0 -187.56 28.63 0 0 28.73c7.31,-13.31 14.07,-22.11 20.29,-26.32 6.22,-4.28 13.05,-6.39 20.48,-6.39 10.74,0 21.67,3.38 32.78,10.06l-11.35 29.33c-7.73,-4.33 -15.46,-6.5 -23.19,-6.5 -6.95,0 -13.16,2.11 -18.66,6.26 -5.49,4.16 -9.42,9.94 -11.78,17.35 -3.56,11.26 -5.31,23.61 -5.31,37.04l0 98 -31.89 0z"/>
   <path id="_27" class="fil0" d="M8503.99 853.95l0 -36.14 31.88 0 0 36.14 -31.88 0zm0 222.62l0 -187.56 31.88 0 0 187.56 -31.88 0z"/>
   <path id="_28" class="fil0" d="M8572.54 982.79c0,-34.63 9.66,-60.29 29.05,-76.98 16.12,-13.85 35.86,-20.78 59.11,-20.78 25.79,0 46.92,8.44 63.36,25.3 16.36,16.81 24.57,40.11 24.57,69.81 0,24.09 -3.62,43 -10.87,56.8 -7.25,13.79 -17.81,24.51 -31.7,32.16 -13.83,7.65 -28.99,11.45 -45.36,11.45 -26.33,0 -47.58,-8.38 -63.83,-25.18 -16.24,-16.81 -24.33,-41.02 -24.33,-72.58zm32.61 0.06c0,23.97 5.25,41.92 15.76,53.79 10.57,11.92 23.79,17.89 39.79,17.89 15.82,0 29,-5.97 39.57,-17.95 10.5,-11.99 15.76,-30.24 15.76,-54.75 0,-23.13 -5.32,-40.66 -15.88,-52.53 -10.58,-11.92 -23.75,-17.89 -39.45,-17.89 -16,0 -29.22,5.91 -39.79,17.77 -10.51,11.87 -15.76,29.76 -15.76,53.67z"/>
   <path id="_29" class="fil0" d="M8785.65 1076.57l0 -187.56 28.62 0 0 28.73c7.31,-13.31 14.07,-22.11 20.3,-26.32 6.21,-4.28 13.04,-6.39 20.47,-6.39 10.75,0 21.68,3.38 32.79,10.06l-11.35 29.33c-7.73,-4.33 -15.46,-6.5 -23.19,-6.5 -6.95,0 -13.17,2.11 -18.66,6.26 -5.5,4.16 -9.43,9.94 -11.78,17.35 -3.56,11.26 -5.32,23.61 -5.32,37.04l0 98 -31.88 0z"/>
   <path class="fil0" d="M3695.14 2608.49l35.97 0 0 156.17c0,27.19 -3.09,48.79 -9.21,64.77 -6.19,15.93 -17.29,28.96 -33.32,38.97 -16.09,10.01 -37.12,15.04 -63.25,15.04 -25.3,0 -46.07,-4.34 -62.16,-13.09 -16.15,-8.75 -27.64,-21.34 -34.52,-37.89 -6.88,-16.56 -10.35,-39.16 -10.35,-67.8l0 -156.17 35.98 0 0 156.11c0,23.48 2.2,40.85 6.55,51.93 4.37,11.14 11.81,19.77 22.47,25.75 10.61,6.04 23.61,9.06 38.95,9.06 26.25,0 44.99,-5.98 56.16,-17.88 11.17,-11.96 16.73,-34.87 16.73,-68.86l0 -156.11z"/>
   <path id="_1_0" class="fil0" d="M3786.85 2878.91l0 -196.02 29.9 0 0 27.83c14.4,-21.34 35.23,-31.98 62.43,-31.98 11.86,0 22.72,2.14 32.62,6.36 9.91,4.21 17.36,9.82 22.28,16.68 4.93,6.86 8.39,15.04 10.35,24.48 1.2,6.17 1.83,16.94 1.83,32.3l0 120.35 -33.32 0 0 -119.1c0,-13.53 -1.26,-23.66 -3.85,-30.34 -2.59,-6.67 -7.19,-12.02 -13.76,-16.05 -6.56,-3.96 -14.33,-5.98 -23.16,-5.98 -14.14,0 -26.32,4.47 -36.61,13.47 -10.28,8.94 -15.4,26 -15.4,51.05l0 106.95 -33.31 0z"/>
   <path id="_2_1" class="fil0" d="M3997.45 2646.26l0 -37.77 33.32 0 0 37.77 -33.32 0zm0 232.65l0 -196.02 33.32 0 0 196.02 -33.32 0z"/>
   <path id="_3_2" class="fil0" d="M4208.43 2878.91l0 -24.86c-12.43,19.32 -30.74,29.01 -54.9,29.01 -15.65,0 -30.05,-4.28 -43.12,-12.9 -13.12,-8.56 -23.28,-20.58 -30.54,-35.94 -7.19,-15.42 -10.79,-33.11 -10.79,-53.13 0,-19.51 3.28,-37.2 9.78,-53.13 6.57,-15.86 16.34,-28.07 29.41,-36.51 13,-8.49 27.64,-12.71 43.74,-12.71 11.86,0 22.4,2.52 31.62,7.49 9.21,4.97 16.72,11.52 22.53,19.51l0 -97.25 33.32 0 0 270.42 -31.05 0zm-105.27 -97.76c0,25.06 5.3,43.75 15.97,56.15 10.6,12.4 23.16,18.57 37.62,18.57 14.57,0 26.94,-5.92 37.16,-17.75 10.17,-11.83 15.28,-29.9 15.28,-54.2 0,-26.69 -5.18,-46.33 -15.59,-58.85 -10.35,-12.53 -23.16,-18.76 -38.37,-18.76 -14.84,0 -27.2,5.98 -37.18,18 -9.9,12.03 -14.89,30.97 -14.89,56.84z"/>
   <path id="_4_3" class="fil0" d="M4420.55 2854.36c-12.38,10.51 -24.3,17.88 -35.73,22.22 -11.42,4.34 -23.66,6.48 -36.79,6.48 -21.58,0 -38.18,-5.22 -49.79,-15.73 -11.61,-10.45 -17.42,-23.86 -17.42,-40.16 0,-9.57 2.21,-18.32 6.56,-26.25 4.42,-7.93 10.16,-14.23 17.23,-19.01 7.13,-4.78 15.08,-8.44 23.99,-10.89 6.55,-1.7 16.47,-3.34 29.65,-4.97 26.89,-3.15 46.78,-6.99 59.46,-11.4 0.12,-4.53 0.19,-7.42 0.19,-8.62 0,-13.47 -3.16,-22.98 -9.47,-28.52 -8.52,-7.49 -21.21,-11.2 -37.99,-11.2 -15.72,0 -27.34,2.77 -34.78,8.25 -7.51,5.47 -13,15.17 -16.6,29.14l-32.56 -4.53c2.96,-13.91 7.83,-25.18 14.64,-33.74 6.81,-8.56 16.66,-15.11 29.53,-19.77 12.82,-4.59 27.77,-6.92 44.69,-6.92 16.78,0 30.48,1.95 41.03,5.92 10.47,3.96 18.23,8.87 23.16,14.85 4.92,5.98 8.39,13.54 10.4,22.66 1.08,5.67 1.65,15.87 1.65,30.53l0 44.06c0,30.79 0.69,50.24 2.08,58.48 1.33,8.25 4.1,16.12 8.15,23.67l-34.85 0c-3.34,-6.99 -5.49,-15.17 -6.43,-24.55zm-2.65 -73.65c-12.12,4.91 -30.3,9.07 -54.53,12.47 -13.76,1.95 -23.48,4.15 -29.16,6.61 -5.68,2.45 -10.04,6.04 -13.12,10.7 -3.1,4.72 -4.68,9.94 -4.68,15.73 0,8.75 3.34,16.12 10.1,21.97 6.76,5.86 16.59,8.81 29.54,8.81 12.81,0 24.23,-2.77 34.27,-8.37 9.96,-5.54 17.35,-13.15 22.03,-22.78 3.59,-7.49 5.36,-18.51 5.36,-33.05l0.19 -12.09z"/>
   <path id="_5_4" class="fil0" d="M4629.63 2878.91l0 -24.86c-12.43,19.32 -30.74,29.01 -54.9,29.01 -15.65,0 -30.05,-4.28 -43.11,-12.9 -13.13,-8.56 -23.28,-20.58 -30.54,-35.94 -7.2,-15.42 -10.8,-33.11 -10.8,-53.13 0,-19.51 3.29,-37.2 9.79,-53.13 6.56,-15.86 16.34,-28.07 29.4,-36.51 13.01,-8.49 27.64,-12.71 43.75,-12.71 11.86,0 22.4,2.52 31.61,7.49 9.21,4.97 16.72,11.52 22.53,19.51l0 -97.25 33.33 0 0 270.42 -31.06 0zm-105.27 -97.76c0,25.06 5.3,43.75 15.97,56.15 10.61,12.4 23.16,18.57 37.62,18.57 14.58,0 26.94,-5.92 37.17,-17.75 10.16,-11.83 15.28,-29.9 15.28,-54.2 0,-26.69 -5.19,-46.33 -15.59,-58.85 -10.36,-12.53 -23.16,-18.76 -38.37,-18.76 -14.84,0 -27.21,5.98 -37.18,18 -9.91,12.03 -14.9,30.97 -14.9,56.84z"/>
   <path id="_6_5" class="fil0" d="M5015.88 2784.05l35.97 9.06c-7.51,29.4 -21.01,51.75 -40.52,67.17 -19.5,15.42 -43.36,23.16 -71.57,23.16 -29.16,0 -52.88,-5.91 -71.19,-17.81 -18.3,-11.84 -32.18,-29.02 -41.72,-51.49 -9.52,-22.54 -14.33,-46.65 -14.33,-72.45 0,-28.14 5.37,-52.69 16.17,-73.65 10.78,-20.96 26.12,-36.89 46.01,-47.78 19.87,-10.89 41.78,-16.3 65.63,-16.3 27.14,0 49.92,6.86 68.35,20.65 18.5,13.78 31.37,33.11 38.63,58.03l-35.22 8.31c-6.25,-19.64 -15.4,-33.99 -27.32,-42.93 -11.94,-9 -26.96,-13.47 -45.07,-13.47 -20.77,0 -38.18,4.97 -52.13,14.92 -13.95,9.94 -23.79,23.35 -29.42,40.1 -5.67,16.8 -8.51,34.11 -8.51,51.93 0,22.97 3.34,43.05 10.04,60.17 6.69,17.19 17.09,29.97 31.23,38.46 14.14,8.5 29.42,12.72 45.89,12.72 20.06,0 36.98,-5.79 50.86,-17.31 13.89,-11.58 23.29,-28.7 28.22,-51.49z"/>
   <path id="_7_6" class="fil0" d="M5226.11 2815.46l34.45 4.53c-5.37,19.96 -15.39,35.5 -30.04,46.52 -14.64,11.02 -33.32,16.55 -56.11,16.55 -28.65,0 -51.37,-8.81 -68.16,-26.43 -16.78,-17.57 -25.18,-42.3 -25.18,-74.09 0,-32.86 8.46,-58.42 25.43,-76.54 16.98,-18.2 39.01,-27.26 66.09,-27.26 26.19,0 47.58,8.88 64.18,26.69 16.6,17.81 24.93,42.87 24.93,75.16 0,1.95 -0.07,4.91 -0.19,8.81l-146.35 0c1.25,21.46 7.32,37.96 18.29,49.35 10.92,11.39 24.62,17.12 40.96,17.12 12.18,0 22.6,-3.21 31.18,-9.63 8.65,-6.42 15.46,-16.68 20.52,-30.78zm-109.07 -53.25l109.44 0c-1.45,-16.5 -5.68,-28.83 -12.55,-37.08 -10.55,-12.78 -24.31,-19.2 -41.15,-19.2 -15.28,0 -28.1,5.1 -38.5,15.3 -10.36,10.2 -16.1,23.86 -17.24,40.98z"/>
   <path id="_8_7" class="fil0" d="M5302.66 2878.91l0 -196.02 29.91 0 0 27.83c14.39,-21.34 35.22,-31.98 62.42,-31.98 11.86,0 22.72,2.14 32.63,6.36 9.9,4.21 17.35,9.82 22.27,16.68 4.93,6.86 8.4,15.04 10.35,24.48 1.2,6.17 1.84,16.94 1.84,32.3l0 120.35 -33.33 0 0 -119.1c0,-13.53 -1.25,-23.66 -3.85,-30.34 -2.59,-6.67 -7.19,-12.02 -13.76,-16.05 -6.55,-3.96 -14.32,-5.98 -23.16,-5.98 -14.14,0 -26.32,4.47 -36.6,13.47 -10.29,8.94 -15.4,26 -15.4,51.05l0 106.95 -33.32 0z"/>
   <path id="_9_8" class="fil0" d="M5585.58 2849.26l4.55 29.34c-9.34,1.95 -17.73,2.95 -25.05,2.95 -12.07,0 -21.4,-1.88 -28.1,-5.72 -6.62,-3.84 -11.29,-8.82 -14,-15.05 -2.72,-6.23 -4.04,-19.32 -4.04,-39.28l0 -112.92 -24.62 0 0 -25.69 24.62 0 0 -48.46 33.32 -19.96 0 68.42 33.32 0 0 25.69 -33.32 0 0 114.81c0,9.51 0.56,15.61 1.77,18.32 1.13,2.71 3.02,4.85 5.68,6.48 2.65,1.58 6.44,2.39 11.36,2.39 3.66,0 8.51,-0.44 14.51,-1.32z"/>
   <path id="_10_9" class="fil0" d="M5618.08 2878.91l0 -196.02 29.92 0 0 30.03c7.63,-13.91 14.7,-23.1 21.21,-27.51 6.5,-4.47 13.62,-6.67 21.38,-6.67 11.24,0 22.66,3.52 34.27,10.51l-11.86 30.66c-8.08,-4.54 -16.15,-6.8 -24.23,-6.8 -7.26,0 -13.76,2.2 -19.5,6.54 -5.75,4.35 -9.85,10.39 -12.31,18.13 -3.72,11.77 -5.55,24.68 -5.55,38.72l0 102.41 -33.33 0z"/>
   <path id="_11_10" class="fil0" d="M5872.93 2854.36c-12.37,10.51 -24.29,17.88 -35.72,22.22 -11.42,4.34 -23.66,6.48 -36.8,6.48 -21.57,0 -38.18,-5.22 -49.79,-15.73 -11.61,-10.45 -17.41,-23.86 -17.41,-40.16 0,-9.57 2.2,-18.32 6.55,-26.25 4.43,-7.93 10.17,-14.23 17.24,-19.01 7.13,-4.78 15.08,-8.44 23.98,-10.89 6.56,-1.7 16.47,-3.34 29.66,-4.97 26.89,-3.15 46.77,-6.99 59.46,-11.4 0.12,-4.53 0.19,-7.42 0.19,-8.62 0,-13.47 -3.16,-22.98 -9.48,-28.52 -8.51,-7.49 -21.2,-11.2 -37.99,-11.2 -15.71,0 -27.33,2.77 -34.77,8.25 -7.51,5.47 -13,15.17 -16.6,29.14l-32.57 -4.53c2.97,-13.91 7.83,-25.18 14.65,-33.74 6.81,-8.56 16.65,-15.11 29.53,-19.77 12.81,-4.59 27.77,-6.92 44.68,-6.92 16.79,0 30.48,1.95 41.03,5.92 10.48,3.96 18.24,8.87 23.16,14.85 4.93,5.98 8.39,13.54 10.41,22.66 1.07,5.67 1.64,15.87 1.64,30.53l0 44.06c0,30.79 0.7,50.24 2.09,58.48 1.32,8.25 4.1,16.12 8.14,23.67l-34.84 0c-3.35,-6.99 -5.49,-15.17 -6.44,-24.55zm-2.64 -73.65c-12.13,4.91 -30.3,9.07 -54.54,12.47 -13.75,1.95 -23.48,4.15 -29.15,6.61 -5.69,2.45 -10.04,6.04 -13.13,10.7 -3.1,4.72 -4.67,9.94 -4.67,15.73 0,8.75 3.34,16.12 10.1,21.97 6.75,5.86 16.59,8.81 29.53,8.81 12.82,0 24.24,-2.77 34.27,-8.37 9.97,-5.54 17.36,-13.15 22.03,-22.78 3.6,-7.49 5.37,-18.51 5.37,-33.05l0.19 -12.09z"/>
   <polygon id="_12_11" class="fil0" points="5954.41,2878.91 5954.41,2608.49 5987.73,2608.49 5987.73,2878.91 "/>
   <path id="_13_12" class="fil0" d="M6271.36 2878.91l0 -24.86c-12.44,19.32 -30.74,29.01 -54.91,29.01 -15.65,0 -30.05,-4.28 -43.11,-12.9 -13.12,-8.56 -23.28,-20.58 -30.54,-35.94 -7.2,-15.42 -10.8,-33.11 -10.8,-53.13 0,-19.51 3.29,-37.2 9.79,-53.13 6.56,-15.86 16.34,-28.07 29.4,-36.51 13.01,-8.49 27.65,-12.71 43.75,-12.71 11.86,0 22.4,2.52 31.61,7.49 9.22,4.97 16.73,11.52 22.53,19.51l0 -97.25 33.33 0 0 270.42 -31.05 0zm-105.28 -97.76c0,25.06 5.3,43.75 15.97,56.15 10.61,12.4 23.16,18.57 37.62,18.57 14.58,0 26.94,-5.92 37.17,-17.75 10.17,-11.83 15.28,-29.9 15.28,-54.2 0,-26.69 -5.19,-46.33 -15.59,-58.85 -10.36,-12.53 -23.16,-18.76 -38.37,-18.76 -14.84,0 -27.2,5.98 -37.18,18 -9.91,12.03 -14.9,30.97 -14.9,56.84z"/>
   <path id="_14_13" class="fil0" d="M6489.16 2815.46l34.45 4.53c-5.37,19.96 -15.39,35.5 -30.04,46.52 -14.64,11.02 -33.32,16.55 -56.11,16.55 -28.65,0 -51.37,-8.81 -68.16,-26.43 -16.78,-17.57 -25.18,-42.3 -25.18,-74.09 0,-32.86 8.46,-58.42 25.43,-76.54 16.98,-18.2 39.01,-27.26 66.09,-27.26 26.19,0 47.58,8.88 64.18,26.69 16.6,17.81 24.93,42.87 24.93,75.16 0,1.95 -0.07,4.91 -0.19,8.81l-146.35 0c1.25,21.46 7.32,37.96 18.29,49.35 10.92,11.39 24.62,17.12 40.96,17.12 12.18,0 22.6,-3.21 31.18,-9.63 8.65,-6.42 15.46,-16.68 20.52,-30.78zm-109.07 -53.25l109.44 0c-1.45,-16.5 -5.68,-28.83 -12.55,-37.08 -10.55,-12.78 -24.31,-19.2 -41.15,-19.2 -15.28,0 -28.1,5.1 -38.5,15.3 -10.36,10.2 -16.1,23.86 -17.24,40.98z"/>
   <polygon id="_15_14" class="fil0" points="6564.95,2878.91 6564.95,2608.49 6598.27,2608.49 6598.27,2878.91 "/>
   <path id="_16_15" class="fil0" d="M6836.46 2878.91l-104.77 -270.42 38.87 0 70.44 196.52c5.61,15.74 10.42,30.47 14.2,44.25 4.17,-14.79 9.02,-29.52 14.57,-44.25l73.1 -196.52 36.6 0 -105.72 270.42 -37.29 0z"/>
   <path id="_17_16" class="fil0" d="M7107.9 2854.36c-12.37,10.51 -24.3,17.88 -35.73,22.22 -11.42,4.34 -23.66,6.48 -36.79,6.48 -21.58,0 -38.18,-5.22 -49.79,-15.73 -11.61,-10.45 -17.42,-23.86 -17.42,-40.16 0,-9.57 2.21,-18.32 6.56,-26.25 4.42,-7.93 10.17,-14.23 17.23,-19.01 7.13,-4.78 15.08,-8.44 23.99,-10.89 6.55,-1.7 16.47,-3.34 29.66,-4.97 26.89,-3.15 46.77,-6.99 59.45,-11.4 0.12,-4.53 0.19,-7.42 0.19,-8.62 0,-13.47 -3.16,-22.98 -9.47,-28.52 -8.52,-7.49 -21.21,-11.2 -37.99,-11.2 -15.71,0 -27.33,2.77 -34.77,8.25 -7.51,5.47 -13.01,15.17 -16.61,29.14l-32.56 -4.53c2.97,-13.91 7.83,-25.18 14.65,-33.74 6.8,-8.56 16.65,-15.11 29.52,-19.77 12.82,-4.59 27.78,-6.92 44.69,-6.92 16.78,0 30.48,1.95 41.03,5.92 10.48,3.96 18.24,8.87 23.16,14.85 4.92,5.98 8.39,13.54 10.41,22.66 1.07,5.67 1.64,15.87 1.64,30.53l0 44.06c0,30.79 0.69,50.24 2.09,58.48 1.32,8.25 4.1,16.12 8.14,23.67l-34.84 0c-3.35,-6.99 -5.5,-15.17 -6.44,-24.55zm-2.65 -73.65c-12.12,4.91 -30.3,9.07 -54.53,12.47 -13.76,1.95 -23.48,4.15 -29.16,6.61 -5.68,2.45 -10.03,6.04 -13.12,10.7 -3.1,4.72 -4.67,9.94 -4.67,15.73 0,8.75 3.33,16.12 10.09,21.97 6.76,5.86 16.6,8.81 29.54,8.81 12.81,0 24.23,-2.77 34.27,-8.37 9.97,-5.54 17.35,-13.15 22.03,-22.78 3.6,-7.49 5.36,-18.51 5.36,-33.05l0.19 -12.09z"/>
   <polygon id="_18_17" class="fil0" points="7189.37,2878.91 7189.37,2608.49 7222.7,2608.49 7222.7,2878.91 "/>
   <polygon id="_19_18" class="fil0" points="7273.5,2878.91 7273.5,2608.49 7306.83,2608.49 7306.83,2878.91 "/>
   <path id="_20_19" class="fil0" d="M7492.45 2815.46l34.45 4.53c-5.37,19.96 -15.39,35.5 -30.04,46.52 -14.64,11.02 -33.32,16.55 -56.11,16.55 -28.65,0 -51.37,-8.81 -68.16,-26.43 -16.78,-17.57 -25.18,-42.3 -25.18,-74.09 0,-32.86 8.46,-58.42 25.43,-76.54 16.98,-18.2 39,-27.26 66.09,-27.26 26.18,0 47.58,8.88 64.17,26.69 16.61,17.81 24.94,42.87 24.94,75.16 0,1.95 -0.07,4.91 -0.19,8.81l-146.35 0c1.25,21.46 7.31,37.96 18.29,49.35 10.92,11.39 24.62,17.12 40.96,17.12 12.18,0 22.6,-3.21 31.18,-9.63 8.64,-6.42 15.46,-16.68 20.52,-30.78zm-109.07 -53.25l109.44 0c-1.45,-16.5 -5.68,-28.83 -12.56,-37.08 -10.54,-12.78 -24.3,-19.2 -41.14,-19.2 -15.28,0 -28.1,5.1 -38.5,15.3 -10.36,10.2 -16.1,23.86 -17.24,40.98z"/>
   <path id="_21_20" class="fil0" d="M7801.05 2878.91l0 -24.86c-12.43,19.32 -30.74,29.01 -54.9,29.01 -15.65,0 -30.05,-4.28 -43.11,-12.9 -13.13,-8.56 -23.28,-20.58 -30.54,-35.94 -7.2,-15.42 -10.8,-33.11 -10.8,-53.13 0,-19.51 3.29,-37.2 9.79,-53.13 6.56,-15.86 16.34,-28.07 29.4,-36.51 13.01,-8.49 27.64,-12.71 43.75,-12.71 11.86,0 22.4,2.52 31.61,7.49 9.21,4.97 16.72,11.52 22.53,19.51l0 -97.25 33.33 0 0 270.42 -31.06 0zm-105.27 -97.76c0,25.06 5.3,43.75 15.97,56.15 10.61,12.4 23.16,18.57 37.62,18.57 14.58,0 26.94,-5.92 37.17,-17.75 10.16,-11.83 15.28,-29.9 15.28,-54.2 0,-26.69 -5.19,-46.33 -15.59,-58.85 -10.36,-12.53 -23.16,-18.76 -38.37,-18.76 -14.84,0 -27.21,5.98 -37.18,18 -9.91,12.03 -14.9,30.97 -14.9,56.84z"/>
   <path id="_22_21" class="fil0" d="M8018.86 2815.46l34.45 4.53c-5.37,19.96 -15.39,35.5 -30.04,46.52 -14.64,11.02 -33.32,16.55 -56.11,16.55 -28.66,0 -51.37,-8.81 -68.16,-26.43 -16.78,-17.57 -25.18,-42.3 -25.18,-74.09 0,-32.86 8.46,-58.42 25.43,-76.54 16.98,-18.2 39,-27.26 66.09,-27.26 26.18,0 47.58,8.88 64.17,26.69 16.61,17.81 24.94,42.87 24.94,75.16 0,1.95 -0.07,4.91 -0.19,8.81l-146.36 0c1.26,21.46 7.32,37.96 18.3,49.35 10.92,11.39 24.62,17.12 40.96,17.12 12.18,0 22.6,-3.21 31.18,-9.63 8.64,-6.42 15.46,-16.68 20.52,-30.78zm-109.07 -53.25l109.44 0c-1.45,-16.5 -5.68,-28.83 -12.56,-37.08 -10.54,-12.78 -24.3,-19.2 -41.14,-19.2 -15.28,0 -28.1,5.1 -38.51,15.3 -10.35,10.2 -16.09,23.86 -17.23,40.98z"/>
   <polygon id="_23_22" class="fil0" points="8094.64,2878.91 8094.64,2608.49 8127.97,2608.49 8127.97,2878.91 "/>
   <path id="_24_23" class="fil0" d="M8482.03 2784.05l35.97 9.06c-7.51,29.4 -21.01,51.75 -40.51,67.17 -19.5,15.42 -43.37,23.16 -71.58,23.16 -29.16,0 -52.88,-5.91 -71.19,-17.81 -18.29,-11.84 -32.18,-29.02 -41.72,-51.49 -9.52,-22.54 -14.32,-46.65 -14.32,-72.45 0,-28.14 5.36,-52.69 16.16,-73.65 10.79,-20.96 26.13,-36.89 46.01,-47.78 19.87,-10.89 41.78,-16.3 65.63,-16.3 27.14,0 49.92,6.86 68.35,20.65 18.5,13.78 31.37,33.11 38.63,58.03l-35.22 8.31c-6.25,-19.64 -15.4,-33.99 -27.32,-42.93 -11.93,-9 -26.95,-13.47 -45.07,-13.47 -20.76,0 -38.18,4.97 -52.13,14.92 -13.94,9.94 -23.79,23.35 -29.41,40.1 -5.68,16.8 -8.52,34.11 -8.52,51.93 0,22.97 3.34,43.05 10.04,60.17 6.69,17.19 17.09,29.97 31.23,38.46 14.14,8.5 29.42,12.72 45.89,12.72 20.06,0 36.98,-5.79 50.87,-17.31 13.88,-11.58 23.29,-28.7 28.21,-51.49z"/>
   <path id="_25_24" class="fil0" d="M8686.58 2854.36c-12.38,10.51 -24.3,17.88 -35.73,22.22 -11.42,4.34 -23.66,6.48 -36.8,6.48 -21.57,0 -38.18,-5.22 -49.79,-15.73 -11.61,-10.45 -17.41,-23.86 -17.41,-40.16 0,-9.57 2.2,-18.32 6.56,-26.25 4.42,-7.93 10.16,-14.23 17.23,-19.01 7.13,-4.78 15.08,-8.44 23.98,-10.89 6.56,-1.7 16.48,-3.34 29.66,-4.97 26.89,-3.15 46.77,-6.99 59.46,-11.4 0.12,-4.53 0.19,-7.42 0.19,-8.62 0,-13.47 -3.16,-22.98 -9.48,-28.52 -8.51,-7.49 -21.2,-11.2 -37.99,-11.2 -15.71,0 -27.33,2.77 -34.77,8.25 -7.51,5.47 -13,15.17 -16.6,29.14l-32.57 -4.53c2.97,-13.91 7.83,-25.18 14.65,-33.74 6.81,-8.56 16.66,-15.11 29.53,-19.77 12.81,-4.59 27.77,-6.92 44.69,-6.92 16.78,0 30.48,1.95 41.02,5.92 10.48,3.96 18.24,8.87 23.16,14.85 4.93,5.98 8.4,13.54 10.41,22.66 1.07,5.67 1.65,15.87 1.65,30.53l0 44.06c0,30.79 0.69,50.24 2.08,58.48 1.33,8.25 4.1,16.12 8.14,23.67l-34.84 0c-3.35,-6.99 -5.49,-15.17 -6.43,-24.55zm-2.65 -73.65c-12.12,4.91 -30.3,9.07 -54.53,12.47 -13.76,1.95 -23.49,4.15 -29.16,6.61 -5.69,2.45 -10.04,6.04 -13.13,10.7 -3.09,4.72 -4.67,9.94 -4.67,15.73 0,8.75 3.34,16.12 10.1,21.97 6.76,5.86 16.59,8.81 29.54,8.81 12.81,0 24.23,-2.77 34.27,-8.37 9.96,-5.54 17.35,-13.15 22.02,-22.78 3.6,-7.49 5.37,-18.51 5.37,-33.05l0.19 -12.09z"/>
   <path id="_26_25" class="fil0" d="M8897.18 2878.91l0 -29.14c-15.27,22.22 -35.98,33.29 -62.17,33.29 -11.55,0 -22.34,-2.2 -32.37,-6.6 -10.04,-4.47 -17.49,-10.01 -22.35,-16.69 -4.85,-6.73 -8.26,-14.91 -10.22,-24.61 -1.33,-6.54 -2.02,-16.87 -2.02,-30.97l0 -121.3 33.33 0 0 108.46c0,17.31 0.69,29.02 2.01,35 2.09,8.75 6.51,15.55 13.32,20.52 6.75,4.97 15.09,7.49 25.05,7.49 9.98,0 19.31,-2.52 28.03,-7.62 8.71,-5.09 14.89,-12.08 18.55,-20.83 3.6,-8.75 5.43,-21.53 5.43,-38.21l0 -104.81 33.33 0 0 196.02 -29.92 0z"/>
   <path id="_27_26" class="fil0" d="M9107.78 2807.15l32.56 4.53c-3.6,22.35 -12.68,39.79 -27.39,52.44 -14.7,12.65 -32.81,18.94 -54.21,18.94 -26.82,0 -48.41,-8.75 -64.69,-26.24 -16.34,-17.5 -24.48,-42.56 -24.48,-75.16 0,-21.15 3.53,-39.6 10.53,-55.46 7.01,-15.8 17.67,-27.7 32.07,-35.56 14.33,-7.93 29.91,-11.9 46.82,-11.9 21.28,0 38.75,5.35 52.26,16.11 13.57,10.77 22.28,26.06 26.07,45.83l-32.19 4.91c-3.1,-13.16 -8.52,-23.04 -16.41,-29.71 -7.82,-6.61 -17.3,-9.95 -28.41,-9.95 -16.78,0 -30.42,5.98 -40.95,17.94 -10.48,12.03 -15.71,30.91 -15.71,56.84 0,26.31 5.04,45.39 15.15,57.28 10.15,11.9 23.35,17.88 39.56,17.88 13.13,0 24.05,-3.96 32.76,-11.96 8.77,-7.93 14.32,-20.2 16.66,-36.76z"/>
   <path id="_28_27" class="fil0" d="M9297.11 2854.36c-12.37,10.51 -24.29,17.88 -35.72,22.22 -11.42,4.34 -23.66,6.48 -36.8,6.48 -21.57,0 -38.18,-5.22 -49.79,-15.73 -11.61,-10.45 -17.41,-23.86 -17.41,-40.16 0,-9.57 2.2,-18.32 6.56,-26.25 4.42,-7.93 10.16,-14.23 17.23,-19.01 7.13,-4.78 15.08,-8.44 23.98,-10.89 6.56,-1.7 16.48,-3.34 29.66,-4.97 26.89,-3.15 46.77,-6.99 59.46,-11.4 0.12,-4.53 0.19,-7.42 0.19,-8.62 0,-13.47 -3.16,-22.98 -9.48,-28.52 -8.51,-7.49 -21.2,-11.2 -37.99,-11.2 -15.71,0 -27.33,2.77 -34.77,8.25 -7.51,5.47 -13,15.17 -16.6,29.14l-32.57 -4.53c2.97,-13.91 7.83,-25.18 14.65,-33.74 6.81,-8.56 16.66,-15.11 29.53,-19.77 12.81,-4.59 27.77,-6.92 44.69,-6.92 16.78,0 30.48,1.95 41.02,5.92 10.48,3.96 18.24,8.87 23.16,14.85 4.93,5.98 8.4,13.54 10.41,22.66 1.07,5.67 1.65,15.87 1.65,30.53l0 44.06c0,30.79 0.69,50.24 2.08,58.48 1.33,8.25 4.1,16.12 8.14,23.67l-34.84 0c-3.35,-6.99 -5.49,-15.17 -6.44,-24.55zm-2.64 -73.65c-12.12,4.91 -30.3,9.07 -54.54,12.47 -13.75,1.95 -23.48,4.15 -29.15,6.61 -5.69,2.45 -10.04,6.04 -13.13,10.7 -3.09,4.72 -4.67,9.94 -4.67,15.73 0,8.75 3.34,16.12 10.1,21.97 6.76,5.86 16.59,8.81 29.54,8.81 12.81,0 24.23,-2.77 34.27,-8.37 9.96,-5.54 17.35,-13.15 22.02,-22.78 3.6,-7.49 5.37,-18.51 5.37,-33.05l0.19 -12.09z"/>
   <path id="_29_28" class="fil1 str0" d="M3695.14 2608.49l35.97 0 0 156.17c0,27.19 -3.09,48.79 -9.21,64.77 -6.19,15.93 -17.29,28.96 -33.32,38.97 -16.09,10.01 -37.12,15.04 -63.25,15.04 -25.3,0 -46.07,-4.34 -62.16,-13.09 -16.15,-8.75 -27.64,-21.34 -34.52,-37.89 -6.88,-16.56 -10.35,-39.16 -10.35,-67.8l0 -156.17 35.98 0 0 156.11c0,23.48 2.2,40.85 6.55,51.93 4.37,11.14 11.81,19.77 22.47,25.75 10.61,6.04 23.61,9.06 38.95,9.06 26.25,0 44.99,-5.98 56.16,-17.88 11.17,-11.96 16.73,-34.87 16.73,-68.86l0 -156.11z"/>
   <path id="_30" class="fil1 str0" d="M3786.85 2878.91l0 -196.02 29.9 0 0 27.83c14.4,-21.34 35.23,-31.98 62.43,-31.98 11.86,0 22.72,2.14 32.62,6.36 9.91,4.21 17.36,9.82 22.28,16.68 4.93,6.86 8.39,15.04 10.35,24.48 1.2,6.17 1.83,16.94 1.83,32.3l0 120.35 -33.32 0 0 -119.1c0,-13.53 -1.26,-23.66 -3.85,-30.34 -2.59,-6.67 -7.19,-12.02 -13.76,-16.05 -6.56,-3.96 -14.33,-5.98 -23.16,-5.98 -14.14,0 -26.32,4.47 -36.61,13.47 -10.28,8.94 -15.4,26 -15.4,51.05l0 106.95 -33.31 0z"/>
   <path id="_31" class="fil1 str0" d="M3997.45 2646.26l0 -37.77 33.32 0 0 37.77 -33.32 0zm0 232.65l0 -196.02 33.32 0 0 196.02 -33.32 0z"/>
   <path id="_32" class="fil1 str0" d="M4208.43 2878.91l0 -24.86c-12.43,19.32 -30.74,29.01 -54.9,29.01 -15.65,0 -30.05,-4.28 -43.12,-12.9 -13.12,-8.56 -23.28,-20.58 -30.54,-35.94 -7.19,-15.42 -10.79,-33.11 -10.79,-53.13 0,-19.51 3.28,-37.2 9.78,-53.13 6.57,-15.86 16.34,-28.07 29.41,-36.51 13,-8.49 27.64,-12.71 43.74,-12.71 11.86,0 22.4,2.52 31.62,7.49 9.21,4.97 16.72,11.52 22.53,19.51l0 -97.25 33.32 0 0 270.42 -31.05 0zm-105.27 -97.76c0,25.06 5.3,43.75 15.97,56.15 10.6,12.4 23.16,18.57 37.62,18.57 14.57,0 26.94,-5.92 37.16,-17.75 10.17,-11.83 15.28,-29.9 15.28,-54.2 0,-26.69 -5.18,-46.33 -15.59,-58.85 -10.35,-12.53 -23.16,-18.76 -38.37,-18.76 -14.84,0 -27.2,5.98 -37.18,18 -9.9,12.03 -14.89,30.97 -14.89,56.84z"/>
   <path id="_33" class="fil1 str0" d="M4420.55 2854.36c-12.38,10.51 -24.3,17.88 -35.73,22.22 -11.42,4.34 -23.66,6.48 -36.79,6.48 -21.58,0 -38.18,-5.22 -49.79,-15.73 -11.61,-10.45 -17.42,-23.86 -17.42,-40.16 0,-9.57 2.21,-18.32 6.56,-26.25 4.42,-7.93 10.16,-14.23 17.23,-19.01 7.13,-4.78 15.08,-8.44 23.99,-10.89 6.55,-1.7 16.47,-3.34 29.65,-4.97 26.89,-3.15 46.78,-6.99 59.46,-11.4 0.12,-4.53 0.19,-7.42 0.19,-8.62 0,-13.47 -3.16,-22.98 -9.47,-28.52 -8.52,-7.49 -21.21,-11.2 -37.99,-11.2 -15.72,0 -27.34,2.77 -34.78,8.25 -7.51,5.47 -13,15.17 -16.6,29.14l-32.56 -4.53c2.96,-13.91 7.83,-25.18 14.64,-33.74 6.81,-8.56 16.66,-15.11 29.53,-19.77 12.82,-4.59 27.77,-6.92 44.69,-6.92 16.78,0 30.48,1.95 41.03,5.92 10.47,3.96 18.23,8.87 23.16,14.85 4.92,5.98 8.39,13.54 10.4,22.66 1.08,5.67 1.65,15.87 1.65,30.53l0 44.06c0,30.79 0.69,50.24 2.08,58.48 1.33,8.25 4.1,16.12 8.15,23.67l-34.85 0c-3.34,-6.99 -5.49,-15.17 -6.43,-24.55zm-2.65 -73.65c-12.12,4.91 -30.3,9.07 -54.53,12.47 -13.76,1.95 -23.48,4.15 -29.16,6.61 -5.68,2.45 -10.04,6.04 -13.12,10.7 -3.1,4.72 -4.68,9.94 -4.68,15.73 0,8.75 3.34,16.12 10.1,21.97 6.76,5.86 16.59,8.81 29.54,8.81 12.81,0 24.23,-2.77 34.27,-8.37 9.96,-5.54 17.35,-13.15 22.03,-22.78 3.59,-7.49 5.36,-18.51 5.36,-33.05l0.19 -12.09z"/>
   <path id="_34" class="fil1 str0" d="M4629.63 2878.91l0 -24.86c-12.43,19.32 -30.74,29.01 -54.9,29.01 -15.65,0 -30.05,-4.28 -43.11,-12.9 -13.13,-8.56 -23.28,-20.58 -30.54,-35.94 -7.2,-15.42 -10.8,-33.11 -10.8,-53.13 0,-19.51 3.29,-37.2 9.79,-53.13 6.56,-15.86 16.34,-28.07 29.4,-36.51 13.01,-8.49 27.64,-12.71 43.75,-12.71 11.86,0 22.4,2.52 31.61,7.49 9.21,4.97 16.72,11.52 22.53,19.51l0 -97.25 33.33 0 0 270.42 -31.06 0zm-105.27 -97.76c0,25.06 5.3,43.75 15.97,56.15 10.61,12.4 23.16,18.57 37.62,18.57 14.58,0 26.94,-5.92 37.17,-17.75 10.16,-11.83 15.28,-29.9 15.28,-54.2 0,-26.69 -5.19,-46.33 -15.59,-58.85 -10.36,-12.53 -23.16,-18.76 -38.37,-18.76 -14.84,0 -27.21,5.98 -37.18,18 -9.91,12.03 -14.9,30.97 -14.9,56.84z"/>
   <path id="_35" class="fil1 str0" d="M5015.88 2784.05l35.97 9.06c-7.51,29.4 -21.01,51.75 -40.52,67.17 -19.5,15.42 -43.36,23.16 -71.57,23.16 -29.16,0 -52.88,-5.91 -71.19,-17.81 -18.3,-11.84 -32.18,-29.02 -41.72,-51.49 -9.52,-22.54 -14.33,-46.65 -14.33,-72.45 0,-28.14 5.37,-52.69 16.17,-73.65 10.78,-20.96 26.12,-36.89 46.01,-47.78 19.87,-10.89 41.78,-16.3 65.63,-16.3 27.14,0 49.92,6.86 68.35,20.65 18.5,13.78 31.37,33.11 38.63,58.03l-35.22 8.31c-6.25,-19.64 -15.4,-33.99 -27.32,-42.93 -11.94,-9 -26.96,-13.47 -45.07,-13.47 -20.77,0 -38.18,4.97 -52.13,14.92 -13.95,9.94 -23.79,23.35 -29.42,40.1 -5.67,16.8 -8.51,34.11 -8.51,51.93 0,22.97 3.34,43.05 10.04,60.17 6.69,17.19 17.09,29.97 31.23,38.46 14.14,8.5 29.42,12.72 45.89,12.72 20.06,0 36.98,-5.79 50.86,-17.31 13.89,-11.58 23.29,-28.7 28.22,-51.49z"/>
   <path id="_36" class="fil1 str0" d="M5226.11 2815.46l34.45 4.53c-5.37,19.96 -15.39,35.5 -30.04,46.52 -14.64,11.02 -33.32,16.55 -56.11,16.55 -28.65,0 -51.37,-8.81 -68.16,-26.43 -16.78,-17.57 -25.18,-42.3 -25.18,-74.09 0,-32.86 8.46,-58.42 25.43,-76.54 16.98,-18.2 39.01,-27.26 66.09,-27.26 26.19,0 47.58,8.88 64.18,26.69 16.6,17.81 24.93,42.87 24.93,75.16 0,1.95 -0.07,4.91 -0.19,8.81l-146.35 0c1.25,21.46 7.32,37.96 18.29,49.35 10.92,11.39 24.62,17.12 40.96,17.12 12.18,0 22.6,-3.21 31.18,-9.63 8.65,-6.42 15.46,-16.68 20.52,-30.78zm-109.07 -53.25l109.44 0c-1.45,-16.5 -5.68,-28.83 -12.55,-37.08 -10.55,-12.78 -24.31,-19.2 -41.15,-19.2 -15.28,0 -28.1,5.1 -38.5,15.3 -10.36,10.2 -16.1,23.86 -17.24,40.98z"/>
   <path id="_37" class="fil1 str0" d="M5302.66 2878.91l0 -196.02 29.91 0 0 27.83c14.39,-21.34 35.22,-31.98 62.42,-31.98 11.86,0 22.72,2.14 32.63,6.36 9.9,4.21 17.35,9.82 22.27,16.68 4.93,6.86 8.4,15.04 10.35,24.48 1.2,6.17 1.84,16.94 1.84,32.3l0 120.35 -33.33 0 0 -119.1c0,-13.53 -1.25,-23.66 -3.85,-30.34 -2.59,-6.67 -7.19,-12.02 -13.76,-16.05 -6.55,-3.96 -14.32,-5.98 -23.16,-5.98 -14.14,0 -26.32,4.47 -36.6,13.47 -10.29,8.94 -15.4,26 -15.4,51.05l0 106.95 -33.32 0z"/>
   <path id="_38" class="fil1 str0" d="M5585.58 2849.26l4.55 29.34c-9.34,1.95 -17.73,2.95 -25.05,2.95 -12.07,0 -21.4,-1.88 -28.1,-5.72 -6.62,-3.84 -11.29,-8.82 -14,-15.05 -2.72,-6.23 -4.04,-19.32 -4.04,-39.28l0 -112.92 -24.62 0 0 -25.69 24.62 0 0 -48.46 33.32 -19.96 0 68.42 33.32 0 0 25.69 -33.32 0 0 114.81c0,9.51 0.56,15.61 1.77,18.32 1.13,2.71 3.02,4.85 5.68,6.48 2.65,1.58 6.44,2.39 11.36,2.39 3.66,0 8.51,-0.44 14.51,-1.32z"/>
   <path id="_39" class="fil1 str0" d="M5618.08 2878.91l0 -196.02 29.92 0 0 30.03c7.63,-13.91 14.7,-23.1 21.21,-27.51 6.5,-4.47 13.62,-6.67 21.38,-6.67 11.24,0 22.66,3.52 34.27,10.51l-11.86 30.66c-8.08,-4.54 -16.15,-6.8 -24.23,-6.8 -7.26,0 -13.76,2.2 -19.5,6.54 -5.75,4.35 -9.85,10.39 -12.31,18.13 -3.72,11.77 -5.55,24.68 -5.55,38.72l0 102.41 -33.33 0z"/>
   <path id="_40" class="fil1 str0" d="M5872.93 2854.36c-12.37,10.51 -24.29,17.88 -35.72,22.22 -11.42,4.34 -23.66,6.48 -36.8,6.48 -21.57,0 -38.18,-5.22 -49.79,-15.73 -11.61,-10.45 -17.41,-23.86 -17.41,-40.16 0,-9.57 2.2,-18.32 6.55,-26.25 4.43,-7.93 10.17,-14.23 17.24,-19.01 7.13,-4.78 15.08,-8.44 23.98,-10.89 6.56,-1.7 16.47,-3.34 29.66,-4.97 26.89,-3.15 46.77,-6.99 59.46,-11.4 0.12,-4.53 0.19,-7.42 0.19,-8.62 0,-13.47 -3.16,-22.98 -9.48,-28.52 -8.51,-7.49 -21.2,-11.2 -37.99,-11.2 -15.71,0 -27.33,2.77 -34.77,8.25 -7.51,5.47 -13,15.17 -16.6,29.14l-32.57 -4.53c2.97,-13.91 7.83,-25.18 14.65,-33.74 6.81,-8.56 16.65,-15.11 29.53,-19.77 12.81,-4.59 27.77,-6.92 44.68,-6.92 16.79,0 30.48,1.95 41.03,5.92 10.48,3.96 18.24,8.87 23.16,14.85 4.93,5.98 8.39,13.54 10.41,22.66 1.07,5.67 1.64,15.87 1.64,30.53l0 44.06c0,30.79 0.7,50.24 2.09,58.48 1.32,8.25 4.1,16.12 8.14,23.67l-34.84 0c-3.35,-6.99 -5.49,-15.17 -6.44,-24.55zm-2.64 -73.65c-12.13,4.91 -30.3,9.07 -54.54,12.47 -13.75,1.95 -23.48,4.15 -29.15,6.61 -5.69,2.45 -10.04,6.04 -13.13,10.7 -3.1,4.72 -4.67,9.94 -4.67,15.73 0,8.75 3.34,16.12 10.1,21.97 6.75,5.86 16.59,8.81 29.53,8.81 12.82,0 24.24,-2.77 34.27,-8.37 9.97,-5.54 17.36,-13.15 22.03,-22.78 3.6,-7.49 5.37,-18.51 5.37,-33.05l0.19 -12.09z"/>
   <polygon id="_41" class="fil1 str0" points="5954.41,2878.91 5954.41,2608.49 5987.73,2608.49 5987.73,2878.91 "/>
   <path id="_42" class="fil1 str0" d="M6271.36 2878.91l0 -24.86c-12.44,19.32 -30.74,29.01 -54.91,29.01 -15.65,0 -30.05,-4.28 -43.11,-12.9 -13.12,-8.56 -23.28,-20.58 -30.54,-35.94 -7.2,-15.42 -10.8,-33.11 -10.8,-53.13 0,-19.51 3.29,-37.2 9.79,-53.13 6.56,-15.86 16.34,-28.07 29.4,-36.51 13.01,-8.49 27.65,-12.71 43.75,-12.71 11.86,0 22.4,2.52 31.61,7.49 9.22,4.97 16.73,11.52 22.53,19.51l0 -97.25 33.33 0 0 270.42 -31.05 0zm-105.28 -97.76c0,25.06 5.3,43.75 15.97,56.15 10.61,12.4 23.16,18.57 37.62,18.57 14.58,0 26.94,-5.92 37.17,-17.75 10.17,-11.83 15.28,-29.9 15.28,-54.2 0,-26.69 -5.19,-46.33 -15.59,-58.85 -10.36,-12.53 -23.16,-18.76 -38.37,-18.76 -14.84,0 -27.2,5.98 -37.18,18 -9.91,12.03 -14.9,30.97 -14.9,56.84z"/>
   <path id="_43" class="fil1 str0" d="M6489.16 2815.46l34.45 4.53c-5.37,19.96 -15.39,35.5 -30.04,46.52 -14.64,11.02 -33.32,16.55 -56.11,16.55 -28.65,0 -51.37,-8.81 -68.16,-26.43 -16.78,-17.57 -25.18,-42.3 -25.18,-74.09 0,-32.86 8.46,-58.42 25.43,-76.54 16.98,-18.2 39.01,-27.26 66.09,-27.26 26.19,0 47.58,8.88 64.18,26.69 16.6,17.81 24.93,42.87 24.93,75.16 0,1.95 -0.07,4.91 -0.19,8.81l-146.35 0c1.25,21.46 7.32,37.96 18.29,49.35 10.92,11.39 24.62,17.12 40.96,17.12 12.18,0 22.6,-3.21 31.18,-9.63 8.65,-6.42 15.46,-16.68 20.52,-30.78zm-109.07 -53.25l109.44 0c-1.45,-16.5 -5.68,-28.83 -12.55,-37.08 -10.55,-12.78 -24.31,-19.2 -41.15,-19.2 -15.28,0 -28.1,5.1 -38.5,15.3 -10.36,10.2 -16.1,23.86 -17.24,40.98z"/>
   <polygon id="_44" class="fil1 str0" points="6564.95,2878.91 6564.95,2608.49 6598.27,2608.49 6598.27,2878.91 "/>
   <path id="_45" class="fil1 str0" d="M6836.46 2878.91l-104.77 -270.42 38.87 0 70.44 196.52c5.61,15.74 10.42,30.47 14.2,44.25 4.17,-14.79 9.02,-29.52 14.57,-44.25l73.1 -196.52 36.6 0 -105.72 270.42 -37.29 0z"/>
   <path id="_46" class="fil1 str0" d="M7107.9 2854.36c-12.37,10.51 -24.3,17.88 -35.73,22.22 -11.42,4.34 -23.66,6.48 -36.79,6.48 -21.58,0 -38.18,-5.22 -49.79,-15.73 -11.61,-10.45 -17.42,-23.86 -17.42,-40.16 0,-9.57 2.21,-18.32 6.56,-26.25 4.42,-7.93 10.17,-14.23 17.23,-19.01 7.13,-4.78 15.08,-8.44 23.99,-10.89 6.55,-1.7 16.47,-3.34 29.66,-4.97 26.89,-3.15 46.77,-6.99 59.45,-11.4 0.12,-4.53 0.19,-7.42 0.19,-8.62 0,-13.47 -3.16,-22.98 -9.47,-28.52 -8.52,-7.49 -21.21,-11.2 -37.99,-11.2 -15.71,0 -27.33,2.77 -34.77,8.25 -7.51,5.47 -13.01,15.17 -16.61,29.14l-32.56 -4.53c2.97,-13.91 7.83,-25.18 14.65,-33.74 6.8,-8.56 16.65,-15.11 29.52,-19.77 12.82,-4.59 27.78,-6.92 44.69,-6.92 16.78,0 30.48,1.95 41.03,5.92 10.48,3.96 18.24,8.87 23.16,14.85 4.92,5.98 8.39,13.54 10.41,22.66 1.07,5.67 1.64,15.87 1.64,30.53l0 44.06c0,30.79 0.69,50.24 2.09,58.48 1.32,8.25 4.1,16.12 8.14,23.67l-34.84 0c-3.35,-6.99 -5.5,-15.17 -6.44,-24.55zm-2.65 -73.65c-12.12,4.91 -30.3,9.07 -54.53,12.47 -13.76,1.95 -23.48,4.15 -29.16,6.61 -5.68,2.45 -10.03,6.04 -13.12,10.7 -3.1,4.72 -4.67,9.94 -4.67,15.73 0,8.75 3.33,16.12 10.09,21.97 6.76,5.86 16.6,8.81 29.54,8.81 12.81,0 24.23,-2.77 34.27,-8.37 9.97,-5.54 17.35,-13.15 22.03,-22.78 3.6,-7.49 5.36,-18.51 5.36,-33.05l0.19 -12.09z"/>
   <polygon id="_47" class="fil1 str0" points="7189.37,2878.91 7189.37,2608.49 7222.7,2608.49 7222.7,2878.91 "/>
   <polygon id="_48" class="fil1 str0" points="7273.5,2878.91 7273.5,2608.49 7306.83,2608.49 7306.83,2878.91 "/>
   <path id="_49" class="fil1 str0" d="M7492.45 2815.46l34.45 4.53c-5.37,19.96 -15.39,35.5 -30.04,46.52 -14.64,11.02 -33.32,16.55 -56.11,16.55 -28.65,0 -51.37,-8.81 -68.16,-26.43 -16.78,-17.57 -25.18,-42.3 -25.18,-74.09 0,-32.86 8.46,-58.42 25.43,-76.54 16.98,-18.2 39,-27.26 66.09,-27.26 26.18,0 47.58,8.88 64.17,26.69 16.61,17.81 24.94,42.87 24.94,75.16 0,1.95 -0.07,4.91 -0.19,8.81l-146.35 0c1.25,21.46 7.31,37.96 18.29,49.35 10.92,11.39 24.62,17.12 40.96,17.12 12.18,0 22.6,-3.21 31.18,-9.63 8.64,-6.42 15.46,-16.68 20.52,-30.78zm-109.07 -53.25l109.44 0c-1.45,-16.5 -5.68,-28.83 -12.56,-37.08 -10.54,-12.78 -24.3,-19.2 -41.14,-19.2 -15.28,0 -28.1,5.1 -38.5,15.3 -10.36,10.2 -16.1,23.86 -17.24,40.98z"/>
   <path id="_50" class="fil1 str0" d="M7801.05 2878.91l0 -24.86c-12.43,19.32 -30.74,29.01 -54.9,29.01 -15.65,0 -30.05,-4.28 -43.11,-12.9 -13.13,-8.56 -23.28,-20.58 -30.54,-35.94 -7.2,-15.42 -10.8,-33.11 -10.8,-53.13 0,-19.51 3.29,-37.2 9.79,-53.13 6.56,-15.86 16.34,-28.07 29.4,-36.51 13.01,-8.49 27.64,-12.71 43.75,-12.71 11.86,0 22.4,2.52 31.61,7.49 9.21,4.97 16.72,11.52 22.53,19.51l0 -97.25 33.33 0 0 270.42 -31.06 0zm-105.27 -97.76c0,25.06 5.3,43.75 15.97,56.15 10.61,12.4 23.16,18.57 37.62,18.57 14.58,0 26.94,-5.92 37.17,-17.75 10.16,-11.83 15.28,-29.9 15.28,-54.2 0,-26.69 -5.19,-46.33 -15.59,-58.85 -10.36,-12.53 -23.16,-18.76 -38.37,-18.76 -14.84,0 -27.21,5.98 -37.18,18 -9.91,12.03 -14.9,30.97 -14.9,56.84z"/>
   <path id="_51" class="fil1 str0" d="M8018.86 2815.46l34.45 4.53c-5.37,19.96 -15.39,35.5 -30.04,46.52 -14.64,11.02 -33.32,16.55 -56.11,16.55 -28.66,0 -51.37,-8.81 -68.16,-26.43 -16.78,-17.57 -25.18,-42.3 -25.18,-74.09 0,-32.86 8.46,-58.42 25.43,-76.54 16.98,-18.2 39,-27.26 66.09,-27.26 26.18,0 47.58,8.88 64.17,26.69 16.61,17.81 24.94,42.87 24.94,75.16 0,1.95 -0.07,4.91 -0.19,8.81l-146.36 0c1.26,21.46 7.32,37.96 18.3,49.35 10.92,11.39 24.62,17.12 40.96,17.12 12.18,0 22.6,-3.21 31.18,-9.63 8.64,-6.42 15.46,-16.68 20.52,-30.78zm-109.07 -53.25l109.44 0c-1.45,-16.5 -5.68,-28.83 -12.56,-37.08 -10.54,-12.78 -24.3,-19.2 -41.14,-19.2 -15.28,0 -28.1,5.1 -38.51,15.3 -10.35,10.2 -16.09,23.86 -17.23,40.98z"/>
   <polygon id="_52" class="fil1 str0" points="8094.64,2878.91 8094.64,2608.49 8127.97,2608.49 8127.97,2878.91 "/>
   <path id="_53" class="fil1 str0" d="M8482.03 2784.05l35.97 9.06c-7.51,29.4 -21.01,51.75 -40.51,67.17 -19.5,15.42 -43.37,23.16 -71.58,23.16 -29.16,0 -52.88,-5.91 -71.19,-17.81 -18.29,-11.84 -32.18,-29.02 -41.72,-51.49 -9.52,-22.54 -14.32,-46.65 -14.32,-72.45 0,-28.14 5.36,-52.69 16.16,-73.65 10.79,-20.96 26.13,-36.89 46.01,-47.78 19.87,-10.89 41.78,-16.3 65.63,-16.3 27.14,0 49.92,6.86 68.35,20.65 18.5,13.78 31.37,33.11 38.63,58.03l-35.22 8.31c-6.25,-19.64 -15.4,-33.99 -27.32,-42.93 -11.93,-9 -26.95,-13.47 -45.07,-13.47 -20.76,0 -38.18,4.97 -52.13,14.92 -13.94,9.94 -23.79,23.35 -29.41,40.1 -5.68,16.8 -8.52,34.11 -8.52,51.93 0,22.97 3.34,43.05 10.04,60.17 6.69,17.19 17.09,29.97 31.23,38.46 14.14,8.5 29.42,12.72 45.89,12.72 20.06,0 36.98,-5.79 50.87,-17.31 13.88,-11.58 23.29,-28.7 28.21,-51.49z"/>
   <path id="_54" class="fil1 str0" d="M8686.58 2854.36c-12.38,10.51 -24.3,17.88 -35.73,22.22 -11.42,4.34 -23.66,6.48 -36.8,6.48 -21.57,0 -38.18,-5.22 -49.79,-15.73 -11.61,-10.45 -17.41,-23.86 -17.41,-40.16 0,-9.57 2.2,-18.32 6.56,-26.25 4.42,-7.93 10.16,-14.23 17.23,-19.01 7.13,-4.78 15.08,-8.44 23.98,-10.89 6.56,-1.7 16.48,-3.34 29.66,-4.97 26.89,-3.15 46.77,-6.99 59.46,-11.4 0.12,-4.53 0.19,-7.42 0.19,-8.62 0,-13.47 -3.16,-22.98 -9.48,-28.52 -8.51,-7.49 -21.2,-11.2 -37.99,-11.2 -15.71,0 -27.33,2.77 -34.77,8.25 -7.51,5.47 -13,15.17 -16.6,29.14l-32.57 -4.53c2.97,-13.91 7.83,-25.18 14.65,-33.74 6.81,-8.56 16.66,-15.11 29.53,-19.77 12.81,-4.59 27.77,-6.92 44.69,-6.92 16.78,0 30.48,1.95 41.02,5.92 10.48,3.96 18.24,8.87 23.16,14.85 4.93,5.98 8.4,13.54 10.41,22.66 1.07,5.67 1.65,15.87 1.65,30.53l0 44.06c0,30.79 0.69,50.24 2.08,58.48 1.33,8.25 4.1,16.12 8.14,23.67l-34.84 0c-3.35,-6.99 -5.49,-15.17 -6.43,-24.55zm-2.65 -73.65c-12.12,4.91 -30.3,9.07 -54.53,12.47 -13.76,1.95 -23.49,4.15 -29.16,6.61 -5.69,2.45 -10.04,6.04 -13.13,10.7 -3.09,4.72 -4.67,9.94 -4.67,15.73 0,8.75 3.34,16.12 10.1,21.97 6.76,5.86 16.59,8.81 29.54,8.81 12.81,0 24.23,-2.77 34.27,-8.37 9.96,-5.54 17.35,-13.15 22.02,-22.78 3.6,-7.49 5.37,-18.51 5.37,-33.05l0.19 -12.09z"/>
   <path id="_55" class="fil1 str0" d="M8897.18 2878.91l0 -29.14c-15.27,22.22 -35.98,33.29 -62.17,33.29 -11.55,0 -22.34,-2.2 -32.37,-6.6 -10.04,-4.47 -17.49,-10.01 -22.35,-16.69 -4.85,-6.73 -8.26,-14.91 -10.22,-24.61 -1.33,-6.54 -2.02,-16.87 -2.02,-30.97l0 -121.3 33.33 0 0 108.46c0,17.31 0.69,29.02 2.01,35 2.09,8.75 6.51,15.55 13.32,20.52 6.75,4.97 15.09,7.49 25.05,7.49 9.98,0 19.31,-2.52 28.03,-7.62 8.71,-5.09 14.89,-12.08 18.55,-20.83 3.6,-8.75 5.43,-21.53 5.43,-38.21l0 -104.81 33.33 0 0 196.02 -29.92 0z"/>
   <path id="_56" class="fil1 str0" d="M9107.78 2807.15l32.56 4.53c-3.6,22.35 -12.68,39.79 -27.39,52.44 -14.7,12.65 -32.81,18.94 -54.21,18.94 -26.82,0 -48.41,-8.75 -64.69,-26.24 -16.34,-17.5 -24.48,-42.56 -24.48,-75.16 0,-21.15 3.53,-39.6 10.53,-55.46 7.01,-15.8 17.67,-27.7 32.07,-35.56 14.33,-7.93 29.91,-11.9 46.82,-11.9 21.28,0 38.75,5.35 52.26,16.11 13.57,10.77 22.28,26.06 26.07,45.83l-32.19 4.91c-3.1,-13.16 -8.52,-23.04 -16.41,-29.71 -7.82,-6.61 -17.3,-9.95 -28.41,-9.95 -16.78,0 -30.42,5.98 -40.95,17.94 -10.48,12.03 -15.71,30.91 -15.71,56.84 0,26.31 5.04,45.39 15.15,57.28 10.15,11.9 23.35,17.88 39.56,17.88 13.13,0 24.05,-3.96 32.76,-11.96 8.77,-7.93 14.32,-20.2 16.66,-36.76z"/>
   <path id="_57" class="fil1 str0" d="M9297.11 2854.36c-12.37,10.51 -24.29,17.88 -35.72,22.22 -11.42,4.34 -23.66,6.48 -36.8,6.48 -21.57,0 -38.18,-5.22 -49.79,-15.73 -11.61,-10.45 -17.41,-23.86 -17.41,-40.16 0,-9.57 2.2,-18.32 6.56,-26.25 4.42,-7.93 10.16,-14.23 17.23,-19.01 7.13,-4.78 15.08,-8.44 23.98,-10.89 6.56,-1.7 16.48,-3.34 29.66,-4.97 26.89,-3.15 46.77,-6.99 59.46,-11.4 0.12,-4.53 0.19,-7.42 0.19,-8.62 0,-13.47 -3.16,-22.98 -9.48,-28.52 -8.51,-7.49 -21.2,-11.2 -37.99,-11.2 -15.71,0 -27.33,2.77 -34.77,8.25 -7.51,5.47 -13,15.17 -16.6,29.14l-32.57 -4.53c2.97,-13.91 7.83,-25.18 14.65,-33.74 6.81,-8.56 16.66,-15.11 29.53,-19.77 12.81,-4.59 27.77,-6.92 44.69,-6.92 16.78,0 30.48,1.95 41.02,5.92 10.48,3.96 18.24,8.87 23.16,14.85 4.93,5.98 8.4,13.54 10.41,22.66 1.07,5.67 1.65,15.87 1.65,30.53l0 44.06c0,30.79 0.69,50.24 2.08,58.48 1.33,8.25 4.1,16.12 8.14,23.67l-34.84 0c-3.35,-6.99 -5.49,-15.17 -6.44,-24.55zm-2.64 -73.65c-12.12,4.91 -30.3,9.07 -54.54,12.47 -13.75,1.95 -23.48,4.15 -29.15,6.61 -5.69,2.45 -10.04,6.04 -13.13,10.7 -3.09,4.72 -4.67,9.94 -4.67,15.73 0,8.75 3.34,16.12 10.1,21.97 6.76,5.86 16.59,8.81 29.54,8.81 12.81,0 24.23,-2.77 34.27,-8.37 9.96,-5.54 17.35,-13.15 22.02,-22.78 3.6,-7.49 5.37,-18.51 5.37,-33.05l0.19 -12.09z"/>
   <path class="fil0" d="M9480.52 2142.67c19.7,0 38.92,5.03 57.71,15.14 18.75,10.06 33.4,24.52 43.86,43.27 10.46,18.8 15.71,38.39 15.71,58.73 0,20.17 -5.14,39.61 -15.5,58.19 -10.29,18.65 -24.74,33.1 -43.38,43.38 -18.63,10.32 -38.12,15.46 -58.4,15.46 -20.34,0 -39.83,-5.14 -58.46,-15.46 -18.63,-10.28 -33.13,-24.73 -43.49,-43.38 -10.35,-18.58 -15.55,-38.02 -15.55,-58.19 0,-20.34 5.25,-39.93 15.77,-58.73 10.56,-18.75 25.22,-33.21 43.96,-43.27 18.79,-10.11 38.02,-15.14 57.77,-15.14zm0 19.38c-16.52,0 -32.6,4.23 -48.21,12.65 -15.61,8.42 -27.82,20.5 -36.64,36.17 -8.81,15.68 -13.22,31.99 -13.22,48.94 0,16.89 4.35,33.04 13,48.5 8.67,15.47 20.77,27.54 36.33,36.17 15.55,8.64 31.8,12.98 48.74,12.98 16.88,0 33.13,-4.34 48.68,-12.98 15.57,-8.63 27.67,-20.7 36.27,-36.17 8.6,-15.46 12.9,-31.61 12.9,-48.5 0,-16.95 -4.41,-33.26 -13.16,-48.94 -8.76,-15.67 -20.98,-27.75 -36.64,-36.17 -15.67,-8.42 -31.7,-12.65 -48.05,-12.65zm-51.56 162.36l0 -125.82 43.44 0c14.86,0 25.58,1.16 32.22,3.49 6.7,2.33 11.95,6.36 15.93,12.18 3.93,5.77 5.9,11.92 5.9,18.43 0,9.16 -3.29,17.21 -9.93,23.99 -6.59,6.83 -15.35,10.65 -26.29,11.49 4.46,1.86 8.07,4.08 10.73,6.68 5.09,4.92 11.31,13.23 18.69,24.94l15.4 24.62 -24.74 0 -11.26 -19.8c-8.82,-15.63 -15.99,-25.42 -21.4,-29.34 -3.72,-2.86 -9.13,-4.29 -16.3,-4.24l-11.99 0 0 53.38 -20.4 0zm20.4 -70.85l24.73 0c11.84,0 19.91,-1.75 24.21,-5.25 4.3,-3.49 6.48,-8.15 6.48,-13.87 0,-3.71 -1.06,-7.04 -3.13,-9.96 -2.07,-2.96 -4.94,-5.13 -8.6,-6.56 -3.72,-1.43 -10.52,-2.17 -20.49,-2.17l-23.2 0 0 37.81z"/>
  </g>
 </g>
</svg>
